<?xml version="1.0" encoding="UTF-8" standalone="no"?>
<!-- Created with Inkscape (http://www.inkscape.org/) -->

<svg
   width="77.440506mm"
   height="54.062595mm"
   viewBox="0 0 77.440506 54.062595"
   version="1.1"
   id="svg5"
   inkscape:version="1.1.1 (3bf5ae0d25, 2021-09-20)"
   sodipodi:docname="drawing.svg"
   xmlns:inkscape="http://www.inkscape.org/namespaces/inkscape"
   xmlns:sodipodi="http://sodipodi.sourceforge.net/DTD/sodipodi-0.dtd"
   xmlns="http://www.w3.org/2000/svg"
   xmlns:svg="http://www.w3.org/2000/svg">
  <sodipodi:namedview
     id="namedview7"
     pagecolor="#ffffff"
     bordercolor="#666666"
     borderopacity="1.0"
     inkscape:pageshadow="2"
     inkscape:pageopacity="0.0"
     inkscape:pagecheckerboard="0"
     inkscape:document-units="mm"
     showgrid="false"
     inkscape:zoom="1.6005164"
     inkscape:cx="76.850198"
     inkscape:cy="53.420259"
     inkscape:window-width="1440"
     inkscape:window-height="900"
     inkscape:window-x="0"
     inkscape:window-y="0"
     inkscape:window-maximized="1"
     inkscape:current-layer="layer1" />
  <defs
     id="defs2">
    <clipPath
       clipPathUnits="userSpaceOnUse"
       id="clipPath25">
      <path
         d="M 0,0 H 767 V 433 H 0 Z"
         id="path23" />
    </clipPath>
    <clipPath
       clipPathUnits="userSpaceOnUse"
       id="clipPath35">
      <path
         d="M 0,4328.76 H 7668.83 V 0.285156 H 0 V 4328.76"
         clip-rule="evenodd"
         id="path33" />
    </clipPath>
    <clipPath
       clipPathUnits="userSpaceOnUse"
       id="clipPath1385">
      <path
         d="M 0,0 H 767 V 432 H 0 Z"
         id="path1383" />
    </clipPath>
    <clipPath
       clipPathUnits="userSpaceOnUse"
       id="clipPath1395">
      <path
         d="M 0,4319.87 H 7668.65 V 0.285156 H 0 V 4319.87"
         clip-rule="evenodd"
         id="path1393" />
    </clipPath>
    <clipPath
       clipPathUnits="userSpaceOnUse"
       id="clipPath2413">
      <path
         d="M 0,0 H 360 V 252 H 0 Z"
         id="path2411" />
    </clipPath>
    <clipPath
       clipPathUnits="userSpaceOnUse"
       id="clipPath2651">
      <path
         d="M 0,-9 H 13.5 V 0.900055 H 0 Z"
         id="path2649" />
    </clipPath>
  </defs>
  <g
     inkscape:label="Layer 1"
     inkscape:groupmode="layer"
     id="layer1"
     transform="translate(-55.547937,-104.65376)">
    <g
       id="g2405"
       transform="matrix(0.22141737,0,0,-0.22141737,54.84073,158.98338)">
      <g
         id="g2407">
        <g
           id="g2409"
           clip-path="url(#clipPath2413)">
          <g
             id="g2415"
             transform="scale(0.1)">
            <path
               d="m 440,256 h 31.5 m 2984,0 H 3424"
               style="fill:none;stroke:#000000;stroke-width:5;stroke-linecap:butt;stroke-linejoin:miter;stroke-miterlimit:3.8;stroke-dasharray:none;stroke-opacity:1"
               id="path2417" />
            <g
               id="g2419"
               transform="scale(10)">
              <text
                 transform="matrix(1,0,0,-1,23.6334,22.95)"
                 style="font-variant:normal;font-weight:normal;font-size:8px;font-family:Helvetica;-inkscape-font-specification:Helvetica;writing-mode:lr-tb;fill:#000000;fill-opacity:1;fill-rule:nonzero;stroke:none"
                 id="text2423"><tspan
                   x="0 4.448 6.6719999 11.12"
                   y="0"
                   sodipodi:role="line"
                   id="tspan2421">0.75</tspan></text>
            </g>
            <path
               d="m 440,689.5 h 31.5 m 2984,0 H 3424"
               style="fill:none;stroke:#000000;stroke-width:5;stroke-linecap:butt;stroke-linejoin:miter;stroke-miterlimit:3.8;stroke-dasharray:none;stroke-opacity:1"
               id="path2425" />
            <g
               id="g2427"
               transform="scale(10)">
              <text
                 transform="matrix(1,0,0,-1,28.081,66.3)"
                 style="font-variant:normal;font-weight:normal;font-size:8px;font-family:Helvetica;-inkscape-font-specification:Helvetica;writing-mode:lr-tb;fill:#000000;fill-opacity:1;fill-rule:nonzero;stroke:none"
                 id="text2431"><tspan
                   x="0 4.448 6.6719999"
                   y="0"
                   sodipodi:role="line"
                   id="tspan2429">0.8</tspan></text>
            </g>
            <path
               d="m 440,1123 h 31.5 m 2984,0 H 3424"
               style="fill:none;stroke:#000000;stroke-width:5;stroke-linecap:butt;stroke-linejoin:miter;stroke-miterlimit:3.8;stroke-dasharray:none;stroke-opacity:1"
               id="path2433" />
            <g
               id="g2435"
               transform="scale(10)">
              <text
                 transform="matrix(1,0,0,-1,23.6334,109.65)"
                 style="font-variant:normal;font-weight:normal;font-size:8px;font-family:Helvetica;-inkscape-font-specification:Helvetica;writing-mode:lr-tb;fill:#000000;fill-opacity:1;fill-rule:nonzero;stroke:none"
                 id="text2439"><tspan
                   x="0 4.448 6.6719999 11.12"
                   y="0"
                   sodipodi:role="line"
                   id="tspan2437">0.85</tspan></text>
            </g>
            <path
               d="m 440,1556.5 h 31.5 m 2984,0 H 3424"
               style="fill:none;stroke:#000000;stroke-width:5;stroke-linecap:butt;stroke-linejoin:miter;stroke-miterlimit:3.8;stroke-dasharray:none;stroke-opacity:1"
               id="path2441" />
            <g
               id="g2443"
               transform="scale(10)">
              <text
                 transform="matrix(1,0,0,-1,28.081,153)"
                 style="font-variant:normal;font-weight:normal;font-size:8px;font-family:Helvetica;-inkscape-font-specification:Helvetica;writing-mode:lr-tb;fill:#000000;fill-opacity:1;fill-rule:nonzero;stroke:none"
                 id="text2447"><tspan
                   x="0 4.448 6.6719999"
                   y="0"
                   sodipodi:role="line"
                   id="tspan2445">0.9</tspan></text>
            </g>
            <path
               d="m 440,1990 h 31.5 m 2984,0 H 3424"
               style="fill:none;stroke:#000000;stroke-width:5;stroke-linecap:butt;stroke-linejoin:miter;stroke-miterlimit:3.8;stroke-dasharray:none;stroke-opacity:1"
               id="path2449" />
            <g
               id="g2451"
               transform="scale(10)">
              <text
                 transform="matrix(1,0,0,-1,23.6334,196.35)"
                 style="font-variant:normal;font-weight:normal;font-size:8px;font-family:Helvetica;-inkscape-font-specification:Helvetica;writing-mode:lr-tb;fill:#000000;fill-opacity:1;fill-rule:nonzero;stroke:none"
                 id="text2455"><tspan
                   x="0 4.448 6.6719999 11.12"
                   y="0"
                   sodipodi:role="line"
                   id="tspan2453">0.95</tspan></text>
            </g>
            <path
               d="m 440,2423.5 h 31.5 m 2984,0 H 3424"
               style="fill:none;stroke:#000000;stroke-width:5;stroke-linecap:butt;stroke-linejoin:miter;stroke-miterlimit:3.8;stroke-dasharray:none;stroke-opacity:1"
               id="path2457" />
            <g
               id="g2459"
               transform="scale(10)">
              <text
                 transform="matrix(1,0,0,-1,34.7525,239.7)"
                 style="font-variant:normal;font-weight:normal;font-size:8px;font-family:Helvetica;-inkscape-font-specification:Helvetica;writing-mode:lr-tb;fill:#000000;fill-opacity:1;fill-rule:nonzero;stroke:none"
                 id="text2463"><tspan
                   x="0"
                   y="0"
                   id="tspan2461">1</tspan></text>
            </g>
            <path
               d="m 440,256 v 31.5 m 0,2136 V 2392"
               style="fill:none;stroke:#000000;stroke-width:5;stroke-linecap:butt;stroke-linejoin:miter;stroke-miterlimit:3.8;stroke-dasharray:none;stroke-opacity:1"
               id="path2465" />
            <g
               id="g2467"
               transform="scale(10)">
              <text
                 transform="matrix(1,0,0,-1,42.8885,14.95)"
                 style="font-variant:normal;font-weight:normal;font-size:8px;font-family:Helvetica;-inkscape-font-specification:Helvetica;writing-mode:lr-tb;fill:#000000;fill-opacity:1;fill-rule:nonzero;stroke:none"
                 id="text2471"><tspan
                   x="0"
                   y="0"
                   id="tspan2469">0</tspan></text>
            </g>
            <path
               d="m 1043,256 v 31.5 m 0,2136 V 2392"
               style="fill:none;stroke:#000000;stroke-width:5;stroke-linecap:butt;stroke-linejoin:miter;stroke-miterlimit:3.8;stroke-dasharray:none;stroke-opacity:1"
               id="path2473" />
            <g
               id="g2475"
               transform="scale(10)">
              <text
                 transform="matrix(1,0,0,-1,98.7408,14.95)"
                 style="font-variant:normal;font-weight:normal;font-size:8px;font-family:Helvetica;-inkscape-font-specification:Helvetica;writing-mode:lr-tb;fill:#000000;fill-opacity:1;fill-rule:nonzero;stroke:none"
                 id="text2479"><tspan
                   x="0 4.448 8.8959999"
                   y="0"
                   sodipodi:role="line"
                   id="tspan2477">100</tspan></text>
            </g>
            <path
               d="m 1646,256 v 31.5 m 0,2136 V 2392"
               style="fill:none;stroke:#000000;stroke-width:5;stroke-linecap:butt;stroke-linejoin:miter;stroke-miterlimit:3.8;stroke-dasharray:none;stroke-opacity:1"
               id="path2481" />
            <g
               id="g2483"
               transform="scale(10)">
              <text
                 transform="matrix(1,0,0,-1,159.041,14.95)"
                 style="font-variant:normal;font-weight:normal;font-size:8px;font-family:Helvetica;-inkscape-font-specification:Helvetica;writing-mode:lr-tb;fill:#000000;fill-opacity:1;fill-rule:nonzero;stroke:none"
                 id="text2487"><tspan
                   x="0 4.448 8.8959999"
                   y="0"
                   sodipodi:role="line"
                   id="tspan2485">200</tspan></text>
            </g>
            <path
               d="m 2249.5,256 v 31.5 m 0,2136 V 2392"
               style="fill:none;stroke:#000000;stroke-width:5;stroke-linecap:butt;stroke-linejoin:miter;stroke-miterlimit:3.8;stroke-dasharray:none;stroke-opacity:1"
               id="path2489" />
            <g
               id="g2491"
               transform="scale(10)">
              <text
                 transform="matrix(1,0,0,-1,219.391,14.95)"
                 style="font-variant:normal;font-weight:normal;font-size:8px;font-family:Helvetica;-inkscape-font-specification:Helvetica;writing-mode:lr-tb;fill:#000000;fill-opacity:1;fill-rule:nonzero;stroke:none"
                 id="text2495"><tspan
                   x="0 4.448 8.8959999"
                   y="0"
                   sodipodi:role="line"
                   id="tspan2493">300</tspan></text>
            </g>
            <path
               d="m 2852.5,256 v 31.5 m 0,2136 V 2392"
               style="fill:none;stroke:#000000;stroke-width:5;stroke-linecap:butt;stroke-linejoin:miter;stroke-miterlimit:3.8;stroke-dasharray:none;stroke-opacity:1"
               id="path2497" />
            <g
               id="g2499"
               transform="scale(10)">
              <text
                 transform="matrix(1,0,0,-1,279.691,14.95)"
                 style="font-variant:normal;font-weight:normal;font-size:8px;font-family:Helvetica;-inkscape-font-specification:Helvetica;writing-mode:lr-tb;fill:#000000;fill-opacity:1;fill-rule:nonzero;stroke:none"
                 id="text2503"><tspan
                   x="0 4.448 8.8959999"
                   y="0"
                   sodipodi:role="line"
                   id="tspan2501">400</tspan></text>
            </g>
            <path
               d="m 3455.5,256 v 31.5 m 0,2136 V 2392"
               style="fill:none;stroke:#000000;stroke-width:5;stroke-linecap:butt;stroke-linejoin:miter;stroke-miterlimit:3.8;stroke-dasharray:none;stroke-opacity:1"
               id="path2505" />
            <g
               id="g2507"
               transform="scale(10)">
              <text
                 transform="matrix(1,0,0,-1,339.991,14.95)"
                 style="font-variant:normal;font-weight:normal;font-size:8px;font-family:Helvetica;-inkscape-font-specification:Helvetica;writing-mode:lr-tb;fill:#000000;fill-opacity:1;fill-rule:nonzero;stroke:none"
                 id="text2511"><tspan
                   x="0 4.448 8.8959999"
                   y="0"
                   sodipodi:role="line"
                   id="tspan2509">500</tspan></text>
            </g>
            <path
               d="M 440,256 H 3455.5 V 2423.5 H 440 Z"
               style="fill:none;stroke:#000000;stroke-width:5;stroke-linecap:butt;stroke-linejoin:miter;stroke-miterlimit:3.8;stroke-dasharray:none;stroke-opacity:1"
               id="path2513" />
            <g
               id="g2515"
               transform="scale(10)">
              <text
                 transform="matrix(0,1,1,0,9.05,111.055)"
                 style="font-variant:normal;font-weight:normal;font-size:8px;font-family:Helvetica;-inkscape-font-specification:Helvetica;writing-mode:lr-tb;fill:#000000;fill-opacity:1;fill-rule:nonzero;stroke:none"
                 id="text2519"><tspan
                   x="0 5.336 9.7840004 12.448 14.672 19.120001 21.784 28.448 32.896 37.344002 41.344002"
                   y="0"
                   sodipodi:role="line"
                   id="tspan2517">Performance</tspan></text>
              <text
                 transform="matrix(1,0,0,-1,134.074,2.95)"
                 style="font-variant:normal;font-weight:normal;font-size:8px;font-family:Helvetica;-inkscape-font-specification:Helvetica;writing-mode:lr-tb;fill:#000000;fill-opacity:1;fill-rule:nonzero;stroke:none"
                 id="text2525"><tspan
                   x="0 6.664 8.4399996 12.888 15.552 20 22.224001 24 28.448 32.896 35.119999 37.344002 40.007999 44.456001 48.903999 53.352001 57.799999 62.248001 66.248001 70.248001 72.472 75.136002 81.800003 83.575996 85.351997 87.127998 88.903999 92.903999 97.351997 101.352 105.8 110.248 114.696 118.696"
                   y="0"
                   sodipodi:role="line"
                   id="tspan2521">Migration frequency (milliseconds)</tspan><tspan
                   x="96.923401 102.6994 107.1474 113.8114 118.2594 120.0354 121.8114 126.2594 128.4834 130.2594 134.7074 139.1554 141.37939 145.82739 149.82739 154.27541 156.93941 161.38741 165.8354 170.2834"
                   y="-43.150002"
                   sodipodi:role="line"
                   id="tspan2523">Compilation overhead</tspan></text>
            </g>
            <path
               d="m 3136,487.5 h 223.5 M 501,2224.5 h 2954.5"
               style="fill:none;stroke:#00ffff;stroke-width:20;stroke-linecap:butt;stroke-linejoin:miter;stroke-miterlimit:3.8;stroke-dasharray:30, 10, 5, 10;stroke-dashoffset:0;stroke-opacity:1"
               id="path2527" />
            <g
               id="g2529"
               transform="scale(10)">
              <text
                 transform="matrix(1,0,0,-1,147.187,38.1)"
                 style="font-variant:normal;font-weight:normal;font-size:8px;font-family:Helvetica;-inkscape-font-specification:Helvetica;writing-mode:lr-tb;fill:#000000;fill-opacity:1;fill-rule:nonzero;stroke:none"
                 id="text2533"><tspan
                   x="0 5.776 10.224 16.888 21.336 23.112 24.888 29.336 31.559999 33.335999 37.784 42.231998 44.456001 49.127998 51.352001 55.352001 57.576 62.023998 64.248001 68.695999 70.919998 73.143997 75.807999 80.255997 84.704002 88.704002 90.928001 95.375999 98.040001 104.704 109.152 111.376 113.152 117.6 122.048 124.272 128.72 132.72 137.168 139.832 144.28 148.728 153.17599 157.62399"
                   y="0"
                   sodipodi:role="line"
                   id="tspan2531">Compilation + state transformation overheads</tspan></text>
            </g>
            <path
               d="m 3136,407.5 h 223.5 m -2858.5,1572 30.5,80 30.5,40.5 30.5,24.5 30.5,16.5 30,12 30.5,9 30.5,6.5 30.5,6 30.5,4.5 30.5,3.5 30.5,3.5 30.5,2.5 30.5,2.5 30.5,2 30.5,2 30.5,1.5 30,1.5 30.5,1.5 30.5,1 30.5,1 30.5,1 30.5,1 30.5,1 30.5,0.5 30.5,1 30.5,0.5 30.5,0.5 30.5,0.5 30,0.5 30.5,0.5 30.5,0.5 30.5,0.5 30.5,0.5 30.5,0.5 30.5,0.5 h 30.5 l 30.5,0.5 30.5,0.5 h 30.5 l 30.5,0.5 h 30.5 l 30,0.5 h 30.5 l 30.5,0.5 h 30.5 l 30.5,0.5 h 30.5 l 30.5,0.5 h 61 l 30.5,0.5 h 30.5 l 30.5,0.5 h 91 l 30.5,0.5 h 61 l 30.5,0.5 h 91.5 l 30.5,0.5 H 2572 l 30.5,0.5 h 122 l 30.5,0.5 h 152 l 30.5,0.5 h 183 l 30.5,0.5 h 243.5 l 30.5,0.5 h 30.5"
               style="fill:none;stroke:#ff0000;stroke-width:20;stroke-linecap:butt;stroke-linejoin:miter;stroke-miterlimit:3.8;stroke-dasharray:none;stroke-opacity:1"
               id="path2535" />
            <g
               id="g2537"
               transform="scale(10)">
              <text
                 transform="matrix(1,0,0,-1,77.1602,30.1)"
                 style="font-variant:normal;font-weight:normal;font-size:8px;font-family:Helvetica;-inkscape-font-specification:Helvetica;writing-mode:lr-tb;fill:#000000;fill-opacity:1;fill-rule:nonzero;stroke:none"
                 id="text2541"><tspan
                   x="0 5.776 10.224 16.888 21.336 23.112 24.888 29.336 31.559999 33.335999 37.784 42.231998 44.456001 49.127998 51.352001 55.352001 57.576 62.023998 64.248001 68.695999 70.919998 73.143997 75.807999 80.255997 84.704002 88.704002 90.928001 95.375999 98.040001 104.704 109.152 111.376 113.152 117.6 122.048 124.272 128.944 131.168 135.616 137.392 141.84 146.28799 148.952 152.952 155.17599 157.39999 160.064 164.51199 168.96001 172.96001 174.73599 179.18401 181.408 183.18401 187.632 192.08 194.304 198.752 202.752 207.2 209.864 214.312 218.75999 223.20799 227.65601"
                   y="0"
                   sodipodi:role="line"
                   id="tspan2539">Compilation + state transformation + binary translation overheads</tspan></text>
            </g>
            <path
               d="m 3136,327.5 h 223.5 M 501,558 l 30.5,477.5 30.5,265 30.5,168 30.5,116.5 30,85.5 30.5,65 30.5,51.5 30.5,42 30.5,34.5 30.5,28.5 30.5,25 30.5,21 30.5,18.5 30.5,16.5 30.5,14 30.5,13 30,11.5 30.5,10.5 30.5,9.5 30.5,8.5 30.5,8 30.5,7 30.5,6.5 30.5,6.5 30.5,5.5 30.5,5.5 30.5,4.5 30.5,5 30,4 30.5,4 30.5,4 30.5,3.5 30.5,3.5 30.5,3 30.5,3.5 30.5,2.5 30.5,3 30.5,2.5 30.5,2.5 30.5,2.5 30.5,2 30,2 30.5,2 30.5,2 30.5,2 30.5,2 30.5,1.5 30.5,2 30.5,1.5 30.5,1.5 30.5,1.5 30.5,1.5 30.5,1 30,1.5 30.5,1.5 30.5,1 30.5,1 30.5,1.5 30.5,1 30.5,1 30.5,1 30.5,1 30.5,1 30.5,1 30.5,1 30.5,1 30,0.5 30.5,1 30.5,1 30.5,0.5 30.5,1 30.5,0.5 30.5,1 30.5,0.5 30.5,1 30.5,0.5 30.5,0.5 30.5,1 30,0.5 30.5,0.5 30.5,0.5 30.5,1 30.5,0.5 30.5,0.5 30.5,0.5 30.5,0.5 30.5,0.5 30.5,0.5 30.5,0.5 30.5,0.5 30,0.5 30.5,0.5 30.5,0.5 30.5,0.5 30.5,0.5 30.5,0.5 h 30.5"
               style="fill:none;stroke:#00ff00;stroke-width:20;stroke-linecap:butt;stroke-linejoin:miter;stroke-miterlimit:3.8;stroke-dasharray:20, 10;stroke-dashoffset:0;stroke-opacity:1"
               id="path2543" />
            <path
               d="M 440,256 H 3455.5 V 2423.5 H 440 Z"
               style="fill:none;stroke:#000000;stroke-width:5;stroke-linecap:butt;stroke-linejoin:miter;stroke-miterlimit:3.8;stroke-dasharray:none;stroke-opacity:1"
               id="path2545" />
          </g>
        </g>
      </g>
    </g>
  </g>
</svg>
