<?xml version="1.0" encoding="UTF-8" standalone="no"?>
<!-- Created with Inkscape (http://www.inkscape.org/) -->
<svg xmlns:inkscape="http://www.inkscape.org/namespaces/inkscape" xmlns:sodipodi="http://sodipodi.sourceforge.net/DTD/sodipodi-0.dtd" xmlns="http://www.w3.org/2000/svg" xmlns:svg="http://www.w3.org/2000/svg" id="svg5" version="1.1" viewBox="0 0 74.899551 52.651947" height="52.651947mm" width="74.899551mm" inkscape:version="1.1.1 (3bf5ae0d25, 2021-09-20)" sodipodi:docname="drawing.svg">
  <sodipodi:namedview id="namedview7" pagecolor="#ffffff" bordercolor="#666666" borderopacity="1.0" inkscape:pageshadow="2" inkscape:pageopacity="0.0" inkscape:pagecheckerboard="0" inkscape:document-units="mm" showgrid="false" inkscape:zoom="2.1073615" inkscape:cx="152.32318" inkscape:cy="87.550239" inkscape:window-width="1440" inkscape:window-height="900" inkscape:window-x="0" inkscape:window-y="0" inkscape:window-maximized="1" inkscape:current-layer="layer1"/>
  <defs id="defs2">
    <clipPath clipPathUnits="userSpaceOnUse" id="clipPath25">
      <path d="M 0,0 H 360 V 252 H 0 Z" id="path23"/>
    </clipPath>
    <clipPath clipPathUnits="userSpaceOnUse" id="clipPath423">
      <path d="M 0,0 H 767 V 197 H 0 Z" id="path421"/>
    </clipPath>
    <clipPath clipPathUnits="userSpaceOnUse" id="clipPath433">
      <path d="M 0,1969.82 H 7669.11 V 0.851562 H 0 V 1969.82" clip-rule="evenodd" id="path431"/>
    </clipPath>
    <clipPath clipPathUnits="userSpaceOnUse" id="clipPath819">
      <path d="m 5549.48,308.426 h 70.62 v -0.285 h -70.62 v 0.285" clip-rule="evenodd" id="path817"/>
    </clipPath>
    <clipPath clipPathUnits="userSpaceOnUse" id="clipPath833">
      <path d="M 0,1969.82 H 7669.11 V 0.851562 H 0 V 1969.82" clip-rule="evenodd" id="path831"/>
    </clipPath>
    <clipPath clipPathUnits="userSpaceOnUse" id="clipPath845">
      <path d="m 5055.74,309.277 h 70.33 v -1.136 h -70.33 v 1.136" clip-rule="evenodd" id="path843"/>
    </clipPath>
    <clipPath clipPathUnits="userSpaceOnUse" id="clipPath859">
      <path d="M 0,1969.82 H 7669.11 V 0.851562 H 0 V 1969.82" clip-rule="evenodd" id="path857"/>
    </clipPath>
    <clipPath clipPathUnits="userSpaceOnUse" id="clipPath871">
      <path d="m 4561.71,308.426 h 70.61 v -0.285 h -70.61 v 0.285" clip-rule="evenodd" id="path869"/>
    </clipPath>
    <clipPath clipPathUnits="userSpaceOnUse" id="clipPath885">
      <path d="M 0,1969.82 H 7669.11 V 0.851562 H 0 V 1969.82" clip-rule="evenodd" id="path883"/>
    </clipPath>
    <clipPath clipPathUnits="userSpaceOnUse" id="clipPath897">
      <path d="m 4067.96,310.41 h 70.61 v -2.269 h -70.61 v 2.269" clip-rule="evenodd" id="path895"/>
    </clipPath>
    <clipPath clipPathUnits="userSpaceOnUse" id="clipPath911">
      <path d="M 0,1969.82 H 7669.11 V 0.851562 H 0 V 1969.82" clip-rule="evenodd" id="path909"/>
    </clipPath>
    <clipPath clipPathUnits="userSpaceOnUse" id="clipPath923">
      <path d="m 3574.21,308.426 h 70.33 v -0.285 h -70.33 v 0.285" clip-rule="evenodd" id="path921"/>
    </clipPath>
    <clipPath clipPathUnits="userSpaceOnUse" id="clipPath937">
      <path d="M 0,1969.82 H 7669.11 V 0.851562 H 0 V 1969.82" clip-rule="evenodd" id="path935"/>
    </clipPath>
    <clipPath clipPathUnits="userSpaceOnUse" id="clipPath949">
      <path d="m 3080.18,312.398 h 70.62 v -4.257 h -70.62 v 4.257" clip-rule="evenodd" id="path947"/>
    </clipPath>
    <clipPath clipPathUnits="userSpaceOnUse" id="clipPath963">
      <path d="M 0,1969.82 H 7669.11 V 0.851562 H 0 V 1969.82" clip-rule="evenodd" id="path961"/>
    </clipPath>
    <clipPath clipPathUnits="userSpaceOnUse" id="clipPath975">
      <path d="m 2586.43,310.41 h 70.62 v -2.269 h -70.62 v 2.269" clip-rule="evenodd" id="path973"/>
    </clipPath>
    <clipPath clipPathUnits="userSpaceOnUse" id="clipPath989">
      <path d="M 0,1969.82 H 7669.11 V 0.851562 H 0 V 1969.82" clip-rule="evenodd" id="path987"/>
    </clipPath>
    <clipPath clipPathUnits="userSpaceOnUse" id="clipPath1001">
      <path d="m 2092.68,398.168 h 70.62 v -90.027 h -70.62 v 90.027" clip-rule="evenodd" id="path999"/>
    </clipPath>
    <clipPath clipPathUnits="userSpaceOnUse" id="clipPath1023">
      <path d="M 0,1969.82 H 7669.11 V 0.851562 H 0 V 1969.82" clip-rule="evenodd" id="path1021"/>
    </clipPath>
    <clipPath clipPathUnits="userSpaceOnUse" id="clipPath1035">
      <path d="m 1598.65,308.426 h 70.62 v -0.285 h -70.62 v 0.285" clip-rule="evenodd" id="path1033"/>
    </clipPath>
    <clipPath clipPathUnits="userSpaceOnUse" id="clipPath1049">
      <path d="M 0,1969.82 H 7669.11 V 0.851562 H 0 V 1969.82" clip-rule="evenodd" id="path1047"/>
    </clipPath>
    <clipPath clipPathUnits="userSpaceOnUse" id="clipPath1061">
      <path d="m 1104.91,377.719 h 70.61 v -69.578 h -70.61 v 69.578" clip-rule="evenodd" id="path1059"/>
    </clipPath>
    <clipPath clipPathUnits="userSpaceOnUse" id="clipPath1083">
      <path d="M 0,1969.82 H 7669.11 V 0.851562 H 0 V 1969.82" clip-rule="evenodd" id="path1081"/>
    </clipPath>
    <clipPath clipPathUnits="userSpaceOnUse" id="clipPath1095">
      <path d="m 5620.1,308.426 h 70.33 v -0.285 h -70.33 v 0.285" clip-rule="evenodd" id="path1093"/>
    </clipPath>
    <clipPath clipPathUnits="userSpaceOnUse" id="clipPath1109">
      <path d="M 0,1969.82 H 7669.11 V 0.851562 H 0 V 1969.82" clip-rule="evenodd" id="path1107"/>
    </clipPath>
    <clipPath clipPathUnits="userSpaceOnUse" id="clipPath1121">
      <path d="m 5126.07,308.992 h 70.62 v -0.851 h -70.62 v 0.851" clip-rule="evenodd" id="path1119"/>
    </clipPath>
    <clipPath clipPathUnits="userSpaceOnUse" id="clipPath1135">
      <path d="M 0,1969.82 H 7669.11 V 0.851562 H 0 V 1969.82" clip-rule="evenodd" id="path1133"/>
    </clipPath>
    <clipPath clipPathUnits="userSpaceOnUse" id="clipPath1147">
      <path d="m 4632.32,308.426 h 70.62 v -0.285 h -70.62 v 0.285" clip-rule="evenodd" id="path1145"/>
    </clipPath>
    <clipPath clipPathUnits="userSpaceOnUse" id="clipPath1161">
      <path d="M 0,1969.82 H 7669.11 V 0.851562 H 0 V 1969.82" clip-rule="evenodd" id="path1159"/>
    </clipPath>
    <clipPath clipPathUnits="userSpaceOnUse" id="clipPath1173">
      <path d="m 4138.57,309.559 h 70.34 v -1.418 h -70.34 v 1.418" clip-rule="evenodd" id="path1171"/>
    </clipPath>
    <clipPath clipPathUnits="userSpaceOnUse" id="clipPath1187">
      <path d="M 0,1969.82 H 7669.11 V 0.851562 H 0 V 1969.82" clip-rule="evenodd" id="path1185"/>
    </clipPath>
    <clipPath clipPathUnits="userSpaceOnUse" id="clipPath1199">
      <path d="m 3644.54,308.426 h 70.62 v -0.285 h -70.62 v 0.285" clip-rule="evenodd" id="path1197"/>
    </clipPath>
    <clipPath clipPathUnits="userSpaceOnUse" id="clipPath1213">
      <path d="M 0,1969.82 H 7669.11 V 0.851562 H 0 V 1969.82" clip-rule="evenodd" id="path1211"/>
    </clipPath>
    <clipPath clipPathUnits="userSpaceOnUse" id="clipPath1225">
      <path d="m 3150.8,312.684 h 70.61 v -4.543 h -70.61 v 4.543" clip-rule="evenodd" id="path1223"/>
    </clipPath>
    <clipPath clipPathUnits="userSpaceOnUse" id="clipPath1239">
      <path d="M 0,1969.82 H 7669.11 V 0.851562 H 0 V 1969.82" clip-rule="evenodd" id="path1237"/>
    </clipPath>
    <clipPath clipPathUnits="userSpaceOnUse" id="clipPath1251">
      <path d="m 2657.05,310.98 h 70.61 v -2.839 h -70.61 v 2.839" clip-rule="evenodd" id="path1249"/>
    </clipPath>
    <clipPath clipPathUnits="userSpaceOnUse" id="clipPath1265">
      <path d="M 0,1969.82 H 7669.11 V 0.851562 H 0 V 1969.82" clip-rule="evenodd" id="path1263"/>
    </clipPath>
    <clipPath clipPathUnits="userSpaceOnUse" id="clipPath1277">
      <path d="m 2163.3,380.559 h 70.33 v -72.418 h -70.33 v 72.418" clip-rule="evenodd" id="path1275"/>
    </clipPath>
    <clipPath clipPathUnits="userSpaceOnUse" id="clipPath1299">
      <path d="M 0,1969.82 H 7669.11 V 0.851562 H 0 V 1969.82" clip-rule="evenodd" id="path1297"/>
    </clipPath>
    <clipPath clipPathUnits="userSpaceOnUse" id="clipPath1311">
      <path d="m 1669.27,308.426 h 70.62 v -0.285 h -70.62 v 0.285" clip-rule="evenodd" id="path1309"/>
    </clipPath>
    <clipPath clipPathUnits="userSpaceOnUse" id="clipPath1325">
      <path d="M 0,1969.82 H 7669.11 V 0.851562 H 0 V 1969.82" clip-rule="evenodd" id="path1323"/>
    </clipPath>
    <clipPath clipPathUnits="userSpaceOnUse" id="clipPath1337">
      <path d="m 1175.52,318.082 h 70.62 v -9.941 h -70.62 v 9.941" clip-rule="evenodd" id="path1335"/>
    </clipPath>
    <clipPath clipPathUnits="userSpaceOnUse" id="clipPath1351">
      <path d="M 0,1969.82 H 7669.11 V 0.851562 H 0 V 1969.82" clip-rule="evenodd" id="path1349"/>
    </clipPath>
    <clipPath clipPathUnits="userSpaceOnUse" id="clipPath1363">
      <path d="m 5690.43,308.426 h 70.62 v -0.285 h -70.62 v 0.285" clip-rule="evenodd" id="path1361"/>
    </clipPath>
    <clipPath clipPathUnits="userSpaceOnUse" id="clipPath1379">
      <path d="M 0,1969.82 H 7669.11 V 0.851562 H 0 V 1969.82" clip-rule="evenodd" id="path1377"/>
    </clipPath>
    <clipPath clipPathUnits="userSpaceOnUse" id="clipPath1391">
      <path d="m 5196.69,309.277 h 70.61 v -1.136 h -70.61 v 1.136" clip-rule="evenodd" id="path1389"/>
    </clipPath>
    <clipPath clipPathUnits="userSpaceOnUse" id="clipPath1407">
      <path d="M 0,1969.82 H 7669.11 V 0.851562 H 0 V 1969.82" clip-rule="evenodd" id="path1405"/>
    </clipPath>
    <clipPath clipPathUnits="userSpaceOnUse" id="clipPath1419">
      <path d="m 4702.94,308.426 h 70.61 v -0.285 h -70.61 v 0.285" clip-rule="evenodd" id="path1417"/>
    </clipPath>
    <clipPath clipPathUnits="userSpaceOnUse" id="clipPath1435">
      <path d="M 0,1969.82 H 7669.11 V 0.851562 H 0 V 1969.82" clip-rule="evenodd" id="path1433"/>
    </clipPath>
    <clipPath clipPathUnits="userSpaceOnUse" id="clipPath1447">
      <path d="m 4208.91,310.41 h 70.61 v -2.269 h -70.61 v 2.269" clip-rule="evenodd" id="path1445"/>
    </clipPath>
    <clipPath clipPathUnits="userSpaceOnUse" id="clipPath1463">
      <path d="M 0,1969.82 H 7669.11 V 0.851562 H 0 V 1969.82" clip-rule="evenodd" id="path1461"/>
    </clipPath>
    <clipPath clipPathUnits="userSpaceOnUse" id="clipPath1475">
      <path d="m 3715.16,308.426 h 70.62 v -0.285 h -70.62 v 0.285" clip-rule="evenodd" id="path1473"/>
    </clipPath>
    <clipPath clipPathUnits="userSpaceOnUse" id="clipPath1491">
      <path d="M 0,1969.82 H 7669.11 V 0.851562 H 0 V 1969.82" clip-rule="evenodd" id="path1489"/>
    </clipPath>
    <clipPath clipPathUnits="userSpaceOnUse" id="clipPath1503">
      <path d="m 3221.41,312.398 h 70.62 v -4.257 h -70.62 v 4.257" clip-rule="evenodd" id="path1501"/>
    </clipPath>
    <clipPath clipPathUnits="userSpaceOnUse" id="clipPath1519">
      <path d="M 0,1969.82 H 7669.11 V 0.851562 H 0 V 1969.82" clip-rule="evenodd" id="path1517"/>
    </clipPath>
    <clipPath clipPathUnits="userSpaceOnUse" id="clipPath1531">
      <path d="M 2727.66,310.41 H 2798 v -2.269 h -70.34 v 2.269" clip-rule="evenodd" id="path1529"/>
    </clipPath>
    <clipPath clipPathUnits="userSpaceOnUse" id="clipPath1547">
      <path d="M 0,1969.82 H 7669.11 V 0.851562 H 0 V 1969.82" clip-rule="evenodd" id="path1545"/>
    </clipPath>
    <clipPath clipPathUnits="userSpaceOnUse" id="clipPath1559">
      <path d="m 2233.63,398.168 h 70.62 v -90.027 h -70.62 v 90.027" clip-rule="evenodd" id="path1557"/>
    </clipPath>
    <clipPath clipPathUnits="userSpaceOnUse" id="clipPath1575">
      <path d="M 0,1969.82 H 7669.11 V 0.851562 H 0 V 1969.82" clip-rule="evenodd" id="path1573"/>
    </clipPath>
    <clipPath clipPathUnits="userSpaceOnUse" id="clipPath1587">
      <path d="m 1739.89,308.426 h 70.61 v -0.285 h -70.61 v 0.285" clip-rule="evenodd" id="path1585"/>
    </clipPath>
    <clipPath clipPathUnits="userSpaceOnUse" id="clipPath1603">
      <path d="M 0,1969.82 H 7669.11 V 0.851562 H 0 V 1969.82" clip-rule="evenodd" id="path1601"/>
    </clipPath>
    <clipPath clipPathUnits="userSpaceOnUse" id="clipPath1615">
      <path d="m 1246.14,323.762 h 70.33 v -15.621 h -70.33 v 15.621" clip-rule="evenodd" id="path1613"/>
    </clipPath>
    <clipPath clipPathUnits="userSpaceOnUse" id="clipPath1631">
      <path d="M 0,1969.82 H 7669.11 V 0.851562 H 0 V 1969.82" clip-rule="evenodd" id="path1629"/>
    </clipPath>
    <clipPath clipPathUnits="userSpaceOnUse" id="clipPath1787">
      <path d="m 6017.99,1097.95 h 90.19 v -90.03 h -90.19 v 90.03" clip-rule="evenodd" id="path1785"/>
    </clipPath>
    <clipPath clipPathUnits="userSpaceOnUse" id="clipPath1813">
      <path d="M 0,1969.82 H 7669.11 V 0.851562 H 0 V 1969.82" clip-rule="evenodd" id="path1811"/>
    </clipPath>
    <clipPath clipPathUnits="userSpaceOnUse" id="clipPath1825">
      <path d="m 6017.99,818.203 h 90.19 v -90.027 h -90.19 v 90.027" clip-rule="evenodd" id="path1823"/>
    </clipPath>
    <clipPath clipPathUnits="userSpaceOnUse" id="clipPath1851">
      <path d="M 0,1969.82 H 7669.11 V 0.851562 H 0 V 1969.82" clip-rule="evenodd" id="path1849"/>
    </clipPath>
    <clipPath clipPathUnits="userSpaceOnUse" id="clipPath1863">
      <path d="m 6017.99,538.465 h 90.19 v -90.027 h -90.19 v 90.027" clip-rule="evenodd" id="path1861"/>
    </clipPath>
    <clipPath clipPathUnits="userSpaceOnUse" id="clipPath1883">
      <path d="M 0,1969.82 H 7669.11 V 0.851562 H 0 V 1969.82" clip-rule="evenodd" id="path1881"/>
    </clipPath>
    <clipPath clipPathUnits="userSpaceOnUse" id="clipPath2267">
      <path d="M 0,-9 H 13.5 V 0.900055 H 0 Z" id="path2265"/>
    </clipPath>
  </defs>
  <g inkscape:label="Layer 1" inkscape:groupmode="layer" id="layer1" transform="translate(38.576585,-26.688665)">
    <g id="g17" transform="matrix(0.21650272,0,0,-0.21650272,-39.358593,79.630292)">
      <g id="g19">
        <g id="g21" clip-path="url(#clipPath25)">
          <g id="g27" transform="scale(0.1)">
            <path d="m 495,288 h 31.5 m 2911,0 H 3406" style="fill:none;stroke:#000000;stroke-width:5;stroke-linecap:butt;stroke-linejoin:miter;stroke-miterlimit:3.8;stroke-dasharray:none;stroke-opacity:1" id="path29"/>
            <g id="g31" transform="scale(10)">
              <text transform="matrix(1,0,0,-1,31.5903,25.8)" style="font-variant:normal;font-weight:normal;font-size:9px;font-family:Helvetica;-inkscape-font-specification:Helvetica;writing-mode:lr-tb;fill:#000000;fill-opacity:1;fill-rule:nonzero;stroke:none" id="text35">
                <tspan x="0 5.0040002 7.506" y="0" sodipodi:role="line" id="tspan33">0.7</tspan>
              </text>
            </g>
            <path d="m 495,642 h 31.5 m 2911,0 H 3406" style="fill:none;stroke:#000000;stroke-width:5;stroke-linecap:butt;stroke-linejoin:miter;stroke-miterlimit:3.8;stroke-dasharray:none;stroke-opacity:1" id="path37"/>
            <g id="g39" transform="scale(10)">
              <text transform="matrix(1,0,0,-1,26.5864,61.2)" style="font-variant:normal;font-weight:normal;font-size:9px;font-family:Helvetica;-inkscape-font-specification:Helvetica;writing-mode:lr-tb;fill:#000000;fill-opacity:1;fill-rule:nonzero;stroke:none" id="text43">
                <tspan x="0 5.0040002 7.506 12.51" y="0" sodipodi:role="line" id="tspan41">0.75</tspan>
              </text>
            </g>
            <path d="m 495,996 h 31.5 m 2911,0 H 3406" style="fill:none;stroke:#000000;stroke-width:5;stroke-linecap:butt;stroke-linejoin:miter;stroke-miterlimit:3.8;stroke-dasharray:none;stroke-opacity:1" id="path45"/>
            <g id="g47" transform="scale(10)">
              <text transform="matrix(1,0,0,-1,31.5903,96.6)" style="font-variant:normal;font-weight:normal;font-size:9px;font-family:Helvetica;-inkscape-font-specification:Helvetica;writing-mode:lr-tb;fill:#000000;fill-opacity:1;fill-rule:nonzero;stroke:none" id="text51">
                <tspan x="0 5.0040002 7.506" y="0" sodipodi:role="line" id="tspan49">0.8</tspan>
              </text>
            </g>
            <path d="m 495,1350 h 31.5 m 2911,0 H 3406" style="fill:none;stroke:#000000;stroke-width:5;stroke-linecap:butt;stroke-linejoin:miter;stroke-miterlimit:3.8;stroke-dasharray:none;stroke-opacity:1" id="path53"/>
            <g id="g55" transform="scale(10)">
              <text transform="matrix(1,0,0,-1,26.5864,132)" style="font-variant:normal;font-weight:normal;font-size:9px;font-family:Helvetica;-inkscape-font-specification:Helvetica;writing-mode:lr-tb;fill:#000000;fill-opacity:1;fill-rule:nonzero;stroke:none" id="text59">
                <tspan x="0 5.0040002 7.506 12.51" y="0" sodipodi:role="line" id="tspan57">0.85</tspan>
              </text>
            </g>
            <path d="m 495,1703.5 h 31.5 m 2911,0 H 3406" style="fill:none;stroke:#000000;stroke-width:5;stroke-linecap:butt;stroke-linejoin:miter;stroke-miterlimit:3.8;stroke-dasharray:none;stroke-opacity:1" id="path61"/>
            <g id="g63" transform="scale(10)">
              <text transform="matrix(1,0,0,-1,31.5903,167.35)" style="font-variant:normal;font-weight:normal;font-size:9px;font-family:Helvetica;-inkscape-font-specification:Helvetica;writing-mode:lr-tb;fill:#000000;fill-opacity:1;fill-rule:nonzero;stroke:none" id="text67">
                <tspan x="0 5.0040002 7.506" y="0" sodipodi:role="line" id="tspan65">0.9</tspan>
              </text>
            </g>
            <path d="m 495,2057.5 h 31.5 m 2911,0 H 3406" style="fill:none;stroke:#000000;stroke-width:5;stroke-linecap:butt;stroke-linejoin:miter;stroke-miterlimit:3.8;stroke-dasharray:none;stroke-opacity:1" id="path69"/>
            <g id="g71" transform="scale(10)">
              <text transform="matrix(1,0,0,-1,26.5864,202.75)" style="font-variant:normal;font-weight:normal;font-size:9px;font-family:Helvetica;-inkscape-font-specification:Helvetica;writing-mode:lr-tb;fill:#000000;fill-opacity:1;fill-rule:nonzero;stroke:none" id="text75">
                <tspan x="0 5.0040002 7.506 12.51" y="0" sodipodi:role="line" id="tspan73">0.95</tspan>
              </text>
            </g>
            <path d="m 495,2411.5 h 31.5 m 2911,0 H 3406" style="fill:none;stroke:#000000;stroke-width:5;stroke-linecap:butt;stroke-linejoin:miter;stroke-miterlimit:3.8;stroke-dasharray:none;stroke-opacity:1" id="path77"/>
            <g id="g79" transform="scale(10)">
              <text transform="matrix(1,0,0,-1,39.0961,238.15)" style="font-variant:normal;font-weight:normal;font-size:9px;font-family:Helvetica;-inkscape-font-specification:Helvetica;writing-mode:lr-tb;fill:#000000;fill-opacity:1;fill-rule:nonzero;stroke:none" id="text83">
                <tspan x="0" y="0" id="tspan81">1</tspan>
              </text>
            </g>
            <path d="m 495,288 v 31.5 m 0,2092 V 2380" style="fill:none;stroke:#000000;stroke-width:5;stroke-linecap:butt;stroke-linejoin:miter;stroke-miterlimit:3.8;stroke-dasharray:none;stroke-opacity:1" id="path85"/>
            <g id="g87" transform="scale(10)">
              <text transform="matrix(1,0,0,-1,48.2493,16.8)" style="font-variant:normal;font-weight:normal;font-size:9px;font-family:Helvetica;-inkscape-font-specification:Helvetica;writing-mode:lr-tb;fill:#000000;fill-opacity:1;fill-rule:nonzero;stroke:none" id="text91">
                <tspan x="0" y="0" id="tspan89">0</tspan>
              </text>
            </g>
            <path d="m 1083.5,288 v 31.5 m 0,2092 V 2380" style="fill:none;stroke:#000000;stroke-width:5;stroke-linecap:butt;stroke-linejoin:miter;stroke-miterlimit:3.8;stroke-dasharray:none;stroke-opacity:1" id="path93"/>
            <g id="g95" transform="scale(10)">
              <text transform="matrix(1,0,0,-1,104.597,16.8)" style="font-variant:normal;font-weight:normal;font-size:9px;font-family:Helvetica;-inkscape-font-specification:Helvetica;writing-mode:lr-tb;fill:#000000;fill-opacity:1;fill-rule:nonzero;stroke:none" id="text99">
                <tspan x="0 5.0040002" y="0" sodipodi:role="line" id="tspan97">10</tspan>
              </text>
            </g>
            <path d="m 1672,288 v 31.5 m 0,2092 V 2380" style="fill:none;stroke:#000000;stroke-width:5;stroke-linecap:butt;stroke-linejoin:miter;stroke-miterlimit:3.8;stroke-dasharray:none;stroke-opacity:1" id="path101"/>
            <g id="g103" transform="scale(10)">
              <text transform="matrix(1,0,0,-1,163.447,16.8)" style="font-variant:normal;font-weight:normal;font-size:9px;font-family:Helvetica;-inkscape-font-specification:Helvetica;writing-mode:lr-tb;fill:#000000;fill-opacity:1;fill-rule:nonzero;stroke:none" id="text107">
                <tspan x="0 5.0040002" y="0" sodipodi:role="line" id="tspan105">20</tspan>
              </text>
            </g>
            <path d="m 2260.5,288 v 31.5 m 0,2092 V 2380" style="fill:none;stroke:#000000;stroke-width:5;stroke-linecap:butt;stroke-linejoin:miter;stroke-miterlimit:3.8;stroke-dasharray:none;stroke-opacity:1" id="path109"/>
            <g id="g111" transform="scale(10)">
              <text transform="matrix(1,0,0,-1,222.297,16.8)" style="font-variant:normal;font-weight:normal;font-size:9px;font-family:Helvetica;-inkscape-font-specification:Helvetica;writing-mode:lr-tb;fill:#000000;fill-opacity:1;fill-rule:nonzero;stroke:none" id="text115">
                <tspan x="0 5.0040002" y="0" sodipodi:role="line" id="tspan113">30</tspan>
              </text>
            </g>
            <path d="m 2849,288 v 31.5 m 0,2092 V 2380" style="fill:none;stroke:#000000;stroke-width:5;stroke-linecap:butt;stroke-linejoin:miter;stroke-miterlimit:3.8;stroke-dasharray:none;stroke-opacity:1" id="path117"/>
            <g id="g119" transform="scale(10)">
              <text transform="matrix(1,0,0,-1,281.147,16.8)" style="font-variant:normal;font-weight:normal;font-size:9px;font-family:Helvetica;-inkscape-font-specification:Helvetica;writing-mode:lr-tb;fill:#000000;fill-opacity:1;fill-rule:nonzero;stroke:none" id="text123">
                <tspan x="0 5.0040002" y="0" sodipodi:role="line" id="tspan121">40</tspan>
              </text>
            </g>
            <path d="m 3437.5,288 v 31.5 m 0,2092 V 2380" style="fill:none;stroke:#000000;stroke-width:5;stroke-linecap:butt;stroke-linejoin:miter;stroke-miterlimit:3.8;stroke-dasharray:none;stroke-opacity:1" id="path125"/>
            <g id="g127" transform="scale(10)">
              <text transform="matrix(1,0,0,-1,339.997,16.8)" style="font-variant:normal;font-weight:normal;font-size:9px;font-family:Helvetica;-inkscape-font-specification:Helvetica;writing-mode:lr-tb;fill:#000000;fill-opacity:1;fill-rule:nonzero;stroke:none" id="text131">
                <tspan x="0 5.0040002" y="0" sodipodi:role="line" id="tspan129">50</tspan>
              </text>
            </g>
            <path d="M 495,288 H 3437.5 V 2411.5 H 495 Z" style="fill:none;stroke:#000000;stroke-width:5;stroke-linecap:butt;stroke-linejoin:miter;stroke-miterlimit:3.8;stroke-dasharray:none;stroke-opacity:1" id="path133"/>
            <g id="g135" transform="scale(10)">
              <text transform="matrix(0,1,1,0,10.2,109.193)" style="font-variant:normal;font-weight:normal;font-size:9px;font-family:Helvetica;-inkscape-font-specification:Helvetica;writing-mode:lr-tb;fill:#000000;fill-opacity:1;fill-rule:nonzero;stroke:none" id="text139">
                <tspan x="0 6.0029998 11.007 14.004 16.506001 21.51 24.507 32.004002 37.007999 42.012001 46.512001" y="0" sodipodi:role="line" id="tspan137">Performance</tspan>
              </text>
              <text transform="matrix(1,0,0,-1,128.337,3.3)" style="font-variant:normal;font-weight:normal;font-size:9px;font-family:Helvetica;-inkscape-font-specification:Helvetica;writing-mode:lr-tb;fill:#000000;fill-opacity:1;fill-rule:nonzero;stroke:none" id="text145">
                <tspan x="0 7.4970002 9.4949999 14.499 17.496 22.5 25.002001 27 32.004002 37.007999 39.509998 42.012001 45.008999 50.013 55.016998 60.021 65.025002 70.028999 74.528999 79.028999 81.530998 84.528 92.025002 94.023003 96.021004 98.018997 100.017 104.517 109.521 114.021 119.025 124.029 129.033 133.533" y="0" sodipodi:role="line" id="tspan141">Migration frequency (milliseconds)</tspan>
                <tspan x="-3.06445 3.4335499 8.4375496 15.93455 20.938551 22.93655 24.934549 29.938551 32.440552 34.438549 39.442551 44.446548 46.948551 49.45055 54.454552 57.45155 59.953548 67.450546 69.448547 74.452553 77.449547 82.453552 84.955551 89.959549 94.963547 96.961548 98.959549 100.95755 103.45955 107.95955 110.46155 113.45855 119.95655 122.45855 127.46255 129.96455 137.46155 139.45955 144.46355 147.46056 152.46455 154.96655 156.96455 161.96855 166.97255 171.47255" y="-57.150002" sodipodi:role="line" id="tspan143">Compilation for migratability (w/o migrations)</tspan>
              </text>
            </g>
            <path d="m 3082,634.5 h 247.5 M 554.5,2249 h 2883" style="fill:none;stroke:#00ffff;stroke-width:20;stroke-linecap:butt;stroke-linejoin:miter;stroke-miterlimit:3.8;stroke-dasharray:30, 10, 5, 10;stroke-dashoffset:0;stroke-opacity:1" id="path147"/>
            <g id="g149" transform="scale(10)">
              <text transform="matrix(1,0,0,-1,188.773,51.45)" style="font-variant:normal;font-weight:normal;font-size:9px;font-family:Helvetica;-inkscape-font-specification:Helvetica;writing-mode:lr-tb;fill:#000000;fill-opacity:1;fill-rule:nonzero;stroke:none" id="text153">
                <tspan x="0 6.0029998 11.007 14.004 16.506001 21.51 24.507 32.004002 37.007999 42.012001 46.512001 51.515999 54.018002 60.515999 62.514 65.015999 70.019997 72.522003 80.018997 82.016998 87.021004 90.017998 95.022003 97.524002 99.522003 104.526 109.53" y="0" sodipodi:role="line" id="tspan151">Performance with migrations</tspan>
              </text>
            </g>
            <path d="m 3082,544.5 h 247.5 m -2775,117 29.5,441.5 30,249.5 29.5,160 30,111.5 29.5,82.5 30,63 29.5,50 29.5,40.5 30,33.5 29.5,28.5 30,24 29.5,20.5 30,18.5 29.5,15.5 30,14.5 29.5,12.5 29.5,11 30,10.5 29.5,9 30,8.5 29.5,8 30,7 29.5,6.5 30,6 29.5,5.5 29.5,5.5 30,4.5 29.5,5 30,4 29.5,4 30,4 29.5,3.5 30,3 29.5,3.5 29.5,3 30,2.5 29.5,3 30,2.5 29.5,2.5 30,2 29.5,2.5 30,2 29.5,2 29.5,2 30,2 29.5,1.5 30,2 29.5,1.5 30,1.5 29.5,1.5 30,1.5 29.5,1.5 29.5,1.5 30,1 29.5,1.5 30,1 29.5,1.5 30,1 29.5,1 30,1 29.5,1 29.5,1 30,1 29.5,1 30,1 29.5,1 30,1 29.5,0.5 30,1 29.5,0.5 29.5,1 30,0.5 29.5,1 30,0.5 29.5,1 30,0.5 29.5,0.5 30,1 29.5,0.5 29.5,0.5 30,0.5 29.5,1 30,0.5 29.5,0.5 30,0.5 29.5,0.5 30,0.5 29.5,0.5 29.5,0.5 30,0.5 29.5,0.5 30,0.5 29.5,0.5 30,0.5 29.5,0.5 h 30 l 29.5,0.5" style="fill:none;stroke:#ff0000;stroke-width:20;stroke-linecap:butt;stroke-linejoin:miter;stroke-miterlimit:3.8;stroke-dasharray:none;stroke-opacity:1" id="path155"/>
            <g id="g157" transform="scale(10)">
              <text transform="matrix(1,0,0,-1,115.758,42.45)" style="font-variant:normal;font-weight:normal;font-size:9px;font-family:Helvetica;-inkscape-font-specification:Helvetica;writing-mode:lr-tb;fill:#000000;fill-opacity:1;fill-rule:nonzero;stroke:none" id="text161">
                <tspan x="0 6.0029998 11.007 14.004 16.506001 21.51 24.507 32.004002 37.007999 42.012001 46.512001 51.515999 54.018002 57.014999 59.516998 66.014999 71.018997 78.515999 86.013 90.513 93.014999 97.514999 102.519 104.517 106.515 111.015 113.517 115.515 120.519 123.021 128.02499 133.02901 135.53101 140.535 143.532 151.02901 156.033 160.533 163.035 165.537 167.535 172.539 177.543 182.547" y="0" sodipodi:role="line" id="tspan159">Performance - Dummy calls in outermost loops</tspan>
              </text>
            </g>
            <path d="m 3082,454.5 h 247.5 m -2775,87.5 29.5,421 30,237 29.5,152.5 30,105.5 29.5,78 30,60 29.5,47 29.5,38.5 30,32 29.5,26.5 30,22.5 29.5,20 30,17 29.5,15 30,13.5 29.5,11.5 29.5,11 30,9.5 29.5,9 30,8 29.5,7 30,7 29.5,6 30,5.5 29.5,5.5 29.5,5 30,4.5 29.5,4.5 30,4 29.5,3.5 30,3.5 29.5,3.5 30,3 29.5,3 29.5,3 30,2.5 29.5,2.5 30,2.5 29.5,2.5 30,2 29.5,2 30,2 29.5,2 29.5,2 30,1.5 29.5,2 30,1.5 29.5,1.5 30,1.5 29.5,1.5 30,1.5 29.5,1 29.5,1.5 30,1 29.5,1.5 30,1 29.5,1 30,1 29.5,1.5 30,1 29.5,0.5 29.5,1 30,1 29.5,1 30,1 29.5,0.5 30,1 29.5,1 30,0.5 29.5,1 29.5,0.5 30,1 29.5,0.5 30,0.5 29.5,1 30,0.5 29.5,0.5 30,0.5 29.5,0.5 29.5,1 30,0.5 29.5,0.5 30,0.5 29.5,0.5 30,0.5 29.5,0.5 30,0.5 29.5,0.5 29.5,0.5 30,0.5 29.5,0.5 30,0.5 h 29.5 l 30,0.5 29.5,0.5 30,0.5 29.5,0.5" style="fill:none;stroke:#00ff00;stroke-width:20;stroke-linecap:butt;stroke-linejoin:miter;stroke-miterlimit:3.8;stroke-dasharray:20, 10;stroke-dashoffset:0;stroke-opacity:1" id="path163"/>
            <g id="g165" transform="scale(10)">
              <text transform="matrix(1,0,0,-1,98.7484,33.45)" style="font-variant:normal;font-weight:normal;font-size:9px;font-family:Helvetica;-inkscape-font-specification:Helvetica;writing-mode:lr-tb;fill:#000000;fill-opacity:1;fill-rule:nonzero;stroke:none" id="text169">
                <tspan x="0 6.0029998 11.007 14.004 16.506001 21.51 24.507 32.004002 37.007999 42.012001 46.512001 51.515999 54.018002 57.014999 59.516998 66.014999 71.018997 78.515999 86.013 90.513 93.014999 97.514999 102.519 104.517 106.515 111.015 113.517 115.515 120.519 123.021 128.02499 133.02901 138.033 140.535 142.533 147.537 152.541 157.545 160.54201 168.039 173.043 177.543 180.045 182.547 184.545 189.549 194.55299 199.55701" y="0" sodipodi:role="line" id="tspan167">Performance - Dummy calls in 2nd innermost loops</tspan>
              </text>
            </g>
            <path d="m 3082,364.5 h 247.5 m -2775,147 29.5,416 30,234 29.5,150 30,104.5 29.5,77 30,59 29.5,46.5 29.5,38 30,31 29.5,26.5 30,22.5 29.5,19 30,17 29.5,15 30,13 29.5,11.5 29.5,10.5 30,9.5 29.5,9 30,7.5 29.5,7.5 30,6.5 29.5,6 30,5.5 29.5,5.5 29.5,5 30,4.5 29.5,4 30,4 29.5,4 30,3.5 29.5,3 30,3 29.5,3 29.5,3 30,2.5 29.5,2.5 30,2.5 29.5,2 30,2.5 29.5,2 30,2 29.5,2 29.5,1.5 30,2 29.5,1.5 30,1.5 29.5,1.5 30,1.5 29.5,1.5 30,1.5 29.5,1 29.5,1.5 30,1 29.5,1.5 30,1 29.5,1 30,1 29.5,1 30,1 29.5,1 29.5,1 30,1 29.5,1 30,0.5 29.5,1 30,1 29.5,0.5 30,1 29.5,0.5 29.5,0.5 30,1 29.5,0.5 30,1 29.5,0.5 30,0.5 29.5,0.5 30,1 29.5,0.5 29.5,0.5 30,0.5 29.5,0.5 30,0.5 29.5,0.5 30,0.5 29.5,0.5 30,0.5 29.5,0.5 29.5,0.5 30,0.5 29.5,0.5 30,0.5 h 29.5 l 30,0.5 29.5,0.5 30,0.5 29.5,0.5" style="fill:none;stroke:#0000ff;stroke-width:15;stroke-linecap:butt;stroke-linejoin:miter;stroke-miterlimit:3.8;stroke-dasharray:10, 15;stroke-dashoffset:0;stroke-opacity:1" id="path171"/>
            <path d="M 495,288 H 3437.5 V 2411.5 H 495 Z" style="fill:none;stroke:#000000;stroke-width:5;stroke-linecap:butt;stroke-linejoin:miter;stroke-miterlimit:3.8;stroke-dasharray:none;stroke-opacity:1" id="path173"/>
          </g>
        </g>
      </g>
    </g>
  </g>
</svg>
