<?xml version="1.0" encoding="UTF-8" standalone="no"?>
<!DOCTYPE svg PUBLIC "-//W3C//DTD SVG 1.1//EN"
 "http://www.w3.org/Graphics/SVG/1.1/DTD/svg11.dtd">
<!-- Generated by graphviz version 2.49.3 (0)
 -->
<!-- Pages: 1 -->
<svg width="736pt" height="332pt"
 viewBox="0.00 0.00 735.83 332.00" xmlns="http://www.w3.org/2000/svg" xmlns:xlink="http://www.w3.org/1999/xlink">
<g id="graph0" class="graph" transform="scale(1 1) rotate(0) translate(4 328)">
<polygon fill="white" stroke="transparent" points="-4,4 -4,-328 731.83,-328 731.83,4 -4,4"/>
<!-- reg0 @0xe1c290 -->
<g id="node1" class="node">
<title>reg0 @0xe1c290</title>
<ellipse fill="none" stroke="black" cx="415.94" cy="-306" rx="89.08" ry="18"/>
<text text-anchor="middle" x="415.94" y="-302.3" font-family="Times,serif" font-size="14.00">reg0 @0xe1c290</text>
</g>
<!-- mov_i32 @0xe1c3f0 -->
<g id="node2" class="node">
<title>mov_i32 @0xe1c3f0</title>
<ellipse fill="none" stroke="black" cx="415.94" cy="-234" rx="103.98" ry="18"/>
<text text-anchor="middle" x="415.94" y="-230.3" font-family="Times,serif" font-size="14.00">mov_i32 @0xe1c3f0</text>
</g>
<!-- reg0 @0xe1c290&#45;&gt;mov_i32 @0xe1c3f0 -->
<g id="edge1" class="edge">
<title>reg0 @0xe1c290&#45;&gt;mov_i32 @0xe1c3f0</title>
<path fill="none" stroke="black" d="M415.94,-287.7C415.94,-279.98 415.94,-270.71 415.94,-262.11"/>
<polygon fill="black" stroke="black" points="419.44,-262.1 415.94,-252.1 412.44,-262.1 419.44,-262.1"/>
</g>
<!-- shl_i32 @0xe1c5e0 -->
<g id="node3" class="node">
<title>shl_i32 @0xe1c5e0</title>
<ellipse fill="none" stroke="black" cx="305.94" cy="-162" rx="100.18" ry="18"/>
<text text-anchor="middle" x="305.94" y="-158.3" font-family="Times,serif" font-size="14.00">shl_i32 @0xe1c5e0</text>
</g>
<!-- mov_i32 @0xe1c3f0&#45;&gt;shl_i32 @0xe1c5e0 -->
<g id="edge2" class="edge">
<title>mov_i32 @0xe1c3f0&#45;&gt;shl_i32 @0xe1c5e0</title>
<path fill="none" stroke="black" d="M389.87,-216.41C375.08,-207 356.38,-195.1 340.39,-184.92"/>
<polygon fill="black" stroke="black" points="342.14,-181.89 331.82,-179.47 338.38,-187.79 342.14,-181.89"/>
</g>
<!-- shl_i32 @0xe1c7e0 -->
<g id="node5" class="node">
<title>shl_i32 @0xe1c7e0</title>
<ellipse fill="none" stroke="black" cx="523.94" cy="-162" rx="100.18" ry="18"/>
<text text-anchor="middle" x="523.94" y="-158.3" font-family="Times,serif" font-size="14.00">shl_i32 @0xe1c7e0</text>
</g>
<!-- mov_i32 @0xe1c3f0&#45;&gt;shl_i32 @0xe1c7e0 -->
<g id="edge4" class="edge">
<title>mov_i32 @0xe1c3f0&#45;&gt;shl_i32 @0xe1c7e0</title>
<path fill="none" stroke="black" d="M441.54,-216.41C456.06,-207 474.42,-195.1 490.12,-184.92"/>
<polygon fill="black" stroke="black" points="492.04,-187.85 498.53,-179.47 488.23,-181.97 492.04,-187.85"/>
</g>
<!-- mov_i32 @0xe1ca00 -->
<g id="node7" class="node">
<title>mov_i32 @0xe1ca00</title>
<ellipse fill="none" stroke="black" cx="105.94" cy="-90" rx="105.88" ry="18"/>
<text text-anchor="middle" x="105.94" y="-86.3" font-family="Times,serif" font-size="14.00">mov_i32 @0xe1ca00</text>
</g>
<!-- shl_i32 @0xe1c5e0&#45;&gt;mov_i32 @0xe1ca00 -->
<g id="edge6" class="edge">
<title>shl_i32 @0xe1c5e0&#45;&gt;mov_i32 @0xe1ca00</title>
<path fill="none" stroke="black" d="M262.05,-145.64C231.93,-135.1 191.78,-121.04 159.74,-109.83"/>
<polygon fill="black" stroke="black" points="160.67,-106.45 150.07,-106.45 158.36,-113.05 160.67,-106.45"/>
</g>
<!-- xor_i32 @0xe1cb00 -->
<g id="node8" class="node">
<title>xor_i32 @0xe1cb00</title>
<ellipse fill="none" stroke="black" cx="519.94" cy="-90" rx="102.08" ry="18"/>
<text text-anchor="middle" x="519.94" y="-86.3" font-family="Times,serif" font-size="14.00">xor_i32 @0xe1cb00</text>
</g>
<!-- shl_i32 @0xe1c5e0&#45;&gt;xor_i32 @0xe1cb00 -->
<g id="edge8" class="edge">
<title>shl_i32 @0xe1c5e0&#45;&gt;xor_i32 @0xe1cb00</title>
<path fill="none" stroke="black" d="M351.85,-145.98C384.74,-135.22 429.22,-120.68 464.16,-109.25"/>
<polygon fill="black" stroke="black" points="465.32,-112.55 473.74,-106.11 463.15,-105.89 465.32,-112.55"/>
</g>
<!-- NF @0xe1cc00 -->
<g id="node9" class="node">
<title>NF @0xe1cc00</title>
<ellipse fill="none" stroke="black" cx="310.94" cy="-90" rx="81.49" ry="18"/>
<text text-anchor="middle" x="310.94" y="-86.3" font-family="Times,serif" font-size="14.00">NF @0xe1cc00</text>
</g>
<!-- shl_i32 @0xe1c5e0&#45;&gt;NF @0xe1cc00 -->
<g id="edge9" class="edge">
<title>shl_i32 @0xe1c5e0&#45;&gt;NF @0xe1cc00</title>
<path fill="none" stroke="black" d="M307.18,-143.7C307.73,-135.98 308.39,-126.71 309,-118.11"/>
<polygon fill="black" stroke="black" points="312.5,-118.33 309.72,-108.1 305.52,-117.83 312.5,-118.33"/>
</g>
<!--  @0x10 @0xe1c660 -->
<g id="node4" class="node">
<title> @0x10 @0xe1c660</title>
<ellipse fill="none" stroke="black" cx="190.94" cy="-234" rx="102.88" ry="18"/>
<text text-anchor="middle" x="190.94" y="-230.3" font-family="Times,serif" font-size="14.00"> @0x10 @0xe1c660</text>
</g>
<!--  @0x10 @0xe1c660&#45;&gt;shl_i32 @0xe1c5e0 -->
<g id="edge3" class="edge">
<title> @0x10 @0xe1c660&#45;&gt;shl_i32 @0xe1c5e0</title>
<path fill="none" stroke="black" d="M217.9,-216.59C233.36,-207.18 252.97,-195.24 269.76,-185.02"/>
<polygon fill="black" stroke="black" points="272.03,-187.74 278.75,-179.55 268.39,-181.76 272.03,-187.74"/>
</g>
<!-- shl_i32 @0xe1c7e0&#45;&gt;xor_i32 @0xe1cb00 -->
<g id="edge7" class="edge">
<title>shl_i32 @0xe1c7e0&#45;&gt;xor_i32 @0xe1cb00</title>
<path fill="none" stroke="black" d="M522.95,-143.7C522.51,-135.98 521.98,-126.71 521.49,-118.11"/>
<polygon fill="black" stroke="black" points="524.98,-117.89 520.92,-108.1 517.99,-118.29 524.98,-117.89"/>
</g>
<!--  @0xf @0xe1c840 -->
<g id="node6" class="node">
<title> @0xf @0xe1c840</title>
<ellipse fill="none" stroke="black" cx="632.94" cy="-234" rx="94.78" ry="18"/>
<text text-anchor="middle" x="632.94" y="-230.3" font-family="Times,serif" font-size="14.00"> @0xf @0xe1c840</text>
</g>
<!--  @0xf @0xe1c840&#45;&gt;shl_i32 @0xe1c7e0 -->
<g id="edge5" class="edge">
<title> @0xf @0xe1c840&#45;&gt;shl_i32 @0xe1c7e0</title>
<path fill="none" stroke="black" d="M607.38,-216.59C592.73,-207.18 574.15,-195.24 558.24,-185.02"/>
<polygon fill="black" stroke="black" points="560.02,-182.01 549.71,-179.55 556.24,-187.9 560.02,-182.01"/>
</g>
<!-- ZF @0xe1cdb0 -->
<g id="node11" class="node">
<title>ZF @0xe1cdb0</title>
<ellipse fill="none" stroke="black" cx="105.94" cy="-18" rx="80.69" ry="18"/>
<text text-anchor="middle" x="105.94" y="-14.3" font-family="Times,serif" font-size="14.00">ZF @0xe1cdb0</text>
</g>
<!-- mov_i32 @0xe1ca00&#45;&gt;ZF @0xe1cdb0 -->
<g id="edge11" class="edge">
<title>mov_i32 @0xe1ca00&#45;&gt;ZF @0xe1cdb0</title>
<path fill="none" stroke="black" d="M105.94,-71.7C105.94,-63.98 105.94,-54.71 105.94,-46.11"/>
<polygon fill="black" stroke="black" points="109.44,-46.1 105.94,-36.1 102.44,-46.1 109.44,-46.1"/>
</g>
<!-- VF @0xe1ccf0 -->
<g id="node10" class="node">
<title>VF @0xe1ccf0</title>
<ellipse fill="none" stroke="black" cx="519.94" cy="-18" rx="77.19" ry="18"/>
<text text-anchor="middle" x="519.94" y="-14.3" font-family="Times,serif" font-size="14.00">VF @0xe1ccf0</text>
</g>
<!-- xor_i32 @0xe1cb00&#45;&gt;VF @0xe1ccf0 -->
<g id="edge10" class="edge">
<title>xor_i32 @0xe1cb00&#45;&gt;VF @0xe1ccf0</title>
<path fill="none" stroke="black" d="M519.94,-71.7C519.94,-63.98 519.94,-54.71 519.94,-46.11"/>
<polygon fill="black" stroke="black" points="523.44,-46.1 519.94,-36.1 516.44,-46.1 523.44,-46.1"/>
</g>
</g>
</svg>
