<?xml version="1.0" encoding="UTF-8" standalone="no"?>
<!DOCTYPE svg PUBLIC "-//W3C//DTD SVG 1.1//EN"
 "http://www.w3.org/Graphics/SVG/1.1/DTD/svg11.dtd">
<!-- Generated by graphviz version 2.49.3 (0)
 -->
<!-- Pages: 1 -->
<svg width="178pt" height="188pt"
 viewBox="0.00 0.00 177.55 188.00" xmlns="http://www.w3.org/2000/svg" xmlns:xlink="http://www.w3.org/1999/xlink">
<g id="graph0" class="graph" transform="scale(1 1) rotate(0) translate(4 184)">
<polygon fill="white" stroke="transparent" points="-4,4 -4,-184 173.55,-184 173.55,4 -4,4"/>
<!-- dst_coerce -->
<g id="node1" class="node">
<title>dst_coerce</title>
<ellipse fill="none" stroke="black" cx="27" cy="-90" rx="27" ry="18"/>
<text text-anchor="middle" x="27" y="-86.3" font-family="Times,serif" font-size="14.00">dst</text>
</g>
<!-- inst0 -->
<g id="node5" class="node">
<title>inst0</title>
<ellipse fill="none" stroke="black" cx="63" cy="-18" rx="34.39" ry="18"/>
<text text-anchor="middle" x="63" y="-14.3" font-family="Times,serif" font-size="14.00">store</text>
</g>
<!-- dst_coerce&#45;&gt;inst0 -->
<g id="edge4" class="edge">
<title>dst_coerce&#45;&gt;inst0</title>
<path fill="none" stroke="black" d="M35.35,-72.76C39.65,-64.4 44.99,-54.02 49.83,-44.61"/>
<polygon fill="black" stroke="black" points="52.98,-46.13 54.45,-35.63 46.76,-42.93 52.98,-46.13"/>
</g>
<!-- src1_coerce -->
<g id="node2" class="node">
<title>src1_coerce</title>
<ellipse fill="none" stroke="black" cx="60" cy="-162" rx="30.59" ry="18"/>
<text text-anchor="middle" x="60" y="-158.3" font-family="Times,serif" font-size="14.00">src1</text>
</g>
<!-- add_i -->
<g id="node4" class="node">
<title>add_i</title>
<ellipse fill="none" stroke="black" cx="100" cy="-90" rx="27.9" ry="18"/>
<text text-anchor="middle" x="100" y="-86.3" font-family="Times,serif" font-size="14.00">add</text>
</g>
<!-- src1_coerce&#45;&gt;add_i -->
<g id="edge2" class="edge">
<title>src1_coerce&#45;&gt;add_i</title>
<path fill="none" stroke="black" d="M69.28,-144.76C74.17,-136.19 80.29,-125.49 85.77,-115.9"/>
<polygon fill="black" stroke="black" points="88.85,-117.57 90.77,-107.15 82.77,-114.09 88.85,-117.57"/>
</g>
<!-- src2_coerce -->
<g id="node3" class="node">
<title>src2_coerce</title>
<ellipse fill="none" stroke="black" cx="139" cy="-162" rx="30.59" ry="18"/>
<text text-anchor="middle" x="139" y="-158.3" font-family="Times,serif" font-size="14.00">src2</text>
</g>
<!-- src2_coerce&#45;&gt;add_i -->
<g id="edge1" class="edge">
<title>src2_coerce&#45;&gt;add_i</title>
<path fill="none" stroke="black" d="M129.95,-144.76C125.18,-136.19 119.22,-125.49 113.87,-115.9"/>
<polygon fill="black" stroke="black" points="116.92,-114.18 109,-107.15 110.81,-117.59 116.92,-114.18"/>
</g>
<!-- add_i&#45;&gt;inst0 -->
<g id="edge3" class="edge">
<title>add_i&#45;&gt;inst0</title>
<path fill="none" stroke="black" d="M91.42,-72.76C87,-64.4 81.51,-54.02 76.53,-44.61"/>
<polygon fill="black" stroke="black" points="79.56,-42.84 71.79,-35.63 73.37,-46.11 79.56,-42.84"/>
</g>
</g>
</svg>
