<?xml version="1.0" encoding="UTF-8" standalone="no"?>
<!-- Created with Inkscape (http://www.inkscape.org/) -->
<svg xmlns:dc="http://purl.org/dc/elements/1.1/" xmlns:cc="http://creativecommons.org/ns#" xmlns:rdf="http://www.w3.org/1999/02/22-rdf-syntax-ns#" xmlns:svg="http://www.w3.org/2000/svg" xmlns="http://www.w3.org/2000/svg" xmlns:sodipodi="http://sodipodi.sourceforge.net/DTD/sodipodi-0.dtd" xmlns:inkscape="http://www.inkscape.org/namespaces/inkscape" width="89.484306mm" height="33.355991mm" viewBox="0 0 89.484306 33.355991" version="1.1" id="svg8" inkscape:version="0.92.3 (2405546, 2018-03-11)" sodipodi:docname="QEMU_internals_exec_TB.svg">
  <defs id="defs2">
    <clipPath id="clipPath899" clipPathUnits="userSpaceOnUse">
      <path inkscape:connector-curvature="0" id="path897" d="m 0,2265 h 3628 v 39.8516 H 0 Z"/>
    </clipPath>
    <clipPath id="clipPath925" clipPathUnits="userSpaceOnUse">
      <path inkscape:connector-curvature="0" id="path923" d="m 0,2099.4 h 3628 v 205.234 H 0 Z"/>
    </clipPath>
    <clipPath id="clipPath2393" clipPathUnits="userSpaceOnUse">
      <path inkscape:connector-curvature="0" id="path2391" d="m 0,2061 h 3628 v 39.8516 H 0 Z"/>
    </clipPath>
    <clipPath id="clipPath2419" clipPathUnits="userSpaceOnUse">
      <path inkscape:connector-curvature="0" id="path2417" d="m 447.395,1815.5 c 0,14.19 -11.508,25.7 -25.7,25.7 -14.191,0 -25.695,-11.51 -25.695,-25.7 0,-14.2 11.504,-25.7 25.695,-25.7 14.192,0 25.7,11.5 25.7,25.7"/>
    </clipPath>
    <clipPath id="clipPath2467" clipPathUnits="userSpaceOnUse">
      <path inkscape:connector-curvature="0" id="path2465" d="m 447.395,1649.9 c 0,14.19 -11.508,25.69 -25.7,25.69 -14.191,0 -25.695,-11.5 -25.695,-25.69 0,-14.19 11.504,-25.7 25.695,-25.7 14.192,0 25.7,11.51 25.7,25.7"/>
    </clipPath>
    <clipPath id="clipPath2515" clipPathUnits="userSpaceOnUse">
      <path inkscape:connector-curvature="0" id="path2513" d="m 447.395,1484.3 c 0,14.19 -11.508,25.69 -25.7,25.69 -14.191,0 -25.695,-11.5 -25.695,-25.69 0,-14.19 11.504,-25.7 25.695,-25.7 14.192,0 25.7,11.51 25.7,25.7"/>
    </clipPath>
    <clipPath id="clipPath2563" clipPathUnits="userSpaceOnUse">
      <path inkscape:connector-curvature="0" id="path2561" d="m 447.395,1319.9 c 0,14.19 -11.508,25.69 -25.7,25.69 -14.191,0 -25.695,-11.5 -25.695,-25.69 0,-14.19 11.504,-25.7 25.695,-25.7 14.192,0 25.7,11.51 25.7,25.7"/>
    </clipPath>
    <clipPath id="clipPath2611" clipPathUnits="userSpaceOnUse">
      <path inkscape:connector-curvature="0" id="path2609" d="M 283.199,1200.36 V 243 H 2834.2 v 957.36 z"/>
    </clipPath>
    <clipPath id="clipPath2669" clipPathUnits="userSpaceOnUse">
      <path style="clip-rule:evenodd" inkscape:connector-curvature="0" id="path2667" d="M 283.199,1200.36 V 243 H 2834.2 v 957.36 z m 2432.621,-154.7 h -53.24 v -21.02 h 53.24 v 0 l -42.03,10.51 z"/>
    </clipPath>
    <clipPath id="clipPath2679" clipPathUnits="userSpaceOnUse">
      <path inkscape:connector-curvature="0" id="path2677" d="M 283.199,1200.36 V 243 H 2834.2 v 957.36 z"/>
    </clipPath>
    <clipPath id="clipPath2689" clipPathUnits="userSpaceOnUse">
      <path style="clip-rule:evenodd" inkscape:connector-curvature="0" id="path2687" d="M 283.199,1200.36 V 243 H 2834.2 v 957.36 z m 2063.451,-383.415 -31.87,-42.379 16.81,-12.609 31.87,42.379 v 0 l -33.62,-27.32 z"/>
    </clipPath>
    <clipPath id="clipPath2699" clipPathUnits="userSpaceOnUse">
      <path inkscape:connector-curvature="0" id="path2697" d="M 283.199,1200.36 V 243 H 2834.2 v 957.36 z"/>
    </clipPath>
    <clipPath id="clipPath2709" clipPathUnits="userSpaceOnUse">
      <path style="clip-rule:evenodd" inkscape:connector-curvature="0" id="path2707" d="M 283.199,1200.36 V 243 H 2834.2 v 957.36 z M 2525.98,820.449 v -53.238 h 21.01 v 53.238 0 l -10.51,-42.031 z"/>
    </clipPath>
    <clipPath id="clipPath2719" clipPathUnits="userSpaceOnUse">
      <path inkscape:connector-curvature="0" id="path2717" d="M 283.199,1200.36 V 243 H 2834.2 v 957.36 z"/>
    </clipPath>
    <clipPath id="clipPath2729" clipPathUnits="userSpaceOnUse">
      <path style="clip-rule:evenodd" inkscape:connector-curvature="0" id="path2727" d="M 283.199,1200.36 V 243 H 2834.2 v 957.36 z m 2130.351,-668.868 41.33,-32.926 13.31,16.461 -41.33,32.926 v 0 l 26.26,-34.676 z"/>
    </clipPath>
    <clipPath id="clipPath2739" clipPathUnits="userSpaceOnUse">
      <path inkscape:connector-curvature="0" id="path2737" d="M 283.199,1200.36 V 243 H 2834.2 v 957.36 z"/>
    </clipPath>
    <clipPath id="clipPath2749" clipPathUnits="userSpaceOnUse">
      <path style="clip-rule:evenodd" inkscape:connector-curvature="0" id="path2747" d="M 283.199,1200.36 V 243 H 2834.2 v 957.36 z M 2525.98,557.758 V 504.52 h 21.01 v 53.238 0 l -10.51,-42.028 z"/>
    </clipPath>
    <clipPath id="clipPath2759" clipPathUnits="userSpaceOnUse">
      <path inkscape:connector-curvature="0" id="path2757" d="M 283.199,1200.36 V 243 H 2834.2 v 957.36 z"/>
    </clipPath>
    <clipPath id="clipPath2771" clipPathUnits="userSpaceOnUse">
      <path style="clip-rule:evenodd" inkscape:connector-curvature="0" id="path2769" d="M 283.199,1200.36 V 243 H 2834.2 v 957.36 z m 2076.061,-182.37 52.54,7.71 -3.16,20.66 -52.53,-7.7 v 0 l 43.43,-4.21 z"/>
    </clipPath>
    <clipPath id="clipPath2781" clipPathUnits="userSpaceOnUse">
      <path inkscape:connector-curvature="0" id="path2779" d="M 283.199,1200.36 V 243 H 2834.2 v 957.36 z"/>
    </clipPath>
    <clipPath id="clipPath2791" clipPathUnits="userSpaceOnUse">
      <path style="clip-rule:evenodd" inkscape:connector-curvature="0" id="path2789" d="M 283.199,1200.36 V 243 H 2834.2 v 957.36 z m 1513.911,-564.493 -50.44,17.16 -6.66,-19.965 50.09,-17.16 v 0 l -36.08,23.465 z"/>
    </clipPath>
    <clipPath id="clipPath2801" clipPathUnits="userSpaceOnUse">
      <path inkscape:connector-curvature="0" id="path2799" d="M 283.199,1200.36 V 243 H 2834.2 v 957.36 z"/>
    </clipPath>
    <clipPath id="clipPath2811" clipPathUnits="userSpaceOnUse">
      <path style="clip-rule:evenodd" inkscape:connector-curvature="0" id="path2809" d="M 283.199,1200.36 V 243 H 2834.2 v 957.36 z m 407.461,-516.161 -52.187,-7.004 2.8,-20.664 52.188,7.004 v 0 l -42.731,4.555 z"/>
    </clipPath>
    <clipPath id="clipPath2821" clipPathUnits="userSpaceOnUse">
      <path inkscape:connector-curvature="0" id="path2819" d="M 283.199,1200.36 V 243 H 2834.2 v 957.36 z"/>
    </clipPath>
    <clipPath id="clipPath2831" clipPathUnits="userSpaceOnUse">
      <path style="clip-rule:evenodd" inkscape:connector-curvature="0" id="path2829" d="M 283.199,1200.36 V 243 H 2834.2 v 957.36 z m 680.656,-188.67 51.135,-14.014 5.61,19.964 -51.139,14.36 v 0 l 37.829,-21.71 z"/>
    </clipPath>
    <clipPath id="clipPath2841" clipPathUnits="userSpaceOnUse">
      <path inkscape:connector-curvature="0" id="path2839" d="M 283.199,1200.36 V 243 H 2834.2 v 957.36 z"/>
    </clipPath>
  </defs>
  <sodipodi:namedview id="base" pagecolor="#ffffff" bordercolor="#666666" borderopacity="1.0" inkscape:pageopacity="0.0" inkscape:pageshadow="2" inkscape:zoom="1.4" inkscape:cx="167.87765" inkscape:cy="27.699667" inkscape:document-units="mm" inkscape:current-layer="layer1" showgrid="false" inkscape:window-width="1920" inkscape:window-height="1046" inkscape:window-x="1920" inkscape:window-y="260" inkscape:window-maximized="1"/>
  <metadata id="metadata5">
    <rdf:RDF>
      <cc:Work rdf:about="">
        <dc:format>image/svg+xml</dc:format>
        <dc:type rdf:resource="http://purl.org/dc/dcmitype/StillImage"/>
        <dc:title/>
      </cc:Work>
    </rdf:RDF>
  </metadata>
  <g inkscape:label="Layer 1" inkscape:groupmode="layer" id="layer1" transform="translate(107.81701,-156.29954)">
    <g id="g5933">
      <g transform="matrix(0.03527778,0,0,-0.03527778,-118.05436,198.32584)" id="g2605">
        <g id="g2607" clip-path="url(#clipPath2611)">
          <path d="m 1012.89,325.895 h 735.527 V 641.122 H 1012.89 Z" style="fill:none;stroke:#000000;stroke-width:2.62688994;stroke-linecap:butt;stroke-linejoin:miter;stroke-miterlimit:10;stroke-dasharray:none;stroke-opacity:1" id="path2613" inkscape:connector-curvature="0"/>
          <g id="g2615" transform="scale(10)">
            <text transform="matrix(1,0,0,-1,124.438,45.7238)" style="font-variant:normal;font-weight:normal;font-size:7.00503016px;font-family:Helvetica;-inkscape-font-specification:Helvetica;writing-mode:lr-tb;fill:#000000;fill-opacity:1;fill-rule:nonzero;stroke:none" id="text2619">
              <tspan x="0 4.6723552 8.567152 10.122269 11.677385 15.572182 19.466978 23.361774" y="0" sodipodi:role="line" id="tspan2617">Epilogue</tspan>
            </text>
          </g>
          <path d="m 1012.89,693.656 h 735.527 v 315.227 H 1012.89 Z" style="fill:none;stroke:#000000;stroke-width:2.62688994;stroke-linecap:butt;stroke-linejoin:miter;stroke-miterlimit:10;stroke-dasharray:none;stroke-opacity:1" id="path2621" inkscape:connector-curvature="0"/>
          <g id="g2623" transform="scale(10)">
            <text transform="matrix(1,0,0,-1,124.049,85.127)" style="font-variant:normal;font-weight:normal;font-size:7.00503016px;font-family:Helvetica;-inkscape-font-specification:Helvetica;writing-mode:lr-tb;fill:#000000;fill-opacity:1;fill-rule:nonzero;stroke:none" id="text2627">
              <tspan x="0 4.6723552 7.0050302 10.899827 12.454944 16.349739 20.244537 24.139334" y="0" sodipodi:role="line" id="tspan2625">Prologue</tspan>
            </text>
          </g>
          <path d="m 2405.14,614.852 h 262.688 V 772.465 H 2405.14 Z" style="fill:none;stroke:#000000;stroke-width:2.62688994;stroke-linecap:butt;stroke-linejoin:miter;stroke-miterlimit:10;stroke-dasharray:none;stroke-opacity:1" id="path2629" inkscape:connector-curvature="0"/>
          <g id="g2631" transform="scale(10)">
            <text transform="matrix(1,0,0,-1,249.173,66.7387)" style="font-variant:normal;font-weight:normal;font-size:7.00503016px;font-family:Helvetica;-inkscape-font-specification:Helvetica;writing-mode:lr-tb;fill:#000000;fill-opacity:1;fill-rule:nonzero;stroke:none" id="text2635">
              <tspan x="0 4.2800732" y="0" sodipodi:role="line" id="tspan2633">TB</tspan>
            </text>
          </g>
          <path d="m 2405.14,877.539 h 262.688 v 157.613 H 2405.14 Z" style="fill:none;stroke:#000000;stroke-width:2.62688994;stroke-linecap:butt;stroke-linejoin:miter;stroke-miterlimit:10;stroke-dasharray:none;stroke-opacity:1" id="path2637" inkscape:connector-curvature="0"/>
          <g id="g2639" transform="scale(10)">
            <text transform="matrix(1,0,0,-1,249.173,93.0078)" style="font-variant:normal;font-weight:normal;font-size:7.00503016px;font-family:Helvetica;-inkscape-font-specification:Helvetica;writing-mode:lr-tb;fill:#000000;fill-opacity:1;fill-rule:nonzero;stroke:none" id="text2643">
              <tspan x="0 4.2800732" y="0" sodipodi:role="line" id="tspan2641">TB</tspan>
            </text>
          </g>
          <path d="m 2063.64,614.852 h 262.691 V 772.465 H 2063.64 Z" style="fill:none;stroke:#000000;stroke-width:2.62688994;stroke-linecap:butt;stroke-linejoin:miter;stroke-miterlimit:10;stroke-dasharray:none;stroke-opacity:1" id="path2645" inkscape:connector-curvature="0"/>
          <g id="g2647" transform="scale(10)">
            <text transform="matrix(1,0,0,-1,215.023,66.7387)" style="font-variant:normal;font-weight:normal;font-size:7.00503016px;font-family:Helvetica;-inkscape-font-specification:Helvetica;writing-mode:lr-tb;fill:#000000;fill-opacity:1;fill-rule:nonzero;stroke:none" id="text2651">
              <tspan x="0 4.2800732" y="0" sodipodi:role="line" id="tspan2649">TB</tspan>
            </text>
          </g>
          <path d="m 2405.14,352.16 h 262.688 V 509.773 H 2405.14 Z" style="fill:none;stroke:#000000;stroke-width:2.62688994;stroke-linecap:butt;stroke-linejoin:miter;stroke-miterlimit:10;stroke-dasharray:none;stroke-opacity:1" id="path2653" inkscape:connector-curvature="0"/>
          <g id="g2655" transform="scale(10)">
            <text transform="matrix(1,0,0,-1,249.173,40.4699)" style="font-variant:normal;font-weight:normal;font-size:7.00503016px;font-family:Helvetica;-inkscape-font-specification:Helvetica;writing-mode:lr-tb;fill:#000000;fill-opacity:1;fill-rule:nonzero;stroke:none" id="text2659">
              <tspan x="0 4.2800732" y="0" sodipodi:role="line" id="tspan2657">TB</tspan>
            </text>
          </g>
          <path d="m 960.352,247.086 h 840.605 v 840.605 H 960.352 Z" style="fill:none;stroke:#000000;stroke-width:2.62688994;stroke-linecap:butt;stroke-linejoin:miter;stroke-miterlimit:10;stroke-dasharray:21.0151;stroke-dashoffset:0;stroke-opacity:1" id="path2661" inkscape:connector-curvature="0"/>
        </g>
      </g>
      <g transform="matrix(0.03527778,0,0,-0.03527778,-118.05436,198.32584)" id="g2663">
        <g id="g2665" clip-path="url(#clipPath2669)">
          <path d="m 2667.83,352.16 h 105.08 v 682.99 h -105.08" style="fill:none;stroke:#000000;stroke-width:2.62688994;stroke-linecap:butt;stroke-linejoin:miter;stroke-miterlimit:10;stroke-dasharray:none;stroke-opacity:1" id="path2671" inkscape:connector-curvature="0"/>
        </g>
      </g>
      <g transform="matrix(0.03527778,0,0,-0.03527778,-118.05436,198.32584)" id="g2673">
        <g id="g2675" clip-path="url(#clipPath2679)">
          <path d="m 2715.82,1045.66 -42.03,-10.51 42.03,-10.51" style="fill:none;stroke:#000000;stroke-width:2.62688994;stroke-linecap:butt;stroke-linejoin:miter;stroke-miterlimit:10;stroke-dasharray:none;stroke-opacity:1" id="path2681" inkscape:connector-curvature="0"/>
        </g>
      </g>
      <g transform="matrix(0.03527778,0,0,-0.03527778,-118.05436,198.32584)" id="g2683">
        <g id="g2685" clip-path="url(#clipPath2689)">
          <path d="m 2405.14,877.539 -78.8,-105.074" style="fill:none;stroke:#000000;stroke-width:2.62688994;stroke-linecap:butt;stroke-linejoin:miter;stroke-miterlimit:10;stroke-dasharray:none;stroke-opacity:1" id="path2691" inkscape:connector-curvature="0"/>
        </g>
      </g>
      <g transform="matrix(0.03527778,0,0,-0.03527778,-118.05436,198.32584)" id="g2693">
        <g id="g2695" clip-path="url(#clipPath2699)">
          <path d="m 2346.65,816.945 -16.81,-39.929 33.62,27.32" style="fill:none;stroke:#000000;stroke-width:2.62688994;stroke-linecap:butt;stroke-linejoin:miter;stroke-miterlimit:10;stroke-dasharray:none;stroke-opacity:1" id="path2701" inkscape:connector-curvature="0"/>
        </g>
      </g>
      <g transform="matrix(0.03527778,0,0,-0.03527778,-118.05436,198.32584)" id="g2703">
        <g id="g2705" clip-path="url(#clipPath2709)">
          <path d="M 2536.48,877.539 V 772.465" style="fill:none;stroke:#000000;stroke-width:2.62688994;stroke-linecap:butt;stroke-linejoin:miter;stroke-miterlimit:10;stroke-dasharray:none;stroke-opacity:1" id="path2711" inkscape:connector-curvature="0"/>
        </g>
      </g>
      <g transform="matrix(0.03527778,0,0,-0.03527778,-118.05436,198.32584)" id="g2713">
        <g id="g2715" clip-path="url(#clipPath2719)">
          <path d="m 2525.98,820.449 10.5,-42.031 10.51,42.031" style="fill:none;stroke:#000000;stroke-width:2.62688994;stroke-linecap:butt;stroke-linejoin:miter;stroke-miterlimit:10;stroke-dasharray:none;stroke-opacity:1" id="path2721" inkscape:connector-curvature="0"/>
        </g>
      </g>
      <g transform="matrix(0.03527778,0,0,-0.03527778,-118.05436,198.32584)" id="g2723">
        <g id="g2725" clip-path="url(#clipPath2729)">
          <path d="M 2326.34,614.852 2457.68,509.773" style="fill:none;stroke:#000000;stroke-width:2.62688994;stroke-linecap:butt;stroke-linejoin:miter;stroke-miterlimit:10;stroke-dasharray:none;stroke-opacity:1" id="path2731" inkscape:connector-curvature="0"/>
        </g>
      </g>
      <g transform="matrix(0.03527778,0,0,-0.03527778,-118.05436,198.32584)" id="g2733">
        <g id="g2735" clip-path="url(#clipPath2739)">
          <path d="m 2413.55,531.492 39.57,-18.215 -26.26,34.676" style="fill:none;stroke:#000000;stroke-width:2.62688994;stroke-linecap:butt;stroke-linejoin:miter;stroke-miterlimit:10;stroke-dasharray:none;stroke-opacity:1" id="path2741" inkscape:connector-curvature="0"/>
        </g>
      </g>
      <g transform="matrix(0.03527778,0,0,-0.03527778,-118.05436,198.32584)" id="g2743">
        <g id="g2745" clip-path="url(#clipPath2749)">
          <path d="M 2536.48,614.852 V 509.773" style="fill:none;stroke:#000000;stroke-width:2.62688994;stroke-linecap:butt;stroke-linejoin:miter;stroke-miterlimit:10;stroke-dasharray:none;stroke-opacity:1" id="path2751" inkscape:connector-curvature="0"/>
        </g>
      </g>
      <g transform="matrix(0.03527778,0,0,-0.03527778,-118.05436,198.32584)" id="g2753">
        <g id="g2755" clip-path="url(#clipPath2759)">
          <path d="m 2525.98,557.758 10.5,-42.028 10.51,42.028" style="fill:none;stroke:#000000;stroke-width:2.62688994;stroke-linecap:butt;stroke-linejoin:miter;stroke-miterlimit:10;stroke-dasharray:none;stroke-opacity:1" id="path2761" inkscape:connector-curvature="0"/>
          <path d="m 2011.11,247.086 h 814.332 v 840.605 H 2011.11 Z" style="fill:none;stroke:#000000;stroke-width:2.62688994;stroke-linecap:butt;stroke-linejoin:miter;stroke-miterlimit:10;stroke-dasharray:21.0151;stroke-dashoffset:0;stroke-opacity:1" id="path2763" inkscape:connector-curvature="0"/>
        </g>
      </g>
      <g transform="matrix(0.03527778,0,0,-0.03527778,-118.05436,198.32584)" id="g2765">
        <g id="g2767" clip-path="url(#clipPath2771)">
          <path d="m 1748.42,693.656 1.05,0.352 2.1,1.051 4.2,2.101 5.96,2.801 8.06,3.855 9.8,4.551 10.86,5.254 11.91,5.953 11.91,5.957 11.91,6.305 11.55,5.953 11.21,6.305 10.16,5.605 9.45,5.602 9.11,5.605 8.06,5.602 7.35,5.254 7.01,5.605 6.65,5.254 6.31,5.953 6.3,5.606 5.26,5.953 5.6,5.605 5.25,6.305 5.61,6.305 5.25,6.652 5.6,7.008 5.96,7.004 5.95,7.355 5.96,7.356 6.3,7.707 6.31,7.703 6.65,7.707 6.66,7.703 7,7.707 7.01,7.707 7.35,7.355 7.36,7.004 7.7,7.004 7.71,6.305 7.71,6.305 8.05,6.304 8.05,5.606 8.76,5.254 8.76,5.254 7.36,3.851 7.7,3.852 8.05,3.504 8.41,3.851 9.11,3.153 9.46,3.503 10.5,3.153 10.86,3.5 11.56,3.152 12.61,3.153 13.66,3.503 14.36,3.153 15.06,3.154 16.11,3.5 16.46,3.5 17.16,3.15 17.17,3.51 17.16,3.15 17.16,3.15 15.76,2.8 15.06,2.46 13.31,2.45 11.56,2.1 9.46,1.4 7.35,1.4 11.56,1.75" style="fill:none;stroke:#000000;stroke-width:2.62688994;stroke-linecap:butt;stroke-linejoin:bevel;stroke-miterlimit:10;stroke-dasharray:none;stroke-opacity:1" id="path2773" inkscape:connector-curvature="0"/>
        </g>
      </g>
      <g transform="matrix(0.03527778,0,0,-0.03527778,-118.05436,198.32584)" id="g2775">
        <g id="g2777" clip-path="url(#clipPath2781)">
          <path d="m 2359.26,1017.99 40.28,16.46 -43.43,4.21" style="fill:none;stroke:#000000;stroke-width:2.62688994;stroke-linecap:butt;stroke-linejoin:miter;stroke-miterlimit:10;stroke-dasharray:none;stroke-opacity:1" id="path2783" inkscape:connector-curvature="0"/>
        </g>
      </g>
      <g transform="matrix(0.03527778,0,0,-0.03527778,-118.05436,198.32584)" id="g2785">
        <g id="g2787" clip-path="url(#clipPath2791)">
          <path d="m 2405.14,352.16 h -1.05 l -1.75,0.352 -3.85,0.351 -5.61,0.348 -7.7,0.703 -10.16,1.051 -12.61,1.051 -14.01,1.398 -16.11,1.402 -16.81,1.75 -18.21,2.102 -18.22,2.102 -18.56,2.101 -17.87,2.102 -17.86,2.101 -16.81,2.453 -16.11,2.102 -15.06,2.453 -14.01,2.449 -13.31,2.102 -12.26,2.805 -11.56,2.449 -10.86,2.453 -9.8,2.801 -9.11,2.804 -8.76,3.149 -8.4,3.152 -7.71,3.152 -7.36,3.504 -8.75,4.903 -8.41,4.906 -8.05,5.254 -7.71,5.601 -7.7,5.957 -7.01,6.305 -7.35,6.305 -6.66,7.004 -6.65,7.004 -6.31,7.355 -6.3,7.356 -6.31,7.355 -5.6,7.355 -5.95,7.356 -5.26,7.355 -5.6,7.356 -4.91,7.004 -5.25,6.656 -4.9,6.652 -4.91,6.305 -4.55,5.957 -4.9,5.602 -4.91,5.254 -4.9,5.253 -5.61,5.254 -5.95,5.254 -5.95,4.555 -6.66,4.902 -7.35,4.555 -7.71,4.203 -8.4,4.551 -9.46,4.555 -9.81,4.554 -10.86,4.551 -11.55,4.555 -11.91,4.551 -11.91,4.203 -11.56,4.203 -10.86,3.855 -9.45,3.5 -8.06,2.453 -13.31,4.555" style="fill:none;stroke:#000000;stroke-width:2.62688994;stroke-linecap:butt;stroke-linejoin:bevel;stroke-miterlimit:10;stroke-dasharray:none;stroke-opacity:1" id="path2793" inkscape:connector-curvature="0"/>
        </g>
      </g>
      <g transform="matrix(0.03527778,0,0,-0.03527778,-118.05436,198.32584)" id="g2795">
        <g id="g2797" clip-path="url(#clipPath2801)">
          <path d="m 1797.11,635.867 -43.09,3.5 36.08,-23.465" style="fill:none;stroke:#000000;stroke-width:2.62688994;stroke-linecap:butt;stroke-linejoin:miter;stroke-miterlimit:10;stroke-dasharray:none;stroke-opacity:1" id="path2803" inkscape:connector-curvature="0"/>
        </g>
      </g>
      <g transform="matrix(0.03527778,0,0,-0.03527778,-118.05436,198.32584)" id="g2805">
        <g id="g2807" clip-path="url(#clipPath2811)">
          <path d="m 1012.89,325.895 h -0.35 l -1.4,0.347 h -1.75 l -3.16,0.703 -4.2,0.348 -4.901,1.051 -5.953,1.402 -6.305,1.402 -7.355,2.102 -7.356,2.449 -8.055,3.153 -8.406,3.855 -8.758,4.902 -9.105,5.602 -9.457,7.008 -10.508,8.754 -10.859,10.16 -11.555,11.906 -11.91,13.66 -9.809,12.258 -8.754,12.609 -8.058,12.262 -7.004,11.207 -5.254,10.508 -4.551,9.457 -3.152,8.055 -2.453,7.355 -1.403,6.656 -1.05,5.954 -0.7,5.601 -0.351,5.254 -0.348,5.254 -0.703,5.605 -1.051,5.954 -1.398,6.304 -2.453,7.356 -3.153,8.058 -4.554,9.106 -5.254,9.804 -7.004,10.86 -8.055,11.558 -8.758,11.911 -9.804,11.207 -10.86,11.207 -10.508,9.808 -10.156,8.055 -9.457,6.656 -9.105,5.254 -8.407,4.199 -8.406,3.153 -7.707,2.453 -7.355,1.75 -7.356,1.051 -6.652,0.703 -6.656,0.347 h -5.953 l -5.606,-0.347 -4.555,-0.352 -4.203,-0.351 -3.152,-0.348 -5.254,-0.703" style="fill:none;stroke:#000000;stroke-width:2.62688994;stroke-linecap:butt;stroke-linejoin:bevel;stroke-miterlimit:10;stroke-dasharray:none;stroke-opacity:1" id="path2813" inkscape:connector-curvature="0"/>
        </g>
      </g>
      <g transform="matrix(0.03527778,0,0,-0.03527778,-118.05436,198.32584)" id="g2815">
        <g id="g2817" clip-path="url(#clipPath2821)">
          <path d="m 690.66,684.199 -39.93,-16.109 42.731,-4.555" style="fill:none;stroke:#000000;stroke-width:2.62688994;stroke-linecap:butt;stroke-linejoin:miter;stroke-miterlimit:10;stroke-dasharray:none;stroke-opacity:1" id="path2823" inkscape:connector-curvature="0"/>
        </g>
      </g>
      <g transform="matrix(0.03527778,0,0,-0.03527778,-118.05436,198.32584)" id="g2825">
        <g id="g2827" clip-path="url(#clipPath2831)">
          <path d="m 434.977,798.734 v 1.75 l 0.347,2.102 0.352,3.504 0.699,4.203 0.703,5.602 1.051,5.953 1.051,7.007 1.398,7.704 2.102,7.707 2.101,8.406 2.453,8.406 3.153,8.754 3.851,9.109 4.907,9.457 5.253,10.157 6.653,10.156 7.707,10.859 8.754,10.508 9.457,10.156 9.109,9.106 8.406,7.707 7.004,6.305 5.606,4.554 4.203,3.852 3.148,2.449 2.453,1.754 1.75,1.398 1.403,1.051 1.75,0.703 1.754,1.051 3.152,1.398 4.203,1.754 5.953,2.45 8.055,3.504 10.16,4.203 12.606,4.554 14.711,5.603 16.464,5.25 14.36,4.21 14.008,3.85 12.961,3.15 11.91,2.45 10.156,2.1 8.754,1.75 7.008,1.41 5.953,1.05 4.902,0.7 3.856,0.7 3.5,0.35 3.503,0.35 h 3.153 l 3.504,0.35 h 4.203 l 4.902,0.35 6.305,0.35 7.703,0.35 9.109,0.7 11.207,0.35 12.61,0.7 14.711,0.35 15.41,0.7 h 16.461 l 17.512,-0.35 17.164,-0.35 15.41,-1.05 14.711,-1.05 13.308,-1.4 12.262,-1.4 11.207,-1.75 10.508,-1.75 10.156,-1.76 9.457,-2.09 8.758,-1.76 8.055,-2.1 7.707,-1.75 6.652,-1.75 5.957,-1.75 4.898,-1.4 3.86,-1.05 6.3,-1.76" style="fill:none;stroke:#000000;stroke-width:2.62688994;stroke-linecap:butt;stroke-linejoin:bevel;stroke-miterlimit:10;stroke-dasharray:none;stroke-opacity:1" id="path2833" inkscape:connector-curvature="0"/>
        </g>
      </g>
      <g transform="matrix(0.03527778,0,0,-0.03527778,-118.05436,198.32584)" id="g2835">
        <g id="g2837" clip-path="url(#clipPath2841)">
          <path d="m 963.855,1011.69 43.435,-1.4 -37.829,21.71" style="fill:none;stroke:#000000;stroke-width:2.62688994;stroke-linecap:butt;stroke-linejoin:miter;stroke-miterlimit:10;stroke-dasharray:none;stroke-opacity:1" id="path2843" inkscape:connector-curvature="0"/>
          <g id="g2845" transform="scale(10)">
            <text transform="matrix(1,0,0,-1,98.6621,114.023)" style="font-variant:normal;font-weight:normal;font-size:7.00503016px;font-family:Helvetica;-inkscape-font-specification:Helvetica;writing-mode:lr-tb;fill:#000000;fill-opacity:1;fill-rule:nonzero;stroke:none" id="text2853">
              <tspan x="0 4.6723552 7.0050302 10.899827 14.990765 18.885561 22.780357 26.675154 30.56995 32.902626 36.797424 38.74482 42.639618 46.534412 48.481812 51.984329 55.879124 59.773922" y="0" sodipodi:role="line" id="tspan2847">Pre−generated code</tspan>
              <tspan x="105.076 109.35607 111.68875 115.58354 119.47834 122.98086 124.53597 128.43077 130.37817 131.93329 135.82808 139.72289 141.67027 146.72791 150.62271 154.12521 158.02002" y="2.62656" sodipodi:role="line" id="tspan2849">Translation Cache</tspan>
              <tspan x="-69.860001 -66.357483 -62.462688 -58.56789 -54.673096 -50.778297 -47.275784 -43.380985 -39.878471 -37.545795" y="47.283958" sodipodi:role="line" id="tspan2851">cpu_exec()</tspan>
            </text>
          </g>
        </g>
      </g>
    </g>
  </g>
</svg>
