<?xml version="1.0" encoding="UTF-8"?>
<!DOCTYPE svg PUBLIC "-//W3C//DTD SVG 1.1//EN" "http://www.w3.org/Graphics/SVG/1.1/DTD/svg11.dtd">
<svg xmlns="http://www.w3.org/2000/svg" xmlns:xlink="http://www.w3.org/1999/xlink" version="1.1" width="454px" height="161px" viewBox="-0.5 -0.5 454 161">
  <defs/>
  <g>
    <rect x="-7" y="70" width="100" height="20" fill="none" stroke="none" transform="rotate(-45,43,80)" pointer-events="all"/>
    <path d="M -6.84 69.82 C -6.84 69.82 -6.84 69.82 -6.84 69.82 M -6.84 69.82 C -6.84 69.82 -6.84 69.82 -6.84 69.82 M -7.11 76.22 C -5.93 74.45 -4.35 73.57 -1.86 70.18 M -7.11 76.22 C -5.32 73.91 -2.99 71.55 -1.86 70.18 M -6.71 81.86 C -4.13 78.36 1.46 71.78 3.79 69.79 M -6.71 81.86 C -5.11 79.27 -1.73 76.61 3.79 69.79 M -6.97 88.26 C -3.07 81.42 3.89 78.55 8.77 70.15 M -6.97 88.26 C -2.51 83.83 2.87 78.68 8.77 70.15 M -4.61 91.64 C 3.81 82.16 10.44 74.47 14.42 69.75 M -4.61 91.64 C -0.49 85.89 4.95 80.43 14.42 69.75 M 0.38 92 C 6.9 86.58 11.64 79.06 19.4 70.11 M 0.38 92 C 7.05 84.95 13.21 78.46 19.4 70.11 M 6.02 91.6 C 12.66 84.22 16.02 79.1 25.05 69.72 M 6.02 91.6 C 9.53 87.52 14.22 82.87 25.05 69.72 M 11.01 91.96 C 19.28 82.5 23.37 75.26 30.03 70.08 M 11.01 91.96 C 14.97 87 17.82 83.33 30.03 70.08 M 16.65 91.57 C 22.48 84.13 32.06 73.99 35.68 69.68 M 16.65 91.57 C 21.81 83.93 28.12 77.91 35.68 69.68 M 21.64 91.93 C 27.42 81.67 37.04 74.87 40.66 70.04 M 21.64 91.93 C 27.59 84.9 33.71 76.43 40.66 70.04 M 27.28 91.53 C 36.47 81.67 42.27 74.83 46.31 69.65 M 27.28 91.53 C 32.62 85.11 38.56 78.8 46.31 69.65 M 32.27 91.89 C 39.4 84.33 45.27 77.35 51.29 70.01 M 32.27 91.89 C 36.24 86.53 41.82 81.58 51.29 70.01 M 37.25 92.25 C 44.47 86.35 48.67 78.61 56.28 70.37 M 37.25 92.25 C 40.78 86.59 45.62 81.59 56.28 70.37 M 42.9 91.86 C 47.64 85.36 51.92 77.85 61.92 69.97 M 42.9 91.86 C 48.05 87.84 51.09 82.04 61.92 69.97 M 47.89 92.22 C 56.99 83.49 63.86 75.88 66.91 70.33 M 47.89 92.22 C 55.5 83.53 61.75 75.82 66.91 70.33 M 53.53 91.83 C 57.9 84.04 63.09 78.76 72.55 69.94 M 53.53 91.83 C 60.64 84.39 68.27 76.24 72.55 69.94 M 58.52 92.19 C 64.74 84.33 72.86 75.79 77.54 70.3 M 58.52 92.19 C 64.13 86.81 68.18 81.86 77.54 70.3 M 64.16 91.79 C 67.12 87.45 75.23 79.7 83.18 69.9 M 64.16 91.79 C 71.03 83.75 76.9 76.2 83.18 69.9 M 69.15 92.15 C 73.35 87.52 77.52 80.67 88.17 70.26 M 69.15 92.15 C 74.8 85.07 82.1 78.14 88.17 70.26 M 74.79 91.76 C 81.17 83.38 90.15 75.73 93.16 70.62 M 74.79 91.76 C 78.44 88.07 83.3 83.11 93.16 70.62 M 79.78 92.12 C 81.84 87.48 83.63 85.47 93.55 76.27 M 79.78 92.12 C 84.94 85.75 90.67 79.35 93.55 76.27 M 85.42 91.72 C 88.16 89.65 89.66 85.65 93.29 82.67 M 85.42 91.72 C 88.09 88.57 90.97 85.28 93.29 82.67 M 90.41 92.08 C 91.68 91.4 91.92 89.79 93.69 88.31 M 90.41 92.08 C 91.52 91.1 92.26 89.8 93.69 88.31" fill="none" stroke="#dae8fc" stroke-linejoin="round" stroke-linecap="round" stroke-miterlimit="10" transform="rotate(-45,43,80)" pointer-events="all"/>
    <path d="M -7 70 C 22.49 70.71 53.71 70.71 93 70 M -7 70 C 23.39 70.04 51.12 70.52 93 70 M 93 70 C 93.17 72.55 91.6 80.73 93 90 M 93 70 C 92.22 78.86 92.29 86.75 93 90 M 93 90 C 67.07 87.64 42.02 90.37 -7 90 M 93 90 C 58.22 90.75 25.08 90.9 -7 90 M -7 90 C -5.85 85 -6.03 78.28 -7 70 M -7 90 C -7.06 82.81 -8.11 76.67 -7 70" fill="none" stroke="#6c8ebf" stroke-linejoin="round" stroke-linecap="round" stroke-miterlimit="10" transform="rotate(-45,43,80)" pointer-events="all"/>
    <rect x="-7" y="70" width="100" height="20" fill="none" stroke="none" transform="rotate(45,43,80)" pointer-events="all"/>
    <path d="M -6.84 69.82 C -6.84 69.82 -6.84 69.82 -6.84 69.82 M -6.84 69.82 C -6.84 69.82 -6.84 69.82 -6.84 69.82 M -7.11 76.22 C -4.85 74.89 -3.98 72.94 -1.86 70.18 M -7.11 76.22 C -5 74.11 -3.26 72.11 -1.86 70.18 M -6.71 81.86 C -2.3 80.27 -0.08 74.14 3.79 69.79 M -6.71 81.86 C -3.93 79.19 -1.62 76.12 3.79 69.79 M -6.97 88.26 C -2.89 82.48 2.12 78.86 8.77 70.15 M -6.97 88.26 C -3.09 82.85 1.54 79.36 8.77 70.15 M -4.61 91.64 C 0.58 86.82 5.41 81.1 14.42 69.75 M -4.61 91.64 C 2.33 83.97 9.59 75.86 14.42 69.75 M 0.38 92 C 7.18 85.77 10.76 82.55 19.4 70.11 M 0.38 92 C 7.63 84.02 13.45 76.39 19.4 70.11 M 6.02 91.6 C 10.74 86.43 17.52 79.23 25.05 69.72 M 6.02 91.6 C 10.66 86.39 13.43 82.84 25.05 69.72 M 11.01 91.96 C 18.28 86.2 24.46 77.35 30.03 70.08 M 11.01 91.96 C 18.82 83.87 25.99 74.08 30.03 70.08 M 16.65 91.57 C 20.78 86.51 23.57 80.14 35.68 69.68 M 16.65 91.57 C 23.92 83.87 30.74 74.47 35.68 69.68 M 21.64 91.93 C 28.19 84.98 32.42 81.24 40.66 70.04 M 21.64 91.93 C 28.24 84.64 34.97 74.88 40.66 70.04 M 27.28 91.53 C 32.56 87.29 36.08 80.38 46.31 69.65 M 27.28 91.53 C 34.21 84.16 40.55 77.31 46.31 69.65 M 32.27 91.89 C 38.69 87.74 42.75 80.38 51.29 70.01 M 32.27 91.89 C 38.16 83.81 45.3 77.7 51.29 70.01 M 37.25 92.25 C 41.08 85.48 47.28 82.86 56.28 70.37 M 37.25 92.25 C 42.29 88.05 45.52 82.2 56.28 70.37 M 42.9 91.86 C 47.04 84.95 51.71 81.85 61.92 69.97 M 42.9 91.86 C 47.71 86.03 54.36 79.17 61.92 69.97 M 47.89 92.22 C 52.6 87.64 55.31 82.24 66.91 70.33 M 47.89 92.22 C 55.53 85.1 60.22 76.78 66.91 70.33 M 53.53 91.83 C 61.03 81.7 66.48 74.66 72.55 69.94 M 53.53 91.83 C 61.01 84.01 67.99 74.19 72.55 69.94 M 58.52 92.19 C 63.76 86.3 70.68 75.95 77.54 70.3 M 58.52 92.19 C 63.81 85.61 70.06 79.29 77.54 70.3 M 64.16 91.79 C 71.94 81.43 78.37 74.31 83.18 69.9 M 64.16 91.79 C 69.86 86.39 73.7 80.89 83.18 69.9 M 69.15 92.15 C 73.55 86.12 81.28 80.15 88.17 70.26 M 69.15 92.15 C 74.79 85.89 79.19 79.23 88.17 70.26 M 74.79 91.76 C 77.9 85.59 81.77 81.75 93.16 70.62 M 74.79 91.76 C 80.11 85.33 85.74 80.23 93.16 70.62 M 79.78 92.12 C 83.63 88.09 86.49 85.5 93.55 76.27 M 79.78 92.12 C 83.04 87.26 86.91 83.63 93.55 76.27 M 85.42 91.72 C 88.59 90.44 89.14 86.88 93.29 82.67 M 85.42 91.72 C 88.09 88.51 91.21 84.49 93.29 82.67 M 90.41 92.08 C 91.12 91.49 92.11 90.23 93.69 88.31 M 90.41 92.08 C 91.47 90.53 93.11 89.19 93.69 88.31" fill="none" stroke="#dae8fc" stroke-linejoin="round" stroke-linecap="round" stroke-miterlimit="10" transform="rotate(45,43,80)" pointer-events="all"/>
    <path d="M -7 70 C 25.35 68.47 55.39 68.67 93 70 M -7 70 C 29.79 69.65 66.29 69.34 93 70 M 93 70 C 92.65 75.42 93.94 78.97 93 90 M 93 70 C 93.48 78.13 92.45 85.31 93 90 M 93 90 C 70.31 88.95 51.09 89.18 -7 90 M 93 90 C 55.37 89.09 15.16 90.13 -7 90 M -7 90 C -7.2 86.17 -6.85 82.44 -7 70 M -7 90 C -6.21 83.7 -7.1 78.37 -7 70" fill="none" stroke="#6c8ebf" stroke-linejoin="round" stroke-linecap="round" stroke-miterlimit="10" transform="rotate(45,43,80)" pointer-events="all"/>
    <rect x="213" y="0" width="20" height="110" fill="none" stroke="none" pointer-events="all"/>
    <path d="M 213.05 -0.06 C 213.05 -0.06 213.05 -0.06 213.05 -0.06 M 213.05 -0.06 C 213.05 -0.06 213.05 -0.06 213.05 -0.06 M 212.79 6.34 C 215.12 3.56 215.93 1.65 218.04 0.3 M 212.79 6.34 C 213.77 5.02 215.22 3.13 218.04 0.3 M 213.18 11.98 C 215.72 8.19 219.93 2.58 223.68 -0.09 M 213.18 11.98 C 215.24 9.45 218.4 6.48 223.68 -0.09 M 212.92 18.38 C 219.36 13.8 223.79 6.25 228.67 0.27 M 212.92 18.38 C 216.71 12.85 221.8 9.13 228.67 0.27 M 213.32 24.02 C 218.52 18.27 222.77 11.02 233.65 0.63 M 213.32 24.02 C 217.26 17.66 222.66 13.56 233.65 0.63 M 213.05 30.42 C 218.06 24.72 225.38 17.51 233.39 7.03 M 213.05 30.42 C 219.08 23.25 225.39 14.87 233.39 7.03 M 212.79 36.82 C 220.15 28.63 222.98 21.93 233.79 12.67 M 212.79 36.82 C 218 30.58 222.43 25.78 233.79 12.67 M 213.19 42.46 C 221.22 33.94 230.61 24.55 233.53 19.07 M 213.19 42.46 C 221.51 33.2 228.4 24.57 233.53 19.07 M 212.93 48.86 C 216.86 42.95 220.76 40.07 233.92 24.71 M 212.93 48.86 C 217.85 43.98 221.5 38.64 233.92 24.71 M 213.32 54.5 C 219.65 47.68 227.05 38.91 233.66 31.11 M 213.32 54.5 C 217.01 48.87 221.4 44.78 233.66 31.11 M 213.06 60.9 C 217.29 54.35 225.74 46.15 233.4 37.51 M 213.06 60.9 C 219.05 52.72 227.21 44.75 233.4 37.51 M 212.8 67.3 C 219.62 58.25 225.9 48.31 233.79 43.15 M 212.8 67.3 C 217.93 61.83 224.28 55.57 233.79 43.15 M 213.19 72.94 C 220.59 62.24 228.26 54.06 233.53 49.55 M 213.19 72.94 C 218.26 67.71 221.27 62.68 233.53 49.55 M 212.93 79.34 C 219.43 71.71 224.69 65.64 233.92 55.19 M 212.93 79.34 C 218.11 73.38 224.58 66.62 233.92 55.19 M 213.33 84.98 C 218.1 78 226.55 70.09 233.66 61.59 M 213.33 84.98 C 219.66 79.11 224.62 71.69 233.66 61.59 M 213.06 91.38 C 219 85.11 220.53 79.37 233.4 67.99 M 213.06 91.38 C 219.13 83.62 226.76 76.33 233.4 67.99 M 212.8 97.78 C 220.37 87.72 228.8 79.05 233.8 73.63 M 212.8 97.78 C 219.53 90.8 224.25 83.24 233.8 73.63 M 213.2 103.42 C 219.39 95.97 226.89 87.54 233.53 80.03 M 213.2 103.42 C 218.21 97.41 224.14 91.34 233.53 80.03 M 212.94 109.82 C 222.62 100.97 227.1 91.46 233.93 85.67 M 212.94 109.82 C 217.18 103.9 221.48 99.81 233.93 85.67 M 215.95 112.44 C 222.56 104.52 225.9 100.51 233.67 92.07 M 215.95 112.44 C 222.78 104.08 229.74 98.05 233.67 92.07 M 220.94 112.8 C 223.25 111.24 225.78 104.88 233.41 98.47 M 220.94 112.8 C 225.7 107.47 229.32 103.51 233.41 98.47 M 226.58 112.41 C 229.95 108.85 230.73 106.52 233.8 104.11 M 226.58 112.41 C 228.7 109.87 230.31 108.14 233.8 104.11" fill="none" stroke="#fff2cc" stroke-linejoin="round" stroke-linecap="round" stroke-miterlimit="10" pointer-events="all"/>
    <path d="M 213 0 C 219.21 1.21 224.28 0.78 233 0 M 213 0 C 220.01 -0.09 226.15 -1.11 233 0 M 233 0 C 231.45 36.93 233.56 71.49 233 110 M 233 0 C 231.56 41.3 232.79 82.6 233 110 M 233 110 C 226.77 109.91 223.86 108.8 213 110 M 233 110 C 225.19 109.58 218.11 110.66 213 110 M 213 110 C 213.21 83.64 212.68 59.88 213 0 M 213 110 C 212.49 73.12 212.54 35.6 213 0" fill="none" stroke="#d6b656" stroke-linejoin="round" stroke-linecap="round" stroke-miterlimit="10" pointer-events="all"/>
    <rect x="233" y="65" width="60" height="20" fill="none" stroke="none" transform="rotate(45,263,75)" pointer-events="all"/>
    <path d="M 233.01 64.99 C 233.01 64.99 233.01 64.99 233.01 64.99 M 233.01 64.99 C 233.01 64.99 233.01 64.99 233.01 64.99 M 232.75 71.39 C 234.08 69.24 236.47 66.91 237.99 65.35 M 232.75 71.39 C 234.82 69.47 236.35 67.44 237.99 65.35 M 233.14 77.03 C 235.78 70.73 240.46 68.04 243.64 64.96 M 233.14 77.03 C 237.38 71.83 241.02 66.83 243.64 64.96 M 232.88 83.43 C 239.14 78.34 241.7 72.52 248.62 65.32 M 232.88 83.43 C 239 77.31 244.97 68.98 248.62 65.32 M 235.24 86.81 C 241.59 83.44 243.69 77.76 254.27 64.92 M 235.24 86.81 C 241.07 79.42 249.84 70.11 254.27 64.92 M 240.23 87.17 C 245.55 82.68 248.83 76.39 259.25 65.28 M 240.23 87.17 C 247.54 77.66 254.41 70.37 259.25 65.28 M 245.87 86.78 C 250.53 81.46 255.07 77.12 264.9 64.89 M 245.87 86.78 C 250.91 81.65 255.16 76.62 264.9 64.89 M 250.86 87.14 C 254.5 82.69 261.68 77.03 269.88 65.25 M 250.86 87.14 C 258.37 78.57 264.3 71.29 269.88 65.25 M 256.5 86.74 C 262.81 79.31 269.34 71.08 275.53 64.85 M 256.5 86.74 C 260.71 81.76 263.65 77.11 275.53 64.85 M 261.49 87.1 C 266.65 78.7 273.04 70.85 280.51 65.21 M 261.49 87.1 C 266.84 80.63 272.78 73 280.51 65.21 M 267.13 86.71 C 275.1 77.08 279.76 71.98 286.16 64.82 M 267.13 86.71 C 274.07 80.55 279.19 71.87 286.16 64.82 M 272.12 87.07 C 275.5 81.04 283.45 74.39 291.14 65.18 M 272.12 87.07 C 279.8 78.75 286.54 69.99 291.14 65.18 M 277.76 86.67 C 285.53 78.88 289.72 71.16 294.82 67.05 M 277.76 86.67 C 284.21 79.75 289.25 72.88 294.82 67.05 M 282.75 87.03 C 285.34 84.88 289.63 78.57 295.21 72.69 M 282.75 87.03 C 287.26 81.28 291.99 76.86 295.21 72.69 M 288.39 86.64 C 289.3 85.63 292.2 83.67 294.95 79.09 M 288.39 86.64 C 291.17 83.61 293.84 80.36 294.95 79.09" fill="none" stroke="#fff2cc" stroke-linejoin="round" stroke-linecap="round" stroke-miterlimit="10" transform="rotate(45,263,75)" pointer-events="all"/>
    <path d="M 233 65 C 249.5 63.25 260.77 63.41 293 65 M 233 65 C 253.7 65.28 274.67 63.9 293 65 M 293 65 C 291.52 69.07 294.22 76.25 293 85 M 293 65 C 292.19 70.41 292.12 77.88 293 85 M 293 85 C 273.41 84.62 252.92 84.01 233 85 M 293 85 C 274.94 85.24 258.96 84.98 233 85 M 233 85 C 231.96 78.57 233.02 76.22 233 65 M 233 85 C 233.33 77.11 233.88 68.35 233 65" fill="none" stroke="#d6b656" stroke-linejoin="round" stroke-linecap="round" stroke-miterlimit="10" transform="rotate(45,263,75)" pointer-events="all"/>
    <rect x="233" y="100" width="50" height="20" fill="none" stroke="none" pointer-events="all"/>
    <path d="M 233.28 99.68 C 233.28 99.68 233.28 99.68 233.28 99.68 M 233.28 99.68 C 233.28 99.68 233.28 99.68 233.28 99.68 M 233.02 106.08 C 234.39 103.87 236.6 103.28 238.27 100.04 M 233.02 106.08 C 234.61 104.36 236.35 102.68 238.27 100.04 M 232.76 112.47 C 234.11 107.81 238.9 105.43 243.91 99.64 M 232.76 112.47 C 236.82 106.85 241.24 102.81 243.91 99.64 M 233.15 118.12 C 239.59 114.08 244.21 107.51 248.9 100 M 233.15 118.12 C 238.33 111.01 243.55 106.35 248.9 100 M 234.86 122.25 C 241.79 115.16 245.89 111.08 253.88 100.36 M 234.86 122.25 C 239.7 115.7 244.49 110.12 253.88 100.36 M 240.5 121.86 C 245.9 112.18 255.82 105.82 259.53 99.97 M 240.5 121.86 C 244.58 117.78 249.3 111.74 259.53 99.97 M 245.49 122.22 C 248.24 115.12 256.19 112.69 264.51 100.33 M 245.49 122.22 C 249.65 117.97 253.98 112.02 264.51 100.33 M 251.13 121.82 C 253.33 117.08 258.6 113.81 270.16 99.94 M 251.13 121.82 C 258.68 114.51 265.14 105.47 270.16 99.94 M 256.12 122.18 C 264.97 112.76 272.52 103.92 275.14 100.3 M 256.12 122.18 C 262.44 115.15 267.88 109.12 275.14 100.3 M 261.76 121.79 C 267.69 116.7 268.69 111.91 280.79 99.9 M 261.76 121.79 C 267.77 113.05 274.31 106.13 280.79 99.9 M 266.75 122.15 C 274.11 114.37 279.79 105.4 284.46 101.77 M 266.75 122.15 C 272.76 113.62 279.78 107 284.46 101.77 M 272.39 121.75 C 276.47 117.48 280.01 112.86 284.86 107.41 M 272.39 121.75 C 276.24 117.64 278.85 114.3 284.86 107.41 M 277.38 122.11 C 279.19 120.44 281.98 117.52 284.59 113.81 M 277.38 122.11 C 280 119.68 282.32 117.29 284.59 113.81" fill="none" stroke="#fff2cc" stroke-linejoin="round" stroke-linecap="round" stroke-miterlimit="10" pointer-events="all"/>
    <path d="M 233 100 C 245.93 101.59 257.59 101.96 283 100 M 233 100 C 243.05 101.27 253.75 101.11 283 100 M 283 100 C 285 106.95 282.56 109.49 283 120 M 283 100 C 283.46 104.69 282.28 111.44 283 120 M 283 120 C 268.19 120.79 251.05 121.67 233 120 M 283 120 C 267.02 120.45 250.9 121.08 233 120 M 233 120 C 234.21 110.73 231.8 103.38 233 100 M 233 120 C 233.78 113 232.49 107.05 233 100" fill="none" stroke="#d6b656" stroke-linejoin="round" stroke-linecap="round" stroke-miterlimit="10" pointer-events="all"/>
    <rect x="93" y="40" width="20" height="80" fill="none" stroke="none" pointer-events="all"/>
    <path d="M 92.99 40.01 C 92.99 40.01 92.99 40.01 92.99 40.01 M 92.99 40.01 C 92.99 40.01 92.99 40.01 92.99 40.01 M 92.73 46.4 C 95.23 43.68 96.08 41.55 97.98 40.37 M 92.73 46.4 C 94.69 44.69 95.7 42.86 97.98 40.37 M 93.13 52.05 C 97.23 48.25 98.45 44.49 103.62 39.97 M 93.13 52.05 C 96.91 47.48 100.38 41.97 103.62 39.97 M 92.87 58.45 C 96.36 55.53 102.06 48.41 108.61 40.33 M 92.87 58.45 C 96.27 54.44 100.37 49.66 108.61 40.33 M 93.26 64.09 C 98.06 57.93 103.75 50.81 113.6 40.69 M 93.26 64.09 C 99.46 56.94 105.21 49.14 113.6 40.69 M 93 70.49 C 99.29 66.28 102.69 59.33 113.99 46.34 M 93 70.49 C 101.49 61.19 109.85 52.15 113.99 46.34 M 92.74 76.88 C 99.71 70.68 107.2 61.36 113.73 52.73 M 92.74 76.88 C 99.59 69.12 106.27 60.42 113.73 52.73 M 93.13 82.53 C 98.41 76.47 101.16 71.47 113.47 59.13 M 93.13 82.53 C 97.26 78.25 101.36 72.47 113.47 59.13 M 92.87 88.93 C 100.34 81.89 107.8 72.86 113.86 64.77 M 92.87 88.93 C 99.21 82.14 103.73 76.13 113.86 64.77 M 93.27 94.57 C 97.2 89.59 101.07 82.58 113.6 71.17 M 93.27 94.57 C 99.17 88.02 106.35 81.76 113.6 71.17 M 93 100.97 C 99.28 94.47 104.36 87.48 114 76.82 M 93 100.97 C 100.77 93.09 107.26 83.91 114 76.82 M 92.74 107.36 C 99.21 100.83 103.74 92.74 113.74 83.21 M 92.74 107.36 C 100.26 99.16 106.09 92.13 113.74 83.21 M 93.14 113.01 C 99.53 103.94 109.42 93.47 113.47 89.61 M 93.14 113.01 C 97.31 108.52 101.86 104.28 113.47 89.61 M 92.88 119.4 C 99.58 110.25 107.06 106.21 113.87 95.25 M 92.88 119.4 C 98.81 112.11 107.51 103.81 113.87 95.25 M 95.89 122.03 C 99.46 118.39 103.06 113.17 113.61 101.65 M 95.89 122.03 C 100.17 116.47 104.93 110.44 113.61 101.65 M 100.88 122.39 C 106.34 118.83 107.18 111.04 114 107.29 M 100.88 122.39 C 105.13 116.95 110.16 112.73 114 107.29 M 106.52 121.99 C 109.66 118.22 112.76 115.16 113.74 113.69 M 106.52 121.99 C 109.42 118.74 111.6 115.39 113.74 113.69" fill="none" stroke="#d5e8d4" stroke-linejoin="round" stroke-linecap="round" stroke-miterlimit="10" pointer-events="all"/>
    <path d="M 93 40 C 97.5 38.42 103.97 39.17 113 40 M 93 40 C 96.55 39.53 101.09 40.17 113 40 M 113 40 C 114.74 60.67 111.23 79.81 113 120 M 113 40 C 112.21 66.63 112.77 93.59 113 120 M 113 120 C 106.93 121.44 103.46 119.3 93 120 M 113 120 C 108.21 119.46 104.47 119.62 93 120 M 93 120 C 93.59 95.26 90.86 72.69 93 40 M 93 120 C 93.55 97.93 91.93 75.23 93 40" fill="none" stroke="#82b366" stroke-linejoin="round" stroke-linecap="round" stroke-miterlimit="10" pointer-events="all"/>
    <rect x="93" y="10" width="20" height="20" fill="none" stroke="none" pointer-events="all"/>
    <path d="M 93.23 9.74 C 93.23 9.74 93.23 9.74 93.23 9.74 M 93.23 9.74 C 93.23 9.74 93.23 9.74 93.23 9.74 M 92.97 16.13 C 93.78 14.96 96.06 12.96 98.22 10.1 M 92.97 16.13 C 94.44 14.62 95.67 13.15 98.22 10.1 M 92.71 22.53 C 97.85 17.96 101.19 15.28 103.86 9.7 M 92.71 22.53 C 96.28 17.81 100.53 13.23 103.86 9.7 M 93.1 28.17 C 96.41 22.32 100.16 18.44 108.85 10.06 M 93.1 28.17 C 95.92 23.18 101.27 20.07 108.85 10.06 M 95.46 31.55 C 100.27 26.71 107.39 17.84 113.83 10.42 M 95.46 31.55 C 99.71 27.86 102.95 22.39 113.83 10.42 M 100.45 31.91 C 104.02 25.66 111.28 21.86 113.57 16.82 M 100.45 31.91 C 103.73 28.3 106 26.74 113.57 16.82 M 106.09 31.52 C 107.61 28.23 110.26 25.5 113.97 22.46 M 106.09 31.52 C 108.37 28.01 110.86 25.25 113.97 22.46 M 111.08 31.88 C 112.17 30.41 113.37 29.62 113.71 28.86 M 111.08 31.88 C 112.07 30.59 113.24 29.61 113.71 28.86" fill="none" stroke="#d5e8d4" stroke-linejoin="round" stroke-linecap="round" stroke-miterlimit="10" pointer-events="all"/>
    <path d="M 93 10 C 96.35 11.14 101.65 8.09 113 10 M 93 10 C 99.19 10.02 104.74 9.89 113 10 M 113 10 C 114.25 15.08 113.6 19.12 113 30 M 113 10 C 113.71 15.99 113.16 22.34 113 30 M 113 30 C 107.1 28.61 102.36 31.97 93 30 M 113 30 C 106.63 29.24 103.1 30.28 93 30 M 93 30 C 92.4 23.52 94.2 21.04 93 10 M 93 30 C 92.55 25.42 93.1 20.11 93 10" fill="none" stroke="#82b366" stroke-linejoin="round" stroke-linecap="round" stroke-miterlimit="10" pointer-events="all"/>
    <rect x="133" y="40" width="60" height="20" fill="none" stroke="none" pointer-events="all"/>
    <path d="M 132.84 40.19 C 132.84 40.19 132.84 40.19 132.84 40.19 M 132.84 40.19 C 132.84 40.19 132.84 40.19 132.84 40.19 M 133.23 45.83 C 135.13 43.4 136.68 41.93 138.48 39.8 M 133.23 45.83 C 134.1 44.52 135.54 42.61 138.48 39.8 M 132.97 52.23 C 136.44 49.63 136.21 47.56 143.47 40.16 M 132.97 52.23 C 137.27 47.7 140.19 42.99 143.47 40.16 M 132.71 58.63 C 136.37 53.62 142.34 48.79 149.11 39.76 M 132.71 58.63 C 136.72 54.5 139.45 50.9 149.11 39.76 M 135.07 62.01 C 140.24 53.2 149.57 45.68 154.1 40.12 M 135.07 62.01 C 140.26 54.24 147.46 47.97 154.1 40.12 M 140.71 61.61 C 146.86 55.6 151.24 49.46 159.74 39.73 M 140.71 61.61 C 145.79 55.67 148.92 51.6 159.74 39.73 M 145.7 61.97 C 151.78 56.53 157.47 47.77 164.73 40.09 M 145.7 61.97 C 152.61 54.71 158.8 46.94 164.73 40.09 M 151.34 61.58 C 157.68 55.3 164.12 47.06 170.37 39.69 M 151.34 61.58 C 158.64 53.72 165.31 44.37 170.37 39.69 M 156.33 61.94 C 159.99 56.05 165.02 50.94 175.36 40.05 M 156.33 61.94 C 160.14 57.66 165.33 51.86 175.36 40.05 M 161.97 61.54 C 167.18 51.17 175.56 45.88 181 39.66 M 161.97 61.54 C 168.78 52.53 176.8 46.13 181 39.66 M 166.96 61.9 C 172.42 54.97 179.94 47.77 185.99 40.02 M 166.96 61.9 C 171.37 55.31 178.18 50.23 185.99 40.02 M 171.95 62.26 C 176 54.96 184.36 50.13 191.63 39.62 M 171.95 62.26 C 178.65 53.83 185.4 47.33 191.63 39.62 M 177.59 61.87 C 180.33 56.05 185.36 52.8 195.3 41.49 M 177.59 61.87 C 183.83 54.01 190.24 46.54 195.3 41.49 M 182.58 62.23 C 185.67 59.12 191.31 54.8 195.04 47.89 M 182.58 62.23 C 186.2 58.7 189.68 53.77 195.04 47.89 M 188.22 61.83 C 190.73 60.38 191.48 58.42 194.78 54.29 M 188.22 61.83 C 189.97 60.34 191.34 58.22 194.78 54.29" fill="none" stroke="#ffe6cc" stroke-linejoin="round" stroke-linecap="round" stroke-miterlimit="10" pointer-events="all"/>
    <path d="M 133 40 C 148.94 40.31 162.79 41.45 193 40 M 133 40 C 153.6 40.17 173.94 39.25 193 40 M 193 40 C 194.13 47.96 192.34 51.36 193 60 M 193 40 C 192.97 45.26 193.32 50.9 193 60 M 193 60 C 171.91 58.98 146.57 59.84 133 60 M 193 60 C 174.63 59.15 154.87 59.07 133 60 M 133 60 C 134.65 50.69 132.98 47.2 133 40 M 133 60 C 133.01 52.3 133.71 45.81 133 40" fill="none" stroke="#d79b00" stroke-linejoin="round" stroke-linecap="round" stroke-miterlimit="10" pointer-events="all"/>
    <rect x="123" y="60" width="20" height="40" fill="none" stroke="none" pointer-events="all"/>
    <path d="M 123.26 59.7 C 123.26 59.7 123.26 59.7 123.26 59.7 M 123.26 59.7 C 123.26 59.7 123.26 59.7 123.26 59.7 M 123 66.09 C 124.94 65.21 124.72 63.87 128.25 60.06 M 123 66.09 C 124.2 65.09 125.05 63.53 128.25 60.06 M 122.74 72.49 C 127.47 69.19 129.27 64.91 133.89 59.66 M 122.74 72.49 C 126.86 67.59 130.52 63.85 133.89 59.66 M 123.14 78.13 C 126.8 74.71 130.65 69.32 138.88 60.02 M 123.14 78.13 C 129.23 71.54 134.22 64.15 138.88 60.02 M 122.87 84.53 C 129.28 80.23 133.27 74.16 143.87 60.38 M 122.87 84.53 C 127.52 78.71 133.19 73.65 143.87 60.38 M 123.27 90.18 C 130.03 82.97 133.57 76.76 143.61 66.78 M 123.27 90.18 C 129.24 84.9 134.37 77.32 143.61 66.78 M 123.01 96.57 C 127.76 88.67 137.47 81.14 144 72.42 M 123.01 96.57 C 130.16 87.4 137.1 79.95 144 72.42 M 124.06 101.46 C 129.6 95.05 134.33 88.96 143.74 78.82 M 124.06 101.46 C 131.65 92.55 139.09 83.17 143.74 78.82 M 129.7 101.07 C 134.1 94.81 138.74 90.7 143.48 85.22 M 129.7 101.07 C 133.73 96.39 137.95 92.9 143.48 85.22 M 134.69 101.43 C 138.12 97.94 139.17 94.77 143.87 90.86 M 134.69 101.43 C 138.25 96.82 142.67 93.31 143.87 90.86 M 140.33 101.03 C 141.21 99.35 142.92 98.08 143.61 97.26 M 140.33 101.03 C 141.33 99.73 142.63 98.41 143.61 97.26" fill="none" stroke="#ffe6cc" stroke-linejoin="round" stroke-linecap="round" stroke-miterlimit="10" pointer-events="all"/>
    <path d="M 123 60 C 128.07 59.39 131.01 60.73 143 60 M 123 60 C 126.46 60.21 132.04 60.51 143 60 M 143 60 C 143.56 73.76 144.63 87.47 143 100 M 143 60 C 142.26 69.69 143.51 79.76 143 100 M 143 100 C 137.42 100.54 130.18 98.9 123 100 M 143 100 C 135.48 99.6 128.36 100.42 123 100 M 123 100 C 123.24 89.71 122.1 75.08 123 60 M 123 100 C 123.26 86.57 122.14 74.26 123 60" fill="none" stroke="#d79b00" stroke-linejoin="round" stroke-linecap="round" stroke-miterlimit="10" pointer-events="all"/>
    <rect x="133" y="100" width="70" height="20" fill="none" stroke="none" pointer-events="all"/>
    <path d="M 133.02 99.98 C 133.02 99.98 133.02 99.98 133.02 99.98 M 133.02 99.98 C 133.02 99.98 133.02 99.98 133.02 99.98 M 132.76 106.37 C 134.18 104.33 136.44 101.92 138.01 100.34 M 132.76 106.37 C 134.52 104.36 136.64 101.96 138.01 100.34 M 133.15 112.02 C 138.34 108.41 141.95 102.41 143.65 99.94 M 133.15 112.02 C 136.36 107.32 140.34 103.4 143.65 99.94 M 132.89 118.42 C 136.38 112.04 142.28 109.91 148.64 100.3 M 132.89 118.42 C 138.04 112.84 144.28 107.11 148.64 100.3 M 135.25 121.79 C 141.33 114.3 146.87 110.35 154.28 99.91 M 135.25 121.79 C 142.27 114.57 147.32 107.38 154.28 99.91 M 140.24 122.15 C 146.76 114.14 156.61 104.23 159.27 100.27 M 140.24 122.15 C 144.47 116.71 150.91 110.39 159.27 100.27 M 145.88 121.76 C 152.14 116.36 156.66 107.43 164.91 99.87 M 145.88 121.76 C 151.49 114.25 157.83 106.66 164.91 99.87 M 150.87 122.12 C 154.76 115.64 161.39 112.16 169.9 100.23 M 150.87 122.12 C 157.82 113.13 165.52 106.29 169.9 100.23 M 156.52 121.73 C 160.39 115.85 167.44 109.53 175.54 99.84 M 156.52 121.73 C 163.67 114.95 169.86 106.39 175.54 99.84 M 161.5 122.09 C 168.5 114.71 173.89 107.17 180.53 100.2 M 161.5 122.09 C 165.81 116.92 171.25 112.32 180.53 100.2 M 167.15 121.69 C 169.03 118.38 175.81 114.67 186.17 99.8 M 167.15 121.69 C 170.93 117.56 174.74 111.8 186.17 99.8 M 172.13 122.05 C 177.96 117.38 182.3 107.64 191.16 100.16 M 172.13 122.05 C 178.21 115.17 186.06 107 191.16 100.16 M 177.78 121.66 C 181.88 113.73 191.05 107.95 196.8 99.77 M 177.78 121.66 C 183.52 115.79 189.17 108.08 196.8 99.77 M 182.76 122.02 C 186.48 115.92 194.94 110.19 201.79 100.13 M 182.76 122.02 C 188.38 115 193.28 109.97 201.79 100.13 M 188.41 121.62 C 193.24 116.41 199.03 107.05 205.46 102 M 188.41 121.62 C 194.33 115.09 200.31 108.6 205.46 102 M 193.39 121.98 C 198.08 115.55 203.48 113.94 205.2 108.4 M 193.39 121.98 C 195.96 118.1 198.73 115.39 205.2 108.4 M 199.04 121.59 C 200.43 119.6 203.12 116.88 205.6 114.04 M 199.04 121.59 C 201.75 118.66 203.31 115.95 205.6 114.04" fill="none" stroke="#ffe6cc" stroke-linejoin="round" stroke-linecap="round" stroke-miterlimit="10" pointer-events="all"/>
    <path d="M 133 100 C 149.09 97.96 167.02 99.5 203 100 M 133 100 C 153.51 101.16 172.53 100.68 203 100 M 203 100 C 203.09 105.71 203.02 115.85 203 120 M 203 100 C 203.5 103.81 203.64 110.02 203 120 M 203 120 C 182.24 121.39 158.41 121.25 133 120 M 203 120 C 176.28 119.64 147.73 119.34 133 120 M 133 120 C 131.96 117.02 131.34 111.52 133 100 M 133 120 C 132.31 114.08 133.35 109.21 133 100" fill="none" stroke="#d79b00" stroke-linejoin="round" stroke-linecap="round" stroke-miterlimit="10" pointer-events="all"/>
    <rect x="143" y="70" width="40" height="20" fill="none" stroke="none" pointer-events="all"/>
    <path d="M 142.89 70.13 C 142.89 70.13 142.89 70.13 142.89 70.13 M 142.89 70.13 C 142.89 70.13 142.89 70.13 142.89 70.13 M 143.28 75.77 C 144.74 75.28 145.22 73 148.53 69.73 M 143.28 75.77 C 145.37 73.96 146.89 71.91 148.53 69.73 M 143.02 82.17 C 146.84 80.26 147.08 77.91 153.52 70.09 M 143.02 82.17 C 145.81 77.38 150.31 74.66 153.52 70.09 M 142.76 88.57 C 146.6 83.05 150.72 79.96 159.16 69.7 M 142.76 88.57 C 147.17 83.77 152.85 77.49 159.16 69.7 M 145.12 91.95 C 151.78 85.11 159.32 78.76 164.15 70.06 M 145.12 91.95 C 149.15 87.18 154.22 81.72 164.15 70.06 M 150.77 91.55 C 157.56 86.73 162.24 77.12 169.79 69.67 M 150.77 91.55 C 156 85.17 162.11 77.71 169.79 69.67 M 155.75 91.91 C 160.1 84.72 168.03 77.71 174.78 70.03 M 155.75 91.91 C 162.92 83.27 169.35 76.77 174.78 70.03 M 161.4 91.52 C 163.85 84.74 168.57 83.65 180.42 69.63 M 161.4 91.52 C 168.38 83.78 174.61 75.19 180.42 69.63 M 166.38 91.88 C 172.34 84.55 179.94 78.15 184.1 71.5 M 166.38 91.88 C 169.55 87.76 174.14 82.52 184.1 71.5 M 171.37 92.24 C 177.06 86.51 182.51 80.37 184.49 77.14 M 171.37 92.24 C 174.74 88.57 179.25 84.44 184.49 77.14 M 177.01 91.84 C 179.66 89.37 181.3 87.93 184.23 83.54 M 177.01 91.84 C 179.31 90.07 180.77 87.59 184.23 83.54" fill="none" stroke="#ffe6cc" stroke-linejoin="round" stroke-linecap="round" stroke-miterlimit="10" pointer-events="all"/>
    <path d="M 143 70 C 154.65 71.33 164.1 69.08 183 70 M 143 70 C 156.94 70.86 171.76 69.59 183 70 M 183 70 C 182.97 74.58 181.76 80.1 183 90 M 183 70 C 182.76 75.09 183.8 78.58 183 90 M 183 90 C 172.37 88.78 161.26 90.14 143 90 M 183 90 C 173.66 89.95 164.28 90.54 143 90 M 143 90 C 144.61 84.18 144.53 73.68 143 70 M 143 90 C 142.76 84.97 141.97 80.91 143 70" fill="none" stroke="#d79b00" stroke-linejoin="round" stroke-linecap="round" stroke-miterlimit="10" pointer-events="all"/>
    <rect x="183" y="60" width="20" height="30" fill="none" stroke="none" pointer-events="all"/>
    <path d="M 183.03 59.97 C 183.03 59.97 183.03 59.97 183.03 59.97 M 183.03 59.97 C 183.03 59.97 183.03 59.97 183.03 59.97 M 182.76 66.37 C 183.7 64.62 185.06 62.87 188.01 60.33 M 182.76 66.37 C 184.37 64.76 186.11 63.07 188.01 60.33 M 183.16 72.01 C 187.72 69.6 189.88 65.29 193.66 59.94 M 183.16 72.01 C 186.88 68.74 190.31 64.01 193.66 59.94 M 182.9 78.41 C 186.74 74.15 192.74 70.51 198.64 60.3 M 182.9 78.41 C 186.53 72.86 191.26 68.47 198.64 60.3 M 183.29 84.05 C 191.06 73.29 201.12 63.93 203.63 60.66 M 183.29 84.05 C 190.61 75.22 197.99 66.56 203.63 60.66 M 183.03 90.45 C 186.43 84.47 194.26 78.8 203.37 67.05 M 183.03 90.45 C 189.28 82.63 195.47 75.55 203.37 67.05 M 188.67 90.05 C 193.59 86.34 195.82 78.55 203.76 72.7 M 188.67 90.05 C 193.97 83.92 199.08 78.11 203.76 72.7 M 193.66 90.41 C 198.9 87 202.22 80.6 203.5 79.09 M 193.66 90.41 C 197.33 85.88 200.79 82.96 203.5 79.09 M 199.3 90.02 C 201.48 87.62 202.43 85.93 203.9 84.74 M 199.3 90.02 C 200.5 88.31 201.78 86.58 203.9 84.74" fill="none" stroke="#ffe6cc" stroke-linejoin="round" stroke-linecap="round" stroke-miterlimit="10" pointer-events="all"/>
    <path d="M 183 60 C 188.64 59.96 192.05 57.9 203 60 M 183 60 C 188.37 60.89 193 60.84 203 60 M 203 60 C 202.41 65.98 204.06 73.38 203 90 M 203 60 C 204.09 72.2 204.03 82.81 203 90 M 203 90 C 197.9 90.04 194.9 88.9 183 90 M 203 90 C 196.75 90.14 192.25 89.62 183 90 M 183 90 C 182.82 82.05 183.27 71.26 183 60 M 183 90 C 183.64 78 183.02 66.89 183 60" fill="none" stroke="#d79b00" stroke-linejoin="round" stroke-linecap="round" stroke-miterlimit="10" pointer-events="all"/>
    <rect x="303" y="40" width="20" height="60" fill="none" stroke="none" pointer-events="all"/>
    <path d="M 303.14 39.84 C 303.14 39.84 303.14 39.84 303.14 39.84 M 303.14 39.84 C 303.14 39.84 303.14 39.84 303.14 39.84 M 302.88 46.23 C 304.79 43.22 307.02 42 308.13 40.2 M 302.88 46.23 C 303.89 44.82 305.84 43.49 308.13 40.2 M 303.28 51.88 C 308.57 45.76 312.65 42.68 313.77 39.8 M 303.28 51.88 C 306.57 48.52 310.53 44.99 313.77 39.8 M 303.02 58.27 C 306.68 55.39 310.72 46.99 318.76 40.16 M 303.02 58.27 C 307.71 53.73 311.69 49.02 318.76 40.16 M 302.75 64.67 C 306.81 58.58 315.04 51.23 323.75 40.52 M 302.75 64.67 C 308.67 58.23 314.13 51.23 323.75 40.52 M 303.15 70.31 C 310.81 62.55 317.45 52.61 323.49 46.92 M 303.15 70.31 C 309.99 61.52 317.88 53.26 323.49 46.92 M 302.89 76.71 C 307.51 68.92 314.83 61.11 323.88 52.56 M 302.89 76.71 C 309.45 67 318.73 59.87 323.88 52.56 M 303.28 82.36 C 311.52 74.49 316.68 65.3 323.62 58.96 M 303.28 82.36 C 310.83 74.57 318.55 65.96 323.62 58.96 M 303.02 88.75 C 306.16 81.29 312.76 77.17 323.36 65.36 M 303.02 88.75 C 310.31 80.87 318.67 71.98 323.36 65.36 M 302.76 95.15 C 309.68 88.54 319.18 76.66 323.75 71 M 302.76 95.15 C 309.67 86.48 317.59 79.27 323.75 71 M 303.15 100.79 C 309.51 93.57 313.25 88.1 323.49 77.4 M 303.15 100.79 C 310.66 91.61 318.19 83.65 323.49 77.4 M 308.8 100.4 C 314.14 95.38 319.07 85.56 323.89 83.04 M 308.8 100.4 C 313.47 96.1 317.29 90.51 323.89 83.04 M 313.78 100.76 C 316.73 97.43 320.58 93.91 323.62 89.44 M 313.78 100.76 C 315.91 97.31 318.46 95.34 323.62 89.44 M 319.43 100.37 C 320.85 98.81 322.08 98 323.36 95.84 M 319.43 100.37 C 320.52 98.55 322.29 97.5 323.36 95.84" fill="none" stroke="#f8cecc" stroke-linejoin="round" stroke-linecap="round" stroke-miterlimit="10" pointer-events="all"/>
    <path d="M 303 40 C 307.5 39.08 313.73 41.22 323 40 M 303 40 C 309 38.98 314.65 40.15 323 40 M 323 40 C 322.66 57.82 323.17 73.55 323 100 M 323 40 C 323.62 61.99 324.46 82.4 323 100 M 323 100 C 314.06 101.21 305.81 101.56 303 100 M 323 100 C 317.18 100.32 310.88 100.69 303 100 M 303 100 C 301.62 85.72 302.6 66.42 303 40 M 303 100 C 301.83 79.25 303.37 59.33 303 40" fill="none" stroke="#b85450" stroke-linejoin="round" stroke-linecap="round" stroke-miterlimit="10" pointer-events="all"/>
    <rect x="363" y="40" width="20" height="100" fill="none" stroke="none" pointer-events="all"/>
    <path d="M 362.9 40.11 C 362.9 40.11 362.9 40.11 362.9 40.11 M 362.9 40.11 C 362.9 40.11 362.9 40.11 362.9 40.11 M 363.3 45.75 C 365.24 44.29 365.7 43.2 368.55 39.71 M 363.3 45.75 C 364.62 44.54 365.19 42.77 368.55 39.71 M 363.04 52.15 C 366.97 47.95 367.67 45.32 373.53 40.07 M 363.04 52.15 C 365.67 48.71 370.16 44.77 373.53 40.07 M 362.78 58.55 C 366.79 52.52 373.05 47.18 379.18 39.68 M 362.78 58.55 C 366.67 54.86 370.04 49.66 379.18 39.68 M 363.17 64.19 C 367.73 58.88 373.87 49.23 383.51 40.8 M 363.17 64.19 C 369.89 55.86 379.14 46.25 383.51 40.8 M 362.91 70.59 C 370.97 61.9 376.55 56.14 383.9 46.44 M 362.91 70.59 C 370.6 60.52 378.43 52.81 383.9 46.44 M 363.3 76.23 C 369.84 70.88 376.38 65.22 383.64 52.84 M 363.3 76.23 C 371.22 67.66 378.35 59.89 383.64 52.84 M 363.04 82.63 C 369.77 74.93 372.97 68.2 383.38 59.23 M 363.04 82.63 C 370.16 74.1 376.39 65.75 383.38 59.23 M 362.78 89.03 C 368.73 83.29 376.59 74.29 383.78 64.88 M 362.78 89.03 C 368.39 83.49 373.44 77.62 383.78 64.88 M 363.18 94.67 C 366.45 88.21 370.16 83.85 383.51 71.27 M 363.18 94.67 C 370.56 85.93 378.92 77.62 383.51 71.27 M 362.91 101.07 C 369.86 94.8 375.36 84.62 383.91 76.92 M 362.91 101.07 C 368.18 95.33 374.29 89.23 383.91 76.92 M 363.31 106.71 C 369.88 98.83 374.96 94.37 383.65 83.32 M 363.31 106.71 C 371.55 97.86 378.56 89.25 383.65 83.32 M 363.05 113.11 C 369.71 109.37 371 103.34 383.39 89.71 M 363.05 113.11 C 367.12 108 372.61 102.57 383.39 89.71 M 362.79 119.51 C 369.06 111.58 375.61 106.89 383.78 95.36 M 362.79 119.51 C 367.2 113.1 373.4 108.07 383.78 95.36 M 363.18 125.15 C 367.36 117.37 373.02 110.53 383.52 101.75 M 363.18 125.15 C 368.21 120.52 372.91 114.46 383.52 101.75 M 362.92 131.55 C 371.05 121.28 381.32 113.94 383.91 107.4 M 362.92 131.55 C 370.37 121.8 379.13 113.5 383.91 107.4 M 363.31 137.19 C 372.91 129.93 379.38 118.45 383.65 113.8 M 363.31 137.19 C 368.93 130.43 375.56 120.99 383.65 113.8 M 365.02 141.32 C 370.62 135.6 377.13 126.92 383.39 120.19 M 365.02 141.32 C 372.47 133.3 379.71 125.55 383.39 120.19 M 370.01 141.68 C 373.25 138.41 379.15 134 383.78 125.84 M 370.01 141.68 C 372.66 138.34 377.19 134.26 383.78 125.84 M 375.65 141.29 C 377.6 137.73 381.3 135.59 383.52 132.23 M 375.65 141.29 C 377.79 139.21 379.7 135.87 383.52 132.23 M 380.64 141.65 C 381.71 139.98 383.05 139.02 383.92 137.88 M 380.64 141.65 C 381.63 140.56 382.67 139.2 383.92 137.88" fill="none" stroke="#f8cecc" stroke-linejoin="round" stroke-linecap="round" stroke-miterlimit="10" pointer-events="all"/>
    <path d="M 363 40 C 366.36 38.21 371.41 40.55 383 40 M 363 40 C 369.64 39.47 378.3 39.86 383 40 M 383 40 C 381.87 70.99 381.24 104.38 383 140 M 383 40 C 381.36 73.63 381.1 107.71 383 140 M 383 140 C 374.22 138.37 368.72 140.23 363 140 M 383 140 C 375.6 140.5 369.51 139.76 363 140 M 363 140 C 364.9 120.84 362.41 98.49 363 40 M 363 140 C 363.33 110.53 363.04 81.8 363 40" fill="none" stroke="#b85450" stroke-linejoin="round" stroke-linecap="round" stroke-miterlimit="10" pointer-events="all"/>
    <rect x="313" y="100" width="50" height="20" fill="none" stroke="none" pointer-events="all"/>
    <path d="M 312.96 100.04 C 312.96 100.04 312.96 100.04 312.96 100.04 M 312.96 100.04 C 312.96 100.04 312.96 100.04 312.96 100.04 M 312.7 106.44 C 314.3 103.38 317.61 100.95 318.6 99.65 M 312.7 106.44 C 314.83 104.07 316.88 101.12 318.6 99.65 M 313.09 112.09 C 317.76 107.17 320.39 102.58 323.59 100.01 M 313.09 112.09 C 316.9 108.56 318.72 104.22 323.59 100.01 M 312.83 118.48 C 316.85 113.71 321 107.81 328.58 100.37 M 312.83 118.48 C 318.8 112.35 324.42 105.35 328.58 100.37 M 315.2 121.86 C 323.49 113.28 327.23 105.69 334.22 99.98 M 315.2 121.86 C 320.43 114.57 325.21 109.25 334.22 99.98 M 320.18 122.22 C 323.91 117.41 327.73 112.63 339.21 100.34 M 320.18 122.22 C 324.35 118.46 327.29 112.86 339.21 100.34 M 325.83 121.83 C 330.09 115.1 335.68 111.77 344.85 99.94 M 325.83 121.83 C 332.38 114.69 339.11 106.55 344.85 99.94 M 330.81 122.19 C 336.17 118.62 341.09 110.7 349.84 100.3 M 330.81 122.19 C 337.53 115.82 343.82 108.24 349.84 100.3 M 336.46 121.79 C 343.94 114.7 348.25 105.73 355.48 99.91 M 336.46 121.79 C 343.26 114.36 348.34 107.64 355.48 99.91 M 341.44 122.15 C 345.46 114.96 351.29 109.61 360.47 100.27 M 341.44 122.15 C 349 113.31 357.49 104.25 360.47 100.27 M 347.09 121.76 C 352.9 114.3 358.92 108.82 364.8 101.38 M 347.09 121.76 C 353.05 116.09 358.67 108.48 364.8 101.38 M 352.07 122.12 C 356.07 119.7 357.62 116.87 364.54 107.78 M 352.07 122.12 C 355.52 118.1 359.77 113.59 364.54 107.78 M 357.72 121.72 C 360.25 118.39 362.77 114.87 364.93 113.42 M 357.72 121.72 C 360.33 118.74 363.13 115.63 364.93 113.42" fill="none" stroke="#f8cecc" stroke-linejoin="round" stroke-linecap="round" stroke-miterlimit="10" pointer-events="all"/>
    <path d="M 313 100 C 326.51 100.83 337.69 99.37 363 100 M 313 100 C 325.72 99.54 336.85 99.15 363 100 M 363 100 C 361.29 108.09 363.53 115.08 363 120 M 363 100 C 363.41 106.18 362.04 112.82 363 120 M 363 120 C 348.95 119.62 332.77 118.97 313 120 M 363 120 C 344.11 120.9 322.31 121.04 313 120 M 313 120 C 312.42 114.84 314.46 104.31 313 100 M 313 120 C 313.36 114.52 313.24 109.7 313 100" fill="none" stroke="#b85450" stroke-linejoin="round" stroke-linecap="round" stroke-miterlimit="10" pointer-events="all"/>
    <rect x="313" y="140" width="60" height="20" fill="none" stroke="none" pointer-events="all"/>
    <path d="M 313.08 139.9 C 313.08 139.9 313.08 139.9 313.08 139.9 M 313.08 139.9 C 313.08 139.9 313.08 139.9 313.08 139.9 M 312.82 146.3 C 314.33 144.27 314.85 143.37 318.07 140.26 M 312.82 146.3 C 315.08 144.09 316.97 141.31 318.07 140.26 M 313.22 151.94 C 317.51 147.61 320.05 144.71 323.71 139.87 M 313.22 151.94 C 315.39 149.14 319.71 144.7 323.71 139.87 M 312.96 158.34 C 317.67 154.69 318.9 148.23 328.7 140.23 M 312.96 158.34 C 317.14 153.3 321.64 148.19 328.7 140.23 M 315.32 161.72 C 321.57 154.48 326.53 148.26 334.34 139.83 M 315.32 161.72 C 321.08 154.67 326.42 147.59 334.34 139.83 M 320.31 162.08 C 327.78 154.93 332.39 149.77 339.33 140.19 M 320.31 162.08 C 327.69 153.95 333.52 146.21 339.33 140.19 M 325.95 161.69 C 333.8 152.19 338.3 146.68 344.97 139.8 M 325.95 161.69 C 330.75 156.16 335.39 150.39 344.97 139.8 M 330.94 162.05 C 335.08 157.53 341.16 148.24 349.96 140.16 M 330.94 162.05 C 337.76 154.63 345.23 146.24 349.96 140.16 M 336.58 161.65 C 342.47 157.32 346.04 148.91 355.6 139.76 M 336.58 161.65 C 340.88 155.46 346.52 149.37 355.6 139.76 M 341.57 162.01 C 346.83 155.28 351.23 148.06 360.59 140.12 M 341.57 162.01 C 348.19 155.78 354.94 147.83 360.59 140.12 M 347.21 161.62 C 350.81 155.86 355.52 149.16 366.23 139.73 M 347.21 161.62 C 352.08 155.53 358.39 150.29 366.23 139.73 M 352.2 161.98 C 356.47 155.05 365.21 150.21 371.22 140.09 M 352.2 161.98 C 358.67 154.54 363.64 148.96 371.22 140.09 M 357.84 161.58 C 360.64 158.59 365.54 152.21 374.9 141.96 M 357.84 161.58 C 363.23 156.17 366.28 151.03 374.9 141.96 M 362.83 161.94 C 368.37 156.49 369.4 151.74 375.29 147.6 M 362.83 161.94 C 365.84 159.56 369.16 156.17 375.29 147.6 M 368.47 161.55 C 369.88 158.63 372.07 158.33 375.03 154 M 368.47 161.55 C 370.27 159.77 372.2 157.11 375.03 154" fill="none" stroke="#f8cecc" stroke-linejoin="round" stroke-linecap="round" stroke-miterlimit="10" pointer-events="all"/>
    <path d="M 313 140 C 327.81 137.73 343.54 140.66 373 140 M 313 140 C 327.55 140.67 340.86 141.07 373 140 M 373 140 C 371.06 147.35 372.23 152.46 373 160 M 373 140 C 372.4 148.21 372.77 155.16 373 160 M 373 160 C 357.2 160.49 340.18 160.82 313 160 M 373 160 C 355.47 159.1 338.21 158.76 313 160 M 313 160 C 311.96 156.46 313.67 151.81 313 140 M 313 160 C 313.28 152.05 312.82 145.06 313 140" fill="none" stroke="#b85450" stroke-linejoin="round" stroke-linecap="round" stroke-miterlimit="10" pointer-events="all"/>
    <rect x="413" y="20" width="20" height="80" fill="none" stroke="none" pointer-events="all"/>
    <path d="M 412.97 20.03 C 412.97 20.03 412.97 20.03 412.97 20.03 M 412.97 20.03 C 412.97 20.03 412.97 20.03 412.97 20.03 M 412.71 26.43 C 413.82 24.52 417.2 22.31 418.62 19.64 M 412.71 26.43 C 414.71 24.17 417.08 21.45 418.62 19.64 M 413.11 32.07 C 416.03 29.65 418.4 27.2 423.6 20 M 413.11 32.07 C 416.46 29.18 419.7 25.94 423.6 20 M 412.84 38.47 C 417.74 35.88 421.01 28.67 428.59 20.36 M 412.84 38.47 C 416.09 34.44 421.83 29 428.59 20.36 M 413.24 44.11 C 420.14 32.94 427.62 23.72 433.58 20.72 M 413.24 44.11 C 418.29 39.18 421.94 33.5 433.58 20.72 M 412.98 50.51 C 417.18 45.62 421.08 40.24 433.97 26.36 M 412.98 50.51 C 421.7 40.56 429.95 30.82 433.97 26.36 M 412.72 56.91 C 418.86 48.86 427.44 40.51 433.71 32.76 M 412.72 56.91 C 417.62 49.64 424.86 44.36 433.71 32.76 M 413.11 62.55 C 416.11 57.39 420.59 50.14 433.45 39.16 M 413.11 62.55 C 420.02 53.82 428.5 45.12 433.45 39.16 M 412.85 68.95 C 421.49 62.29 426.71 52.54 433.84 44.8 M 412.85 68.95 C 419.97 59.91 428.82 51.62 433.84 44.8 M 413.24 74.59 C 420.02 66.61 427.33 57.49 433.58 51.2 M 413.24 74.59 C 421 65.56 428.83 57.77 433.58 51.2 M 412.98 80.99 C 417.45 76.26 424.21 68.51 433.98 56.84 M 412.98 80.99 C 420.11 73.18 427.48 64.64 433.98 56.84 M 412.72 87.39 C 416.7 83.39 420.03 77.7 433.71 63.24 M 412.72 87.39 C 417.3 81.08 422.48 76.2 433.71 63.24 M 413.12 93.03 C 421.74 84.05 429.43 77.28 433.45 69.64 M 413.12 93.03 C 419.33 88.06 423.65 81.05 433.45 69.64 M 412.85 99.43 C 420.57 90.35 424.56 82.86 433.85 75.28 M 412.85 99.43 C 419.65 90.86 426.72 83.97 433.85 75.28 M 415.87 102.05 C 419.31 94.21 428.56 90.07 433.59 81.68 M 415.87 102.05 C 420.89 96.49 424.61 90.93 433.59 81.68 M 420.86 102.41 C 422.45 99.34 427.32 93.68 433.98 87.32 M 420.86 102.41 C 424.73 97.72 429.97 92.07 433.98 87.32 M 426.5 102.02 C 427.88 99.51 429.77 98.59 433.72 93.72 M 426.5 102.02 C 428.5 98.84 431.75 96.79 433.72 93.72" fill="none" stroke="#e1d5e7" stroke-linejoin="round" stroke-linecap="round" stroke-miterlimit="10" pointer-events="all"/>
    <path d="M 413 20 C 416.93 21.17 421.74 20.29 433 20 M 413 20 C 418.9 20.5 425.94 20.13 433 20 M 433 20 C 435.19 48.14 435.22 78.55 433 100 M 433 20 C 433.19 47.93 432.46 74.62 433 100 M 433 100 C 428.06 101.57 424.49 99.4 413 100 M 433 100 C 425.77 99.62 418.61 100.17 413 100 M 413 100 C 414.89 70.41 413.13 37.54 413 20 M 413 100 C 414.64 73.42 414.34 47.73 413 20" fill="none" stroke="#9673a6" stroke-linejoin="round" stroke-linecap="round" stroke-miterlimit="10" pointer-events="all"/>
    <rect x="393" y="100" width="60" height="20" fill="none" stroke="none" pointer-events="all"/>
    <path d="M 393.3 99.66 C 393.3 99.66 393.3 99.66 393.3 99.66 M 393.3 99.66 C 393.3 99.66 393.3 99.66 393.3 99.66 M 393.04 106.05 C 394.06 104.31 395.29 104.07 398.29 100.02 M 393.04 106.05 C 395.01 104.25 396.53 102.19 398.29 100.02 M 392.78 112.45 C 396.44 109.53 397.52 105.11 403.27 100.38 M 392.78 112.45 C 395.71 109.47 397.87 105.82 403.27 100.38 M 393.17 118.09 C 398.24 112.87 399.57 108.91 408.92 99.98 M 393.17 118.09 C 397.84 113.08 400.83 109.31 408.92 99.98 M 394.88 122.23 C 398.04 116.31 403.21 109.66 413.9 100.34 M 394.88 122.23 C 400.46 115.72 407.65 107.71 413.9 100.34 M 400.52 121.83 C 408.36 112.31 414.44 107.38 419.55 99.95 M 400.52 121.83 C 405.25 116.2 408.59 112.58 419.55 99.95 M 405.51 122.19 C 413.1 113.12 416.43 107.45 424.53 100.31 M 405.51 122.19 C 411 116.42 415.8 110.83 424.53 100.31 M 411.15 121.8 C 420.66 112.7 426.73 103.8 430.18 99.91 M 411.15 121.8 C 417.62 112.88 426.13 104.99 430.18 99.91 M 416.14 122.16 C 422.24 114.22 431.84 104.6 435.16 100.27 M 416.14 122.16 C 420.42 117.86 425.25 111.37 435.16 100.27 M 421.78 121.76 C 425.27 118.04 430.69 112.57 440.81 99.88 M 421.78 121.76 C 429.7 113.01 437.67 104.48 440.81 99.88 M 426.77 122.12 C 430.6 115.62 438.37 108.02 445.79 100.24 M 426.77 122.12 C 431.01 118.5 434.32 112.57 445.79 100.24 M 432.41 121.73 C 439.08 113.24 443.99 107.26 451.44 99.84 M 432.41 121.73 C 438.48 113.61 444.77 106.1 451.44 99.84 M 437.4 122.09 C 441.71 117.27 450.49 108.66 455.11 101.71 M 437.4 122.09 C 442.46 116.93 446.53 111.81 455.11 101.71 M 443.04 121.7 C 447.27 115.99 449.03 112.14 454.85 108.11 M 443.04 121.7 C 446.03 118.15 446.99 116.82 454.85 108.11 M 448.03 122.06 C 451.1 118.63 452.91 116.19 455.24 113.75 M 448.03 122.06 C 449.16 120.7 450.87 117.96 455.24 113.75" fill="none" stroke="#e1d5e7" stroke-linejoin="round" stroke-linecap="round" stroke-miterlimit="10" pointer-events="all"/>
    <path d="M 393 100 C 409.53 100.62 422.9 99.94 453 100 M 393 100 C 414.59 100.37 437.68 99.21 453 100 M 453 100 C 454.42 105.1 453.31 108.95 453 120 M 453 100 C 452.93 106.76 453.09 112.28 453 120 M 453 120 C 428.6 118.97 404.15 122.3 393 120 M 453 120 C 431.04 119.62 406.92 119.05 393 120 M 393 120 C 392.86 114.79 391.63 108.13 393 100 M 393 120 C 392.59 113.83 392.46 108.46 393 100" fill="none" stroke="#9673a6" stroke-linejoin="round" stroke-linecap="round" stroke-miterlimit="10" pointer-events="all"/>
    <rect x="393" y="10" width="40" height="20" fill="none" stroke="none" transform="rotate(-35,413,20)" pointer-events="all"/>
    <path d="M 392.69 10.35 C 392.69 10.35 392.69 10.35 392.69 10.35 M 392.69 10.35 C 392.69 10.35 392.69 10.35 392.69 10.35 M 393.09 16 C 395.08 14.59 395.58 11.68 398.34 9.96 M 393.09 16 C 394.58 14.5 396.31 12.79 398.34 9.96 M 392.83 22.39 C 397.22 18.76 400.23 12.37 403.32 10.32 M 392.83 22.39 C 395.09 19.33 397.79 15.28 403.32 10.32 M 393.22 28.04 C 398.11 23.87 401.49 19.15 408.97 9.92 M 393.22 28.04 C 396.95 24.04 399.19 19.93 408.97 9.92 M 394.93 32.17 C 402.23 26.91 405.4 17.85 413.95 10.28 M 394.93 32.17 C 399.52 26.5 404.74 22.22 413.95 10.28 M 400.57 31.78 C 404.69 25.44 413.61 20.81 419.6 9.89 M 400.57 31.78 C 405.87 27.21 408.88 20.45 419.6 9.89 M 405.56 32.14 C 411.24 24.89 417.98 17.14 424.58 10.25 M 405.56 32.14 C 410.61 25.24 415.49 20.74 424.58 10.25 M 411.2 31.74 C 419.26 22.35 423.44 15.84 430.23 9.86 M 411.2 31.74 C 417.71 24.07 424.74 16.43 430.23 9.86 M 416.19 32.1 C 420.46 26.7 423.13 25.01 434.56 10.97 M 416.19 32.1 C 421.96 25.6 427.09 19.96 434.56 10.97 M 421.83 31.71 C 424.22 25.48 429.82 21.13 434.3 17.37 M 421.83 31.71 C 425.05 28.74 428.3 25.04 434.3 17.37 M 426.82 32.07 C 430.38 30.37 432.46 26.81 434.69 23.01 M 426.82 32.07 C 428.23 29.2 430.73 27.59 434.69 23.01" fill="none" stroke="#e1d5e7" stroke-linejoin="round" stroke-linecap="round" stroke-miterlimit="10" transform="rotate(-35,413,20)" pointer-events="all"/>
    <path d="M 393 10 C 403.52 8.94 410.84 8.46 433 10 M 393 10 C 403.14 11.25 413.16 11.32 433 10 M 433 10 C 434.3 13.97 432.05 21.19 433 30 M 433 10 C 432.19 16.03 433.25 20.84 433 30 M 433 30 C 417.34 30.06 404.22 30.88 393 30 M 433 30 C 424.22 29.93 415.07 30.26 393 30 M 393 30 C 391.51 25.96 394.81 18.29 393 10 M 393 30 C 393.04 24.71 393.08 20.16 393 10" fill="none" stroke="#9673a6" stroke-linejoin="round" stroke-linecap="round" stroke-miterlimit="10" transform="rotate(-35,413,20)" pointer-events="all"/>
  </g>
</svg>
