<?xml version="1.0" encoding="UTF-8" standalone="no"?>
<!-- Created with Inkscape (http://www.inkscape.org/) -->
<svg xmlns:dc="http://purl.org/dc/elements/1.1/" xmlns:cc="http://creativecommons.org/ns#" xmlns:rdf="http://www.w3.org/1999/02/22-rdf-syntax-ns#" xmlns:svg="http://www.w3.org/2000/svg" xmlns="http://www.w3.org/2000/svg" xmlns:sodipodi="http://sodipodi.sourceforge.net/DTD/sodipodi-0.dtd" xmlns:inkscape="http://www.inkscape.org/namespaces/inkscape" width="89.137772mm" height="40.934883mm" viewBox="0 0 89.137772 40.934883" version="1.1" id="svg8" inkscape:version="0.92.3 (2405546, 2018-03-11)" sodipodi:docname="theUniverseOfBinaryTranslators.svg">
  <defs id="defs2">
    <clipPath id="clipPath28" clipPathUnits="userSpaceOnUse">
      <path inkscape:connector-curvature="0" id="path26" d="M -12,20 H 613 V 804 H -12"/>
    </clipPath>
    <clipPath id="clipPath38" clipPathUnits="userSpaceOnUse">
      <path inkscape:connector-curvature="0" id="path36" d="M -1,793 H 577 V -1 H -1 Z"/>
    </clipPath>
    <clipPath id="clipPath44" clipPathUnits="userSpaceOnUse">
      <path inkscape:connector-curvature="0" id="path42" d="M 0,792.06 H 612 V 0.06 H 0 Z"/>
    </clipPath>
    <clipPath id="clipPath244" clipPathUnits="userSpaceOnUse">
      <path style="clip-rule:evenodd" inkscape:connector-curvature="0" id="path242" d="M 252.23,409.18 H 537.4 V 58.07 H 252.23 Z"/>
    </clipPath>
    <clipPath id="clipPath250" clipPathUnits="userSpaceOnUse">
      <path inkscape:connector-curvature="0" id="path248" d="M -1,793 H 577 V -1 H -1 Z"/>
    </clipPath>
    <clipPath id="clipPath256" clipPathUnits="userSpaceOnUse">
      <path inkscape:connector-curvature="0" id="path254" d="M 0,792.06 H 612 V 0.06 H 0 Z"/>
    </clipPath>
    <clipPath id="clipPath360" clipPathUnits="userSpaceOnUse">
      <path inkscape:connector-curvature="0" id="path358" d="M -1,793 H 577 V -1 H -1 Z"/>
    </clipPath>
    <clipPath id="clipPath366" clipPathUnits="userSpaceOnUse">
      <path inkscape:connector-curvature="0" id="path364" d="M 0,792.06 H 612 V 0.06 H 0 Z"/>
    </clipPath>
    <clipPath id="clipPath440" clipPathUnits="userSpaceOnUse">
      <path style="clip-rule:evenodd" inkscape:connector-curvature="0" id="path438" d="M 252,739.92 H 536.16 V 603 H 252 Z"/>
    </clipPath>
    <clipPath id="clipPath446" clipPathUnits="userSpaceOnUse">
      <path inkscape:connector-curvature="0" id="path444" d="M -1,793 H 577 V -1 H -1 Z"/>
    </clipPath>
    <clipPath id="clipPath452" clipPathUnits="userSpaceOnUse">
      <path inkscape:connector-curvature="0" id="path450" d="M 0,792.06 H 612 V 0.06 H 0 Z"/>
    </clipPath>
    <clipPath id="clipPath556" clipPathUnits="userSpaceOnUse">
      <path style="clip-rule:evenodd" inkscape:connector-curvature="0" id="path554" d="M 252,739.92 H 536.16 V 603 H 252 Z"/>
    </clipPath>
    <clipPath id="clipPath562" clipPathUnits="userSpaceOnUse">
      <path inkscape:connector-curvature="0" id="path560" d="M -1,793 H 577 V -1 H -1 Z"/>
    </clipPath>
    <clipPath id="clipPath568" clipPathUnits="userSpaceOnUse">
      <path inkscape:connector-curvature="0" id="path566" d="M 0,792.06 H 612 V 0.06 H 0 Z"/>
    </clipPath>
    <clipPath id="clipPath628" clipPathUnits="userSpaceOnUse">
      <path inkscape:connector-curvature="0" id="path626" d="M -1,793 H 577 V -1 H -1 Z"/>
    </clipPath>
    <clipPath id="clipPath634" clipPathUnits="userSpaceOnUse">
      <path inkscape:connector-curvature="0" id="path632" d="M 0,792.06 H 612 V 0.06 H 0 Z"/>
    </clipPath>
    <clipPath id="clipPath650" clipPathUnits="userSpaceOnUse">
      <path style="clip-rule:evenodd" inkscape:connector-curvature="0" id="path648" d="m 261.25,403.96 h 47.81 v -47.43 h -47.81 z"/>
    </clipPath>
    <clipPath id="clipPath662" clipPathUnits="userSpaceOnUse">
      <path inkscape:connector-curvature="0" id="path660" d="M -1,793 H 577 V -1 H -1 Z"/>
    </clipPath>
    <clipPath id="clipPath668" clipPathUnits="userSpaceOnUse">
      <path inkscape:connector-curvature="0" id="path666" d="M 0,792.06 H 612 V 0.06 H 0 Z"/>
    </clipPath>
  </defs>
  <sodipodi:namedview id="base" pagecolor="#ffffff" bordercolor="#666666" borderopacity="1.0" inkscape:pageopacity="0.0" inkscape:pageshadow="2" inkscape:zoom="1.979899" inkscape:cx="74.747503" inkscape:cy="47.967493" inkscape:document-units="mm" inkscape:current-layer="layer1" showgrid="false" inkscape:window-width="1920" inkscape:window-height="1046" inkscape:window-x="1920" inkscape:window-y="260" inkscape:window-maximized="1"/>
  <metadata id="metadata5">
    <rdf:RDF>
      <cc:Work rdf:about="">
        <dc:format>image/svg+xml</dc:format>
        <dc:type rdf:resource="http://purl.org/dc/dcmitype/StillImage"/>
        <dc:title/>
      </cc:Work>
    </rdf:RDF>
  </metadata>
  <g inkscape:label="Layer 1" inkscape:groupmode="layer" id="layer1" transform="translate(-367.09148,-280.47276)">
    <g id="g550" transform="matrix(0.35277777,0,0,-0.35277777,272.42004,537.94722)">
      <g clip-path="url(#clipPath556)" id="g552">
        <g clip-path="url(#clipPath562)" id="g558">
          <g clip-path="url(#clipPath568)" id="g564">
            <path inkscape:connector-curvature="0" id="path570" style="fill:#fde0a0;fill-opacity:1;fill-rule:nonzero;stroke:none" d="m 462.576,660.729 c 0,-25.773 -25.915,-46.666 -57.883,-46.666 -31.968,0 -57.883,20.893 -57.883,46.666 0,25.773 25.915,46.666 57.883,46.666 31.968,0 57.883,-20.893 57.883,-46.666"/>
            <path inkscape:connector-curvature="0" id="path572" style="fill:none;stroke:#000000;stroke-width:0.5;stroke-linecap:butt;stroke-linejoin:miter;stroke-miterlimit:10;stroke-dasharray:none;stroke-opacity:1" d="m 462.576,660.729 c 0,-25.773 -25.915,-46.666 -57.883,-46.666 -31.968,0 -57.883,20.893 -57.883,46.666 0,25.773 25.915,46.666 57.883,46.666 31.968,0 57.883,-20.893 57.883,-46.666 z"/>
            <path inkscape:connector-curvature="0" id="path574" style="fill:#fde0a0;fill-opacity:1;fill-rule:nonzero;stroke:none" d="m 358.351,660.581 c 0,-24.781 -20.089,-44.871 -44.87,-44.871 -24.782,0 -44.871,20.09 -44.871,44.871 0,24.781 20.089,44.87 44.871,44.87 24.781,0 44.87,-20.089 44.87,-44.87"/>
            <path inkscape:connector-curvature="0" id="path576" style="fill:none;stroke:#000000;stroke-width:0.5;stroke-linecap:butt;stroke-linejoin:miter;stroke-miterlimit:10;stroke-dasharray:none;stroke-opacity:1" d="m 358.351,660.581 c 0,-24.781 -20.089,-44.871 -44.87,-44.871 -24.782,0 -44.871,20.09 -44.871,44.871 0,24.781 20.089,44.87 44.871,44.87 24.781,0 44.87,-20.089 44.87,-44.87 z"/>
            <text id="text596" style="font-variant:normal;font-weight:normal;font-size:9px;font-family:Frutiger;-inkscape-font-specification:Frutiger-Roman;writing-mode:lr-tb;fill:#000000;fill-opacity:1;fill-rule:nonzero;stroke:none" transform="matrix(1,0,0,-1,291.975,718.007)">
              <tspan id="tspan578" sodipodi:role="line" y="0" x="0 5.0040002 13.005 18.504 21.006001 26.01 29.511 32.013 37.512001">Emulation</tspan>
              <tspan id="tspan580" sodipodi:role="line" y="-5.0040002" x="101.088 105.588 109.089 114.093 117.594 120.096">Static</tspan>
              <tspan id="tspan582" sodipodi:role="line" y="4.9949999" x="89.837997 93.338997 96.839996 101.844 107.343 110.844 113.346 118.35 121.851 124.353 129.85201">translation</tspan>
              <tspan id="tspan584" sodipodi:role="line" y="31.202999" x="4.5 7.0019999 12.501 20.997 23.499001 28.503 33.507">IBM/360</tspan>
              <tspan id="tspan586" sodipodi:role="line" y="41.202" x="-5.7870002 -0.78299999 7.2179999 12.717 15.219 20.223 23.724001 26.226 31.725 37.223999 39.798 45.297001">emulation of</tspan>
              <tspan id="tspan588" sodipodi:role="line" y="51.201" x="-7.5780001 -4.0770001 1.4220001 6.4260001 9 11.502 17.000999 25.497 28.070999 33.075001 38.078999 43.083 48.087002">the IBM 1401,</tspan>
              <tspan id="tspan590" sodipodi:role="line" y="61.200001" x="-10.341 -5.3369999 -0.333 4.671 9.6750002 12.177 14.751 19.754999 25.254 30.753 33.327 38.331001 43.334999 48.339001">7070, and 7090</tspan>
              <tspan id="tspan592" sodipodi:role="line" y="81.197998" x="-10.539 -4.5359998 1.962 7.9650002 10.539 15.543 23.544001 29.042999 31.545 36.549 40.049999 42.551998 48.050999">VAX emulation</tspan>
              <tspan id="tspan594" sodipodi:role="line" y="91.196999" x="-0.324 5.1750002 8.6759996 11.25 16.254 22.752001 27.756001 30.753 35.757 40.761002">of PDP-11</tspan>
            </text>
            <path inkscape:connector-curvature="0" id="path598" style="fill:#fde0a0;fill-opacity:1;fill-rule:nonzero;stroke:none" d="m 520.784,660.581 c 0,-24.781 -20.089,-44.871 -44.87,-44.871 -24.781,0 -44.871,20.09 -44.871,44.871 0,24.781 20.09,44.87 44.871,44.87 24.781,0 44.87,-20.089 44.87,-44.87"/>
            <path inkscape:connector-curvature="0" id="path600" style="fill:none;stroke:#000000;stroke-width:0.5;stroke-linecap:butt;stroke-linejoin:miter;stroke-miterlimit:10;stroke-dasharray:none;stroke-opacity:1" d="m 520.784,660.581 c 0,-24.781 -20.089,-44.871 -44.87,-44.871 -24.781,0 -44.871,20.09 -44.871,44.871 0,24.781 20.09,44.87 44.871,44.87 24.781,0 44.87,-20.089 44.87,-44.87 z"/>
            <text id="text618" style="font-variant:normal;font-weight:normal;font-size:9px;font-family:Frutiger;-inkscape-font-specification:Frutiger-Roman;writing-mode:lr-tb;fill:#000000;fill-opacity:1;fill-rule:nonzero;stroke:none" transform="matrix(1,0,0,-1,457.914,723.007)">
              <tspan id="tspan602" sodipodi:role="line" y="0" x="0 6.4980001 10.998 16.497 21.500999 29.502001 32.004002">Dynamic</tspan>
              <tspan id="tspan604" sodipodi:role="line" y="9.9989996" x="-4.7610002 -1.26 2.2409999 7.2449999 12.744 16.245001 18.747 23.750999 27.252001 29.754 35.252998">translation</tspan>
              <tspan id="tspan606" sodipodi:role="line" y="50.633999" x="7.2449999 10.746 16.749001 25.245001">JVMs</tspan>
              <tspan id="tspan608" sodipodi:role="line" y="60.632999" x="10.737 14.238 16.74 21.743999">JITs</tspan>
              <tspan id="tspan610" sodipodi:role="line" y="70.632004" x="8.4870005 13.986 20.988001">BOA</tspan>
              <tspan id="tspan612" sodipodi:role="line" y="80.630997" x="7.4790001 13.977 17.478001 19.98 24.983999">Aries</tspan>
              <tspan id="tspan614" sodipodi:role="line" y="60.632999" x="-23.157 -18.657 -12.654 -9.1529999 -4.1490002">FX!32</tspan>
              <tspan id="tspan616" sodipodi:role="line" y="70.632004" x="-23.157 -16.659 -9.6569996 -4.158">UQBT</tspan>
            </text>
            <path inkscape:connector-curvature="0" id="path620" style="fill:none;stroke:#000000;stroke-width:0.5;stroke-linecap:butt;stroke-linejoin:miter;stroke-miterlimit:10;stroke-dasharray:none;stroke-opacity:1" d="m 462.576,660.729 c 0,-25.773 -25.915,-46.666 -57.883,-46.666 -31.968,0 -57.883,20.893 -57.883,46.666 0,25.773 25.915,46.666 57.883,46.666 31.968,0 57.883,-20.893 57.883,-46.666 z"/>
          </g>
        </g>
      </g>
    </g>
  </g>
</svg>
