<?xml version="1.0" encoding="UTF-8" standalone="no"?>
<!DOCTYPE svg PUBLIC "-//W3C//DTD SVG 1.1//EN" "http://www.w3.org/Graphics/SVG/1.1/DTD/svg11.dtd">
<!-- Generated by graphviz version 2.43.0 (0)
 -->
<!-- Title: %3 Pages: 1 -->
<svg xmlns="http://www.w3.org/2000/svg" xmlns:xlink="http://www.w3.org/1999/xlink" width="211pt" height="260pt" viewBox="0.00 0.00 211.00 260.00">
  <g id="graph0" class="graph" transform="scale(1 1) rotate(0) translate(4 256)">
    <title>%3</title>
    <polygon fill="white" stroke="transparent" points="-4,4 -4,-256 207,-256 207,4 -4,4"/>
    <!-- title -->
    <g id="node1" class="node">
      <title>title</title>
      <polygon fill="none" stroke="black" points="197,-252 0,-252 0,-216 203,-216 203,-246 197,-252"/>
      <polyline fill="none" stroke="black" points="197,-252 197,-246 "/>
      <polyline fill="none" stroke="black" points="203,-246 197,-246 "/>
      <text text-anchor="middle" x="101.5" y="-230.3" font-family="Times,serif" font-size="14.00">2018.learn.wwwang.asplos.11.pdf</text>
    </g>
    <!-- fuzzball -->
    <g id="node2" class="node">
      <title>fuzzball</title>
      <ellipse fill="none" stroke="black" cx="101.5" cy="-162" rx="38.99" ry="18"/>
      <text text-anchor="middle" x="101.5" y="-158.3" font-family="Times,serif" font-size="14.00">fuzzball</text>
    </g>
    <!-- title&#45;&gt;fuzzball -->
    <g id="edge1" class="edge">
      <title>title-&gt;fuzzball</title>
      <path fill="none" stroke="black" d="M101.5,-215.7C101.5,-207.98 101.5,-198.71 101.5,-190.11"/>
      <polygon fill="black" stroke="black" points="105,-190.1 101.5,-180.1 98,-190.1 105,-190.1"/>
    </g>
    <!-- vine -->
    <g id="node3" class="node">
      <title>vine</title>
      <ellipse fill="none" stroke="black" cx="101.5" cy="-90" rx="27" ry="18"/>
      <text text-anchor="middle" x="101.5" y="-86.3" font-family="Times,serif" font-size="14.00">vine</text>
    </g>
    <!-- fuzzball&#45;&gt;vine -->
    <g id="edge2" class="edge">
      <title>fuzzball-&gt;vine</title>
      <path fill="none" stroke="black" d="M101.5,-143.7C101.5,-135.98 101.5,-126.71 101.5,-118.11"/>
      <polygon fill="black" stroke="black" points="105,-118.1 101.5,-108.1 98,-118.1 105,-118.1"/>
    </g>
    <!-- TEMU -->
    <g id="node4" class="node">
      <title>TEMU</title>
      <ellipse fill="none" stroke="black" cx="101.5" cy="-18" rx="36.29" ry="18"/>
      <text text-anchor="middle" x="101.5" y="-14.3" font-family="Times,serif" font-size="14.00">TEMU</text>
    </g>
    <!-- vine&#45;&gt;TEMU -->
    <g id="edge3" class="edge">
      <title>vine-&gt;TEMU</title>
      <path fill="none" stroke="black" d="M101.5,-71.7C101.5,-63.98 101.5,-54.71 101.5,-46.11"/>
      <polygon fill="black" stroke="black" points="105,-46.1 101.5,-36.1 98,-46.1 105,-46.1"/>
    </g>
  </g>
</svg>
