<?xml version="1.0" encoding="UTF-8" standalone="no"?>
<!DOCTYPE svg PUBLIC "-//W3C//DTD SVG 1.1//EN" "http://www.w3.org/Graphics/SVG/1.1/DTD/svg11.dtd">
<!-- Generated by graphviz version 2.49.3 (0)
 -->
<!-- Pages: 1 -->
<svg xmlns="http://www.w3.org/2000/svg" xmlns:xlink="http://www.w3.org/1999/xlink" width="837pt" height="327pt" viewBox="0.00 0.00 836.50 327.00">
  <g id="graph0" class="graph" transform="scale(1 1) rotate(0) translate(4 323)">
    <polygon fill="white" stroke="transparent" points="-4,4 -4,-323 832.5,-323 832.5,4 -4,4"/>
    <g id="clust1" class="cluster">
      <title>cluster_ImplLift</title>
      <polygon fill="whitesmoke" stroke="whitesmoke" points="262.5,-242 262.5,-311 820.5,-311 820.5,-242 262.5,-242"/>
    </g>
    <!-- main -->
    <g id="node1" class="node">
      <title>main</title>
      <polygon fill="white" stroke="black" points="230.5,-295.5 24.5,-295.5 24.5,-257.5 230.5,-257.5 230.5,-295.5"/>
      <text text-anchor="middle" x="127.5" y="-280.3" font-family="Times,serif" font-size="14.00">main</text>
      <text text-anchor="middle" x="127.5" y="-265.3" font-family="Times,serif" font-size="14.00">/remill/bin/lift/Lift.cpp:268</text>
    </g>
    <!-- Lift -->
    <g id="node2" class="node">
      <title>Lift</title>
      <polygon fill="white" stroke="black" points="255,-214 0,-214 0,-161 255,-161 255,-214"/>
      <text text-anchor="middle" x="127.5" y="-198.8" font-family="Times,serif" font-size="14.00">remill::TraceLifter::Lift</text>
      <text text-anchor="middle" x="127.5" y="-183.8" font-family="Times,serif" font-size="14.00">(unsigned long, std::function...</text>
      <text text-anchor="middle" x="127.5" y="-168.8" font-family="Times,serif" font-size="14.00">/remill/lib/BC/TraceLifter.cpp:240</text>
    </g>
    <!-- main&#45;&gt;Lift -->
    <g id="edge1" class="edge">
      <title>main-&gt;Lift</title>
      <path fill="none" stroke="black" d="M127.5,-257.47C127.5,-247.87 127.5,-235.71 127.5,-224.28"/>
      <polygon fill="black" stroke="black" points="131,-224.09 127.5,-214.09 124,-224.09 131,-224.09"/>
    </g>
    <!-- ImplLift -->
    <g id="node3" class="node">
      <title>ImplLift</title>
      <polygon fill="white" stroke="black" points="255,-125 0,-125 0,-72 255,-72 255,-125"/>
      <text text-anchor="middle" x="127.5" y="-109.8" font-family="Times,serif" font-size="14.00">remill::TraceLifter::Impl::Lift</text>
      <text text-anchor="middle" x="127.5" y="-94.8" font-family="Times,serif" font-size="14.00">(unsigned long, std::function...</text>
      <text text-anchor="middle" x="127.5" y="-79.8" font-family="Times,serif" font-size="14.00">/remill/lib/BC/TraceLifter.cpp:354</text>
    </g>
    <!-- Lift&#45;&gt;ImplLift -->
    <g id="edge2" class="edge">
      <title>Lift-&gt;ImplLift</title>
      <path fill="none" stroke="black" d="M127.5,-160.87C127.5,-152.89 127.5,-143.93 127.5,-135.38"/>
      <polygon fill="black" stroke="black" points="131,-135.25 127.5,-125.25 124,-135.25 131,-135.25"/>
    </g>
    <!-- cluster_ImplLift -->
    <g id="node4" class="node">
      <title>cluster_ImplLift</title>
      <polygon fill="white" stroke="black" points="192.5,-36 62.5,-36 62.5,0 192.5,0 192.5,-36"/>
      <text text-anchor="middle" x="127.5" y="-14.3" font-family="Times,serif" font-size="14.00">cluster_ImplLift</text>
    </g>
    <!-- ImplLift&#45;&gt;cluster_ImplLift -->
    <g id="edge3" class="edge">
      <title>ImplLift-&gt;cluster_ImplLift</title>
      <path fill="none" stroke="black" d="M127.5,-71.8C127.5,-63.71 127.5,-54.76 127.5,-46.55"/>
      <polygon fill="black" stroke="black" points="131,-46.33 127.5,-36.33 124,-46.33 131,-46.33"/>
    </g>
    <!-- LiftIntoBlock -->
    <g id="node5" class="node">
      <title>LiftIntoBlock</title>
      <polygon fill="white" stroke="black" points="646.5,-303 270.5,-303 270.5,-250 646.5,-250 646.5,-303"/>
      <text text-anchor="middle" x="458.5" y="-287.8" font-family="Times,serif" font-size="14.00">remill::InstructionLifter::LiftIntoBlock</text>
      <text text-anchor="middle" x="458.5" y="-272.8" font-family="Times,serif" font-size="14.00">(this, arch_inst, block, state_ptr, is_delayed=false)</text>
      <text text-anchor="middle" x="458.5" y="-257.8" font-family="Times,serif" font-size="14.00">/remill/lib/BC/InstructionLifter.cpp:91</text>
    </g>
    <!-- DecodeInstruction -->
    <g id="node6" class="node">
      <title>DecodeInstruction</title>
      <polygon fill="white" stroke="black" points="812.5,-294.5 664.5,-294.5 664.5,-258.5 812.5,-258.5 812.5,-294.5"/>
      <text text-anchor="middle" x="738.5" y="-272.8" font-family="Times,serif" font-size="14.00">DecodeInstruction</text>
    </g>
    <!-- LiftIntoBlock&#45;&gt;DecodeInstruction -->
    <g id="edge4" class="edge">
      <title>LiftIntoBlock-&gt;DecodeInstruction</title>
      <path fill="none" stroke="black" d="M646.62,-276.5C649.1,-276.5 651.57,-276.5 654.04,-276.5"/>
      <polygon fill="black" stroke="black" points="654.21,-280 664.21,-276.5 654.21,-273 654.21,-280"/>
    </g>
    <!-- GetInstructionFunction -->
    <g id="node7" class="node">
      <title>GetInstructionFunction</title>
      <polygon fill="white" stroke="black" points="643.5,-214 273.5,-214 273.5,-161 643.5,-161 643.5,-214"/>
      <text text-anchor="middle" x="458.5" y="-198.8" font-family="Times,serif" font-size="14.00">remill::GetInstructionFunction</text>
      <text text-anchor="middle" x="458.5" y="-183.8" font-family="Times,serif" font-size="14.00">(llvm::Module *module, std::string_view function)</text>
      <text text-anchor="middle" x="458.5" y="-168.8" font-family="Times,serif" font-size="14.00">lib/BC/InstructionLifter.cpp</text>
    </g>
    <!-- LiftIntoBlock&#45;&gt;GetInstructionFunction -->
    <g id="edge5" class="edge">
      <title>LiftIntoBlock-&gt;GetInstructionFunction</title>
      <path fill="none" stroke="black" d="M458.5,-249.87C458.5,-241.89 458.5,-232.93 458.5,-224.38"/>
      <polygon fill="black" stroke="black" points="462,-224.25 458.5,-214.25 455,-224.25 462,-224.25"/>
    </g>
    <!-- FindGlobaVariable -->
    <g id="node8" class="node">
      <title>FindGlobaVariable</title>
      <polygon fill="white" stroke="black" points="630.5,-125 286.5,-125 286.5,-72 630.5,-72 630.5,-125"/>
      <text text-anchor="middle" x="458.5" y="-109.8" font-family="Times,serif" font-size="14.00">llvm::FindGlobaVariable</text>
      <text text-anchor="middle" x="458.5" y="-94.8" font-family="Times,serif" font-size="14.00">(llvm::Module *module, std::string_view nae_)</text>
      <text text-anchor="middle" x="458.5" y="-79.8" font-family="Times,serif" font-size="14.00">lib/BC/Util.cpp</text>
    </g>
    <!-- GetInstructionFunction&#45;&gt;FindGlobaVariable -->
    <g id="edge6" class="edge">
      <title>GetInstructionFunction-&gt;FindGlobaVariable</title>
      <path fill="none" stroke="black" d="M458.5,-160.87C458.5,-152.89 458.5,-143.93 458.5,-135.38"/>
      <polygon fill="black" stroke="black" points="462,-135.25 458.5,-125.25 455,-135.25 462,-135.25"/>
    </g>
  </g>
</svg>
