<?xml version="1.0" encoding="UTF-8" standalone="no"?>
<!DOCTYPE svg PUBLIC "-//W3C//DTD SVG 1.1//EN"
 "http://www.w3.org/Graphics/SVG/1.1/DTD/svg11.dtd">
<!-- Generated by graphviz version 7.1.0 (0)
 -->
<!-- Pages: 1 -->
<svg width="4195pt" height="587pt"
 viewBox="0.00 0.00 4195.00 587.00" xmlns="http://www.w3.org/2000/svg" xmlns:xlink="http://www.w3.org/1999/xlink">
<g id="graph0" class="graph" transform="scale(1 1) rotate(0) translate(4 583)">
<polygon fill="white" stroke="none" points="-4,4 -4,-583 4191,-583 4191,4 -4,4"/>
<g id="clust1" class="cluster">
<title>cluster_legend</title>
<polygon fill="none" stroke="black" points="8,-424 8,-571 431,-571 431,-424 8,-424"/>
<text text-anchor="middle" x="219.5" y="-555.8" font-family="Times,serif" font-size="14.00">Graph of pinplay&#45;tools/pinplay&#45;scripts/*.py</text>
</g>
<!-- _sl -->
<g id="node1" class="node">
<title>_sl</title>
<text text-anchor="middle" x="339" y="-518.3" font-family="Times,serif" font-size="14.00">Solid lines</text>
</g>
<!-- _id -->
<g id="node2" class="node">
<title>_id</title>
<text text-anchor="middle" x="339" y="-446.3" font-family="Times,serif" font-size="14.00">Import dependencies</text>
</g>
<!-- _sl&#45;&gt;_id -->
<g id="edge1" class="edge">
<title>_sl&#45;&gt;_id</title>
<path fill="none" stroke="black" d="M339,-504.05C339,-496.57 339,-487.58 339,-479.14"/>
<polygon fill="black" stroke="black" points="342.5,-479.3 339,-469.3 335.5,-479.3 342.5,-479.3"/>
</g>
<!-- _dl -->
<g id="node3" class="node">
<title>_dl</title>
<text text-anchor="middle" x="127" y="-518.3" font-family="Times,serif" font-size="14.00">Dashed lines</text>
</g>
<!-- _ud -->
<g id="node4" class="node">
<title>_ud</title>
<text text-anchor="middle" x="127" y="-446.3" font-family="Times,serif" font-size="14.00">Used in string dependencies</text>
</g>
<!-- _dl&#45;&gt;_ud -->
<g id="edge2" class="edge">
<title>_dl&#45;&gt;_ud</title>
<path fill="none" stroke="black" stroke-dasharray="5,2" d="M127,-504.05C127,-496.57 127,-487.58 127,-479.14"/>
<polygon fill="black" stroke="black" points="130.5,-479.3 127,-469.3 123.5,-479.3 130.5,-479.3"/>
</g>
<!-- build_kit -->
<g id="node5" class="node">
<title>build_kit</title>
<ellipse fill="none" stroke="black" cx="1238" cy="-522" rx="50.89" ry="18"/>
<text text-anchor="middle" x="1238" y="-518.3" font-family="Times,serif" font-size="14.00">build_kit</text>
</g>
<!-- cmd_options -->
<g id="node6" class="node">
<title>cmd_options</title>
<ellipse fill="none" stroke="black" cx="2795" cy="-162" rx="68.79" ry="18"/>
<text text-anchor="middle" x="2795" y="-158.3" font-family="Times,serif" font-size="14.00">cmd_options</text>
</g>
<!-- config -->
<g id="node7" class="node">
<title>config</title>
<ellipse fill="none" stroke="black" cx="2695" cy="-90" rx="38.19" ry="18"/>
<text text-anchor="middle" x="2695" y="-86.3" font-family="Times,serif" font-size="14.00">config</text>
</g>
<!-- cmd_options&#45;&gt;config -->
<g id="edge128" class="edge">
<title>cmd_options&#45;&gt;config</title>
<path fill="none" stroke="black" stroke-dasharray="5,2" d="M2761.94,-145.81C2746.54,-136.6 2728.99,-124.65 2715.44,-114.27"/>
<polygon fill="black" stroke="black" points="2717.96,-111.8 2707.95,-108.32 2713.61,-117.28 2717.96,-111.8"/>
</g>
<!-- rename -->
<g id="node43" class="node">
<title>rename</title>
<ellipse fill="none" stroke="black" cx="2797" cy="-90" rx="46.29" ry="18"/>
<text text-anchor="middle" x="2797" y="-86.3" font-family="Times,serif" font-size="14.00">rename</text>
</g>
<!-- cmd_options&#45;&gt;rename -->
<g id="edge129" class="edge">
<title>cmd_options&#45;&gt;rename</title>
<path fill="none" stroke="black" stroke-dasharray="5,2" d="M2795.49,-143.7C2795.7,-136.41 2795.95,-127.73 2796.18,-119.54"/>
<polygon fill="black" stroke="black" points="2799.68,-119.71 2796.47,-109.62 2792.68,-119.51 2799.68,-119.71"/>
</g>
<!-- config&#45;&gt;cmd_options -->
<g id="edge130" class="edge">
<title>config&#45;&gt;cmd_options</title>
<path fill="none" stroke="black" stroke-dasharray="5,2" d="M2715.69,-105.48C2729.23,-114.96 2747.19,-127.54 2762.6,-138.32"/>
<polygon fill="black" stroke="black" points="2760.37,-141.03 2770.57,-143.9 2764.38,-135.29 2760.37,-141.03"/>
</g>
<!-- config&#45;&gt;cmd_options -->
<g id="edge131" class="edge">
<title>config&#45;&gt;cmd_options</title>
<path fill="none" stroke="black" stroke-dasharray="5,2" d="M2722.56,-102.97C2738.88,-112.33 2758.71,-125.65 2773.82,-137.17"/>
<polygon fill="black" stroke="black" points="2771.34,-139.67 2781.36,-143.12 2775.68,-134.17 2771.34,-139.67"/>
</g>
<!-- msg -->
<g id="node8" class="node">
<title>msg</title>
<ellipse fill="none" stroke="black" cx="2139" cy="-18" rx="30.59" ry="18"/>
<text text-anchor="middle" x="2139" y="-14.3" font-family="Times,serif" font-size="14.00">msg</text>
</g>
<!-- config&#45;&gt;msg -->
<g id="edge3" class="edge">
<title>config&#45;&gt;msg</title>
<path fill="none" stroke="black" d="M2658.52,-84.41C2559.3,-71.92 2285.01,-37.38 2180.33,-24.2"/>
<polygon fill="black" stroke="black" points="2180.86,-20.74 2170.51,-22.97 2179.99,-27.69 2180.86,-20.74"/>
</g>
<!-- correct_size_matrix -->
<g id="node9" class="node">
<title>correct_size_matrix</title>
<ellipse fill="none" stroke="black" cx="1776" cy="-234" rx="101.28" ry="18"/>
<text text-anchor="middle" x="1776" y="-230.3" font-family="Times,serif" font-size="14.00">correct_size_matrix</text>
</g>
<!-- correct_size_matrix&#45;&gt;cmd_options -->
<g id="edge4" class="edge">
<title>correct_size_matrix&#45;&gt;cmd_options</title>
<path fill="none" stroke="black" d="M1849.19,-221.19C1863.05,-219.24 1877.45,-217.4 1891,-216 2194.61,-184.72 2557.63,-170.4 2715.34,-165.31"/>
<polygon fill="black" stroke="black" points="2715.4,-168.81 2725.28,-164.99 2715.17,-161.81 2715.4,-168.81"/>
</g>
<!-- correct_size_matrix&#45;&gt;msg -->
<g id="edge5" class="edge">
<title>correct_size_matrix&#45;&gt;msg</title>
<path fill="none" stroke="black" d="M1804.18,-216.39C1871.05,-176.97 2038.85,-78.04 2108.24,-37.14"/>
<polygon fill="black" stroke="black" points="2109.98,-40.17 2116.81,-32.08 2106.42,-34.14 2109.98,-40.17"/>
</g>
<!-- util -->
<g id="node10" class="node">
<title>util</title>
<ellipse fill="none" stroke="black" cx="2139" cy="-162" rx="27" ry="18"/>
<text text-anchor="middle" x="2139" y="-158.3" font-family="Times,serif" font-size="14.00">util</text>
</g>
<!-- correct_size_matrix&#45;&gt;util -->
<g id="edge6" class="edge">
<title>correct_size_matrix&#45;&gt;util</title>
<path fill="none" stroke="black" d="M1843,-220.08C1919.41,-205.35 2041.56,-181.79 2102.27,-170.08"/>
<polygon fill="black" stroke="black" points="2102.58,-173.59 2111.73,-168.26 2101.25,-166.72 2102.58,-173.59"/>
</g>
<!-- util&#45;&gt;config -->
<g id="edge126" class="edge">
<title>util&#45;&gt;config</title>
<path fill="none" stroke="black" d="M2162.27,-152.23C2171.15,-149.19 2181.43,-146.04 2191,-144 2355.03,-108.97 2554.26,-96.72 2645.3,-92.75"/>
<polygon fill="black" stroke="black" points="2645.28,-96.25 2655.12,-92.34 2644.98,-89.26 2645.28,-96.25"/>
</g>
<!-- util&#45;&gt;msg -->
<g id="edge127" class="edge">
<title>util&#45;&gt;msg</title>
<path fill="none" stroke="black" d="M2139,-143.59C2139,-119.61 2139,-76.14 2139,-47.42"/>
<polygon fill="black" stroke="black" points="2142.5,-47.62 2139,-37.62 2135.5,-47.62 2142.5,-47.62"/>
</g>
<!-- drd_util -->
<g id="node11" class="node">
<title>drd_util</title>
<ellipse fill="none" stroke="black" cx="3474" cy="-234" rx="46.59" ry="18"/>
<text text-anchor="middle" x="3474" y="-230.3" font-family="Times,serif" font-size="14.00">drd_util</text>
</g>
<!-- drd_util&#45;&gt;cmd_options -->
<g id="edge7" class="edge">
<title>drd_util&#45;&gt;cmd_options</title>
<path fill="none" stroke="black" d="M3430.23,-227.27C3403.35,-223.83 3368.21,-219.46 3337,-216 3170.8,-197.57 2975.53,-179.3 2870.7,-169.78"/>
<polygon fill="black" stroke="black" points="2871.08,-166.3 2860.81,-168.88 2870.45,-173.27 2871.08,-166.3"/>
</g>
<!-- drd_util&#45;&gt;config -->
<g id="edge8" class="edge">
<title>drd_util&#45;&gt;config</title>
<path fill="none" stroke="black" d="M3453.86,-217.32C3425.56,-196.3 3371.6,-159.8 3319,-144 3072.92,-70.09 2993.58,-160.23 2742,-108 2739.35,-107.45 2736.64,-106.78 2733.94,-106.03"/>
<polygon fill="black" stroke="black" points="2734.99,-102.69 2724.4,-103.03 2732.89,-109.37 2734.99,-102.69"/>
</g>
<!-- drd_util&#45;&gt;msg -->
<g id="edge9" class="edge">
<title>drd_util&#45;&gt;msg</title>
<path fill="none" stroke="black" d="M3461.35,-216.4C3453.95,-206.24 3444.78,-192.77 3438,-180 3413.79,-134.36 3437.14,-101.89 3395,-72 3344.45,-36.14 2394.29,-22.18 2181.18,-19.5"/>
<polygon fill="black" stroke="black" points="2181.45,-16 2171.41,-19.38 2181.36,-23 2181.45,-16"/>
</g>
<!-- drd_util&#45;&gt;util -->
<g id="edge10" class="edge">
<title>drd_util&#45;&gt;util</title>
<path fill="none" stroke="black" d="M3428.67,-229.67C3378.42,-226.04 3294.94,-220.19 3223,-216 2814.05,-192.16 2317.87,-170.59 2177.59,-164.62"/>
<polygon fill="black" stroke="black" points="2177.89,-161.13 2167.75,-164.21 2177.59,-168.13 2177.89,-161.13"/>
</g>
<!-- pin -->
<g id="node22" class="node">
<title>pin</title>
<ellipse fill="none" stroke="black" cx="3474" cy="-162" rx="27" ry="18"/>
<text text-anchor="middle" x="3474" y="-158.3" font-family="Times,serif" font-size="14.00">pin</text>
</g>
<!-- drd_util&#45;&gt;pin -->
<g id="edge132" class="edge">
<title>drd_util&#45;&gt;pin</title>
<path fill="none" stroke="black" stroke-dasharray="5,2" d="M3474,-215.7C3474,-208.41 3474,-199.73 3474,-191.54"/>
<polygon fill="black" stroke="black" points="3477.5,-191.62 3474,-181.62 3470.5,-191.62 3477.5,-191.62"/>
</g>
<!-- gdb_replay -->
<g id="node12" class="node">
<title>gdb_replay</title>
<ellipse fill="none" stroke="black" cx="3497" cy="-450" rx="61.99" ry="18"/>
<text text-anchor="middle" x="3497" y="-446.3" font-family="Times,serif" font-size="14.00">gdb_replay</text>
</g>
<!-- gdb_replay&#45;&gt;cmd_options -->
<g id="edge11" class="edge">
<title>gdb_replay&#45;&gt;cmd_options</title>
<path fill="none" stroke="black" d="M3507.38,-431.93C3531.84,-389.29 3586.91,-277.17 3530,-216 3486.14,-168.86 3056.77,-163.09 2875.3,-162.77"/>
<polygon fill="black" stroke="black" points="2875.49,-159.27 2865.49,-162.76 2875.49,-166.27 2875.49,-159.27"/>
</g>
<!-- gdb_replay&#45;&gt;config -->
<g id="edge12" class="edge">
<title>gdb_replay&#45;&gt;config</title>
<path fill="none" stroke="black" d="M3516.53,-432.62C3526.93,-422.94 3539.17,-409.88 3547,-396 3602.07,-298.37 3622.34,-216.66 3537,-144 3469.67,-86.68 2828.73,-125.23 2742,-108 2739.34,-107.47 2736.64,-106.82 2733.93,-106.08"/>
<polygon fill="black" stroke="black" points="2734.97,-102.74 2724.38,-103.11 2732.89,-109.43 2734.97,-102.74"/>
</g>
<!-- gdb_replay&#45;&gt;msg -->
<g id="edge13" class="edge">
<title>gdb_replay&#45;&gt;msg</title>
<path fill="none" stroke="black" d="M3520.42,-433C3569.32,-399.57 3685.82,-319.76 3783,-252 3805.76,-236.13 3810.7,-231.06 3834,-216 3860.44,-198.91 3879.39,-207.34 3895,-180 3923.48,-130.12 3876.64,-95 3824,-72 3746.49,-38.13 2434.58,-22.21 2181.18,-19.44"/>
<polygon fill="black" stroke="black" points="2181.47,-15.95 2171.43,-19.34 2181.39,-22.94 2181.47,-15.95"/>
</g>
<!-- gdb_replay&#45;&gt;util -->
<g id="edge14" class="edge">
<title>gdb_replay&#45;&gt;util</title>
<path fill="none" stroke="black" d="M3453.06,-437.07C3401.87,-423.11 3322.53,-401.21 3309,-396 3208.09,-357.16 3194.21,-320.24 3091,-288 3064.68,-279.78 2627.34,-219.57 2600,-216 2443.29,-195.51 2256.04,-175.3 2177.08,-166.97"/>
<polygon fill="black" stroke="black" points="2177.61,-163.51 2167.3,-165.94 2176.88,-170.47 2177.61,-163.51"/>
</g>
<!-- gdb_replay&#45;&gt;drd_util -->
<g id="edge15" class="edge">
<title>gdb_replay&#45;&gt;drd_util</title>
<path fill="none" stroke="black" d="M3495.16,-431.85C3491.21,-395.14 3481.92,-308.66 3477.07,-263.53"/>
<polygon fill="black" stroke="black" points="3480.56,-263.31 3476.01,-253.74 3473.6,-264.05 3480.56,-263.31"/>
</g>
<!-- replay -->
<g id="node13" class="node">
<title>replay</title>
<ellipse fill="none" stroke="black" cx="3429" cy="-378" rx="40.09" ry="18"/>
<text text-anchor="middle" x="3429" y="-374.3" font-family="Times,serif" font-size="14.00">replay</text>
</g>
<!-- gdb_replay&#45;&gt;replay -->
<g id="edge16" class="edge">
<title>gdb_replay&#45;&gt;replay</title>
<path fill="none" stroke="black" d="M3480.88,-432.41C3472.38,-423.66 3461.79,-412.75 3452.39,-403.08"/>
<polygon fill="black" stroke="black" points="3455.06,-400.81 3445.59,-396.07 3450.04,-405.69 3455.06,-400.81"/>
</g>
<!-- replay&#45;&gt;cmd_options -->
<g id="edge57" class="edge">
<title>replay&#45;&gt;cmd_options</title>
<path fill="none" stroke="black" d="M3412.4,-361.21C3375.26,-327.05 3281.15,-246.9 3185,-216 3080.99,-182.57 2954.77,-170.22 2874.66,-165.67"/>
<polygon fill="black" stroke="black" points="2874.87,-162.17 2864.69,-165.13 2874.49,-169.16 2874.87,-162.17"/>
</g>
<!-- replay&#45;&gt;config -->
<g id="edge58" class="edge">
<title>replay&#45;&gt;config</title>
<path fill="none" stroke="black" d="M3447.63,-361.57C3472.03,-340.02 3513.63,-298.3 3530,-252 3546.27,-205.98 3548.16,-174.44 3510,-144 3443.22,-90.73 2825.78,-124.72 2742,-108 2739.34,-107.47 2736.64,-106.82 2733.93,-106.08"/>
<polygon fill="black" stroke="black" points="2734.97,-102.74 2724.39,-103.1 2732.89,-109.42 2734.97,-102.74"/>
</g>
<!-- replay&#45;&gt;msg -->
<g id="edge59" class="edge">
<title>replay&#45;&gt;msg</title>
<path fill="none" stroke="black" d="M3454.17,-363.82C3509.33,-335.18 3645.34,-265.83 3763,-216 3805.73,-197.9 3834.44,-218.05 3861,-180 3870.16,-166.88 3869.94,-157.27 3861,-144 3813.29,-73.24 3766.47,-89.73 3683,-72 3532.63,-40.05 2413.26,-22.82 2181.08,-19.57"/>
<polygon fill="black" stroke="black" points="2181.35,-16.07 2171.3,-19.43 2181.25,-23.07 2181.35,-16.07"/>
</g>
<!-- replay&#45;&gt;util -->
<g id="edge60" class="edge">
<title>replay&#45;&gt;util</title>
<path fill="none" stroke="black" d="M3398.1,-366.03C3344.43,-347.37 3230.23,-309.41 3131,-288 3129.18,-287.61 2601.85,-216.23 2600,-216 2443.18,-196.36 2255.99,-175.69 2177.06,-167.11"/>
<polygon fill="black" stroke="black" points="2177.61,-163.65 2167.29,-166.05 2176.85,-170.61 2177.61,-163.65"/>
</g>
<!-- replay&#45;&gt;drd_util -->
<g id="edge61" class="edge">
<title>replay&#45;&gt;drd_util</title>
<path fill="none" stroke="black" d="M3434.43,-359.87C3442.03,-335.88 3455.94,-291.99 3465.08,-263.16"/>
<polygon fill="black" stroke="black" points="3468.41,-264.22 3468.1,-253.63 3461.74,-262.11 3468.41,-264.22"/>
</g>
<!-- replayer -->
<g id="node28" class="node">
<title>replayer</title>
<ellipse fill="none" stroke="black" cx="3001" cy="-306" rx="50.09" ry="18"/>
<text text-anchor="middle" x="3001" y="-302.3" font-family="Times,serif" font-size="14.00">replayer</text>
</g>
<!-- replay&#45;&gt;replayer -->
<g id="edge139" class="edge">
<title>replay&#45;&gt;replayer</title>
<path fill="none" stroke="black" stroke-dasharray="5,2" d="M3391.77,-370.91C3316.56,-358.61 3146.15,-330.74 3057.29,-316.21"/>
<polygon fill="black" stroke="black" points="3058.01,-312.78 3047.58,-314.62 3056.88,-319.69 3058.01,-312.78"/>
</g>
<!-- kit -->
<g id="node14" class="node">
<title>kit</title>
<ellipse fill="none" stroke="black" cx="2074" cy="-234" rx="27" ry="18"/>
<text text-anchor="middle" x="2074" y="-230.3" font-family="Times,serif" font-size="14.00">kit</text>
</g>
<!-- kit&#45;&gt;config -->
<g id="edge17" class="edge">
<title>kit&#45;&gt;config</title>
<path fill="none" stroke="black" d="M2074.28,-215.81C2075.63,-195.21 2081.26,-161.31 2103,-144 2145.06,-110.5 2511.04,-96.42 2645.62,-92.34"/>
<polygon fill="black" stroke="black" points="2645.38,-95.85 2655.27,-92.05 2645.17,-88.85 2645.38,-95.85"/>
</g>
<!-- kit&#45;&gt;msg -->
<g id="edge18" class="edge">
<title>kit&#45;&gt;msg</title>
<path fill="none" stroke="black" d="M2072.16,-215.64C2070.75,-197.48 2069.94,-168.29 2076,-144 2085.17,-107.28 2106.5,-68.97 2121.8,-44.6"/>
<polygon fill="black" stroke="black" points="2124.66,-46.63 2127.12,-36.33 2118.77,-42.85 2124.66,-46.63"/>
</g>
<!-- kit&#45;&gt;util -->
<g id="edge19" class="edge">
<title>kit&#45;&gt;util</title>
<path fill="none" stroke="black" d="M2087.78,-218.15C2096.4,-208.87 2107.68,-196.73 2117.46,-186.19"/>
<polygon fill="black" stroke="black" points="2119.97,-188.64 2124.21,-178.93 2114.84,-183.88 2119.97,-188.64"/>
</g>
<!-- log -->
<g id="node15" class="node">
<title>log</title>
<ellipse fill="none" stroke="black" cx="1998" cy="-306" rx="27" ry="18"/>
<text text-anchor="middle" x="1998" y="-302.3" font-family="Times,serif" font-size="14.00">log</text>
</g>
<!-- log&#45;&gt;cmd_options -->
<g id="edge20" class="edge">
<title>log&#45;&gt;cmd_options</title>
<path fill="none" stroke="black" d="M2024.58,-301.85C2055.43,-298.25 2107.86,-292.29 2153,-288 2351.41,-269.13 2407.1,-302.13 2600,-252 2658.02,-236.92 2720.24,-205.57 2758.4,-184.41"/>
<polygon fill="black" stroke="black" points="2759.71,-187.68 2766.71,-179.73 2756.28,-181.58 2759.71,-187.68"/>
</g>
<!-- log&#45;&gt;config -->
<g id="edge21" class="edge">
<title>log&#45;&gt;config</title>
<path fill="none" stroke="black" d="M1970.74,-304.97C1898.54,-304.26 1705.25,-298.02 1666,-252 1655.62,-239.83 1655.71,-228.25 1666,-216 1729.86,-139.95 2448.66,-102.11 2645.45,-93.13"/>
<polygon fill="black" stroke="black" points="2645.5,-96.63 2655.34,-92.69 2645.19,-89.64 2645.5,-96.63"/>
</g>
<!-- log&#45;&gt;msg -->
<g id="edge22" class="edge">
<title>log&#45;&gt;msg</title>
<path fill="none" stroke="black" d="M1970.57,-305.14C1896.44,-304.88 1694.91,-299.7 1654,-252 1643.58,-239.86 1645.24,-229.39 1654,-216 1754.69,-62.2 1999.06,-28.45 2097.19,-21.07"/>
<polygon fill="black" stroke="black" points="2097.17,-24.58 2106.9,-20.39 2096.69,-17.59 2097.17,-24.58"/>
</g>
<!-- log&#45;&gt;util -->
<g id="edge23" class="edge">
<title>log&#45;&gt;util</title>
<path fill="none" stroke="black" d="M2002.02,-288.03C2007.37,-268.58 2018.5,-236.73 2038,-216 2056.14,-196.72 2082.88,-183.12 2104.29,-174.53"/>
<polygon fill="black" stroke="black" points="2105.41,-177.85 2113.51,-171.03 2102.92,-171.31 2105.41,-177.85"/>
</g>
<!-- log&#45;&gt;kit -->
<g id="edge24" class="edge">
<title>log&#45;&gt;kit</title>
<path fill="none" stroke="black" d="M2013.38,-290.83C2023.99,-281.06 2038.3,-267.88 2050.35,-256.78"/>
<polygon fill="black" stroke="black" points="2052.55,-259.52 2057.53,-250.17 2047.8,-254.37 2052.55,-259.52"/>
</g>
<!-- logger -->
<g id="node16" class="node">
<title>logger</title>
<ellipse fill="none" stroke="black" cx="1971" cy="-378" rx="40.09" ry="18"/>
<text text-anchor="middle" x="1971" y="-374.3" font-family="Times,serif" font-size="14.00">logger</text>
</g>
<!-- logger&#45;&gt;cmd_options -->
<g id="edge25" class="edge">
<title>logger&#45;&gt;cmd_options</title>
<path fill="none" stroke="black" d="M2011,-375.32C2119.35,-369.62 2426.13,-345.73 2660,-252 2699.92,-236 2740.4,-207.28 2766.48,-186.79"/>
<polygon fill="black" stroke="black" points="2768.6,-189.58 2774.23,-180.6 2764.23,-184.11 2768.6,-189.58"/>
</g>
<!-- logger&#45;&gt;config -->
<g id="edge26" class="edge">
<title>logger&#45;&gt;config</title>
<path fill="none" stroke="black" d="M1931.72,-373.81C1834.77,-364.15 1595.97,-328.62 1654,-216 1679.25,-166.99 1702.99,-162.27 1755,-144 1839.18,-114.43 2463.49,-96.75 2645.4,-92.18"/>
<polygon fill="black" stroke="black" points="2645.31,-95.69 2655.22,-91.94 2645.14,-88.69 2645.31,-95.69"/>
</g>
<!-- logger&#45;&gt;msg -->
<g id="edge27" class="edge">
<title>logger&#45;&gt;msg</title>
<path fill="none" stroke="black" d="M1933.15,-371.45C1874,-362.58 1756.14,-344.16 1657,-324 1589.39,-310.25 1574.15,-298.75 1506,-288 1455.8,-280.08 1084.5,-289.33 1050,-252 1039.14,-240.25 1045.51,-231.36 1050,-216 1071.3,-143.1 1076.38,-110.24 1142,-72 1225.35,-23.42 1917.71,-19.25 2096.83,-18.99"/>
<polygon fill="black" stroke="black" points="2096.6,-22.49 2106.6,-18.98 2096.59,-15.49 2096.6,-22.49"/>
</g>
<!-- logger&#45;&gt;util -->
<g id="edge28" class="edge">
<title>logger&#45;&gt;util</title>
<path fill="none" stroke="black" d="M1965.35,-359.88C1960.23,-341.66 1954.55,-312.19 1962,-288 1973.39,-251.01 1980.97,-240.43 2011,-216 2037.94,-194.09 2075.2,-180.03 2102.58,-171.94"/>
<polygon fill="black" stroke="black" points="2103.51,-175.32 2112.19,-169.25 2101.62,-168.58 2103.51,-175.32"/>
</g>
<!-- logger&#45;&gt;kit -->
<g id="edge29" class="edge">
<title>logger&#45;&gt;kit</title>
<path fill="none" stroke="black" d="M1992.72,-362.56C2005.99,-352.88 2022.54,-339.17 2034,-324 2048.04,-305.42 2058.53,-281.13 2065.24,-262.62"/>
<polygon fill="black" stroke="black" points="2068.48,-263.97 2068.43,-253.38 2061.86,-261.69 2068.48,-263.97"/>
</g>
<!-- logger&#45;&gt;log -->
<g id="edge133" class="edge">
<title>logger&#45;&gt;log</title>
<path fill="none" stroke="black" stroke-dasharray="5,2" d="M1977.54,-360.05C1980.52,-352.32 1984.13,-342.96 1987.48,-334.27"/>
<polygon fill="black" stroke="black" points="1990.65,-335.79 1990.98,-325.2 1984.12,-333.27 1990.65,-335.79"/>
</g>
<!-- make&#45;balanced&#45;concat&#45;vectors -->
<g id="node17" class="node">
<title>make&#45;balanced&#45;concat&#45;vectors</title>
<ellipse fill="none" stroke="black" cx="2372" cy="-522" rx="150.27" ry="18"/>
<text text-anchor="middle" x="2372" y="-518.3" font-family="Times,serif" font-size="14.00">make&#45;balanced&#45;concat&#45;vectors</text>
</g>
<!-- make_simpoint_weights -->
<g id="node18" class="node">
<title>make_simpoint_weights</title>
<ellipse fill="none" stroke="black" cx="2469" cy="-234" rx="121.58" ry="18"/>
<text text-anchor="middle" x="2469" y="-230.3" font-family="Times,serif" font-size="14.00">make_simpoint_weights</text>
</g>
<!-- make_simpoint_weights&#45;&gt;cmd_options -->
<g id="edge30" class="edge">
<title>make_simpoint_weights&#45;&gt;cmd_options</title>
<path fill="none" stroke="black" d="M2536.15,-218.58C2593.52,-206.26 2675.46,-188.67 2731.7,-176.59"/>
<polygon fill="black" stroke="black" points="2732.41,-180.02 2741.46,-174.5 2730.94,-173.17 2732.41,-180.02"/>
</g>
<!-- make_simpoint_weights&#45;&gt;util -->
<g id="edge31" class="edge">
<title>make_simpoint_weights&#45;&gt;util</title>
<path fill="none" stroke="black" d="M2401.42,-218.67C2333.09,-204.17 2230.01,-182.31 2175.61,-170.77"/>
<polygon fill="black" stroke="black" points="2176.45,-167.37 2165.94,-168.71 2175,-174.21 2176.45,-167.37"/>
</g>
<!-- pb_weight -->
<g id="node19" class="node">
<title>pb_weight</title>
<ellipse fill="none" stroke="black" cx="2933" cy="-234" rx="58.49" ry="18"/>
<text text-anchor="middle" x="2933" y="-230.3" font-family="Times,serif" font-size="14.00">pb_weight</text>
</g>
<!-- pb_weight&#45;&gt;cmd_options -->
<g id="edge32" class="edge">
<title>pb_weight&#45;&gt;cmd_options</title>
<path fill="none" stroke="black" d="M2903.73,-218.15C2883.93,-208.11 2857.49,-194.7 2835.65,-183.62"/>
<polygon fill="black" stroke="black" points="2837.51,-180.64 2827.01,-179.24 2834.34,-186.88 2837.51,-180.64"/>
</g>
<!-- pb_weight&#45;&gt;msg -->
<g id="edge33" class="edge">
<title>pb_weight&#45;&gt;msg</title>
<path fill="none" stroke="black" d="M2930.03,-215.71C2923.17,-181.58 2902.72,-105.92 2852,-72 2796.24,-34.71 2326.24,-22.61 2181.35,-19.74"/>
<polygon fill="black" stroke="black" points="2181.5,-16.24 2171.43,-19.55 2181.36,-23.24 2181.5,-16.24"/>
</g>
<!-- pb_weight&#45;&gt;util -->
<g id="edge34" class="edge">
<title>pb_weight&#45;&gt;util</title>
<path fill="none" stroke="black" d="M2889.43,-221.54C2880.1,-219.42 2870.27,-217.42 2861,-216 2602.07,-176.19 2286.15,-166.07 2177.69,-163.69"/>
<polygon fill="black" stroke="black" points="2177.97,-160.19 2167.9,-163.48 2177.82,-167.19 2177.97,-160.19"/>
</g>
<!-- pcregions -->
<g id="node20" class="node">
<title>pcregions</title>
<ellipse fill="none" stroke="black" cx="795" cy="-234" rx="55.79" ry="18"/>
<text text-anchor="middle" x="795" y="-230.3" font-family="Times,serif" font-size="14.00">pcregions</text>
</g>
<!-- phases -->
<g id="node21" class="node">
<title>phases</title>
<ellipse fill="none" stroke="black" cx="1120" cy="-378" rx="42.79" ry="18"/>
<text text-anchor="middle" x="1120" y="-374.3" font-family="Times,serif" font-size="14.00">phases</text>
</g>
<!-- phases&#45;&gt;config -->
<g id="edge35" class="edge">
<title>phases&#45;&gt;config</title>
<path fill="none" stroke="black" d="M1103.45,-361.45C1073.75,-331.61 1017.41,-264.97 1050,-216 1095.91,-147.01 1141.06,-161.78 1222,-144 1363.32,-112.96 2404.67,-95.4 2645.42,-91.73"/>
<polygon fill="black" stroke="black" points="2645.14,-95.23 2655.08,-91.58 2645.03,-88.23 2645.14,-95.23"/>
</g>
<!-- phases&#45;&gt;msg -->
<g id="edge36" class="edge">
<title>phases&#45;&gt;msg</title>
<path fill="none" stroke="black" d="M1077.35,-375.93C941.38,-371.4 527,-348.27 527,-235 527,-235 527,-235 527,-161 527,-71.76 620.49,-93.91 707,-72 844.57,-37.15 1874.55,-22.32 2096.81,-19.51"/>
<polygon fill="black" stroke="black" points="2096.77,-23.01 2106.73,-19.38 2096.69,-16.01 2096.77,-23.01"/>
</g>
<!-- phases&#45;&gt;util -->
<g id="edge37" class="edge">
<title>phases&#45;&gt;util</title>
<path fill="none" stroke="black" d="M1134.5,-360.62C1165.93,-326.42 1244.37,-247.94 1329,-216 1472.65,-161.79 1958.59,-161.47 2100.06,-162.57"/>
<polygon fill="black" stroke="black" points="2099.99,-166.07 2110.02,-162.66 2100.05,-159.07 2099.99,-166.07"/>
</g>
<!-- simpoint -->
<g id="node39" class="node">
<title>simpoint</title>
<ellipse fill="none" stroke="black" cx="795" cy="-306" rx="51.19" ry="18"/>
<text text-anchor="middle" x="795" y="-302.3" font-family="Times,serif" font-size="14.00">simpoint</text>
</g>
<!-- phases&#45;&gt;simpoint -->
<g id="edge134" class="edge">
<title>phases&#45;&gt;simpoint</title>
<path fill="none" stroke="black" stroke-dasharray="5,2" d="M1082.4,-368.9C1024.91,-356.52 914.88,-332.82 848.9,-318.61"/>
<polygon fill="black" stroke="black" points="849.91,-315.25 839.39,-316.56 848.43,-322.09 849.91,-315.25"/>
</g>
<!-- pinpoints -->
<g id="node23" class="node">
<title>pinpoints</title>
<ellipse fill="none" stroke="black" cx="2129" cy="-450" rx="53.89" ry="18"/>
<text text-anchor="middle" x="2129" y="-446.3" font-family="Times,serif" font-size="14.00">pinpoints</text>
</g>
<!-- pinpoints&#45;&gt;cmd_options -->
<g id="edge38" class="edge">
<title>pinpoints&#45;&gt;cmd_options</title>
<path fill="none" stroke="black" d="M2181.27,-445.18C2325.55,-434.53 2719.45,-404.72 2730,-396 2791.45,-345.21 2797.51,-241.61 2796.53,-191.46"/>
<polygon fill="black" stroke="black" points="2800.04,-191.6 2796.22,-181.72 2793.04,-191.82 2800.04,-191.6"/>
</g>
<!-- pinpoints&#45;&gt;config -->
<g id="edge39" class="edge">
<title>pinpoints&#45;&gt;config</title>
<path fill="none" stroke="black" d="M2139.75,-431.99C2167.44,-389.49 2245.55,-277.66 2338,-216 2437.96,-149.33 2577.39,-114.11 2648.81,-99.44"/>
<polygon fill="black" stroke="black" points="2649.08,-102.96 2658.19,-97.56 2647.7,-96.09 2649.08,-102.96"/>
</g>
<!-- pinpoints&#45;&gt;msg -->
<g id="edge40" class="edge">
<title>pinpoints&#45;&gt;msg</title>
<path fill="none" stroke="black" d="M2076.34,-445.71C1944.07,-437.2 1607.19,-413.86 1591,-396 1558.85,-360.53 1528.38,-325.02 1619,-216 1744.13,-65.48 1997.24,-29.81 2097.12,-21.49"/>
<polygon fill="black" stroke="black" points="2097.31,-24.98 2107.01,-20.72 2096.77,-18 2097.31,-24.98"/>
</g>
<!-- pinpoints&#45;&gt;util -->
<g id="edge41" class="edge">
<title>pinpoints&#45;&gt;util</title>
<path fill="none" stroke="black" d="M2129.61,-431.54C2131.28,-383.76 2135.94,-250.51 2138,-191.61"/>
<polygon fill="black" stroke="black" points="2141.49,-191.86 2138.34,-181.74 2134.5,-191.62 2141.49,-191.86"/>
</g>
<!-- pinpoints&#45;&gt;kit -->
<g id="edge42" class="edge">
<title>pinpoints&#45;&gt;kit</title>
<path fill="none" stroke="black" d="M2124.42,-431.82C2121.67,-421.46 2118.11,-407.98 2115,-396 2102.87,-349.25 2089.07,-294.78 2080.97,-262.69"/>
<polygon fill="black" stroke="black" points="2084.47,-262.24 2078.63,-253.4 2077.68,-263.95 2084.47,-262.24"/>
</g>
<!-- pinpoints&#45;&gt;logger -->
<g id="edge135" class="edge">
<title>pinpoints&#45;&gt;logger</title>
<path fill="none" stroke="black" stroke-dasharray="5,2" d="M2097.41,-435C2071.97,-423.73 2036.12,-407.85 2009.09,-395.88"/>
<polygon fill="black" stroke="black" points="2010.78,-392.8 2000.22,-391.95 2007.95,-399.2 2010.78,-392.8"/>
</g>
<!-- pinpoints&#45;&gt;phases -->
<g id="edge43" class="edge">
<title>pinpoints&#45;&gt;phases</title>
<path fill="none" stroke="black" d="M2076.52,-445.36C1903.03,-433.32 1348.99,-394.89 1173.71,-382.73"/>
<polygon fill="black" stroke="black" points="1173.96,-379.24 1163.74,-382.03 1173.48,-386.22 1173.96,-379.24"/>
</g>
<!-- replay_dir -->
<g id="node27" class="node">
<title>replay_dir</title>
<ellipse fill="none" stroke="black" cx="2835" cy="-378" rx="57.69" ry="18"/>
<text text-anchor="middle" x="2835" y="-374.3" font-family="Times,serif" font-size="14.00">replay_dir</text>
</g>
<!-- pinpoints&#45;&gt;replay_dir -->
<g id="edge136" class="edge">
<title>pinpoints&#45;&gt;replay_dir</title>
<path fill="none" stroke="black" stroke-dasharray="5,2" d="M2181.27,-445.08C2322.73,-434.4 2706.24,-405.02 2763,-396 2768.72,-395.09 2774.66,-393.97 2780.56,-392.75"/>
<polygon fill="black" stroke="black" points="2781.3,-396.17 2790.32,-390.62 2779.81,-389.33 2781.3,-396.17"/>
</g>
<!-- pinpoints&#45;&gt;replayer -->
<g id="edge137" class="edge">
<title>pinpoints&#45;&gt;replayer</title>
<path fill="none" stroke="black" stroke-dasharray="5,2" d="M2181.27,-445.03C2248.19,-439.98 2367.7,-431.07 2470,-424 2565.97,-417.37 2813.83,-434.48 2902,-396 2923.32,-386.69 2922.77,-375.63 2940,-360 2950.88,-350.13 2963.06,-339.47 2973.66,-330.32"/>
<polygon fill="black" stroke="black" points="2975.68,-333.19 2980.98,-324.02 2971.12,-327.89 2975.68,-333.19"/>
</g>
<!-- record -->
<g id="node24" class="node">
<title>record</title>
<ellipse fill="none" stroke="black" cx="2680" cy="-378" rx="40.89" ry="18"/>
<text text-anchor="middle" x="2680" y="-374.3" font-family="Times,serif" font-size="14.00">record</text>
</g>
<!-- record&#45;&gt;cmd_options -->
<g id="edge44" class="edge">
<title>record&#45;&gt;cmd_options</title>
<path fill="none" stroke="black" d="M2689.19,-360.31C2694.91,-349.89 2702.42,-336.18 2709,-324 2734.46,-276.92 2763.76,-221.88 2780.75,-189.88"/>
<polygon fill="black" stroke="black" points="2783.71,-191.76 2785.31,-181.29 2777.53,-188.48 2783.71,-191.76"/>
</g>
<!-- record&#45;&gt;config -->
<g id="edge45" class="edge">
<title>record&#45;&gt;config</title>
<path fill="none" stroke="black" d="M2680.92,-359.54C2683.42,-311.76 2690.41,-178.51 2693.5,-119.61"/>
<polygon fill="black" stroke="black" points="2696.99,-119.91 2694.02,-109.74 2690,-119.55 2696.99,-119.91"/>
</g>
<!-- record&#45;&gt;msg -->
<g id="edge46" class="edge">
<title>record&#45;&gt;msg</title>
<path fill="none" stroke="black" d="M2712.41,-366.64C2790.3,-341.42 2982.87,-277.09 3000,-252 3054.49,-172.22 2996.3,-131.18 2882,-72 2819.66,-39.72 2328.61,-24.07 2180.89,-20.06"/>
<polygon fill="black" stroke="black" points="2181.27,-16.57 2171.18,-19.8 2181.08,-23.57 2181.27,-16.57"/>
</g>
<!-- record&#45;&gt;util -->
<g id="edge47" class="edge">
<title>record&#45;&gt;util</title>
<path fill="none" stroke="black" d="M2639.68,-374.4C2555.41,-368.48 2363.56,-352.24 2305,-324 2239.44,-292.38 2183.48,-224.8 2156.41,-188.05"/>
<polygon fill="black" stroke="black" points="2159.44,-186.26 2150.74,-180.21 2153.76,-190.36 2159.44,-186.26"/>
</g>
<!-- record&#45;&gt;drd_util -->
<g id="edge48" class="edge">
<title>record&#45;&gt;drd_util</title>
<path fill="none" stroke="black" d="M2716.29,-369.41C2732.13,-366.25 2750.94,-362.7 2768,-360 2897.16,-339.59 2931.21,-346.64 3060,-324 3130.51,-311.6 3146.89,-302.47 3217,-288 3303.74,-270.1 3326.7,-271.91 3413,-252 3417.52,-250.96 3422.21,-249.8 3426.88,-248.59"/>
<polygon fill="black" stroke="black" points="3427.47,-252.05 3436.23,-246.09 3425.66,-245.29 3427.47,-252.05"/>
</g>
<!-- record&#45;&gt;log -->
<g id="edge138" class="edge">
<title>record&#45;&gt;log</title>
<path fill="none" stroke="black" stroke-dasharray="5,2" d="M2640.38,-372.93C2519.31,-360.51 2155.21,-323.14 2036.14,-310.91"/>
<polygon fill="black" stroke="black" points="2036.57,-307.44 2026.26,-309.9 2035.85,-314.4 2036.57,-307.44"/>
</g>
<!-- regions -->
<g id="node25" class="node">
<title>regions</title>
<ellipse fill="none" stroke="black" cx="638" cy="-234" rx="45.49" ry="18"/>
<text text-anchor="middle" x="638" y="-230.3" font-family="Times,serif" font-size="14.00">regions</text>
</g>
<!-- regions&#45;&gt;cmd_options -->
<g id="edge49" class="edge">
<title>regions&#45;&gt;cmd_options</title>
<path fill="none" stroke="black" d="M677.2,-224.35C693.45,-221.13 712.55,-217.82 730,-216 1049.48,-182.71 1853.9,-188.4 2175,-180 2369.02,-174.92 2597.19,-168.57 2715.23,-165.25"/>
<polygon fill="black" stroke="black" points="2715.24,-168.75 2725.14,-164.97 2715.04,-161.76 2715.24,-168.75"/>
</g>
<!-- regions&#45;&gt;msg -->
<g id="edge50" class="edge">
<title>regions&#45;&gt;msg</title>
<path fill="none" stroke="black" d="M658.65,-217.76C705.78,-183.98 826.06,-103.35 941,-72 1054.24,-41.11 1897.66,-23.51 2096.91,-19.76"/>
<polygon fill="black" stroke="black" points="2096.85,-23.26 2106.79,-19.58 2096.72,-16.26 2096.85,-23.26"/>
</g>
<!-- regions&#45;&gt;util -->
<g id="edge51" class="edge">
<title>regions&#45;&gt;util</title>
<path fill="none" stroke="black" d="M672,-221.68C680.11,-219.4 688.79,-217.31 697,-216 978.66,-170.94 1900.26,-164.11 2100.42,-163.15"/>
<polygon fill="black" stroke="black" points="2100.27,-166.65 2110.25,-163.1 2100.24,-159.65 2100.27,-166.65"/>
</g>
<!-- relog -->
<g id="node26" class="node">
<title>relog</title>
<ellipse fill="none" stroke="black" cx="3361" cy="-450" rx="34.39" ry="18"/>
<text text-anchor="middle" x="3361" y="-446.3" font-family="Times,serif" font-size="14.00">relog</text>
</g>
<!-- relog&#45;&gt;cmd_options -->
<g id="edge52" class="edge">
<title>relog&#45;&gt;cmd_options</title>
<path fill="none" stroke="black" d="M3345.79,-433.59C3303.27,-391.46 3177.9,-273.73 3050,-216 2992.98,-190.27 2923.12,-176.87 2870.94,-169.99"/>
<polygon fill="black" stroke="black" points="2871.62,-166.54 2861.26,-168.77 2870.74,-173.49 2871.62,-166.54"/>
</g>
<!-- relog&#45;&gt;config -->
<g id="edge53" class="edge">
<title>relog&#45;&gt;config</title>
<path fill="none" stroke="black" d="M3359.8,-431.61C3354.84,-375.62 3330.58,-200.34 3219,-144 3124.11,-96.08 2845.94,-130.28 2742,-108 2739.25,-107.41 2736.45,-106.7 2733.65,-105.91"/>
<polygon fill="black" stroke="black" points="2735,-102.66 2724.41,-102.98 2732.89,-109.34 2735,-102.66"/>
</g>
<!-- relog&#45;&gt;msg -->
<g id="edge54" class="edge">
<title>relog&#45;&gt;msg</title>
<path fill="none" stroke="black" d="M3386.85,-438.03C3410.75,-427.71 3447.14,-411.56 3478,-396 3496.34,-386.75 3782.71,-225.36 3801,-216 3834.63,-198.79 3857.72,-211.87 3878,-180 3886.59,-166.5 3885.58,-158.09 3878,-144 3850.5,-92.87 3824.32,-89.61 3769,-72 3613.87,-22.63 2421.85,-19.19 2181.25,-19"/>
<polygon fill="black" stroke="black" points="2181.4,-15.5 2171.4,-19 2181.4,-22.5 2181.4,-15.5"/>
</g>
<!-- relog&#45;&gt;util -->
<g id="edge55" class="edge">
<title>relog&#45;&gt;util</title>
<path fill="none" stroke="black" d="M3326.51,-447.81C3280.62,-444.74 3198.6,-433.89 3141,-396 3090.87,-363.03 3112.98,-316.16 3060,-288 2918.15,-212.6 2487.57,-310.6 2338,-252 2314.79,-242.91 2316.73,-228.22 2295,-216 2256.64,-194.43 2208.04,-179.64 2175.36,-171.28"/>
<polygon fill="black" stroke="black" points="2176.53,-167.96 2165.98,-168.95 2174.85,-174.75 2176.53,-167.96"/>
</g>
<!-- relog&#45;&gt;replay -->
<g id="edge56" class="edge">
<title>relog&#45;&gt;replay</title>
<path fill="none" stroke="black" d="M3376.09,-433.46C3384.77,-424.53 3395.87,-413.11 3405.65,-403.04"/>
<polygon fill="black" stroke="black" points="3407.97,-405.67 3412.42,-396.06 3402.95,-400.8 3407.97,-405.67"/>
</g>
<!-- replay_dir&#45;&gt;cmd_options -->
<g id="edge62" class="edge">
<title>replay_dir&#45;&gt;cmd_options</title>
<path fill="none" stroke="black" d="M2845.3,-360.05C2858.06,-340.33 2881.5,-307.92 2909,-288 2944.22,-262.48 2975.55,-287.97 3000,-252 3009,-238.77 3009.8,-228.65 3000,-216 2983.64,-194.88 2919.79,-180.66 2867.64,-172.31"/>
<polygon fill="black" stroke="black" points="2868.28,-168.87 2857.86,-170.8 2867.21,-175.78 2868.28,-168.87"/>
</g>
<!-- replay_dir&#45;&gt;config -->
<g id="edge63" class="edge">
<title>replay_dir&#45;&gt;config</title>
<path fill="none" stroke="black" d="M2856.9,-361.09C2870.69,-350.84 2888.72,-337.04 2904,-324 2921.69,-308.89 2922.84,-301.19 2942,-288 2972.45,-267.03 2997.31,-283.29 3017,-252 3025.52,-238.46 3025.41,-229.61 3017,-216 2947.97,-104.3 2867.15,-147.76 2742,-108 2739.65,-107.25 2737.24,-106.46 2734.81,-105.65"/>
<polygon fill="black" stroke="black" points="2736.24,-102.43 2725.64,-102.47 2733.94,-109.05 2736.24,-102.43"/>
</g>
<!-- replay_dir&#45;&gt;msg -->
<g id="edge64" class="edge">
<title>replay_dir&#45;&gt;msg</title>
<path fill="none" stroke="black" d="M2885.06,-368.77C2960.97,-356.27 3101.67,-333 3152,-324 3320.35,-293.9 3362.62,-287.12 3530,-252 3547.52,-248.32 3832.85,-194 3844,-180 3853.97,-167.49 3853.97,-156.52 3844,-144 3755.1,-32.32 3672.5,-90.8 3531,-72 3260.25,-36.03 2383.61,-22.27 2181.04,-19.53"/>
<polygon fill="black" stroke="black" points="2181.31,-16.04 2171.26,-19.4 2181.21,-23.04 2181.31,-16.04"/>
</g>
<!-- replay_dir&#45;&gt;util -->
<g id="edge65" class="edge">
<title>replay_dir&#45;&gt;util</title>
<path fill="none" stroke="black" d="M2784.48,-368.95C2661.95,-348.96 2352.09,-295.56 2257,-252 2251.86,-249.64 2197.77,-208.27 2164.63,-182.77"/>
<polygon fill="black" stroke="black" points="2167.16,-180.3 2157.1,-176.97 2162.89,-185.85 2167.16,-180.3"/>
</g>
<!-- replay_dir&#45;&gt;kit -->
<g id="edge66" class="edge">
<title>replay_dir&#45;&gt;kit</title>
<path fill="none" stroke="black" d="M2785.7,-368.23C2768.16,-365.31 2748.24,-362.25 2730,-360 2541.86,-336.83 2489.74,-366.5 2305,-324 2231.06,-306.99 2149.24,-271.12 2105.58,-250.48"/>
<polygon fill="black" stroke="black" points="2107.23,-247.39 2096.69,-246.24 2104.21,-253.71 2107.23,-247.39"/>
</g>
<!-- replay_dir&#45;&gt;replayer -->
<g id="edge140" class="edge">
<title>replay_dir&#45;&gt;replayer</title>
<path fill="none" stroke="black" stroke-dasharray="5,2" d="M2868.19,-363C2894.29,-352 2930.8,-336.6 2958.94,-324.74"/>
<polygon fill="black" stroke="black" points="2960.02,-328.08 2967.88,-320.97 2957.3,-321.63 2960.02,-328.08"/>
</g>
<!-- replayer&#45;&gt;cmd_options -->
<g id="edge67" class="edge">
<title>replayer&#45;&gt;cmd_options</title>
<path fill="none" stroke="black" d="M3015.59,-288.65C3030.85,-269.5 3050.36,-237.65 3033,-216 3012.9,-190.93 2932.95,-176.96 2871.2,-169.74"/>
<polygon fill="black" stroke="black" points="2871.73,-166.27 2861.4,-168.63 2870.95,-173.23 2871.73,-166.27"/>
</g>
<!-- replayer&#45;&gt;config -->
<g id="edge68" class="edge">
<title>replayer&#45;&gt;config</title>
<path fill="none" stroke="black" d="M3037.21,-293.1C3043.44,-291.26 3049.88,-289.48 3056,-288 3149.87,-265.35 3319.69,-292.69 3261,-216 3117.81,-28.9 2970.62,-164.97 2742,-108 2739.44,-107.36 2736.83,-106.64 2734.21,-105.85"/>
<polygon fill="black" stroke="black" points="2735.57,-102.62 2724.98,-102.85 2733.41,-109.27 2735.57,-102.62"/>
</g>
<!-- replayer&#45;&gt;msg -->
<g id="edge69" class="edge">
<title>replayer&#45;&gt;msg</title>
<path fill="none" stroke="black" d="M3036.89,-293.11C3043.22,-291.24 3049.77,-289.45 3056,-288 3105.31,-276.49 3248.14,-290.53 3281,-252 3320.34,-205.87 3229.72,-152.26 3219,-144 3161.05,-99.36 3141.79,-90.44 3071,-72 2899.25,-27.27 2339.2,-20.28 2180.98,-19.2"/>
<polygon fill="black" stroke="black" points="2181.4,-15.7 2171.38,-19.14 2181.35,-22.7 2181.4,-15.7"/>
</g>
<!-- replayer&#45;&gt;util -->
<g id="edge70" class="edge">
<title>replayer&#45;&gt;util</title>
<path fill="none" stroke="black" d="M2950.72,-304.8C2811.49,-303.68 2423.39,-296.53 2305,-252 2280.04,-242.61 2279.97,-229.55 2257,-216 2229.82,-199.97 2196.94,-185.58 2172.8,-175.85"/>
<polygon fill="black" stroke="black" points="2174.36,-172.7 2163.78,-172.27 2171.78,-179.21 2174.36,-172.7"/>
</g>
<!-- replayer&#45;&gt;kit -->
<g id="edge71" class="edge">
<title>replayer&#45;&gt;kit</title>
<path fill="none" stroke="black" d="M2952.02,-301.73C2834.06,-293.8 2524.89,-272.67 2267,-252 2213.22,-247.69 2151.06,-242.11 2112.14,-238.54"/>
<polygon fill="black" stroke="black" points="2112.63,-235.07 2102.35,-237.64 2111.98,-242.04 2112.63,-235.07"/>
</g>
<!-- sde_kit -->
<g id="node29" class="node">
<title>sde_kit</title>
<ellipse fill="none" stroke="black" cx="1453" cy="-306" rx="43.59" ry="18"/>
<text text-anchor="middle" x="1453" y="-302.3" font-family="Times,serif" font-size="14.00">sde_kit</text>
</g>
<!-- sde_kit&#45;&gt;config -->
<g id="edge72" class="edge">
<title>sde_kit&#45;&gt;config</title>
<path fill="none" stroke="black" d="M1448.94,-287.93C1446.69,-277.6 1444.13,-264.12 1443,-252 1438.26,-201.34 1438.01,-171.22 1481,-144 1530.93,-112.39 2423.86,-95.51 2645.52,-91.79"/>
<polygon fill="black" stroke="black" points="2645.31,-95.29 2655.25,-91.63 2645.19,-88.3 2645.31,-95.29"/>
</g>
<!-- sde_kit&#45;&gt;msg -->
<g id="edge73" class="edge">
<title>sde_kit&#45;&gt;msg</title>
<path fill="none" stroke="black" d="M1411.66,-299.67C1385.18,-296.28 1350.07,-291.82 1319,-288 1251.92,-279.75 1061.87,-302.54 1017,-252 963.88,-192.18 961.78,-129.89 1017,-72 1054.94,-32.22 1896.75,-21.4 2096.68,-19.38"/>
<polygon fill="black" stroke="black" points="2096.64,-22.88 2106.6,-19.29 2096.57,-15.88 2096.64,-22.88"/>
</g>
<!-- sde_kit&#45;&gt;util -->
<g id="edge74" class="edge">
<title>sde_kit&#45;&gt;util</title>
<path fill="none" stroke="black" d="M1475.79,-290.4C1508.94,-269.95 1573.06,-233.35 1633,-216 1801.98,-167.08 2014.3,-162.2 2100.24,-162.44"/>
<polygon fill="black" stroke="black" points="2100.22,-165.94 2110.24,-162.5 2100.26,-158.94 2100.22,-165.94"/>
</g>
<!-- sde_kit&#45;&gt;kit -->
<g id="edge75" class="edge">
<title>sde_kit&#45;&gt;kit</title>
<path fill="none" stroke="black" d="M1494.71,-300.3C1609.11,-287.4 1926.58,-251.62 2036.2,-239.26"/>
<polygon fill="black" stroke="black" points="2036.29,-242.77 2045.83,-238.18 2035.5,-235.82 2036.29,-242.77"/>
</g>
<!-- sde_log -->
<g id="node30" class="node">
<title>sde_log</title>
<ellipse fill="none" stroke="black" cx="1645" cy="-378" rx="45.49" ry="18"/>
<text text-anchor="middle" x="1645" y="-374.3" font-family="Times,serif" font-size="14.00">sde_log</text>
</g>
<!-- sde_log&#45;&gt;cmd_options -->
<g id="edge76" class="edge">
<title>sde_log&#45;&gt;cmd_options</title>
<path fill="none" stroke="black" d="M1673.95,-363.73C1751.58,-328.36 1963.51,-233.39 2038,-216 2164.92,-186.37 2547.82,-170.88 2715.22,-165.37"/>
<polygon fill="black" stroke="black" points="2715.26,-168.88 2725.14,-165.05 2715.03,-161.88 2715.26,-168.88"/>
</g>
<!-- sde_log&#45;&gt;config -->
<g id="edge77" class="edge">
<title>sde_log&#45;&gt;config</title>
<path fill="none" stroke="black" d="M1639.73,-360.01C1636.81,-349.7 1633.48,-336.23 1632,-324 1622.13,-242.34 1606.69,-189.81 1675,-144 1756,-89.67 2451.19,-89.58 2645.01,-90.63"/>
<polygon fill="black" stroke="black" points="2644.99,-94.13 2655.01,-90.69 2645.03,-87.13 2644.99,-94.13"/>
</g>
<!-- sde_log&#45;&gt;msg -->
<g id="edge78" class="edge">
<title>sde_log&#45;&gt;msg</title>
<path fill="none" stroke="black" d="M1599.93,-374.69C1466.43,-366.93 1076.9,-337.27 989,-252 931.58,-196.29 926.45,-124.29 987,-72 1029.78,-35.05 1893.9,-22.04 2096.68,-19.49"/>
<polygon fill="black" stroke="black" points="2096.53,-23 2106.48,-19.37 2096.44,-16 2096.53,-23"/>
</g>
<!-- sde_log&#45;&gt;util -->
<g id="edge79" class="edge">
<title>sde_log&#45;&gt;util</title>
<path fill="none" stroke="black" d="M1641.19,-359.73C1635,-326.64 1627.08,-254.22 1666,-216 1696.86,-185.69 1993.71,-169.5 2100.76,-164.62"/>
<polygon fill="black" stroke="black" points="2100.62,-168.13 2110.46,-164.18 2100.31,-161.13 2100.62,-168.13"/>
</g>
<!-- sde_log&#45;&gt;log -->
<g id="edge80" class="edge">
<title>sde_log&#45;&gt;log</title>
<path fill="none" stroke="black" d="M1685.44,-369.45C1738.95,-359.4 1836.16,-340.92 1919,-324 1932.82,-321.18 1947.97,-317.95 1961.28,-315.07"/>
<polygon fill="black" stroke="black" points="1961.9,-318.51 1970.93,-312.97 1960.42,-311.67 1961.9,-318.51"/>
</g>
<!-- sde_log&#45;&gt;sde_kit -->
<g id="edge81" class="edge">
<title>sde_log&#45;&gt;sde_kit</title>
<path fill="none" stroke="black" d="M1612.43,-365.13C1580.14,-353.35 1530.53,-335.27 1495.23,-322.4"/>
<polygon fill="black" stroke="black" points="1496.79,-319.24 1486.19,-319.1 1494.39,-325.82 1496.79,-319.24"/>
</g>
<!-- sde_logger -->
<g id="node31" class="node">
<title>sde_logger</title>
<ellipse fill="none" stroke="black" cx="1645" cy="-450" rx="61.19" ry="18"/>
<text text-anchor="middle" x="1645" y="-446.3" font-family="Times,serif" font-size="14.00">sde_logger</text>
</g>
<!-- sde_logger&#45;&gt;config -->
<g id="edge82" class="edge">
<title>sde_logger&#45;&gt;config</title>
<path fill="none" stroke="black" d="M1591.07,-441.06C1529.53,-428.6 1433.11,-397.73 1400,-324 1374.49,-267.19 1398.41,-178.71 1443,-144 1491.2,-106.48 2418.49,-94 2645.27,-91.5"/>
<polygon fill="black" stroke="black" points="2644.98,-95.01 2654.95,-91.4 2644.91,-88.01 2644.98,-95.01"/>
</g>
<!-- sde_logger&#45;&gt;logger -->
<g id="edge83" class="edge">
<title>sde_logger&#45;&gt;logger</title>
<path fill="none" stroke="black" d="M1693.45,-438.6C1755.74,-425.22 1863.14,-402.16 1924.47,-388.99"/>
<polygon fill="black" stroke="black" points="1924.84,-392.49 1933.89,-386.97 1923.38,-385.65 1924.84,-392.49"/>
</g>
<!-- sde_logger&#45;&gt;sde_kit -->
<g id="edge84" class="edge">
<title>sde_logger&#45;&gt;sde_kit</title>
<path fill="none" stroke="black" d="M1601.41,-437.06C1575.63,-428.52 1543.36,-415.12 1519,-396 1497.32,-378.99 1479.24,-353.14 1467.51,-333.68"/>
<polygon fill="black" stroke="black" points="1470.64,-332.09 1462.59,-325.2 1464.59,-335.61 1470.64,-332.09"/>
</g>
<!-- sde_logger&#45;&gt;sde_log -->
<g id="edge141" class="edge">
<title>sde_logger&#45;&gt;sde_log</title>
<path fill="none" stroke="black" stroke-dasharray="5,2" d="M1645,-431.7C1645,-424.41 1645,-415.73 1645,-407.54"/>
<polygon fill="black" stroke="black" points="1648.5,-407.62 1645,-397.62 1641.5,-407.62 1648.5,-407.62"/>
</g>
<!-- sde_phases -->
<g id="node32" class="node">
<title>sde_phases</title>
<ellipse fill="none" stroke="black" cx="1212" cy="-450" rx="63.89" ry="18"/>
<text text-anchor="middle" x="1212" y="-446.3" font-family="Times,serif" font-size="14.00">sde_phases</text>
</g>
<!-- sde_phases&#45;&gt;config -->
<g id="edge85" class="edge">
<title>sde_phases&#45;&gt;config</title>
<path fill="none" stroke="black" d="M1216.61,-431.7C1232.31,-376.71 1289.52,-205.95 1409,-144 1464.78,-115.07 2415.61,-96.06 2645.34,-91.87"/>
<polygon fill="black" stroke="black" points="2645.21,-95.38 2655.14,-91.7 2645.08,-88.38 2645.21,-95.38"/>
</g>
<!-- sde_phases&#45;&gt;msg -->
<g id="edge86" class="edge">
<title>sde_phases&#45;&gt;msg</title>
<path fill="none" stroke="black" d="M1147.84,-449.92C970.89,-450.73 489,-440.68 489,-307 489,-307 489,-307 489,-161 489,-114.03 505.17,-95.23 546,-72 615.29,-32.58 1850.99,-21.18 2096.72,-19.3"/>
<polygon fill="black" stroke="black" points="2096.5,-22.8 2106.47,-19.23 2096.44,-15.8 2096.5,-22.8"/>
</g>
<!-- sde_phases&#45;&gt;util -->
<g id="edge87" class="edge">
<title>sde_phases&#45;&gt;util</title>
<path fill="none" stroke="black" d="M1222.19,-431.86C1253.05,-380.23 1344.73,-228.93 1367,-216 1430.84,-178.93 1954.15,-166.44 2100.88,-163.66"/>
<polygon fill="black" stroke="black" points="2100.51,-167.16 2110.44,-163.48 2100.38,-160.16 2100.51,-167.16"/>
</g>
<!-- sde_phases&#45;&gt;phases -->
<g id="edge88" class="edge">
<title>sde_phases&#45;&gt;phases</title>
<path fill="none" stroke="black" d="M1185.86,-433.46C1172.77,-424.32 1157.11,-412.59 1144.28,-402.35"/>
<polygon fill="black" stroke="black" points="1146.66,-399.77 1136.69,-396.18 1142.24,-405.2 1146.66,-399.77"/>
</g>
<!-- sde_phases&#45;&gt;phases -->
<g id="edge142" class="edge">
<title>sde_phases&#45;&gt;phases</title>
<path fill="none" stroke="black" stroke-dasharray="5,2" d="M1196.04,-432.41C1184.21,-422.59 1167.88,-410.08 1153.33,-399.63"/>
<polygon fill="black" stroke="black" points="1155.51,-396.88 1145.32,-393.98 1151.47,-402.6 1155.51,-396.88"/>
</g>
<!-- traceinfo -->
<g id="node41" class="node">
<title>traceinfo</title>
<ellipse fill="none" stroke="black" cx="1111" cy="-234" rx="51.99" ry="18"/>
<text text-anchor="middle" x="1111" y="-230.3" font-family="Times,serif" font-size="14.00">traceinfo</text>
</g>
<!-- sde_phases&#45;&gt;traceinfo -->
<g id="edge143" class="edge">
<title>sde_phases&#45;&gt;traceinfo</title>
<path fill="none" stroke="black" stroke-dasharray="5,2" d="M1204.49,-431.86C1196.57,-413.89 1183.64,-384.85 1172,-360 1156.11,-326.1 1137.09,-287.41 1124.56,-262.16"/>
<polygon fill="black" stroke="black" points="1127.72,-260.65 1120.13,-253.26 1121.45,-263.77 1127.72,-260.65"/>
</g>
<!-- sde_pinpoints -->
<g id="node33" class="node">
<title>sde_pinpoints</title>
<ellipse fill="none" stroke="black" cx="2129" cy="-522" rx="74.99" ry="18"/>
<text text-anchor="middle" x="2129" y="-518.3" font-family="Times,serif" font-size="14.00">sde_pinpoints</text>
</g>
<!-- sde_pinpoints&#45;&gt;cmd_options -->
<g id="edge89" class="edge">
<title>sde_pinpoints&#45;&gt;cmd_options</title>
<path fill="none" stroke="black" d="M2181.65,-508.84C2191.99,-506.88 2202.8,-505.13 2213,-504 2311.48,-493.13 3908.04,-513.59 3996,-468 4031.28,-449.71 4036.6,-433.75 4049,-396 4073.74,-320.64 3971.95,-216.59 3971,-216 3947.74,-201.42 3134.6,-173.96 2874.3,-165.53"/>
<polygon fill="black" stroke="black" points="2874.68,-162.04 2864.57,-165.21 2874.45,-169.04 2874.68,-162.04"/>
</g>
<!-- sde_pinpoints&#45;&gt;config -->
<g id="edge90" class="edge">
<title>sde_pinpoints&#45;&gt;config</title>
<path fill="none" stroke="black" d="M2181.65,-508.84C2191.99,-506.88 2202.8,-505.12 2213,-504 2413.82,-481.87 3836.23,-521.72 4031,-468 4107.95,-446.78 4187,-458.82 4187,-379 4187,-379 4187,-379 4187,-305 4187,-212.96 4088.19,-242.35 4000,-216 3887.38,-182.35 3845.48,-227.58 3738,-180 3715.21,-169.91 3718.26,-152.95 3695,-144 3497.21,-67.88 2950.02,-148.53 2742,-108 2739.34,-107.48 2736.63,-106.84 2733.92,-106.11"/>
<polygon fill="black" stroke="black" points="2734.97,-102.76 2724.38,-103.15 2732.89,-109.45 2734.97,-102.76"/>
</g>
<!-- sde_pinpoints&#45;&gt;msg -->
<g id="edge91" class="edge">
<title>sde_pinpoints&#45;&gt;msg</title>
<path fill="none" stroke="black" d="M2055.01,-518.67C1730.71,-508 451,-460.7 451,-379 451,-379 451,-379 451,-161 451,-116.06 460.79,-95.65 499,-72 568.9,-28.74 1846.27,-20.4 2096.63,-19.18"/>
<polygon fill="black" stroke="black" points="2096.6,-22.68 2106.58,-19.13 2096.56,-15.68 2096.6,-22.68"/>
</g>
<!-- sde_pinpoints&#45;&gt;util -->
<g id="edge92" class="edge">
<title>sde_pinpoints&#45;&gt;util</title>
<path fill="none" stroke="black" d="M2054.1,-519.88C1909.77,-516.88 1598.58,-506.06 1499,-468 1437.64,-444.55 1381,-444.69 1381,-379 1381,-379 1381,-379 1381,-305 1381,-264.55 1253.93,-298.49 1542,-216 1647.67,-185.74 1985.54,-169.33 2100.37,-164.52"/>
<polygon fill="black" stroke="black" points="2100.35,-168.02 2110.2,-164.11 2100.06,-161.03 2100.35,-168.02"/>
</g>
<!-- sde_pinpoints&#45;&gt;phases -->
<g id="edge93" class="edge">
<title>sde_pinpoints&#45;&gt;phases</title>
<path fill="none" stroke="black" d="M2054.39,-519.47C1829.85,-514.53 1173.68,-497.63 1139,-468 1122.01,-453.48 1117.99,-427.84 1117.8,-407.79"/>
<polygon fill="black" stroke="black" points="1121.3,-408.07 1118.04,-397.99 1114.3,-407.9 1121.3,-408.07"/>
</g>
<!-- sde_pinpoints&#45;&gt;pinpoints -->
<g id="edge94" class="edge">
<title>sde_pinpoints&#45;&gt;pinpoints</title>
<path fill="none" stroke="black" d="M2129,-503.7C2129,-496.41 2129,-487.73 2129,-479.54"/>
<polygon fill="black" stroke="black" points="2132.5,-479.62 2129,-469.62 2125.5,-479.62 2132.5,-479.62"/>
</g>
<!-- sde_pinpoints&#45;&gt;sde_kit -->
<g id="edge95" class="edge">
<title>sde_pinpoints&#45;&gt;sde_kit</title>
<path fill="none" stroke="black" d="M2054.55,-518.94C1924.21,-514.51 1660.43,-501.58 1575,-468 1526.02,-448.75 1511.19,-439.1 1481,-396 1468.42,-378.04 1461.32,-354.19 1457.41,-335.7"/>
<polygon fill="black" stroke="black" points="1460.86,-335.11 1455.57,-325.93 1453.99,-336.41 1460.86,-335.11"/>
</g>
<!-- sde_pinpoints&#45;&gt;sde_logger -->
<g id="edge144" class="edge">
<title>sde_pinpoints&#45;&gt;sde_logger</title>
<path fill="none" stroke="black" stroke-dasharray="5,2" d="M2066.22,-511.92C1974.27,-498.62 1803.77,-473.96 1710.37,-460.45"/>
<polygon fill="black" stroke="black" points="1710.99,-457.01 1700.59,-459.04 1709.99,-463.94 1710.99,-457.01"/>
</g>
<!-- sde_pinpoints&#45;&gt;sde_phases -->
<g id="edge96" class="edge">
<title>sde_pinpoints&#45;&gt;sde_phases</title>
<path fill="none" stroke="black" d="M2056.43,-516.92C1920.85,-509.08 1619.94,-490.66 1367,-468 1338.92,-465.49 1308.05,-462.2 1281.29,-459.2"/>
<polygon fill="black" stroke="black" points="1281.93,-455.75 1271.6,-458.1 1281.14,-462.7 1281.93,-455.75"/>
</g>
<!-- sde_replay_dir -->
<g id="node34" class="node">
<title>sde_replay_dir</title>
<ellipse fill="none" stroke="black" cx="2557" cy="-450" rx="77.99" ry="18"/>
<text text-anchor="middle" x="2557" y="-446.3" font-family="Times,serif" font-size="14.00">sde_replay_dir</text>
</g>
<!-- sde_pinpoints&#45;&gt;sde_replay_dir -->
<g id="edge145" class="edge">
<title>sde_pinpoints&#45;&gt;sde_replay_dir</title>
<path fill="none" stroke="black" stroke-dasharray="5,2" d="M2184.05,-509.47C2193.69,-507.57 2203.63,-505.67 2213,-504 2304.57,-487.69 2410.4,-471.83 2480.22,-461.78"/>
<polygon fill="black" stroke="black" points="2480.64,-465.25 2490.04,-460.37 2479.65,-458.33 2480.64,-465.25"/>
</g>
<!-- sde_replayer -->
<g id="node35" class="node">
<title>sde_replayer</title>
<ellipse fill="none" stroke="black" cx="3019" cy="-378" rx="70.39" ry="18"/>
<text text-anchor="middle" x="3019" y="-374.3" font-family="Times,serif" font-size="14.00">sde_replayer</text>
</g>
<!-- sde_pinpoints&#45;&gt;sde_replayer -->
<g id="edge146" class="edge">
<title>sde_pinpoints&#45;&gt;sde_replayer</title>
<path fill="none" stroke="black" stroke-dasharray="5,2" d="M2183.06,-509.1C2192.99,-507.19 2203.28,-505.38 2213,-504 2403.3,-476.89 2454.18,-498.28 2644,-468 2758.55,-449.73 2889.91,-415.39 2962.8,-395.13"/>
<polygon fill="black" stroke="black" points="2963.4,-398.59 2972.09,-392.53 2961.52,-391.85 2963.4,-398.59"/>
</g>
<!-- sim_run_dir -->
<g id="node38" class="node">
<title>sim_run_dir</title>
<ellipse fill="none" stroke="black" cx="3921" cy="-450" rx="65.79" ry="18"/>
<text text-anchor="middle" x="3921" y="-446.3" font-family="Times,serif" font-size="14.00">sim_run_dir</text>
</g>
<!-- sde_pinpoints&#45;&gt;sim_run_dir -->
<g id="edge148" class="edge">
<title>sde_pinpoints&#45;&gt;sim_run_dir</title>
<path fill="none" stroke="black" stroke-dasharray="5,2" d="M2181.65,-508.86C2191.99,-506.9 2202.8,-505.14 2213,-504 2923.89,-424.75 3110.02,-536.72 3822,-468 3833.64,-466.88 3845.98,-465.17 3857.85,-463.28"/>
<polygon fill="black" stroke="black" points="3858.26,-466.75 3867.55,-461.65 3857.11,-459.85 3858.26,-466.75"/>
</g>
<!-- sde_cmpsim_replay_dir -->
<g id="node44" class="node">
<title>sde_cmpsim_replay_dir</title>
<ellipse fill="none" stroke="black" cx="3695" cy="-450" rx="118.08" ry="18"/>
<text text-anchor="middle" x="3695" y="-446.3" font-family="Times,serif" font-size="14.00">sde_cmpsim_replay_dir</text>
</g>
<!-- sde_pinpoints&#45;&gt;sde_cmpsim_replay_dir -->
<g id="edge147" class="edge">
<title>sde_pinpoints&#45;&gt;sde_cmpsim_replay_dir</title>
<path fill="none" stroke="black" stroke-dasharray="5,2" d="M2181.65,-508.89C2191.99,-506.93 2202.8,-505.16 2213,-504 2811.58,-436 2967.48,-516.03 3568,-468 3578.89,-467.13 3590.28,-465.97 3601.58,-464.66"/>
<polygon fill="black" stroke="black" points="3601.8,-468.15 3611.31,-463.48 3600.97,-461.2 3601.8,-468.15"/>
</g>
<!-- sde_replay_dir&#45;&gt;replay_dir -->
<g id="edge97" class="edge">
<title>sde_replay_dir&#45;&gt;replay_dir</title>
<path fill="none" stroke="black" d="M2608.31,-436.08C2657.18,-423.78 2730.47,-405.32 2780.39,-392.75"/>
<polygon fill="black" stroke="black" points="2780.99,-396.21 2789.83,-390.37 2779.28,-389.42 2780.99,-396.21"/>
</g>
<!-- sde_replay_dir&#45;&gt;sde_kit -->
<g id="edge98" class="edge">
<title>sde_replay_dir&#45;&gt;sde_kit</title>
<path fill="none" stroke="black" d="M2483.62,-443.5C2409.94,-438.09 2293.14,-429.82 2192,-424 2058.52,-416.32 1718.34,-436.75 1591,-396 1548.01,-382.24 1505.41,-351.46 1479.16,-329.97"/>
<polygon fill="black" stroke="black" points="1481.66,-327.5 1471.75,-323.77 1477.17,-332.87 1481.66,-327.5"/>
</g>
<!-- sde_replay_dir&#45;&gt;sde_replayer -->
<g id="edge149" class="edge">
<title>sde_replay_dir&#45;&gt;sde_replayer</title>
<path fill="none" stroke="black" stroke-dasharray="5,2" d="M2624.79,-440.75C2700.59,-431.23 2826.9,-414.5 2935,-396 2941.48,-394.89 2948.23,-393.66 2954.96,-392.38"/>
<polygon fill="black" stroke="black" points="2955.58,-395.82 2964.73,-390.48 2954.25,-388.95 2955.58,-395.82"/>
</g>
<!-- sde_replayer&#45;&gt;replayer -->
<g id="edge99" class="edge">
<title>sde_replayer&#45;&gt;replayer</title>
<path fill="none" stroke="black" d="M3014.55,-359.7C3012.65,-352.32 3010.39,-343.52 3008.26,-335.25"/>
<polygon fill="black" stroke="black" points="3011.66,-334.38 3005.78,-325.57 3004.88,-336.13 3011.66,-334.38"/>
</g>
<!-- sde_replayer&#45;&gt;sde_kit -->
<g id="edge100" class="edge">
<title>sde_replayer&#45;&gt;sde_kit</title>
<path fill="none" stroke="black" d="M2961.12,-367.33C2942.32,-364.53 2921.32,-361.75 2902,-360 2831.4,-353.6 1762.88,-317.42 1507.51,-308.83"/>
<polygon fill="black" stroke="black" points="1507.95,-305.34 1497.83,-308.5 1507.71,-312.34 1507.95,-305.34"/>
</g>
<!-- sim_kit -->
<g id="node36" class="node">
<title>sim_kit</title>
<ellipse fill="none" stroke="black" cx="3887" cy="-234" rx="44.39" ry="18"/>
<text text-anchor="middle" x="3887" y="-230.3" font-family="Times,serif" font-size="14.00">sim_kit</text>
</g>
<!-- sim_kit&#45;&gt;config -->
<g id="edge101" class="edge">
<title>sim_kit&#45;&gt;config</title>
<path fill="none" stroke="black" d="M3843.68,-229.92C3790.93,-224.89 3700.09,-212.01 3629,-180 3604.68,-169.05 3606.11,-152.97 3581,-144 3405.27,-81.2 2925.08,-144.15 2742,-108 2739.34,-107.48 2736.63,-106.83 2733.93,-106.09"/>
<polygon fill="black" stroke="black" points="2734.97,-102.75 2724.38,-103.12 2732.89,-109.43 2734.97,-102.75"/>
</g>
<!-- sim_kit&#45;&gt;msg -->
<g id="edge102" class="edge">
<title>sim_kit&#45;&gt;msg</title>
<path fill="none" stroke="black" d="M3925.16,-224.31C3948.57,-216.79 3976.71,-203.33 3991,-180 4016.08,-139.07 4024.45,-106.42 3991,-72 3958.38,-38.44 2453.69,-22.09 2181.11,-19.4"/>
<polygon fill="black" stroke="black" points="2181.32,-15.9 2171.29,-19.3 2181.26,-22.9 2181.32,-15.9"/>
</g>
<!-- sim_kit&#45;&gt;util -->
<g id="edge103" class="edge">
<title>sim_kit&#45;&gt;util</title>
<path fill="none" stroke="black" d="M3843.04,-230.77C3775.67,-227.39 3642.83,-220.84 3530,-216 2993.53,-193.01 2340.46,-170 2177.31,-164.33"/>
<polygon fill="black" stroke="black" points="2177.62,-160.83 2167.5,-163.99 2177.37,-167.83 2177.62,-160.83"/>
</g>
<!-- sim_run -->
<g id="node37" class="node">
<title>sim_run</title>
<ellipse fill="none" stroke="black" cx="3921" cy="-306" rx="48.19" ry="18"/>
<text text-anchor="middle" x="3921" y="-302.3" font-family="Times,serif" font-size="14.00">sim_run</text>
</g>
<!-- sim_run&#45;&gt;cmd_options -->
<g id="edge104" class="edge">
<title>sim_run&#45;&gt;cmd_options</title>
<path fill="none" stroke="black" d="M3886.96,-293.03C3829.05,-273.24 3707.31,-234.08 3601,-216 3338.19,-171.3 3021.24,-163.76 2875.48,-162.84"/>
<polygon fill="black" stroke="black" points="2875.55,-159.34 2865.54,-162.79 2875.52,-166.34 2875.55,-159.34"/>
</g>
<!-- sim_run&#45;&gt;config -->
<g id="edge105" class="edge">
<title>sim_run&#45;&gt;config</title>
<path fill="none" stroke="black" d="M3932.19,-288.11C3943.68,-268.43 3957.6,-236.08 3940,-216 3899.66,-169.99 3723.66,-203.11 3667,-180 3642.31,-169.93 3644.12,-152.95 3619,-144 3435.26,-78.54 2933.39,-145.61 2742,-108 2739.34,-107.48 2736.63,-106.83 2733.93,-106.1"/>
<polygon fill="black" stroke="black" points="2734.97,-102.75 2724.38,-103.13 2732.89,-109.44 2734.97,-102.75"/>
</g>
<!-- sim_run&#45;&gt;msg -->
<g id="edge106" class="edge">
<title>sim_run&#45;&gt;msg</title>
<path fill="none" stroke="black" d="M3937.82,-288.88C3979.08,-247.5 4077.48,-136.27 4015,-72 3981.94,-37.99 2456.15,-21.99 2181.22,-19.39"/>
<polygon fill="black" stroke="black" points="2181.34,-15.89 2171.31,-19.29 2181.27,-22.89 2181.34,-15.89"/>
</g>
<!-- sim_run&#45;&gt;util -->
<g id="edge107" class="edge">
<title>sim_run&#45;&gt;util</title>
<path fill="none" stroke="black" d="M3874.49,-300.52C3785.68,-291.88 3585.85,-271.99 3418,-252 3297.35,-237.63 3267.99,-227.2 3147,-216 2770.12,-181.12 2311.68,-167.37 2177.57,-163.92"/>
<polygon fill="black" stroke="black" points="2177.92,-160.43 2167.83,-163.68 2177.74,-167.43 2177.92,-160.43"/>
</g>
<!-- sim_run&#45;&gt;sim_kit -->
<g id="edge108" class="edge">
<title>sim_run&#45;&gt;sim_kit</title>
<path fill="none" stroke="black" d="M3912.77,-288.05C3908.97,-280.23 3904.36,-270.75 3900.1,-261.98"/>
<polygon fill="black" stroke="black" points="3903.33,-260.62 3895.82,-253.15 3897.04,-263.67 3903.33,-260.62"/>
</g>
<!-- sim_run_dir&#45;&gt;cmd_options -->
<g id="edge109" class="edge">
<title>sim_run_dir&#45;&gt;cmd_options</title>
<path fill="none" stroke="black" d="M3931.61,-432.03C3945.49,-408.72 3969.09,-365.02 3978,-324 3988.8,-274.28 3982.96,-243.28 3940,-216 3917.5,-201.71 3130.08,-174.2 2874.34,-165.62"/>
<polygon fill="black" stroke="black" points="2874.56,-162.13 2864.45,-165.29 2874.32,-169.12 2874.56,-162.13"/>
</g>
<!-- sim_run_dir&#45;&gt;config -->
<g id="edge110" class="edge">
<title>sim_run_dir&#45;&gt;config</title>
<path fill="none" stroke="black" d="M3941.04,-432.38C3951.56,-422.72 3963.91,-409.76 3972,-396 4012.54,-327.03 4032.29,-267.42 3971,-216 3879.61,-139.32 3815.39,-225.25 3705,-180 3680.33,-169.89 3682.13,-152.93 3657,-144 3465.25,-75.87 2941.7,-147.07 2742,-108 2739.34,-107.48 2736.63,-106.83 2733.92,-106.1"/>
<polygon fill="black" stroke="black" points="2734.97,-102.76 2724.38,-103.14 2732.89,-109.44 2734.97,-102.76"/>
</g>
<!-- sim_run_dir&#45;&gt;msg -->
<g id="edge111" class="edge">
<title>sim_run_dir&#45;&gt;msg</title>
<path fill="none" stroke="black" d="M3950.67,-433.5C3965.73,-424.34 3983.27,-411.5 3995,-396 4082.67,-280.17 4140.71,-174.72 4038,-72 4004.04,-38.03 2458.32,-21.99 2181.28,-19.38"/>
<polygon fill="black" stroke="black" points="2181.32,-15.88 2171.29,-19.29 2181.26,-22.88 2181.32,-15.88"/>
</g>
<!-- sim_run_dir&#45;&gt;util -->
<g id="edge112" class="edge">
<title>sim_run_dir&#45;&gt;util</title>
<path fill="none" stroke="black" d="M3877.5,-436.17C3860.35,-431.6 3840.39,-426.88 3822,-424 3627.53,-393.55 3570.58,-445.24 3380,-396 3289.53,-372.63 3090.49,-239.29 3000,-216 2841.12,-175.11 2323.56,-165.39 2177.62,-163.44"/>
<polygon fill="black" stroke="black" points="2177.77,-159.94 2167.73,-163.31 2177.68,-166.94 2177.77,-159.94"/>
</g>
<!-- sim_run_dir&#45;&gt;replay_dir -->
<g id="edge113" class="edge">
<title>sim_run_dir&#45;&gt;replay_dir</title>
<path fill="none" stroke="black" d="M3878.03,-436C3860.78,-431.35 3840.61,-426.61 3822,-424 3433.61,-369.45 3330.39,-433.64 2940,-396 2925.21,-394.57 2909.34,-392.36 2894.53,-390"/>
<polygon fill="black" stroke="black" points="2895.38,-386.6 2884.94,-388.43 2894.24,-393.5 2895.38,-386.6"/>
</g>
<!-- sim_run_dir&#45;&gt;sim_kit -->
<g id="edge114" class="edge">
<title>sim_run_dir&#45;&gt;sim_kit</title>
<path fill="none" stroke="black" d="M3910.39,-432.03C3896.51,-408.72 3872.91,-365.02 3864,-324 3860.6,-308.36 3860.75,-303.67 3864,-288 3865.79,-279.36 3869.07,-270.39 3872.6,-262.35"/>
<polygon fill="black" stroke="black" points="3875.71,-263.98 3876.81,-253.44 3869.38,-260.99 3875.71,-263.98"/>
</g>
<!-- sim_run_dir&#45;&gt;sim_run -->
<g id="edge115" class="edge">
<title>sim_run_dir&#45;&gt;sim_run</title>
<path fill="none" stroke="black" d="M3916.39,-431.59C3913.88,-407.61 3913.58,-364.14 3915.47,-335.42"/>
<polygon fill="black" stroke="black" points="3918.95,-335.88 3916.29,-325.62 3911.97,-335.29 3918.95,-335.88"/>
</g>
<!-- sim_run_dir&#45;&gt;sim_run -->
<g id="edge150" class="edge">
<title>sim_run_dir&#45;&gt;sim_run</title>
<path fill="none" stroke="black" stroke-dasharray="5,2" d="M3925.61,-431.59C3928.12,-407.61 3928.42,-364.14 3926.53,-335.42"/>
<polygon fill="black" stroke="black" points="3930.03,-335.29 3925.71,-325.62 3923.05,-335.88 3930.03,-335.29"/>
</g>
<!-- simpoint&#45;&gt;cmd_options -->
<g id="edge116" class="edge">
<title>simpoint&#45;&gt;cmd_options</title>
<path fill="none" stroke="black" d="M846.08,-303.42C1055.18,-296.86 1837.07,-271.13 1886,-252 1909.21,-242.92 1905.84,-225.22 1929,-216 2000.85,-187.38 2514.84,-170.57 2715.26,-165.04"/>
<polygon fill="black" stroke="black" points="2715.16,-168.54 2725.06,-164.77 2714.97,-161.55 2715.16,-168.54"/>
</g>
<!-- simpoint&#45;&gt;config -->
<g id="edge117" class="edge">
<title>simpoint&#45;&gt;config</title>
<path fill="none" stroke="black" d="M814.68,-289.06C827.6,-278.57 844.85,-264.52 860,-252 879.21,-236.12 881.49,-228.59 903,-216 980.93,-170.38 1004.45,-161.73 1093,-144 1248.11,-112.94 2391.61,-95.24 2645.26,-91.67"/>
<polygon fill="black" stroke="black" points="2645.2,-95.18 2655.15,-91.54 2645.1,-88.18 2645.2,-95.18"/>
</g>
<!-- simpoint&#45;&gt;msg -->
<g id="edge118" class="edge">
<title>simpoint&#45;&gt;msg</title>
<path fill="none" stroke="black" d="M744.35,-302.74C670.87,-297.3 547.27,-278.8 584,-216 650.49,-102.31 716.13,-107.35 843,-72 965.96,-37.74 1887.65,-22.59 2096.85,-19.58"/>
<polygon fill="black" stroke="black" points="2096.76,-23.08 2106.71,-19.44 2096.66,-16.08 2096.76,-23.08"/>
</g>
<!-- simpoint&#45;&gt;util -->
<g id="edge119" class="edge">
<title>simpoint&#45;&gt;util</title>
<path fill="none" stroke="black" d="M770.75,-289.87C743.93,-271.36 707.3,-239.57 730,-216 778.85,-165.28 1878.59,-162.92 2100.27,-162.96"/>
<polygon fill="black" stroke="black" points="2100.09,-166.46 2110.09,-162.96 2100.09,-159.46 2100.09,-166.46"/>
</g>
<!-- simpoint&#45;&gt;pcregions -->
<g id="edge152" class="edge">
<title>simpoint&#45;&gt;pcregions</title>
<path fill="none" stroke="black" stroke-dasharray="5,2" d="M795,-287.7C795,-280.41 795,-271.73 795,-263.54"/>
<polygon fill="black" stroke="black" points="798.5,-263.62 795,-253.62 791.5,-263.62 798.5,-263.62"/>
</g>
<!-- simpoint&#45;&gt;regions -->
<g id="edge151" class="edge">
<title>simpoint&#45;&gt;regions</title>
<path fill="none" stroke="black" stroke-dasharray="5,2" d="M764.36,-291.34C739.62,-280.31 704.63,-264.71 677.74,-252.72"/>
<polygon fill="black" stroke="black" points="679.44,-249.65 668.89,-248.77 676.59,-256.04 679.44,-249.65"/>
</g>
<!-- split.pc&#45;csvfile -->
<g id="node40" class="node">
<title>split.pc&#45;csvfile</title>
<ellipse fill="none" stroke="black" cx="2617" cy="-522" rx="77.19" ry="18"/>
<text text-anchor="middle" x="2617" y="-518.3" font-family="Times,serif" font-size="14.00">split.pc&#45;csvfile</text>
</g>
<!-- traceinfo&#45;&gt;cmd_options -->
<g id="edge120" class="edge">
<title>traceinfo&#45;&gt;cmd_options</title>
<path fill="none" stroke="black" d="M1162.32,-230.87C1403.29,-220.85 2423.02,-178.46 2715.99,-166.28"/>
<polygon fill="black" stroke="black" points="2715.98,-169.79 2725.83,-165.88 2715.69,-162.79 2715.98,-169.79"/>
</g>
<!-- traceinfo&#45;&gt;config -->
<g id="edge121" class="edge">
<title>traceinfo&#45;&gt;config</title>
<path fill="none" stroke="black" d="M1138.22,-218.24C1178.52,-197.24 1257.08,-159.57 1329,-144 1587.39,-88.06 2430.6,-89.35 2645.04,-90.62"/>
<polygon fill="black" stroke="black" points="2644.98,-94.12 2655.01,-90.68 2645.03,-87.12 2644.98,-94.12"/>
</g>
<!-- traceinfo&#45;&gt;msg -->
<g id="edge122" class="edge">
<title>traceinfo&#45;&gt;msg</title>
<path fill="none" stroke="black" d="M1112.28,-215.75C1115.83,-181.69 1129,-106.15 1177,-72 1252.65,-18.18 1920.67,-17.85 2096.66,-18.71"/>
<polygon fill="black" stroke="black" points="2096.47,-22.21 2106.48,-18.76 2096.5,-15.21 2096.47,-22.21"/>
</g>
<!-- traceinfo&#45;&gt;util -->
<g id="edge123" class="edge">
<title>traceinfo&#45;&gt;util</title>
<path fill="none" stroke="black" d="M1149.82,-221.65C1158.69,-219.43 1168.11,-217.38 1177,-216 1532.45,-160.98 1969.52,-161 2100.29,-162.41"/>
<polygon fill="black" stroke="black" points="2100.08,-165.91 2110.12,-162.53 2100.16,-158.91 2100.08,-165.91"/>
</g>
<!-- util.full -->
<g id="node42" class="node">
<title>util.full</title>
<ellipse fill="none" stroke="black" cx="3791" cy="-162" rx="44.39" ry="18"/>
<text text-anchor="middle" x="3791" y="-158.3" font-family="Times,serif" font-size="14.00">util.full</text>
</g>
<!-- util.full&#45;&gt;config -->
<g id="edge124" class="edge">
<title>util.full&#45;&gt;config</title>
<path fill="none" stroke="black" d="M3757.59,-149.67C3749.62,-147.4 3741.08,-145.31 3733,-144 3297.94,-73.47 3174.66,-191.97 2742,-108 2739.34,-107.48 2736.63,-106.84 2733.92,-106.11"/>
<polygon fill="black" stroke="black" points="2734.96,-102.77 2724.38,-103.15 2732.89,-109.45 2734.96,-102.77"/>
</g>
<!-- util.full&#45;&gt;msg -->
<g id="edge125" class="edge">
<title>util.full&#45;&gt;msg</title>
<path fill="none" stroke="black" d="M3756.91,-149.96C3693.81,-130.1 3554.16,-88.86 3433,-72 3182.83,-37.19 2375.11,-22.66 2181.16,-19.62"/>
<polygon fill="black" stroke="black" points="2181.36,-16.13 2171.3,-19.47 2181.25,-23.13 2181.36,-16.13"/>
</g>
</g>
</svg>
