<?xml version="1.0" encoding="UTF-8"?>
<!DOCTYPE svg PUBLIC "-//W3C//DTD SVG 1.1//EN" "http://www.w3.org/Graphics/SVG/1.1/DTD/svg11.dtd">
<svg xmlns="http://www.w3.org/2000/svg" xmlns:xlink="http://www.w3.org/1999/xlink" version="1.1" width="602px" height="355px" viewBox="-0.5 -0.5 602 355">
  <defs/>
  <g>
    <rect x="0" y="2" width="600" height="350" fill="#fffccc" stroke="#d6b656" pointer-events="all"/>
    <rect x="80" y="2" width="440" height="350" fill="none" stroke="none" pointer-events="all"/>
    <path d="M 80.1 1.88 C 80.1 1.88 80.1 1.88 80.1 1.88 M 80.1 1.88 C 80.1 1.88 80.1 1.88 80.1 1.88 M 79.84 8.28 C 81.49 6.39 83.59 3.59 85.09 2.24 M 79.84 8.28 C 81.72 6.44 83.33 4.49 85.09 2.24 M 80.24 13.92 C 83.65 12.23 86.37 8.41 90.73 1.85 M 80.24 13.92 C 83.33 11.07 85.53 7.95 90.73 1.85 M 79.97 20.32 C 82.49 16.48 87.11 10.16 95.72 2.21 M 79.97 20.32 C 85.32 15.2 90.42 8.66 95.72 2.21 M 79.71 26.72 C 85.76 19.9 90.86 11.21 101.36 1.81 M 79.71 26.72 C 85.31 20.1 90.7 14.09 101.36 1.81 M 80.11 32.36 C 87.47 23.23 95.88 15.75 106.35 2.17 M 80.11 32.36 C 90.95 20.74 100.61 9.29 106.35 2.17 M 79.85 38.76 C 85.88 30.66 93.15 20.13 111.99 1.78 M 79.85 38.76 C 90.14 28.54 97.96 16.74 111.99 1.78 M 80.24 44.4 C 88.87 31.66 99.17 18.29 116.98 2.14 M 80.24 44.4 C 89.83 32.63 101.11 19.79 116.98 2.14 M 79.98 50.8 C 94.8 31.61 111.99 14.83 122.62 1.74 M 79.98 50.8 C 94.54 33.34 110.69 14.71 122.62 1.74 M 79.72 57.2 C 89.89 43.14 103.95 29.98 127.61 2.1 M 79.72 57.2 C 92.89 43.13 104.97 30.09 127.61 2.1 M 80.11 62.84 C 99.85 42.34 118.99 18.99 133.25 1.71 M 80.11 62.84 C 101.05 38.05 120.23 14.16 133.25 1.71 M 79.85 69.24 C 91.46 54.3 105.32 39.04 138.24 2.07 M 79.85 69.24 C 93.26 53.76 106.92 37.38 138.24 2.07 M 80.25 74.88 C 100.56 48.49 123.97 25.2 143.88 1.68 M 80.25 74.88 C 96.77 56.06 113.15 39.21 143.88 1.68 M 79.98 81.28 C 104.03 52.78 131.91 19.66 148.87 2.04 M 79.98 81.28 C 96.97 61.57 114.22 41.89 148.87 2.04 M 79.72 87.68 C 97.43 66.19 112.01 48.47 154.51 1.64 M 79.72 87.68 C 102.56 58.38 126.93 31.65 154.51 1.64 M 80.12 93.32 C 106.86 60.97 138.73 27.91 159.5 2 M 80.12 93.32 C 111.3 57.51 141.49 20.86 159.5 2 M 79.86 99.72 C 104.23 72.96 125.96 44.52 164.49 2.36 M 79.86 99.72 C 111.75 62.14 142.05 26.45 164.49 2.36 M 80.25 105.36 C 105.87 74.49 129.93 46.83 170.13 1.97 M 80.25 105.36 C 106.55 76.39 131.66 47.93 170.13 1.97 M 79.99 111.76 C 105.28 83.44 132 50.9 175.12 2.33 M 79.99 111.76 C 104.06 83.78 126.41 56.91 175.12 2.33 M 79.73 118.16 C 119.14 73.89 161.47 25.87 180.76 1.93 M 79.73 118.16 C 115.96 74.47 154.24 32.25 180.76 1.93 M 80.12 123.8 C 118 77.81 156.96 34.52 185.75 2.29 M 80.12 123.8 C 121.34 78.11 160.22 32.32 185.75 2.29 M 79.86 130.2 C 120.32 85.13 161.19 35.55 191.39 1.9 M 79.86 130.2 C 109.1 96.97 137.03 65.64 191.39 1.9 M 80.25 135.84 C 123.23 86.24 166.53 37.35 196.38 2.26 M 80.25 135.84 C 113.4 94.94 147.49 56.26 196.38 2.26 M 79.99 142.24 C 105.12 111.45 132.63 77.72 202.02 1.86 M 79.99 142.24 C 123.75 91.84 166.86 43.01 202.02 1.86 M 79.73 148.64 C 124.28 97.58 167.34 46.86 207.01 2.22 M 79.73 148.64 C 119.74 104.5 157.05 61.68 207.01 2.22 M 80.13 154.28 C 109.32 116.93 140.8 80.74 212.65 1.83 M 80.13 154.28 C 111.96 117.92 143.6 80.1 212.65 1.83 M 79.87 160.68 C 137.52 95.68 189.33 33.66 217.64 2.19 M 79.87 160.68 C 133.89 99.11 186.63 37.48 217.64 2.19 M 80.26 166.32 C 109.11 130.83 137.39 99.95 223.28 1.79 M 80.26 166.32 C 124.01 114.36 167.75 64.62 223.28 1.79 M 80 172.72 C 115.56 133.37 150.8 92.49 228.27 2.15 M 80 172.72 C 129.95 116.52 180.06 58.73 228.27 2.15 M 79.74 179.12 C 136.4 117.4 190.02 53.87 233.91 1.76 M 79.74 179.12 C 122.6 127.88 165.29 78.86 233.91 1.76 M 80.13 184.76 C 121.34 136.7 161.15 89.57 238.9 2.12 M 80.13 184.76 C 113.85 147.99 147.23 109.11 238.9 2.12 M 79.87 191.16 C 127.57 136.68 175.76 80.2 244.54 1.72 M 79.87 191.16 C 134.43 125.86 190.65 61.25 244.54 1.72 M 80.26 196.8 C 123.33 147.59 163.36 98.91 249.53 2.08 M 80.26 196.8 C 124.49 146.11 168.11 96.48 249.53 2.08 M 80 203.2 C 118.18 159.15 153.2 116.83 255.17 1.69 M 80 203.2 C 147.4 125.14 215.55 47.56 255.17 1.69 M 79.74 209.6 C 132.76 151.33 183.39 90.91 260.16 2.05 M 79.74 209.6 C 119.78 165.85 159.48 119.1 260.16 2.05 M 80.14 215.24 C 130.55 153.49 185.47 95.15 265.8 1.66 M 80.14 215.24 C 150.91 135.97 218.69 56.35 265.8 1.66 M 79.87 221.64 C 123.21 170.55 169.5 118.78 270.79 2.02 M 79.87 221.64 C 119.98 173.84 160.43 127.11 270.79 2.02 M 80.27 227.28 C 139 161.86 196.04 93.92 275.77 2.38 M 80.27 227.28 C 149.58 146.72 220.59 65.04 275.77 2.38 M 80.01 233.68 C 129.28 177.27 181.88 117.36 281.42 1.98 M 80.01 233.68 C 133.09 175.99 184.74 116.27 281.42 1.98 M 79.75 240.08 C 161.53 148.7 242.66 53.71 286.41 2.34 M 79.75 240.08 C 138.87 173.7 196.44 107.24 286.41 2.34 M 80.14 245.72 C 135.93 180.48 193.69 113.77 292.05 1.95 M 80.14 245.72 C 151.58 164.55 222.89 81.49 292.05 1.95 M 79.88 252.12 C 154.45 166.54 227.33 83.73 297.04 2.31 M 79.88 252.12 C 160.58 158.77 239.97 67.37 297.04 2.31 M 80.27 257.76 C 152.65 174.16 223.67 90.41 302.68 1.91 M 80.27 257.76 C 155.77 170.86 230.3 84.79 302.68 1.91 M 80.01 264.16 C 138.18 195.97 196.89 128.29 307.67 2.27 M 80.01 264.16 C 154 180.59 226.3 97.31 307.67 2.27 M 79.75 270.55 C 135.94 204.46 190.3 139.13 313.31 1.88 M 79.75 270.55 C 155.42 182.98 229.96 98.19 313.31 1.88 M 80.15 276.2 C 148.36 194.97 219.58 114.33 318.3 2.24 M 80.15 276.2 C 164.41 178.57 247.69 82.81 318.3 2.24 M 79.88 282.6 C 158.37 192.11 236.95 100.47 323.94 1.84 M 79.88 282.6 C 138.87 213.75 197.41 145.94 323.94 1.84 M 80.28 288.24 C 166.72 190.36 254.72 88.38 328.93 2.2 M 80.28 288.24 C 162.18 195.67 242.62 102.99 328.93 2.2 M 80.02 294.64 C 149.85 214.05 220.73 133.6 334.57 1.81 M 80.02 294.64 C 139.51 224.44 200.19 154.54 334.57 1.81 M 79.76 301.03 C 170.48 199.9 261.09 95.59 339.56 2.17 M 79.76 301.03 C 138.62 232.07 198.29 163.14 339.56 2.17 M 80.15 306.68 C 154.04 220.64 230.1 136.13 345.2 1.77 M 80.15 306.68 C 168.79 204.33 257.72 100.86 345.2 1.77 M 79.89 313.07 C 177.43 202.43 272.75 92.49 350.19 2.13 M 79.89 313.07 C 159.73 218.86 240.53 126.06 350.19 2.13 M 80.28 318.72 C 168.13 217.44 257.46 113.88 355.83 1.74 M 80.28 318.72 C 174.36 209.98 269.66 100.71 355.83 1.74 M 80.02 325.12 C 162.59 232.76 244.18 139.42 360.82 2.1 M 80.02 325.12 C 164.06 230.75 247.35 135.42 360.82 2.1 M 79.76 331.51 C 153.57 247.46 227.55 162.25 366.46 1.71 M 79.76 331.51 C 182.75 212.64 286.1 94.07 366.46 1.71 M 80.16 337.16 C 196.25 207.12 309.67 75.2 371.45 2.07 M 80.16 337.16 C 146.52 260.89 211.56 186.19 371.45 2.07 M 79.89 343.55 C 183.73 225.37 288.64 104.77 377.09 1.67 M 79.89 343.55 C 156.55 253.37 234.93 163.61 377.09 1.67 M 80.29 349.2 C 186.48 226.83 293.39 103.59 382.08 2.03 M 80.29 349.2 C 148.06 273.98 213.9 196.96 382.08 2.03 M 82 353.33 C 185.73 235.37 288.88 115.16 387.72 1.64 M 82 353.33 C 148.07 277.13 215.77 199.25 387.72 1.64 M 86.98 353.69 C 147.8 281.37 211.49 210.95 392.71 2 M 86.98 353.69 C 167.22 262.58 245.15 172.39 392.71 2 M 92.63 353.3 C 201.92 226.2 310.61 99.5 397.69 2.36 M 92.63 353.3 C 210.32 215.59 329.55 78.99 397.69 2.36 M 97.61 353.66 C 217.46 214.18 341.36 72.77 403.34 1.96 M 97.61 353.66 C 172.49 267.47 247.59 182.06 403.34 1.96 M 103.26 353.26 C 173.75 272.86 244.71 190.21 408.32 2.32 M 103.26 353.26 C 167.95 278.42 231.42 204.99 408.32 2.32 M 108.24 353.62 C 214.8 230.51 322.08 106.42 413.97 1.93 M 108.24 353.62 C 209.83 238.66 310.34 123.68 413.97 1.93 M 113.89 353.23 C 226.02 222.98 340.14 92.97 418.95 2.29 M 113.89 353.23 C 205.81 245.71 298.4 138.7 418.95 2.29 M 118.87 353.59 C 211.85 247.4 302.85 141.61 424.6 1.89 M 118.87 353.59 C 238.62 215.9 356.87 78.77 424.6 1.89 M 124.52 353.19 C 209.56 256.94 292.79 161.54 429.58 2.25 M 124.52 353.19 C 242.58 217.15 360.59 81.11 429.58 2.25 M 129.5 353.55 C 199.36 272.79 268.62 192.1 435.23 1.86 M 129.5 353.55 C 236.13 233.16 341.11 112.51 435.23 1.86 M 134.49 353.91 C 204.11 272.08 274.32 190.91 440.21 2.22 M 134.49 353.91 C 242.11 230.31 349.98 105.8 440.21 2.22 M 140.13 353.52 C 249.99 227.34 357.92 101.67 445.86 1.82 M 140.13 353.52 C 215.9 266.73 290.97 180.21 445.86 1.82 M 145.12 353.88 C 212.13 276.23 278.72 199.42 450.84 2.18 M 145.12 353.88 C 263.8 216.21 383.17 79.53 450.84 2.18 M 150.76 353.48 C 226.85 266.05 303.66 180.45 456.49 1.79 M 150.76 353.48 C 269.59 219.59 387.08 83.89 456.49 1.79 M 155.75 353.84 C 219.51 280.69 282.86 206.26 461.47 2.15 M 155.75 353.84 C 237.34 261.05 318.35 168.25 461.47 2.15 M 161.39 353.45 C 254.27 247.49 345.94 141.05 467.12 1.76 M 161.39 353.45 C 280.59 219.32 397.66 83.95 467.12 1.76 M 166.38 353.81 C 247.19 262.43 326.13 170.14 472.1 2.12 M 166.38 353.81 C 235.12 271.25 306.25 190.48 472.1 2.12 M 172.02 353.42 C 248.41 266.49 326.07 177.18 477.75 1.72 M 172.02 353.42 C 267.38 244.3 360.91 136.66 477.75 1.72 M 177.01 353.78 C 240.78 278.98 304.97 205.95 482.73 2.08 M 177.01 353.78 C 280.92 236.73 382.47 119.2 482.73 2.08 M 182.65 353.38 C 268.94 253.72 356.25 154.36 488.38 1.69 M 182.65 353.38 C 287.97 230.06 394.04 107.88 488.38 1.69 M 187.64 353.74 C 311.02 214.16 432.67 75.06 493.36 2.05 M 187.64 353.74 C 279.27 249.41 370.73 143.71 493.36 2.05 M 193.28 353.35 C 288.72 245.56 382.56 136.95 499.01 1.65 M 193.28 353.35 C 298.26 235 402.44 114.57 499.01 1.65 M 198.27 353.71 C 303.97 230.38 410.42 107.69 503.99 2.01 M 198.27 353.71 C 272.28 269.12 345.55 184.81 503.99 2.01 M 203.91 353.31 C 289.75 253.39 377.87 154.02 508.98 2.37 M 203.91 353.31 C 280.61 262.81 358.23 173.47 508.98 2.37 M 208.9 353.67 C 292.36 258.24 375.39 163.08 514.62 1.98 M 208.9 353.67 C 315.65 228.11 424.69 103.92 514.62 1.98 M 214.54 353.28 C 309.76 244.64 403.38 136.98 519.61 2.34 M 214.54 353.28 C 305.64 249.83 396 146.04 519.61 2.34 M 219.53 353.64 C 331.78 223.53 445.76 92.59 523.29 4.21 M 219.53 353.64 C 290.52 274.12 360.26 194.62 523.29 4.21 M 225.17 353.24 C 318.64 247.02 410.08 140.5 523.02 10.6 M 225.17 353.24 C 343.99 215.54 463.27 78.5 523.02 10.6 M 230.16 353.6 C 331.06 238.41 432.08 124.23 522.76 17 M 230.16 353.6 C 328.06 241.51 426.03 128.76 522.76 17 M 235.8 353.21 C 339.34 234.63 443.99 113.27 523.16 22.65 M 235.8 353.21 C 334.25 239.41 434.53 124.73 523.16 22.65 M 240.79 353.57 C 315.58 268.55 388.05 186.18 522.9 29.04 M 240.79 353.57 C 333.65 245.39 427.22 139.18 522.9 29.04 M 245.78 353.93 C 354.34 231.3 459.93 109.88 523.29 34.69 M 245.78 353.93 C 315.4 273.07 385.45 193.53 523.29 34.69 M 251.42 353.53 C 330.22 261.63 411.3 169.16 523.03 41.08 M 251.42 353.53 C 346.64 242.08 442.6 131.81 523.03 41.08 M 256.41 353.89 C 313.95 288.06 372.55 222.06 522.77 47.48 M 256.41 353.89 C 325.43 274.18 393.58 195.16 522.77 47.48 M 262.05 353.5 C 312.32 294.23 365.85 234.5 523.16 53.13 M 262.05 353.5 C 351.41 251.23 440.25 149.06 523.16 53.13 M 267.04 353.86 C 358.07 249.16 449.4 143.22 522.9 59.52 M 267.04 353.86 C 332.4 280.04 395.58 206.89 522.9 59.52 M 272.68 353.47 C 329.9 288.05 387.71 222.81 522.64 65.92 M 272.68 353.47 C 348.44 268.98 423.05 183.46 522.64 65.92 M 277.67 353.83 C 338.08 288 394.62 219.86 523.03 71.56 M 277.67 353.83 C 365.19 254 452.13 155.41 523.03 71.56 M 283.31 353.43 C 334.59 292.43 389.07 230.51 522.77 77.96 M 283.31 353.43 C 340.46 288.63 395.7 224.21 522.77 77.96 M 288.3 353.79 C 362.36 268.15 436.29 182.07 523.17 83.6 M 288.3 353.79 C 340.51 296.25 391.54 237.59 523.17 83.6 M 293.94 353.4 C 362.1 275.86 429.7 198.93 522.91 90 M 293.94 353.4 C 345.37 292.08 398.18 232.39 522.91 90 M 298.93 353.76 C 345.06 300.33 390.83 246.62 522.64 96.4 M 298.93 353.76 C 373.55 266.57 449.25 179.47 522.64 96.4 M 304.57 353.36 C 385.32 260.91 465.87 169.45 523.04 102.04 M 304.57 353.36 C 382.85 262.32 461.62 171.6 523.04 102.04 M 309.56 353.72 C 388.1 265.98 464.37 179.51 522.78 108.44 M 309.56 353.72 C 384.5 269.17 458.26 184.93 522.78 108.44 M 315.2 353.33 C 363.65 295.99 413.93 238.43 523.17 114.08 M 315.2 353.33 C 395.7 260.89 475.38 169.51 523.17 114.08 M 320.19 353.69 C 390.95 271.89 462.02 189.01 522.91 120.48 M 320.19 353.69 C 380.64 284.39 441.89 215.05 522.91 120.48 M 325.83 353.29 C 385.26 281.98 446.65 214.03 522.65 126.88 M 325.83 353.29 C 373.04 298.26 421.62 242.61 522.65 126.88 M 330.82 353.65 C 374.83 306.8 416.08 258.45 523.04 132.52 M 330.82 353.65 C 371.07 310.23 410.05 264.45 523.04 132.52 M 336.46 353.26 C 381.65 299.23 429.25 245.64 522.78 138.92 M 336.46 353.26 C 407.37 273.87 477.71 193.17 522.78 138.92 M 341.45 353.62 C 396.77 289.07 453.13 225.02 523.18 144.56 M 341.45 353.62 C 393.7 292.25 446.87 230.8 523.18 144.56 M 347.09 353.22 C 406.86 284.52 469.78 212.77 522.92 150.96 M 347.09 353.22 C 417.93 272.14 486.8 193.82 522.92 150.96 M 352.08 353.58 C 391.27 306.74 432.2 259.14 522.65 157.36 M 352.08 353.58 C 408.3 289.33 465.41 222.67 522.65 157.36 M 357.72 353.19 C 417.45 286.46 471.36 222.84 523.05 163 M 357.72 353.19 C 424.33 277.33 488.73 201.45 523.05 163 M 362.71 353.55 C 416.68 290.71 472.84 226.26 522.79 169.4 M 362.71 353.55 C 419.1 289.39 474.04 225.62 522.79 169.4 M 367.7 353.91 C 427.99 285.31 492.16 213.73 523.18 175.04 M 367.7 353.91 C 409.69 303.92 450.79 255.99 523.18 175.04 M 373.34 353.51 C 406.65 316.52 435.23 280.98 522.92 181.44 M 373.34 353.51 C 413.11 309.29 451.37 265.17 522.92 181.44 M 378.33 353.87 C 428.51 296.12 478.69 239.92 522.66 187.84 M 378.33 353.87 C 434.87 288.68 491.81 223.51 522.66 187.84 M 383.97 353.48 C 431.46 298.19 478.88 241.3 523.05 193.48 M 383.97 353.48 C 421.96 311.95 457.17 269.18 523.05 193.48 M 388.96 353.84 C 417.49 322.56 446.73 288.25 522.79 199.88 M 388.96 353.84 C 433.71 302.34 477.87 249.68 522.79 199.88 M 394.6 353.45 C 434.97 304.62 475.35 256.79 523.19 205.52 M 394.6 353.45 C 428.97 313.04 464.77 273.3 523.19 205.52 M 399.59 353.81 C 439.13 307.44 478.72 262.78 522.93 211.92 M 399.59 353.81 C 440.06 308.43 480.43 262.92 522.93 211.92 M 405.23 353.41 C 432.52 321.76 457.5 288.14 522.66 218.32 M 405.23 353.41 C 431.54 321.24 459.43 290.92 522.66 218.32 M 410.22 353.77 C 451.8 305.75 493.75 258.67 523.06 223.96 M 410.22 353.77 C 433.88 327.56 455.94 300 523.06 223.96 M 415.86 353.38 C 439.58 328.74 459.83 298.82 522.8 230.36 M 415.86 353.38 C 441.64 324.08 466.94 294.7 522.8 230.36 M 420.85 353.74 C 459.39 311.08 495.47 271.68 523.19 236 M 420.85 353.74 C 449.45 321.43 479.37 287.22 523.19 236 M 426.49 353.34 C 457.13 316.33 491.23 277.22 522.93 242.4 M 426.49 353.34 C 445.85 330.36 465.34 308.16 522.93 242.4 M 431.48 353.7 C 453.98 326.03 479.77 298.82 522.67 248.8 M 431.48 353.7 C 457.21 323.66 481.37 293.92 522.67 248.8 M 437.12 353.31 C 467.34 319.84 496.77 286.35 523.06 254.44 M 437.12 353.31 C 471.76 314.3 505.49 275.64 523.06 254.44 M 442.11 353.67 C 470.66 319.82 499.25 290.3 522.8 260.84 M 442.11 353.67 C 470.96 320.24 502 283.93 522.8 260.84 M 447.75 353.27 C 465.46 334.38 485.12 312.92 523.2 266.48 M 447.75 353.27 C 470.99 326.24 495.2 298.94 523.2 266.48 M 452.74 353.63 C 473.09 328.31 493.04 305.28 522.93 272.88 M 452.74 353.63 C 478.23 325.61 500.84 299.37 522.93 272.88 M 458.38 353.24 C 482.73 328.39 506.98 300.93 522.67 279.28 M 458.38 353.24 C 481.24 325.37 505.63 297.17 522.67 279.28 M 463.37 353.6 C 476.5 335.36 492.51 319.68 523.07 284.92 M 463.37 353.6 C 479.41 337.05 492.51 319 523.07 284.92 M 469.01 353.2 C 484.7 331.57 504.73 313.41 522.81 291.32 M 469.01 353.2 C 481.74 336.99 496.06 321.83 522.81 291.32 M 474 353.56 C 489.08 334.54 508.12 314.03 523.2 296.96 M 474 353.56 C 490.35 333.88 507.17 314.61 523.2 296.96 M 478.98 353.92 C 487.25 343.1 498.32 334.55 522.94 303.36 M 478.98 353.92 C 494.49 335.4 511.54 317.52 522.94 303.36 M 484.63 353.53 C 490.75 343.93 501.28 334.02 522.68 309.76 M 484.63 353.53 C 496.71 338.94 509.75 323.08 522.68 309.76 M 489.61 353.89 C 496.73 344.74 504.41 336.6 523.07 315.4 M 489.61 353.89 C 499.6 342.24 512.26 329.61 523.07 315.4 M 495.26 353.5 C 503.87 343.99 511.12 338.72 522.81 321.8 M 495.26 353.5 C 506.18 340.77 517.44 329.37 522.81 321.8 M 500.24 353.86 C 508.74 343.38 518.05 333.68 523.21 327.44 M 500.24 353.86 C 506.98 345.2 515.54 335.94 523.21 327.44 M 505.89 353.46 C 508.36 348.89 512.88 346.9 522.94 333.84 M 505.89 353.46 C 511.39 348.81 514.77 342.61 522.94 333.84 M 510.87 353.82 C 515.93 348.76 520.02 343.33 522.68 340.24 M 510.87 353.82 C 515.3 348.37 519.26 344.39 522.68 340.24 M 516.52 353.43 C 519.26 350.36 521.95 347.37 523.08 345.88 M 516.52 353.43 C 519.32 350.56 522.14 346.99 523.08 345.88" fill="none" stroke="#fff000" stroke-width="0.5" stroke-linejoin="round" stroke-linecap="round" stroke-miterlimit="10" pointer-events="all"/>
    <rect x="0" y="2" width="20" height="350" fill="none" stroke="none" pointer-events="all"/>
    <path d="M -0.24 2.27 C -0.24 2.27 -0.24 2.27 -0.24 2.27 M -0.24 2.27 C -0.24 2.27 -0.24 2.27 -0.24 2.27 M 0.16 7.91 C 1.84 5.97 2.17 4.91 5.41 1.88 M 0.16 7.91 C 1.56 6.28 3.38 4.68 5.41 1.88 M -0.1 14.31 C 4.05 12.11 5.49 6.33 10.39 2.24 M -0.1 14.31 C 2.57 11.37 5.29 9.45 10.39 2.24 M 0.29 19.96 C 2.99 13.18 9.66 10.1 16.04 1.84 M 0.29 19.96 C 4.7 13.85 9.05 8.98 16.04 1.84 M 0.03 26.35 C 6.39 16.55 13.18 9.81 20.37 2.96 M 0.03 26.35 C 6.28 18.01 15.32 9.55 20.37 2.96 M -0.23 32.75 C 5.82 28.7 7.45 23.38 20.76 8.6 M -0.23 32.75 C 4.91 27.38 10 21.96 20.76 8.6 M 0.16 38.39 C 5.57 31.61 9.59 30.07 20.5 15 M 0.16 38.39 C 6.07 30.86 12.58 24.06 20.5 15 M -0.1 44.79 C 6.53 37.48 10.36 31.75 20.9 20.64 M -0.1 44.79 C 5.03 37.46 12.36 32.01 20.9 20.64 M 0.3 50.43 C 4.69 43.72 10.43 40.66 20.63 27.04 M 0.3 50.43 C 4.43 45.01 8.92 38.98 20.63 27.04 M 0.04 56.83 C 4.74 48.94 14.78 41.86 20.37 33.44 M 0.04 56.83 C 6.7 50.48 12.36 44.23 20.37 33.44 M -0.23 63.23 C 8.79 52.62 14.25 45.72 20.77 39.08 M -0.23 63.23 C 4.41 56.72 11.37 51.42 20.77 39.08 M 0.17 68.87 C 6.28 62.62 13.68 52.33 20.51 45.48 M 0.17 68.87 C 6.88 60.99 13.55 53.31 20.51 45.48 M -0.09 75.27 C 5.99 69.48 12.89 64 20.9 51.12 M -0.09 75.27 C 5.05 69.53 9.13 64.12 20.9 51.12 M 0.3 80.91 C 9.43 72.93 15.27 65.42 20.64 57.52 M 0.3 80.91 C 7.43 73.12 14.47 65.98 20.64 57.52 M 0.04 87.31 C 4.78 79.87 10.9 73.92 20.38 63.92 M 0.04 87.31 C 5.77 80.66 11 73.53 20.38 63.92 M -0.22 93.71 C 4.9 87.51 11.74 81.78 20.77 69.56 M -0.22 93.71 C 4.3 89.21 8.89 83.91 20.77 69.56 M 0.17 99.35 C 5.69 94.57 12.02 85.25 20.51 75.96 M 0.17 99.35 C 5.23 93.53 7.9 90.48 20.51 75.96 M -0.09 105.75 C 3.42 99.64 10.08 95.89 20.91 81.6 M -0.09 105.75 C 8.69 96.97 16.38 86.27 20.91 81.6 M 0.31 111.39 C 5.68 104.75 15.25 92.9 20.64 88 M 0.31 111.39 C 9.39 101.44 16.55 93.28 20.64 88 M 0.05 117.79 C 3.01 112.39 8.19 109.05 20.38 94.4 M 0.05 117.79 C 4.86 112.18 11.83 105.03 20.38 94.4 M -0.22 124.19 C 7.9 113.95 17.41 105.2 20.78 100.04 M -0.22 124.19 C 6.01 116.87 12.29 109.52 20.78 100.04 M 0.18 129.83 C 6.98 120.62 12.8 114.26 20.52 106.44 M 0.18 129.83 C 6.53 122.36 11.67 114.5 20.52 106.44 M -0.08 136.23 C 6.09 127.86 12.42 121.71 20.91 112.08 M -0.08 136.23 C 8.11 127.45 16.23 118.31 20.91 112.08 M 0.31 141.87 C 4.55 135.59 11.2 127.73 20.65 118.48 M 0.31 141.87 C 4.66 136.61 9.15 131.43 20.65 118.48 M 0.05 148.27 C 3.57 141.92 7.62 139.96 20.39 124.87 M 0.05 148.27 C 7.65 140.24 15.13 131.79 20.39 124.87 M -0.21 154.67 C 6.62 147.94 12.14 139.44 20.78 130.52 M -0.21 154.67 C 6.8 147.62 13.58 138.71 20.78 130.52 M 0.18 160.31 C 6.09 153.69 12.5 146.7 20.52 136.92 M 0.18 160.31 C 8.58 150.77 15.33 141.55 20.52 136.92 M -0.08 166.71 C 7.96 159.04 14.91 148.25 20.92 142.56 M -0.08 166.71 C 3.39 160.79 8.92 156.59 20.92 142.56 M 0.32 172.35 C 5.08 162.92 12.62 158.5 20.65 148.96 M 0.32 172.35 C 5.8 165.48 11.98 159.48 20.65 148.96 M 0.05 178.75 C 6.28 170.15 13.05 162.33 20.39 155.35 M 0.05 178.75 C 4.95 171.21 10.98 164.59 20.39 155.35 M -0.21 185.15 C 4.69 176.82 14.07 170.44 20.79 161 M -0.21 185.15 C 5.21 179.54 10.48 171.47 20.79 161 M 0.19 190.79 C 5.21 186.06 10.12 176.03 20.53 167.4 M 0.19 190.79 C 7.83 181.97 15.92 173.4 20.53 167.4 M -0.07 197.19 C 6.78 188.48 15.24 181.12 20.92 173.04 M -0.07 197.19 C 8.61 188.49 16.46 178.08 20.92 173.04 M 0.32 202.83 C 6.05 193.96 13.78 187.92 20.66 179.44 M 0.32 202.83 C 5.55 197.81 9.42 191.57 20.66 179.44 M 0.06 209.23 C 6.14 202.64 11.13 193.13 20.4 185.83 M 0.06 209.23 C 8.2 201.23 14.57 191.73 20.4 185.83 M -0.2 215.63 C 7.59 209.34 12.81 201.92 20.79 191.48 M -0.2 215.63 C 6.49 208.53 13.43 200.73 20.79 191.48 M 0.19 221.27 C 8.54 212.21 15.43 200.92 20.53 197.87 M 0.19 221.27 C 6.78 213.86 13.77 204.79 20.53 197.87 M -0.07 227.67 C 4.54 222.08 10.59 217.19 20.93 203.52 M -0.07 227.67 C 8.21 217.26 16.99 208.3 20.93 203.52 M 0.33 233.31 C 5.88 225.24 14.45 221.12 20.66 209.92 M 0.33 233.31 C 5.74 225.54 13.5 219.48 20.66 209.92 M 0.06 239.71 C 6.58 230.82 13.28 221.34 20.4 216.31 M 0.06 239.71 C 5.41 232.23 11.23 225.71 20.4 216.31 M -0.2 246.11 C 5.94 240.25 14.19 231.14 20.8 221.96 M -0.2 246.11 C 5.67 239.5 11.58 232.75 20.8 221.96 M 0.2 251.75 C 9.45 242.39 16.42 232.14 20.54 228.35 M 0.2 251.75 C 4.34 246.07 10.47 241.73 20.54 228.35 M -0.06 258.15 C 6.53 251.78 9.19 247.43 20.93 234 M -0.06 258.15 C 5.67 250.36 12.57 244.61 20.93 234 M -0.33 264.55 C 5.97 257.49 7.61 253.74 20.67 240.4 M -0.33 264.55 C 6.35 257.46 12.2 249.66 20.67 240.4 M 0.07 270.19 C 2.72 266.36 11.18 261.2 20.41 246.79 M 0.07 270.19 C 4.56 265.11 9.76 258.91 20.41 246.79 M -0.19 276.59 C 8.29 267.7 13.04 260.31 20.8 252.44 M -0.19 276.59 C 8.93 266.77 16.46 258.65 20.8 252.44 M 0.2 282.23 C 8.01 274.2 13.6 268.86 20.54 258.83 M 0.2 282.23 C 6.27 275.85 10.81 270.59 20.54 258.83 M -0.06 288.63 C 9.95 277.11 15.45 269.82 20.93 264.48 M -0.06 288.63 C 5.36 283.21 10.09 276.12 20.93 264.48 M -0.32 295.03 C 6.08 287.82 15.14 278.13 20.67 270.87 M -0.32 295.03 C 6.14 286.8 13.13 278.88 20.67 270.87 M 0.07 300.67 C 9.38 293.86 13.64 284.11 20.41 277.27 M 0.07 300.67 C 5.76 293.28 11.84 287.75 20.41 277.27 M -0.19 307.07 C 5.84 300.75 10.36 295.38 20.81 282.92 M -0.19 307.07 C 5.38 301.72 10.14 294.98 20.81 282.92 M 0.21 312.71 C 4.79 307.33 10.17 302.23 20.55 289.31 M 0.21 312.71 C 5.74 304.82 12.68 297.52 20.55 289.31 M -0.05 319.11 C 8.12 311.47 13.97 306.38 20.94 294.96 M -0.05 319.11 C 4.17 312.64 10.01 307.18 20.94 294.96 M -0.32 325.5 C 6.54 320.02 10.52 312.6 20.68 301.35 M -0.32 325.5 C 8.67 315.27 15.99 307.65 20.68 301.35 M 0.08 331.15 C 4.09 327.95 9.52 321.38 20.42 307.75 M 0.08 331.15 C 4.09 326.23 10.32 319.51 20.42 307.75 M -0.18 337.55 C 5.86 331.21 7.74 327.68 20.81 313.39 M -0.18 337.55 C 4.53 333.45 7.72 327.04 20.81 313.39 M 0.21 343.19 C 7.6 335.18 15.35 325.69 20.55 319.79 M 0.21 343.19 C 5.93 336.84 13.29 329.51 20.55 319.79 M -0.05 349.59 C 5.3 342.97 14.37 332.76 20.94 325.44 M -0.05 349.59 C 7.22 342.16 13.88 333.59 20.94 325.44 M 1.66 353.72 C 10.93 344.36 18.08 335.72 20.68 331.83 M 1.66 353.72 C 4.79 349.41 9.28 344.65 20.68 331.83 M 7.3 353.33 C 10.79 349.63 18.15 343.4 20.42 338.23 M 7.3 353.33 C 12.03 348.7 15.27 343.83 20.42 338.23 M 12.29 353.69 C 13.4 351.11 17.18 348.22 20.82 343.87 M 12.29 353.69 C 15.73 350.36 18.7 346.53 20.82 343.87 M 17.93 353.29 C 18.96 352.23 19.51 351.34 20.55 350.27 M 17.93 353.29 C 18.81 352.25 19.66 351.26 20.55 350.27" fill="none" stroke="#ff7777" stroke-width="0.5" stroke-linejoin="round" stroke-linecap="round" stroke-miterlimit="10" pointer-events="all"/>
    <rect x="20" y="2" width="20" height="350" fill="none" stroke="none" pointer-events="all"/>
    <path d="M 19.68 2.36 C 19.68 2.36 19.68 2.36 19.68 2.36 M 19.68 2.36 C 19.68 2.36 19.68 2.36 19.68 2.36 M 20.08 8.01 C 21.36 6.81 23.18 4.99 25.33 1.97 M 20.08 8.01 C 21.91 6.23 23.23 4.12 25.33 1.97 M 19.82 14.4 C 22.04 9.49 27.72 5.55 30.31 2.33 M 19.82 14.4 C 23.86 9.37 27 6.18 30.31 2.33 M 20.21 20.05 C 24.67 11.94 30.3 5.4 35.96 1.93 M 20.21 20.05 C 25.74 15.06 29.33 9.45 35.96 1.93 M 19.95 26.44 C 27.94 16.46 35.17 8.46 40.95 2.29 M 19.95 26.44 C 28.35 17.64 34.06 8.7 40.95 2.29 M 19.69 32.84 C 25.19 22.76 34.59 16.28 40.68 8.69 M 19.69 32.84 C 27.08 23.29 34.08 14.78 40.68 8.69 M 20.08 38.49 C 26.76 34.23 30.41 26.89 40.42 15.09 M 20.08 38.49 C 25.88 31.99 31.16 25.7 40.42 15.09 M 19.82 44.88 C 25.79 36.38 33.11 29.4 40.82 20.73 M 19.82 44.88 C 25.88 39.57 29.13 32.52 40.82 20.73 M 20.22 50.53 C 26.25 47 28.74 41.44 40.56 27.13 M 20.22 50.53 C 27.32 43.61 33.55 36.4 40.56 27.13 M 19.96 56.92 C 23.75 50.25 29.27 45.01 40.95 32.77 M 19.96 56.92 C 27.15 47.9 34.3 40.02 40.95 32.77 M 19.69 63.32 C 26.21 54.31 37.37 44.53 40.69 39.17 M 19.69 63.32 C 26.95 54.78 35.2 45.45 40.69 39.17 M 20.09 68.96 C 27.83 60.35 35.82 50.94 40.43 45.57 M 20.09 68.96 C 28.13 59.85 35.42 50.91 40.43 45.57 M 19.83 75.36 C 23.85 67.41 30.82 60.44 40.82 51.21 M 19.83 75.36 C 25.22 69.31 29.02 64.44 40.82 51.21 M 20.22 81.01 C 23.01 73.81 31.47 70.48 40.56 57.61 M 20.22 81.01 C 27.61 71.23 35.39 62.21 40.56 57.61 M 19.96 87.4 C 24.74 79.74 33.79 70.93 40.95 63.25 M 19.96 87.4 C 27.33 78.44 35.4 69.57 40.95 63.25 M 19.7 93.8 C 27.03 83.38 35.35 74.36 40.69 69.65 M 19.7 93.8 C 26.24 85.94 34.84 77.57 40.69 69.65 M 20.09 99.44 C 25.91 94.95 28.15 88.32 40.43 76.05 M 20.09 99.44 C 27.66 89.64 36.01 81.93 40.43 76.05 M 19.83 105.84 C 25.44 99.19 35.09 88.74 40.83 81.69 M 19.83 105.84 C 24.49 100.18 30.07 95.14 40.83 81.69 M 20.23 111.48 C 26.34 103.09 35.16 96.27 40.56 88.09 M 20.23 111.48 C 26.76 102.65 33.32 96.71 40.56 88.09 M 19.97 117.88 C 25.63 110.46 36.79 100.21 40.96 93.73 M 19.97 117.88 C 27.08 109.91 33.1 104.36 40.96 93.73 M 19.7 124.28 C 23.89 119.61 28.91 111.87 40.7 100.13 M 19.7 124.28 C 24.67 118.19 29.99 113.66 40.7 100.13 M 20.1 129.92 C 26.2 120.02 34.69 112.92 40.44 106.53 M 20.1 129.92 C 25.25 124.79 27.86 118.91 40.44 106.53 M 19.84 136.32 C 23.38 130.17 31 123.83 40.83 112.17 M 19.84 136.32 C 26.23 128.67 32.86 122.11 40.83 112.17 M 20.23 141.96 C 26.86 135.99 32.5 127.77 40.57 118.57 M 20.23 141.96 C 25.9 134.82 33.42 127.11 40.57 118.57 M 19.97 148.36 C 23.77 141.59 28.08 136.32 40.96 124.21 M 19.97 148.36 C 26.36 139.68 34.38 132.37 40.96 124.21 M 19.71 154.76 C 23.3 149.48 30.98 143.27 40.7 130.61 M 19.71 154.76 C 28.54 144.76 35.26 136.13 40.7 130.61 M 20.1 160.4 C 25.36 153.32 28.45 149.65 40.44 137.01 M 20.1 160.4 C 26.33 152.11 34.6 144.13 40.44 137.01 M 19.84 166.8 C 28.45 155.67 35.61 146.43 40.84 142.65 M 19.84 166.8 C 24.2 161.13 30.17 156.93 40.84 142.65 M 20.24 172.44 C 29.27 162.82 36.38 154.38 40.57 149.05 M 20.24 172.44 C 28.33 163.19 34.5 155.44 40.57 149.05 M 19.98 178.84 C 27.86 171.41 34.07 161.8 40.97 154.69 M 19.98 178.84 C 26.63 172.51 31.36 164.85 40.97 154.69 M 19.71 185.24 C 24.02 178.53 31.61 173.56 40.71 161.09 M 19.71 185.24 C 27.05 176.26 34.59 167.35 40.71 161.09 M 20.11 190.88 C 25.81 184.41 28.5 179.72 40.45 167.49 M 20.11 190.88 C 27.18 182.59 32.92 175.32 40.45 167.49 M 19.85 197.28 C 28.29 188.72 34.64 181.18 40.84 173.13 M 19.85 197.28 C 27.28 188.89 34.31 180.61 40.84 173.13 M 20.24 202.92 C 25.24 196.63 29.82 194.18 40.58 179.53 M 20.24 202.92 C 24.51 196.14 29.55 190.85 40.58 179.53 M 19.98 209.32 C 28.38 202.49 34.24 193.57 40.97 185.17 M 19.98 209.32 C 25.66 202.52 33.13 193.34 40.97 185.17 M 19.72 215.72 C 24.62 210.48 27.47 205.87 40.71 191.57 M 19.72 215.72 C 25.43 208.19 32.14 201.31 40.71 191.57 M 20.11 221.36 C 26.51 217.01 29.7 211.35 40.45 197.97 M 20.11 221.36 C 24.77 215.79 29.44 210.16 40.45 197.97 M 19.85 227.76 C 27.15 217.87 33.2 210.39 40.85 203.61 M 19.85 227.76 C 25.54 220.82 30.31 215.02 40.85 203.61 M 20.25 233.4 C 26.92 227.15 31.42 219.45 40.58 210.01 M 20.25 233.4 C 25.85 227.64 32.34 221.11 40.58 210.01 M 19.98 239.8 C 24.26 234.34 30.46 229.22 40.98 215.65 M 19.98 239.8 C 25.3 233.87 31.63 225.94 40.98 215.65 M 19.72 246.2 C 28.04 239.67 34.15 229.3 40.72 222.05 M 19.72 246.2 C 23.68 241.21 29.25 235.04 40.72 222.05 M 20.12 251.84 C 28.19 244.07 37.67 231.49 40.46 228.45 M 20.12 251.84 C 25.24 245.97 31.63 239.64 40.46 228.45 M 19.86 258.24 C 23.7 253.79 28.08 245.1 40.85 234.09 M 19.86 258.24 C 26.36 250.61 32.28 245.14 40.85 234.09 M 20.25 263.88 C 23.32 258.18 28.64 253.51 40.59 240.49 M 20.25 263.88 C 23.65 259.51 28.63 254.02 40.59 240.49 M 19.99 270.28 C 30.15 261.87 37.54 250.66 40.98 246.13 M 19.99 270.28 C 28.66 262.03 35.94 251.65 40.98 246.13 M 19.73 276.68 C 26.17 270.13 27.13 264.78 40.72 252.53 M 19.73 276.68 C 26.69 269.3 32.95 260.73 40.72 252.53 M 20.12 282.32 C 24.05 274.35 30.62 271.42 40.46 258.93 M 20.12 282.32 C 25.02 275.27 31.28 268.07 40.46 258.93 M 19.86 288.72 C 27.19 283.61 29.97 275.59 40.86 264.57 M 19.86 288.72 C 27.06 280.91 33.23 274.02 40.86 264.57 M 20.26 294.36 C 24.29 286.5 33.65 278.5 40.59 270.97 M 20.26 294.36 C 28.08 287.04 34.03 278.57 40.59 270.97 M 19.99 300.76 C 24.23 294.49 31.27 290.77 40.99 276.61 M 19.99 300.76 C 25.08 295.27 30.9 289.04 40.99 276.61 M 19.73 307.16 C 24.14 299.82 31.02 295.84 40.73 283.01 M 19.73 307.16 C 27.22 298.31 35.31 290.67 40.73 283.01 M 20.13 312.8 C 23.65 307.14 29.16 303.41 40.47 289.4 M 20.13 312.8 C 25.65 304.5 34.1 297.72 40.47 289.4 M 19.87 319.2 C 27.21 309.6 36.11 300.82 40.86 295.05 M 19.87 319.2 C 24.43 314.43 29.76 309.03 40.86 295.05 M 20.26 324.84 C 24.8 320.13 28.73 315.01 40.6 301.45 M 20.26 324.84 C 27.73 316.43 33.69 310.23 40.6 301.45 M 20 331.24 C 25.02 325.84 34.71 315.17 40.99 307.09 M 20 331.24 C 27 324.55 31.91 317.97 40.99 307.09 M 19.74 337.64 C 27.04 330.42 34.44 322.04 40.73 313.49 M 19.74 337.64 C 26.18 329.26 34.73 321.97 40.73 313.49 M 20.13 343.28 C 24.27 337.29 30.64 334.75 40.47 319.88 M 20.13 343.28 C 26.51 336.77 32.92 328.6 40.47 319.88 M 19.87 349.68 C 26.23 344.27 32.21 338.22 40.87 325.53 M 19.87 349.68 C 24.54 344.6 30.69 338.7 40.87 325.53 M 21.58 353.81 C 26.99 345.55 35.58 339.5 40.6 331.92 M 21.58 353.81 C 24.48 350.36 29.9 344.31 40.6 331.92 M 27.22 353.42 C 29.09 348.41 33.73 345.64 41 337.57 M 27.22 353.42 C 31.65 347.97 37.19 342.02 41 337.57 M 32.21 353.78 C 35.41 351.2 37.62 347.18 40.74 343.97 M 32.21 353.78 C 35.03 351.38 37.19 348.33 40.74 343.97 M 37.85 353.38 C 38.78 351.96 39.84 351.07 40.48 350.36 M 37.85 353.38 C 38.67 352.4 39.71 351.64 40.48 350.36" fill="none" stroke="#ff9555" stroke-width="0.5" stroke-linejoin="round" stroke-linecap="round" stroke-miterlimit="10" pointer-events="all"/>
    <rect x="40" y="2" width="20" height="350" fill="none" stroke="none" pointer-events="all"/>
    <path d="M 40.26 1.7 C 40.26 1.7 40.26 1.7 40.26 1.7 M 40.26 1.7 C 40.26 1.7 40.26 1.7 40.26 1.7 M 40 8.1 C 42.24 5.75 43.34 4.46 45.25 2.06 M 40 8.1 C 41.35 6.53 42.88 4.77 45.25 2.06 M 39.74 14.49 C 40.65 11.3 43.09 7.6 50.89 1.66 M 39.74 14.49 C 43.32 10.76 47.22 5.23 50.89 1.66 M 40.13 20.14 C 44.77 13.09 52.45 5.8 55.88 2.02 M 40.13 20.14 C 45.08 14.17 49.92 10.23 55.88 2.02 M 39.87 26.54 C 43.89 21.51 49.02 15.82 60.87 2.38 M 39.87 26.54 C 45.12 20.38 50.67 13.37 60.87 2.38 M 40.27 32.18 C 45.74 25.65 49.66 19.84 60.6 8.78 M 40.27 32.18 C 48.03 24.32 56.48 14.92 60.6 8.78 M 40 38.58 C 44.46 32.36 51.69 26.75 61 14.43 M 40 38.58 C 45.57 30.73 51.11 25.32 61 14.43 M 39.74 44.97 C 44.16 36.26 53.49 31.77 60.74 20.82 M 39.74 44.97 C 45.84 38.91 49.59 34.13 60.74 20.82 M 40.14 50.62 C 44.33 45.02 51.88 38.79 60.48 27.22 M 40.14 50.62 C 47 41.15 55.83 32.45 60.48 27.22 M 39.88 57.02 C 48.85 49.09 52.91 42.37 60.87 32.86 M 39.88 57.02 C 47.78 47.66 55.61 38.41 60.87 32.86 M 40.27 62.66 C 46.38 56.22 46.78 54.92 60.61 39.26 M 40.27 62.66 C 44.89 58.01 49.32 53.01 60.61 39.26 M 40.01 69.06 C 47.1 63.8 49.32 57.97 61 44.91 M 40.01 69.06 C 46.25 61.92 51.36 56.13 61 44.91 M 39.75 75.45 C 44.24 70.79 49.08 65.09 60.74 51.3 M 39.75 75.45 C 48.8 65.68 57.14 55.19 60.74 51.3 M 40.14 81.1 C 46.32 73.91 51.17 70.99 60.48 57.7 M 40.14 81.1 C 45.68 74.06 51.13 68.53 60.48 57.7 M 39.88 87.49 C 48.13 79.55 52.9 72.5 60.88 63.34 M 39.88 87.49 C 47.22 80.15 53.67 70.74 60.88 63.34 M 40.28 93.14 C 46.11 85.16 50.52 79.18 60.61 69.74 M 40.28 93.14 C 47.46 85.09 55.22 75.26 60.61 69.74 M 40.01 99.54 C 44.96 92.89 50.1 88.32 61.01 75.38 M 40.01 99.54 C 44.94 94.97 49.63 88.33 61.01 75.38 M 39.75 105.93 C 46.72 98.17 50.78 92.86 60.75 81.78 M 39.75 105.93 C 46.8 98.28 54.37 88.67 60.75 81.78 M 40.15 111.58 C 46.03 105.96 50.44 100.57 60.49 88.18 M 40.15 111.58 C 46.59 104.02 52.19 98.42 60.49 88.18 M 39.89 117.97 C 46.02 108.88 55.79 98.17 60.88 93.82 M 39.89 117.97 C 48.9 108.95 55.93 99 60.88 93.82 M 40.28 123.62 C 45.83 119.61 47.87 111.33 60.62 100.22 M 40.28 123.62 C 47.05 115.24 53.85 107.64 60.62 100.22 M 40.02 130.02 C 46.55 121.8 53.18 115.74 60.36 106.62 M 40.02 130.02 C 45.53 124.66 50.88 117.17 60.36 106.62 M 39.76 136.41 C 48.93 126.49 55.46 117.01 60.75 112.26 M 39.76 136.41 C 48.12 127.83 54.91 118.44 60.75 112.26 M 40.15 142.06 C 47.79 133.64 51.43 128.99 60.49 118.66 M 40.15 142.06 C 48.27 132.52 55.89 123.61 60.49 118.66 M 39.89 148.45 C 47.79 142.78 50.38 134.78 60.88 124.3 M 39.89 148.45 C 47 139.69 55.41 129.68 60.88 124.3 M 40.29 154.1 C 46.41 148.08 50.38 139.33 60.62 130.7 M 40.29 154.1 C 44.49 148.28 51.2 142.45 60.62 130.7 M 40.02 160.49 C 45.19 153.05 54.19 145.72 60.36 137.1 M 40.02 160.49 C 46.99 151.03 54.92 143.09 60.36 137.1 M 39.76 166.89 C 46.93 159.42 53.34 150.33 60.76 142.74 M 39.76 166.89 C 45.93 158.31 53.16 151.87 60.76 142.74 M 40.16 172.54 C 47.21 165.79 48.77 159.78 60.5 149.14 M 40.16 172.54 C 46.7 164.21 53.75 157 60.5 149.14 M 39.9 178.93 C 45.52 169.84 53.48 164.37 60.89 154.78 M 39.9 178.93 C 45.84 172.48 51.64 163.81 60.89 154.78 M 40.29 184.58 C 47.35 176.92 56.13 168.01 60.63 161.18 M 40.29 184.58 C 45.49 179.88 49.16 174 60.63 161.18 M 40.03 190.97 C 44.07 185.92 49.41 179.66 60.37 167.58 M 40.03 190.97 C 48.92 182.54 55.58 172.85 60.37 167.58 M 39.77 197.37 C 44.41 192.39 48.74 184.24 60.76 173.22 M 39.77 197.37 C 45.74 190.1 50.87 183.97 60.76 173.22 M 40.16 203.01 C 44.98 197.19 51.73 189.09 60.5 179.62 M 40.16 203.01 C 46.1 196.18 51.25 189.95 60.5 179.62 M 39.9 209.41 C 46.7 202.1 53.56 191.07 60.89 185.26 M 39.9 209.41 C 44.62 203.37 51.59 196.3 60.89 185.26 M 40.3 215.06 C 44.34 211.29 46.93 203.81 60.63 191.66 M 40.3 215.06 C 44.11 209.2 49.25 204.18 60.63 191.66 M 40.03 221.45 C 47.67 212.66 55.53 204.89 60.37 198.06 M 40.03 221.45 C 47.98 212.03 54.25 203.48 60.37 198.06 M 39.77 227.85 C 45.29 222.56 52.27 215.25 60.77 203.7 M 39.77 227.85 C 46.35 221.42 52.12 213.62 60.77 203.7 M 40.17 233.49 C 44.93 227.64 53.58 216.67 60.5 210.1 M 40.17 233.49 C 47.08 225.31 54.26 216.98 60.5 210.1 M 39.91 239.89 C 47.24 231.98 55.72 220.86 60.9 215.74 M 39.91 239.89 C 46.29 233.52 52.76 225.95 60.9 215.74 M 40.3 245.54 C 45.78 235.41 52.82 228.73 60.64 222.14 M 40.3 245.54 C 48.89 236.76 55.33 228.83 60.64 222.14 M 40.04 251.93 C 43.19 244.49 49.9 239.36 60.38 228.54 M 40.04 251.93 C 45.71 244.91 53.78 237.18 60.38 228.54 M 39.78 258.33 C 45.35 249.14 51.48 244.19 60.77 234.18 M 39.78 258.33 C 44.54 252.67 50.4 247.95 60.77 234.18 M 40.17 263.97 C 49.46 256.16 54.9 245.73 60.51 240.58 M 40.17 263.97 C 47.79 254.33 56.49 245.66 60.51 240.58 M 39.91 270.37 C 46.55 259.97 56.19 250.52 60.9 246.22 M 39.91 270.37 C 45.43 263.42 51.46 256.78 60.9 246.22 M 40.3 276.01 C 46.47 270.79 52.8 264.5 60.64 252.62 M 40.3 276.01 C 46.93 268.16 55.73 259.43 60.64 252.62 M 40.04 282.41 C 45.21 278.39 51.67 270.7 60.38 259.02 M 40.04 282.41 C 46.06 274.88 52.46 268.24 60.38 259.02 M 39.78 288.81 C 47.51 282.56 54.34 275.37 60.78 264.66 M 39.78 288.81 C 45.07 283.51 49.2 277.58 60.78 264.66 M 40.18 294.45 C 46.44 285.89 53.89 278.36 60.51 271.06 M 40.18 294.45 C 45.28 289.6 49.25 283.69 60.51 271.06 M 39.92 300.85 C 46.85 293.96 49.48 286.59 60.91 276.7 M 39.92 300.85 C 47.14 293.24 52.22 285.51 60.91 276.7 M 40.31 306.49 C 44.97 301.56 48.37 296.11 60.65 283.1 M 40.31 306.49 C 45.42 299.55 51.54 295.02 60.65 283.1 M 40.05 312.89 C 45.44 306.81 50.58 300.54 60.39 289.5 M 40.05 312.89 C 46.91 305.56 53.87 296.6 60.39 289.5 M 39.79 319.29 C 46.07 312.65 53.08 301.19 60.78 295.14 M 39.79 319.29 C 45.68 310.75 53.17 303.45 60.78 295.14 M 40.18 324.93 C 46.13 320.09 51.05 314.59 60.52 301.54 M 40.18 324.93 C 44.21 320.73 48.78 314.32 60.52 301.54 M 39.92 331.33 C 43.58 324.06 50.54 319.82 60.91 307.18 M 39.92 331.33 C 47.16 323.1 54.23 313.84 60.91 307.18 M 40.31 336.97 C 47.82 327.44 55.11 320.74 60.65 313.58 M 40.31 336.97 C 46.78 328.7 53.99 321.95 60.65 313.58 M 40.05 343.37 C 45.56 335.86 51.51 333.02 60.39 319.98 M 40.05 343.37 C 47.32 335.8 54.45 327.07 60.39 319.98 M 39.79 349.77 C 43.39 345.93 48.06 337.56 60.79 325.62 M 39.79 349.77 C 47.22 342.32 54.52 334.68 60.79 325.62 M 41.5 353.9 C 47.87 346.69 55.12 336.56 60.52 332.02 M 41.5 353.9 C 47.96 346.14 56.91 336.43 60.52 332.02 M 47.14 353.51 C 51.58 348.56 57.45 340.38 60.92 337.66 M 47.14 353.51 C 49.54 350.93 53.57 346.76 60.92 337.66 M 52.13 353.87 C 56.67 349.45 57.82 347.1 60.66 344.06 M 52.13 353.87 C 54.05 350.97 56.66 348.99 60.66 344.06 M 57.77 353.47 C 58.26 352.21 58.89 352 60.4 350.46 M 57.77 353.47 C 58.43 352.93 59.01 352.25 60.4 350.46" fill="none" stroke="#ffb333" stroke-width="0.5" stroke-linejoin="round" stroke-linecap="round" stroke-miterlimit="10" pointer-events="all"/>
    <rect x="60" y="2" width="20" height="350" fill="none" stroke="none" pointer-events="all"/>
    <path d="M 60.18 1.79 C 60.18 1.79 60.18 1.79 60.18 1.79 M 60.18 1.79 C 60.18 1.79 60.18 1.79 60.18 1.79 M 59.92 8.19 C 60.6 7.39 63.12 4.63 65.17 2.15 M 59.92 8.19 C 61.59 6.92 62.54 5.52 65.17 2.15 M 60.32 13.83 C 61.91 10.11 66.13 7.86 70.81 1.76 M 60.32 13.83 C 63.26 10.44 67.46 6.44 70.81 1.76 M 60.05 20.23 C 64.87 14.55 70.6 6.51 75.8 2.12 M 60.05 20.23 C 64.06 15.27 68.14 11 75.8 2.12 M 59.79 26.63 C 64.51 18.16 71.75 13.94 80.79 2.48 M 59.79 26.63 C 68.08 18.3 75.67 8.39 80.79 2.48 M 60.19 32.27 C 69.92 24.37 76.65 14.28 80.52 8.87 M 60.19 32.27 C 64.95 28.11 69.03 22.22 80.52 8.87 M 59.93 38.67 C 66.47 34.27 69.11 26.59 80.92 14.52 M 59.93 38.67 C 66.6 31.69 72.23 25.35 80.92 14.52 M 60.32 44.31 C 67.5 40 70.67 30.2 80.66 20.92 M 60.32 44.31 C 65.83 39.67 69.94 33.33 80.66 20.92 M 60.06 50.71 C 66.4 43.05 71.03 36.15 80.4 27.31 M 60.06 50.71 C 65.08 45.36 70.44 37.86 80.4 27.31 M 59.8 57.11 C 65.25 53.17 67.68 45.8 80.79 32.96 M 59.8 57.11 C 64.22 52.25 68.53 46.46 80.79 32.96 M 60.19 62.75 C 66.21 57.91 68.18 52.12 80.53 39.35 M 60.19 62.75 C 66.47 57.05 71.39 49.42 80.53 39.35 M 59.93 69.15 C 65.86 58.67 74.26 51.85 80.92 45 M 59.93 69.15 C 67.84 59.01 76.73 49.83 80.92 45 M 60.32 74.79 C 69.27 64.84 75.94 59.84 80.66 51.39 M 60.32 74.79 C 68.6 66.84 75.04 57.83 80.66 51.39 M 60.06 81.19 C 65.63 77.6 70.87 71.1 80.4 57.79 M 60.06 81.19 C 67.35 72.21 74.53 65.49 80.4 57.79 M 59.8 87.59 C 67.53 78.93 76.02 69.65 80.8 63.44 M 59.8 87.59 C 65.12 80.28 71.94 74.33 80.8 63.44 M 60.2 93.23 C 64.79 87.82 69.53 84.6 80.53 69.83 M 60.2 93.23 C 63.71 87.82 68.79 82.96 80.53 69.83 M 59.93 99.63 C 68.04 89.77 76.13 78.61 80.93 75.48 M 59.93 99.63 C 64.66 94.18 71.62 88.07 80.93 75.48 M 59.67 106.02 C 63.99 100.73 70.46 92.55 80.67 81.87 M 59.67 106.02 C 65.39 99.63 70.75 94.27 80.67 81.87 M 60.07 111.67 C 66.25 104.56 70.32 99.93 80.41 88.27 M 60.07 111.67 C 64.9 104.99 69.54 99.73 80.41 88.27 M 59.81 118.07 C 66.41 106.88 74.8 99.7 80.8 93.91 M 59.81 118.07 C 66.52 111.25 72.36 103.72 80.8 93.91 M 60.2 123.71 C 63.72 116.19 70.94 111.21 80.54 100.31 M 60.2 123.71 C 64.4 117.54 70.76 111.39 80.54 100.31 M 59.94 130.11 C 67.07 122.97 72.01 117.76 80.93 105.96 M 59.94 130.11 C 66 122.29 72.31 114.96 80.93 105.96 M 59.68 136.5 C 66.75 127.21 76 119.43 80.67 112.35 M 59.68 136.5 C 64.3 129.82 69.05 124.43 80.67 112.35 M 60.07 142.15 C 68.24 135.7 73.9 126.62 80.41 118.75 M 60.07 142.15 C 64.57 136.89 70.23 131.47 80.41 118.75 M 59.81 148.55 C 68.3 139.97 73.16 129.24 80.81 124.39 M 59.81 148.55 C 65.44 142.12 70.04 138.24 80.81 124.39 M 60.21 154.19 C 65.02 147.65 73.45 140.19 80.54 130.79 M 60.21 154.19 C 66.56 145.58 73.58 137.58 80.54 130.79 M 59.94 160.59 C 65.59 153.28 72.59 146.77 80.94 136.44 M 59.94 160.59 C 67.91 151.68 75.74 143.49 80.94 136.44 M 59.68 166.98 C 64.92 159.18 74.59 150.23 80.68 142.83 M 59.68 166.98 C 63.47 160.32 69.75 156.47 80.68 142.83 M 60.08 172.63 C 65.69 164.49 73.77 156.22 80.42 149.23 M 60.08 172.63 C 65.55 165.23 71.47 160.57 80.42 149.23 M 59.82 179.02 C 67.18 172.28 72.89 166.95 80.81 154.87 M 59.82 179.02 C 65.06 172.46 71.91 164.78 80.81 154.87 M 60.21 184.67 C 66.14 180.13 68.2 175.76 80.55 161.27 M 60.21 184.67 C 65.58 177.3 71.69 171.49 80.55 161.27 M 59.95 191.07 C 67.12 182.45 75.45 173.65 80.94 166.91 M 59.95 191.07 C 64.27 184.57 69.94 178.97 80.94 166.91 M 59.69 197.46 C 64.72 190.81 75.24 181.22 80.68 173.31 M 59.69 197.46 C 64.21 191.31 69.42 187.32 80.68 173.31 M 60.08 203.11 C 64.65 198.03 69.51 192.95 80.42 179.71 M 60.08 203.11 C 66.15 196.22 73.43 189.05 80.42 179.71 M 59.82 209.5 C 69.51 201.71 73.36 192.58 80.82 185.35 M 59.82 209.5 C 64.07 204.22 68.53 199.26 80.82 185.35 M 60.22 215.15 C 64.01 209.12 70.47 202.6 80.55 191.75 M 60.22 215.15 C 68.39 206.07 74.21 198.02 80.55 191.75 M 59.95 221.55 C 68.99 212.31 73.68 202.84 80.95 197.39 M 59.95 221.55 C 65.79 215.12 71.79 206.11 80.95 197.39 M 59.69 227.94 C 63.42 223.26 71.34 216.11 80.69 203.79 M 59.69 227.94 C 66.69 219.59 73.45 211.8 80.69 203.79 M 60.09 233.59 C 66.93 224.14 75.75 217.89 80.43 210.19 M 60.09 233.59 C 68.3 224.58 76.18 214.44 80.43 210.19 M 59.83 239.98 C 66.03 230.86 76.57 222.57 80.82 215.83 M 59.83 239.98 C 65.75 233.59 72.36 226.37 80.82 215.83 M 60.22 245.63 C 67.07 235.65 75.26 228.44 80.56 222.23 M 60.22 245.63 C 67.07 237.56 72.45 230.38 80.56 222.23 M 59.96 252.02 C 65.98 244.42 70.16 237.85 80.95 227.87 M 59.96 252.02 C 68.42 243.56 76.43 234.15 80.95 227.87 M 59.7 258.42 C 63.28 253.74 66.97 249.35 80.69 234.27 M 59.7 258.42 C 66.92 249.9 74.91 241.09 80.69 234.27 M 60.09 264.07 C 67.99 254.41 73.49 246.91 80.43 240.67 M 60.09 264.07 C 67.39 255.83 73.74 246.66 80.43 240.67 M 59.83 270.46 C 66.95 262.06 74.84 254.37 80.82 246.31 M 59.83 270.46 C 68.89 261.56 75.86 251.82 80.82 246.31 M 60.23 276.11 C 65.78 268.46 73.61 261.07 80.56 252.71 M 60.23 276.11 C 68.27 267.95 75.8 258.8 80.56 252.71 M 59.96 282.5 C 66.5 277.85 69.01 273.23 80.96 258.35 M 59.96 282.5 C 67.31 273.84 74.07 267.51 80.96 258.35 M 59.7 288.9 C 67.35 281.94 74.23 271.57 80.7 264.75 M 59.7 288.9 C 66.81 280.86 75.08 271.06 80.7 264.75 M 60.1 294.54 C 64.99 289.96 70.46 283.59 80.43 271.15 M 60.1 294.54 C 67 287.07 73.07 279.05 80.43 271.15 M 59.84 300.94 C 65.46 293.42 71.69 286.41 80.83 276.79 M 59.84 300.94 C 66.71 291.63 75.06 284.41 80.83 276.79 M 60.23 306.59 C 65.31 300.29 69.38 297.18 80.57 283.19 M 60.23 306.59 C 66.79 297.01 75.23 288.65 80.57 283.19 M 59.97 312.98 C 67.01 306.22 76.01 297.13 80.96 288.83 M 59.97 312.98 C 66.4 304.77 74.09 297.37 80.96 288.83 M 59.71 319.38 C 64.93 312.13 74.04 305.98 80.7 295.23 M 59.71 319.38 C 64.74 314.32 68.17 307.96 80.7 295.23 M 60.1 325.02 C 63.45 320.05 69.36 314.16 80.44 301.63 M 60.1 325.02 C 66.76 318.35 71.99 311.04 80.44 301.63 M 59.84 331.42 C 66.82 321.86 75.26 311.23 80.83 307.27 M 59.84 331.42 C 63.6 326.47 68.64 321.37 80.83 307.27 M 60.24 337.07 C 64.57 334.04 67.9 325.46 80.57 313.67 M 60.24 337.07 C 66.48 329.04 72.57 322.58 80.57 313.67 M 59.97 343.46 C 67.51 338.22 73.24 330.85 80.97 319.31 M 59.97 343.46 C 67.91 334.96 76 325.4 80.97 319.31 M 59.71 349.86 C 69.22 342.35 76.8 330.83 80.71 325.71 M 59.71 349.86 C 63.71 344.46 69.95 337.89 80.71 325.71 M 62.07 353.24 C 65.89 347.98 67.88 346.31 80.44 332.11 M 62.07 353.24 C 68.05 346.2 76.48 337.5 80.44 332.11 M 67.06 353.6 C 71.01 348.16 75.35 341.75 80.84 337.75 M 67.06 353.6 C 70.5 349 73.78 345.44 80.84 337.75 M 72.71 353.21 C 74.16 351.63 77.47 348.01 80.58 344.15 M 72.71 353.21 C 74.84 351.43 76.47 349.38 80.58 344.15 M 77.69 353.57 C 79.34 352.5 80.23 350.34 80.97 349.79 M 77.69 353.57 C 78.46 352.68 79.78 351.19 80.97 349.79" fill="none" stroke="#ffd111" stroke-width="0.5" stroke-linejoin="round" stroke-linecap="round" stroke-miterlimit="10" pointer-events="all"/>
    <rect x="580" y="2" width="20" height="350" fill="none" stroke="none" pointer-events="all"/>
    <path d="M 580.08 1.9 C 580.08 1.9 580.08 1.9 580.08 1.9 M 580.08 1.9 C 580.08 1.9 580.08 1.9 580.08 1.9 M 579.82 8.3 C 581.59 6.24 583.38 4.01 585.07 2.26 M 579.82 8.3 C 581.01 7.24 582.17 5.39 585.07 2.26 M 580.22 13.95 C 582.55 9.72 588.69 5.51 590.71 1.87 M 580.22 13.95 C 584.1 10.47 587.22 6.06 590.71 1.87 M 579.95 20.34 C 584.59 15.72 592.36 6.93 595.7 2.23 M 579.95 20.34 C 583.02 16.4 586.35 11.8 595.7 2.23 M 579.69 26.74 C 588.63 18.82 593.98 8.08 600.69 2.59 M 579.69 26.74 C 586.82 19.07 592.26 13.09 600.69 2.59 M 580.09 32.38 C 586.01 23.78 595.48 18.1 600.43 8.99 M 580.09 32.38 C 585.45 27.24 589.22 22.18 600.43 8.99 M 579.83 38.78 C 584.46 32.62 590.5 26.87 600.82 14.63 M 579.83 38.78 C 586.1 31.09 591.81 25.83 600.82 14.63 M 580.22 44.42 C 585.89 39.88 591.1 32.52 600.56 21.03 M 580.22 44.42 C 583.77 39.04 588.39 34.96 600.56 21.03 M 579.96 50.82 C 589.16 40.84 595.08 33 600.95 26.67 M 579.96 50.82 C 586.96 43.08 593.12 35.83 600.95 26.67 M 579.7 57.22 C 586.33 52.45 591.3 43.6 600.69 33.07 M 579.7 57.22 C 584.84 51.62 589.82 44.46 600.69 33.07 M 580.09 62.86 C 586.5 55.21 590.03 48.94 600.43 39.47 M 580.09 62.86 C 586.04 54.12 593.44 45.85 600.43 39.47 M 579.83 69.26 C 584.88 62.4 591.28 55.42 600.83 45.11 M 579.83 69.26 C 585.7 61.39 592.17 55.63 600.83 45.11 M 580.23 74.9 C 585.68 68.18 590.26 60.41 600.56 51.51 M 580.23 74.9 C 587.98 66.05 594.78 58.23 600.56 51.51 M 579.96 81.3 C 585.06 77.14 590.84 70.89 600.96 57.15 M 579.96 81.3 C 585.56 74.89 590.55 69.47 600.96 57.15 M 579.7 87.7 C 582.7 83.17 586.71 76.49 600.7 63.55 M 579.7 87.7 C 585 82.02 590.19 75.52 600.7 63.55 M 580.1 93.34 C 587.99 85.42 593.13 80.26 600.44 69.95 M 580.1 93.34 C 584 87.89 588.48 83.32 600.44 69.95 M 579.84 99.74 C 586.9 91.92 593.74 83 600.83 75.59 M 579.84 99.74 C 585.87 92.98 593.12 85.4 600.83 75.59 M 580.23 105.38 C 589.84 98.02 594.66 86.44 600.57 81.99 M 580.23 105.38 C 588.11 97.27 595.23 89.6 600.57 81.99 M 579.97 111.78 C 586.69 102.51 594.66 94.36 600.96 87.63 M 579.97 111.78 C 589.04 101.42 597.05 93.51 600.96 87.63 M 579.71 118.18 C 582.1 113.73 588.9 106.92 600.7 94.03 M 579.71 118.18 C 588.32 108.32 595.17 100.37 600.7 94.03 M 580.1 123.82 C 585.13 116.8 589.53 111.12 600.44 100.43 M 580.1 123.82 C 588.26 114.78 594.25 107.4 600.44 100.43 M 579.84 130.22 C 583.37 124.81 590.44 120.66 600.83 106.07 M 579.84 130.22 C 588.29 122.14 595.38 113.16 600.83 106.07 M 580.24 135.86 C 588.52 127.45 592.27 121.61 600.57 112.47 M 580.24 135.86 C 586.62 128.48 593.33 120.51 600.57 112.47 M 579.97 142.26 C 589.41 133.07 597.34 123.26 600.97 118.11 M 579.97 142.26 C 586.64 136.38 592.58 127.57 600.97 118.11 M 579.71 148.66 C 584.1 142.43 587.04 137.81 600.71 124.51 M 579.71 148.66 C 586.06 141.74 591.05 135.15 600.71 124.51 M 580.11 154.3 C 587.61 146.83 596.5 136.67 600.45 130.91 M 580.11 154.3 C 584.08 149.17 589.34 143.69 600.45 130.91 M 579.85 160.7 C 585.46 152.96 594.45 142.7 600.84 136.55 M 579.85 160.7 C 588.08 150.62 595.57 142.46 600.84 136.55 M 580.24 166.34 C 587.35 158.44 592.08 153.86 600.58 142.95 M 580.24 166.34 C 588.1 159.43 593.42 151.59 600.58 142.95 M 579.98 172.74 C 584.24 167.7 590.95 161.67 600.97 148.59 M 579.98 172.74 C 584.05 168.09 588.99 161.82 600.97 148.59 M 579.72 179.14 C 584.81 174.74 588.27 165.54 600.71 154.99 M 579.72 179.14 C 586.74 172.46 592.65 163.77 600.71 154.99 M 580.11 184.78 C 585.44 179.09 592.86 170.58 600.45 161.39 M 580.11 184.78 C 587.19 176.73 593.74 168.99 600.45 161.39 M 579.85 191.18 C 589.34 184 596.32 173.64 600.84 167.03 M 579.85 191.18 C 586.03 184.5 592.66 178.44 600.84 167.03 M 580.25 196.82 C 584.86 193.91 589.22 187.86 600.58 173.43 M 580.25 196.82 C 587.27 189.23 594.54 180.83 600.58 173.43 M 579.98 203.22 C 584.57 194.37 591.81 187.41 600.98 179.07 M 579.98 203.22 C 587.95 194.02 595.58 185.64 600.98 179.07 M 579.72 209.62 C 587.81 201.76 596.65 190.53 600.72 185.47 M 579.72 209.62 C 587.21 200.27 595.37 190.59 600.72 185.47 M 580.12 215.26 C 583.2 210.96 589.52 205.42 600.45 191.86 M 580.12 215.26 C 586.58 209.64 591.01 201.25 600.45 191.86 M 579.86 221.66 C 586.04 212.69 591.3 205.83 600.85 197.51 M 579.86 221.66 C 584.87 216.51 590.35 209.32 600.85 197.51 M 580.25 227.3 C 590.13 218.68 594.93 207.17 600.59 203.91 M 580.25 227.3 C 587.91 219.72 595.44 210.19 600.59 203.91 M 579.99 233.7 C 585 229.17 590.06 224.15 600.98 209.55 M 579.99 233.7 C 586.07 226.76 590.75 221.31 600.98 209.55 M 579.73 240.1 C 588.8 233.77 593.41 224.3 600.72 215.95 M 579.73 240.1 C 586.72 233.27 593.47 224.4 600.72 215.95 M 580.12 245.74 C 584.28 240.6 589.55 237.52 600.46 222.34 M 580.12 245.74 C 585.69 240.79 590.02 234.36 600.46 222.34 M 579.86 252.14 C 585.07 244.14 594.57 236.31 600.85 227.99 M 579.86 252.14 C 585.19 245.31 590.73 239.28 600.85 227.99 M 580.25 257.78 C 585.38 252.58 590.62 244.15 600.59 234.39 M 580.25 257.78 C 587.05 251.46 592.77 243.64 600.59 234.39 M 579.99 264.18 C 586.24 256.86 592 248.03 600.99 240.03 M 579.99 264.18 C 587.66 257.11 593.87 249.19 600.99 240.03 M 579.73 270.58 C 587.33 260.6 593.46 254.67 600.73 246.43 M 579.73 270.58 C 586.12 262.97 591.85 254.98 600.73 246.43 M 580.13 276.22 C 585.55 269.74 594.87 261.25 600.46 252.82 M 580.13 276.22 C 583.98 270.43 588.19 265.56 600.46 252.82 M 579.87 282.62 C 584.11 277.93 590.49 272.56 600.86 258.47 M 579.87 282.62 C 585.87 275.46 594.78 265.67 600.86 258.47 M 580.26 288.26 C 587.57 280.88 598.23 271.64 600.6 264.86 M 580.26 288.26 C 585.27 280.94 591.31 274.31 600.6 264.86 M 580 294.66 C 587.35 285.1 595.15 278.94 600.99 270.51 M 580 294.66 C 584.31 289.5 588.54 283.87 600.99 270.51 M 579.74 301.06 C 588.06 292.91 593.87 286.25 600.73 276.91 M 579.74 301.06 C 584.06 296.45 589.48 290.57 600.73 276.91 M 580.13 306.7 C 585.63 302.63 590.37 297.88 600.47 283.3 M 580.13 306.7 C 586.55 301.18 591.24 293.66 600.47 283.3 M 579.87 313.1 C 584.15 306.28 588.63 303.43 600.86 288.95 M 579.87 313.1 C 587.65 303.84 595.85 296.25 600.86 288.95 M 580.26 318.74 C 583.77 310.66 590.81 306.03 600.6 295.34 M 580.26 318.74 C 586.41 312.15 593.78 304.14 600.6 295.34 M 580 325.14 C 584.43 319.86 587.48 313.42 601 300.99 M 580 325.14 C 587.55 315.69 597.71 307.2 601 300.99 M 579.74 331.54 C 585.85 324.09 595.56 315.9 600.74 307.39 M 579.74 331.54 C 586.22 324.63 591.42 316.84 600.74 307.39 M 580.14 337.18 C 585.37 331.59 588.81 324.44 600.47 313.78 M 580.14 337.18 C 586.64 331 591.6 322.82 600.47 313.78 M 579.87 343.58 C 585.27 336.78 594.62 329.08 600.87 319.43 M 579.87 343.58 C 588.73 333.98 597.57 323.83 600.87 319.43 M 580.27 349.22 C 586.79 339.13 592.83 333.55 600.61 325.82 M 580.27 349.22 C 586.81 341.28 593.98 333.21 600.61 325.82 M 581.98 353.35 C 586.89 348.99 591.68 343.09 601 331.47 M 581.98 353.35 C 587.94 346.48 596.34 338.22 601 331.47 M 586.96 353.71 C 590.73 347.78 593.54 343.13 600.74 337.86 M 586.96 353.71 C 591.12 348.81 593.66 345.87 600.74 337.86 M 592.61 353.32 C 595.3 350.19 597.63 345.72 600.48 344.26 M 592.61 353.32 C 595.66 349.43 599.29 346.55 600.48 344.26 M 597.59 353.68 C 598.62 352.82 599.96 351.51 600.87 349.91 M 597.59 353.68 C 598.81 352.09 600.22 350.94 600.87 349.91" fill="none" stroke="#ff7777" stroke-width="0.5" stroke-linejoin="round" stroke-linecap="round" stroke-miterlimit="10" pointer-events="all"/>
    <rect x="560" y="2" width="20" height="350" fill="none" stroke="none" pointer-events="all"/>
    <path d="M 560.16 1.81 C 560.16 1.81 560.16 1.81 560.16 1.81 M 560.16 1.81 C 560.16 1.81 560.16 1.81 560.16 1.81 M 559.9 8.21 C 561.7 6.1 561.72 5.61 565.15 2.17 M 559.9 8.21 C 561.54 6.14 563.96 3.45 565.15 2.17 M 560.3 13.85 C 561.26 11.54 564.03 7.78 570.79 1.78 M 560.3 13.85 C 563.76 10.29 567.41 7.08 570.79 1.78 M 560.03 20.25 C 564.85 12.69 570.67 7.14 575.78 2.14 M 560.03 20.25 C 565.31 13.7 573.04 7.15 575.78 2.14 M 559.77 26.65 C 565.22 19.7 568.48 15.26 580.77 2.5 M 559.77 26.65 C 567.94 17.22 577.43 8.35 580.77 2.5 M 560.17 32.29 C 566.28 26.58 570.5 21.31 580.51 8.9 M 560.17 32.29 C 566.13 26.17 569.6 19.94 580.51 8.9 M 559.91 38.69 C 566.63 34.76 572.07 26.95 580.9 14.54 M 559.91 38.69 C 565.29 31.86 571.09 25.69 580.9 14.54 M 560.3 44.33 C 568.52 34.87 575.84 25.29 580.64 20.94 M 560.3 44.33 C 563.89 38.61 569.02 34.79 580.64 20.94 M 560.04 50.73 C 567.16 42.95 573.93 30.7 580.38 27.34 M 560.04 50.73 C 564.52 45.36 568.99 41.55 580.38 27.34 M 559.78 57.13 C 567.58 47.1 575.11 40.77 580.77 32.98 M 559.78 57.13 C 565.63 49.19 571.29 42.67 580.77 32.98 M 560.17 62.77 C 566.5 56.72 571.59 49.96 580.51 39.38 M 560.17 62.77 C 564.18 57.66 568 53.44 580.51 39.38 M 559.91 69.17 C 568.28 61.51 576.87 53.54 580.9 45.02 M 559.91 69.17 C 563.73 63.13 569.78 58.8 580.9 45.02 M 560.31 74.81 C 566.28 71.73 568.77 65.18 580.64 51.42 M 560.31 74.81 C 567.54 67.47 572.7 58.84 580.64 51.42 M 560.04 81.21 C 564.39 76.81 570.41 71.14 580.38 57.81 M 560.04 81.21 C 567.7 73.04 574.26 66.62 580.38 57.81 M 559.78 87.61 C 566.26 82.79 569.99 73.88 580.78 63.46 M 559.78 87.61 C 565.05 81.97 568.62 76.93 580.78 63.46 M 560.18 93.25 C 562.83 87.48 568.31 81.08 580.51 69.86 M 560.18 93.25 C 564.94 87.35 570.81 81.08 580.51 69.86 M 559.92 99.65 C 566.42 89.86 576.02 83.19 580.91 75.5 M 559.92 99.65 C 567.27 91.58 574.79 82.54 580.91 75.5 M 560.31 105.29 C 566.84 96.36 574.11 89.87 580.65 81.9 M 560.31 105.29 C 564.91 99.95 571.89 92.47 580.65 81.9 M 560.05 111.69 C 566.29 105.87 569.62 99.44 580.39 88.29 M 560.05 111.69 C 566.77 102.5 573.57 95.22 580.39 88.29 M 559.79 118.09 C 562.65 111.96 568.06 108.7 580.78 93.94 M 559.79 118.09 C 564.58 112.02 570.25 104.49 580.78 93.94 M 560.18 123.73 C 567.19 117.2 572.76 110.82 580.52 100.34 M 560.18 123.73 C 565.76 116.91 571.31 110.97 580.52 100.34 M 559.92 130.13 C 568.05 121.61 577.43 109.71 580.91 105.98 M 559.92 130.13 C 564.56 124.62 568.22 120.83 580.91 105.98 M 560.32 135.77 C 566.52 127.97 573.01 123.8 580.65 112.38 M 560.32 135.77 C 569.1 127.51 575.92 116.76 580.65 112.38 M 560.05 142.17 C 565.69 135.92 571.3 130.67 580.39 118.77 M 560.05 142.17 C 566.98 134.11 574.84 126.32 580.39 118.77 M 559.79 148.57 C 564.76 143.44 573.97 136.09 580.79 124.42 M 559.79 148.57 C 566.85 141.15 574.23 131.87 580.79 124.42 M 560.19 154.21 C 566.31 150.5 567.59 142.3 580.52 130.81 M 560.19 154.21 C 565.85 146.29 573.41 140.65 580.52 130.81 M 559.93 160.61 C 565.8 152.85 572.56 147.67 580.92 136.46 M 559.93 160.61 C 568.91 151.36 576.07 141.23 580.92 136.46 M 560.32 166.25 C 565.99 157.99 569.99 153.54 580.66 142.86 M 560.32 166.25 C 565.87 161.19 570.3 155.86 580.66 142.86 M 560.06 172.65 C 566.71 166 575.78 157.9 580.4 149.25 M 560.06 172.65 C 566.97 164.83 574.72 154.59 580.4 149.25 M 559.8 179.05 C 563.11 173.41 568.32 168.35 580.79 154.9 M 559.8 179.05 C 566.12 172.25 573.09 164.55 580.79 154.9 M 560.19 184.69 C 568.45 177.43 577.23 168.79 580.53 161.29 M 560.19 184.69 C 565.37 180.24 568.29 175.24 580.53 161.29 M 559.93 191.09 C 568.22 181.34 573.85 173.42 580.92 166.94 M 559.93 191.09 C 567.49 182.22 573.07 175.71 580.92 166.94 M 560.32 196.73 C 565.28 188.63 571.76 185.2 580.66 173.33 M 560.32 196.73 C 565.94 190.2 571.34 183.9 580.66 173.33 M 560.06 203.13 C 564.2 199.26 569.33 191.57 580.4 179.73 M 560.06 203.13 C 567.93 194.14 575.45 185.1 580.4 179.73 M 559.8 209.53 C 566.29 201.19 576.13 191.85 580.8 185.38 M 559.8 209.53 C 566.33 200.94 573.99 193.37 580.8 185.38 M 560.2 215.17 C 567.03 208.2 569.22 203.62 580.53 191.77 M 560.2 215.17 C 564.95 211.01 570 204.27 580.53 191.77 M 559.93 221.57 C 567.26 216.87 573.1 208.62 580.93 197.42 M 559.93 221.57 C 568.81 212.87 575.98 202.66 580.93 197.42 M 559.67 227.97 C 568.03 219.66 574.02 212.01 580.67 203.81 M 559.67 227.97 C 567.97 218.21 574.74 210.42 580.67 203.81 M 560.07 233.61 C 567.02 225.66 572.09 221.53 580.41 210.21 M 560.07 233.61 C 565.29 226.43 572.5 219.38 580.41 210.21 M 559.81 240.01 C 567.75 232.05 574.43 225.41 580.8 215.86 M 559.81 240.01 C 566.35 232.74 573.23 224.22 580.8 215.86 M 560.2 245.65 C 565.73 240.66 572.15 233.04 580.54 222.25 M 560.2 245.65 C 568.09 236.73 575.43 228.38 580.54 222.25 M 559.94 252.05 C 567.86 244.08 574.68 234.98 580.93 227.9 M 559.94 252.05 C 565.86 244.03 573.12 236.54 580.93 227.9 M 559.68 258.44 C 566.72 248.7 573.92 239.79 580.67 234.29 M 559.68 258.44 C 564.93 251.44 570.79 246.13 580.67 234.29 M 560.07 264.09 C 564.74 259.58 570.35 249.91 580.41 240.69 M 560.07 264.09 C 565.2 256.67 572.85 250.51 580.41 240.69 M 559.81 270.49 C 567.89 262.51 572.27 254.34 580.81 246.33 M 559.81 270.49 C 565.05 265.75 569.53 259.5 580.81 246.33 M 560.21 276.13 C 565.42 271.91 568.17 267 580.54 252.73 M 560.21 276.13 C 565.94 270.03 570.89 264.75 580.54 252.73 M 559.94 282.53 C 569.61 272.55 576.07 261.61 580.94 258.38 M 559.94 282.53 C 567.08 274.88 574.16 265.63 580.94 258.38 M 559.68 288.92 C 563.46 280.94 570.22 277.06 580.68 264.77 M 559.68 288.92 C 564.5 283.48 568.68 279.6 580.68 264.77 M 560.08 294.57 C 565.36 289.25 570.94 284.53 580.42 271.17 M 560.08 294.57 C 566.06 286.95 572.24 279.37 580.42 271.17 M 559.82 300.96 C 566.84 292.19 572.24 285.88 580.81 276.81 M 559.82 300.96 C 565.79 294.23 570.48 288.86 580.81 276.81 M 560.21 306.61 C 566.12 301.18 567.53 298.77 580.55 283.21 M 560.21 306.61 C 568.07 298.45 575.09 289.1 580.55 283.21 M 559.95 313.01 C 566.16 305.73 574.3 300.29 580.94 288.86 M 559.95 313.01 C 567.08 304.7 575.8 294.93 580.94 288.86 M 559.69 319.4 C 566.31 314.08 571.63 306.56 580.68 295.25 M 559.69 319.4 C 565.18 313.63 568.73 308.32 580.68 295.25 M 560.08 325.05 C 565.77 319.81 569.67 313.16 580.42 301.65 M 560.08 325.05 C 565.46 318.1 571.96 311.69 580.42 301.65 M 559.82 331.44 C 565.06 322.54 572.03 316.78 580.82 307.29 M 559.82 331.44 C 566.53 322.99 575.9 314.53 580.82 307.29 M 560.22 337.09 C 565.88 329.34 573.43 323.62 580.55 313.69 M 560.22 337.09 C 564.97 331.16 570.82 323.26 580.55 313.69 M 559.95 343.49 C 566.73 335.13 575.7 327.11 580.95 319.33 M 559.95 343.49 C 565.54 338.04 568.92 332.14 580.95 319.33 M 559.69 349.88 C 568.16 340.69 573.13 336.52 580.69 325.73 M 559.69 349.88 C 565.02 343.74 569.35 338.5 580.69 325.73 M 562.06 353.26 C 567.75 346.53 571.02 340.75 580.43 332.13 M 562.06 353.26 C 567.54 346.72 575.45 339.44 580.43 332.13 M 567.04 353.62 C 570.63 351.19 575.91 344.31 580.82 337.77 M 567.04 353.62 C 571.93 348.7 575.71 344.36 580.82 337.77 M 572.69 353.23 C 575.04 350.21 577.21 349.09 580.56 344.17 M 572.69 353.23 C 576.11 350.08 578.95 346.98 580.56 344.17 M 577.67 353.59 C 578.16 352.99 578.95 351.54 580.95 349.81 M 577.67 353.59 C 578.76 352.55 579.6 351.51 580.95 349.81" fill="none" stroke="#ff9555" stroke-width="0.5" stroke-linejoin="round" stroke-linecap="round" stroke-miterlimit="10" pointer-events="all"/>
    <rect x="540" y="2" width="20" height="350" fill="none" stroke="none" pointer-events="all"/>
    <path d="M 540.24 1.72 C 540.24 1.72 540.24 1.72 540.24 1.72 M 540.24 1.72 C 540.24 1.72 540.24 1.72 540.24 1.72 M 539.98 8.12 C 541.26 6.35 543.77 4.78 545.23 2.08 M 539.98 8.12 C 541.94 6.25 543.77 3.91 545.23 2.08 M 539.72 14.52 C 541.53 11.53 546.51 5.44 550.87 1.69 M 539.72 14.52 C 542.69 10.64 547.13 6.8 550.87 1.69 M 540.11 20.16 C 545.1 13.65 552.98 7.35 555.86 2.05 M 540.11 20.16 C 546.45 14.62 551.42 7.74 555.86 2.05 M 539.85 26.56 C 545.52 20.16 550.89 13.2 560.85 2.41 M 539.85 26.56 C 546.37 19.78 551.71 10.84 560.85 2.41 M 540.25 32.2 C 546.62 21.11 557.64 15.57 560.58 8.81 M 540.25 32.2 C 546.81 25.1 551.97 19.7 560.58 8.81 M 539.99 38.6 C 544.31 32.49 549.16 26.61 560.98 14.45 M 539.99 38.6 C 546.96 32.63 552.85 25.54 560.98 14.45 M 539.72 45 C 547.12 35.45 552.7 28.07 560.72 20.85 M 539.72 45 C 543.02 40.37 548.78 34.66 560.72 20.85 M 540.12 50.64 C 545.33 45.88 549.1 41.64 560.46 27.24 M 540.12 50.64 C 544.82 45.12 551.89 37.82 560.46 27.24 M 539.86 57.04 C 544.63 51 550.51 48.02 560.85 32.89 M 539.86 57.04 C 546.42 48.77 552.77 40.88 560.85 32.89 M 540.25 62.68 C 546.49 54.22 553.14 46.98 560.59 39.28 M 540.25 62.68 C 545.93 56.52 552.23 49.67 560.59 39.28 M 539.99 69.08 C 547 61.04 549.58 56.9 560.98 44.93 M 539.99 69.08 C 547.49 60.47 553.31 52.74 560.98 44.93 M 539.73 75.48 C 546.51 66.7 555.19 60.44 560.72 51.33 M 539.73 75.48 C 547.11 69.02 552.83 61.34 560.72 51.33 M 540.12 81.12 C 543.86 76.32 550.27 71.06 560.46 57.72 M 540.12 81.12 C 543.46 75.69 547.69 70.76 560.46 57.72 M 539.86 87.52 C 545.81 81.99 553.26 74.85 560.86 63.37 M 539.86 87.52 C 547.31 78.67 557.44 68.26 560.86 63.37 M 540.26 93.16 C 546.2 85.28 552.09 76.95 560.59 69.76 M 540.26 93.16 C 545.42 87.22 552.67 79.23 560.59 69.76 M 540 99.56 C 545.46 91.81 553.81 83.37 560.99 75.41 M 540 99.56 C 549.15 90.6 556.95 80.09 560.99 75.41 M 539.73 105.96 C 543.84 99.25 549.73 93.63 560.73 81.8 M 539.73 105.96 C 546.9 96.84 556.04 88.58 560.73 81.8 M 540.13 111.6 C 546.67 103.88 553.66 98.2 560.47 88.2 M 540.13 111.6 C 547.23 103.69 553.07 96.75 560.47 88.2 M 539.87 118 C 543.2 113.78 551.23 106.05 560.86 93.85 M 539.87 118 C 546.56 109.3 555.24 101.36 560.86 93.85 M 540.26 123.64 C 544.77 117.6 551.52 110.51 560.6 100.24 M 540.26 123.64 C 547.8 114.35 554.98 105.18 560.6 100.24 M 540 130.04 C 548.53 122.82 556.03 111.99 560.99 105.89 M 540 130.04 C 545.02 123.85 551.47 116.41 560.99 105.89 M 539.74 136.44 C 543.56 129.05 548.96 122.35 560.73 112.28 M 539.74 136.44 C 544.55 129.78 549.59 124.74 560.73 112.28 M 540.13 142.08 C 546.78 137.39 550.4 127.7 560.47 118.68 M 540.13 142.08 C 547.04 133.61 557 124.64 560.47 118.68 M 539.87 148.48 C 548.94 140.45 556.43 130.37 560.87 124.33 M 539.87 148.48 C 547.65 138.56 555.42 130.58 560.87 124.33 M 540.27 154.12 C 545.08 149.88 550.82 142.98 560.6 130.72 M 540.27 154.12 C 547.62 145 555.48 135.19 560.6 130.72 M 540 160.52 C 549.85 152.33 554.6 143.4 561 136.37 M 540 160.52 C 547.75 150.1 556.57 142 561 136.37 M 539.74 166.91 C 543.67 162.1 551.11 153.59 560.74 142.76 M 539.74 166.91 C 547.74 158.76 553.58 151.01 560.74 142.76 M 540.14 172.56 C 545.27 165.2 548.8 159.52 560.48 149.16 M 540.14 172.56 C 547.51 165.67 554.13 157.98 560.48 149.16 M 539.88 178.96 C 549.13 170.83 556.29 161.09 560.87 154.8 M 539.88 178.96 C 545.49 172.04 553.52 165.33 560.87 154.8 M 540.27 184.6 C 547.4 176.87 549.46 172.77 560.61 161.2 M 540.27 184.6 C 545.16 179.47 550.52 172.54 560.61 161.2 M 540.01 191 C 546.62 183.1 554.9 173.62 561 166.85 M 540.01 191 C 547.43 181.94 555.96 172.97 561 166.85 M 539.75 197.39 C 549.29 187.41 554.14 178.32 560.74 173.24 M 539.75 197.39 C 544.09 191.77 549.78 187.39 560.74 173.24 M 540.14 203.04 C 548.09 195.63 551.4 190.29 560.48 179.64 M 540.14 203.04 C 544.08 197.09 549.65 191.78 560.48 179.64 M 539.88 209.43 C 544.58 205.45 547.21 198.84 560.88 185.28 M 539.88 209.43 C 545.45 201.61 552.6 196.15 560.88 185.28 M 540.28 215.08 C 546.39 209.84 552.46 202.23 560.61 191.68 M 540.28 215.08 C 547.39 207.7 555.12 197.93 560.61 191.68 M 540.01 221.48 C 544.97 217.05 551.38 211.4 561.01 197.33 M 540.01 221.48 C 546.07 214.06 552.72 205.65 561.01 197.33 M 539.75 227.87 C 545.84 220.17 552.77 212.68 560.75 203.72 M 539.75 227.87 C 544.75 223.45 548.31 218.49 560.75 203.72 M 540.15 233.52 C 545.19 225.97 554.41 218.57 560.49 210.12 M 540.15 233.52 C 547.15 225.51 555.05 216.65 560.49 210.12 M 539.89 239.91 C 546.7 234.76 551.44 226.94 560.88 215.76 M 539.89 239.91 C 547.5 232.21 554.52 224.04 560.88 215.76 M 540.28 245.56 C 547.17 240.73 550.74 232.56 560.62 222.16 M 540.28 245.56 C 546.89 237.35 553.18 231.75 560.62 222.16 M 540.02 251.96 C 542.78 248.58 550.58 243.22 560.36 228.56 M 540.02 251.96 C 548.28 243.02 555.02 234.37 560.36 228.56 M 539.76 258.35 C 544.34 252.7 549.08 244.35 560.75 234.2 M 539.76 258.35 C 547.47 248.49 557.46 239.09 560.75 234.2 M 540.15 264 C 542.96 258.06 548.63 251.3 560.49 240.6 M 540.15 264 C 544.96 257.99 550.26 251.33 560.49 240.6 M 539.89 270.39 C 548.45 260.42 555.07 254.02 560.88 246.24 M 539.89 270.39 C 546.67 262.13 554.09 254.79 560.88 246.24 M 540.29 276.04 C 545.36 269.39 549.61 263.38 560.62 252.64 M 540.29 276.04 C 545.9 269.64 551.59 263.95 560.62 252.64 M 540.02 282.43 C 546.66 272.71 556.76 265.29 560.36 259.04 M 540.02 282.43 C 547.58 274.16 554.57 265.73 560.36 259.04 M 539.76 288.83 C 547.46 280.13 550.27 273.07 560.76 264.68 M 539.76 288.83 C 546.87 281.07 555.2 273.31 560.76 264.68 M 540.16 294.48 C 548.13 288.05 555.81 279.81 560.5 271.08 M 540.16 294.48 C 547.48 284.64 555.75 276.95 560.5 271.08 M 539.9 300.87 C 545.62 291.47 554.61 285.52 560.89 276.72 M 539.9 300.87 C 545.52 294.02 553.48 285.15 560.89 276.72 M 540.29 306.52 C 542.62 303.31 548.7 295.26 560.63 283.12 M 540.29 306.52 C 546 300.41 551.28 293.91 560.63 283.12 M 540.03 312.91 C 547.45 305.45 555.02 297.69 560.37 289.52 M 540.03 312.91 C 547.78 304.26 554.77 294.59 560.37 289.52 M 539.77 319.31 C 545.33 313.37 548.75 311.17 560.76 295.16 M 539.77 319.31 C 546.59 311.77 554.29 302.56 560.76 295.16 M 540.16 324.96 C 543.25 319.59 548.14 316.55 560.5 301.56 M 540.16 324.96 C 548.17 315.54 555.34 308.23 560.5 301.56 M 539.9 331.35 C 544.26 324.98 548.51 321.67 560.89 307.2 M 539.9 331.35 C 545.13 325.77 550.46 319.45 560.89 307.2 M 540.3 337 C 546.85 330.68 554.52 322.39 560.63 313.6 M 540.3 337 C 545.3 331.32 552.03 325.71 560.63 313.6 M 540.03 343.39 C 544.34 338.48 548.59 335.11 560.37 320 M 540.03 343.39 C 545.89 337.06 549.84 330.78 560.37 320 M 539.77 349.79 C 545.47 341.75 553.15 335.26 560.77 325.64 M 539.77 349.79 C 547.39 340.87 552.85 333.87 560.77 325.64 M 541.48 353.93 C 548.31 348.04 554.43 341.98 560.5 332.04 M 541.48 353.93 C 546.94 347.56 554.8 338.75 560.5 332.04 M 547.12 353.53 C 550.21 350.6 553.97 345.49 560.9 337.68 M 547.12 353.53 C 551.05 348.3 556.08 342.59 560.9 337.68 M 552.11 353.89 C 556 351.37 557.29 346.64 560.64 344.08 M 552.11 353.89 C 554.91 350.15 557.14 347.86 560.64 344.08 M 557.75 353.5 C 558.97 352.58 559.68 351.49 560.38 350.48 M 557.75 353.5 C 558.58 352.5 559.73 351.15 560.38 350.48" fill="none" stroke="#ffb333" stroke-width="0.5" stroke-linejoin="round" stroke-linecap="round" stroke-miterlimit="10" pointer-events="all"/>
    <rect x="520" y="2" width="20" height="350" fill="none" stroke="none" pointer-events="all"/>
    <path d="M 520.32 1.63 C 520.32 1.63 520.32 1.63 520.32 1.63 M 520.32 1.63 C 520.32 1.63 520.32 1.63 520.32 1.63 M 520.06 8.03 C 522.31 5 524.09 3.96 525.31 1.99 M 520.06 8.03 C 521.54 6.36 523.59 4.38 525.31 1.99 M 519.8 14.43 C 522.23 10.9 528.85 6.4 530.3 2.35 M 519.8 14.43 C 522.17 10.69 525.28 6.67 530.3 2.35 M 520.19 20.07 C 525 14.93 530.93 7.88 535.94 1.96 M 520.19 20.07 C 525.95 13.54 530.17 8.33 535.94 1.96 M 519.93 26.47 C 526.3 20.2 533.78 10.71 540.93 2.32 M 519.93 26.47 C 525.29 20.35 528.47 15.34 540.93 2.32 M 520.33 32.11 C 526.89 24.32 532.66 15.18 540.66 8.71 M 520.33 32.11 C 525.96 24.03 532.81 17.46 540.66 8.71 M 520.06 38.51 C 526.33 34.81 530.43 27.03 540.4 15.11 M 520.06 38.51 C 526.43 31.63 532.21 23.84 540.4 15.11 M 519.8 44.91 C 525.66 39.15 533.24 30.26 540.8 20.75 M 519.8 44.91 C 527.34 34.7 535.81 26.43 540.8 20.75 M 520.2 50.55 C 527.56 43.72 532.4 38.82 540.54 27.15 M 520.2 50.55 C 526.66 42.47 534.32 33.69 540.54 27.15 M 519.94 56.95 C 525.4 49.65 533.83 41.2 540.93 32.8 M 519.94 56.95 C 527.22 48.35 534.24 39.09 540.93 32.8 M 519.68 63.34 C 526.52 56.24 534.94 48.28 540.67 39.19 M 519.68 63.34 C 527.23 55.88 534.24 48.16 540.67 39.19 M 520.07 68.99 C 526.15 60.01 534.68 51.17 540.41 45.59 M 520.07 68.99 C 525.36 64.39 528.62 58.27 540.41 45.59 M 519.81 75.38 C 527.06 69.89 529.6 60.91 540.8 51.23 M 519.81 75.38 C 526.66 68.04 532.72 61.57 540.8 51.23 M 520.2 81.03 C 523.33 75.83 530.12 70.98 540.54 57.63 M 520.2 81.03 C 525.76 73.66 531.71 67.54 540.54 57.63 M 519.94 87.43 C 525.37 81.61 532.53 72.24 540.94 63.27 M 519.94 87.43 C 527.36 78.62 535.87 69.67 540.94 63.27 M 519.68 93.82 C 524.54 87.92 530.92 82.16 540.67 69.67 M 519.68 93.82 C 525.92 85.18 532.78 77.24 540.67 69.67 M 520.07 99.47 C 524.31 93.97 531.21 84.01 540.41 76.07 M 520.07 99.47 C 524.19 94.21 529.92 89.23 540.41 76.07 M 519.81 105.86 C 525.27 101.63 529.57 93.14 540.81 81.71 M 519.81 105.86 C 525.65 99.59 532.58 91.59 540.81 81.71 M 520.21 111.51 C 527.05 102.29 537.7 93.38 540.55 88.11 M 520.21 111.51 C 525.23 104.89 530.11 100.28 540.55 88.11 M 519.95 117.91 C 523.75 111.59 530.39 103.4 540.94 93.75 M 519.95 117.91 C 524.34 111 529.83 105.48 540.94 93.75 M 519.68 124.3 C 526.39 118.51 534.53 110.48 540.68 100.15 M 519.68 124.3 C 525.31 117.01 532.25 111.07 540.68 100.15 M 520.08 129.95 C 524.81 120.68 534.23 115.16 540.42 106.55 M 520.08 129.95 C 525.29 121.74 532.31 114.88 540.42 106.55 M 519.82 136.34 C 525.54 129.59 529.66 124.59 540.81 112.19 M 519.82 136.34 C 527.08 128.75 534.29 120.88 540.81 112.19 M 520.21 141.99 C 527.39 135.26 533.02 125.15 540.55 118.59 M 520.21 141.99 C 525.49 135.8 529.49 130.32 540.55 118.59 M 519.95 148.38 C 524.92 142.29 530.49 138.31 540.95 124.23 M 519.95 148.38 C 524.25 142.8 530.21 136.95 540.95 124.23 M 519.69 154.78 C 527.39 149.39 533.77 139.55 540.68 130.63 M 519.69 154.78 C 524.83 149.36 531.1 141.86 540.68 130.63 M 520.08 160.43 C 525.52 152.85 531.85 145.23 540.42 137.03 M 520.08 160.43 C 527.84 151.14 536.07 141.37 540.42 137.03 M 519.82 166.82 C 525.82 161.68 528.51 157.31 540.82 142.67 M 519.82 166.82 C 525.44 161.01 530.33 155.84 540.82 142.67 M 520.22 172.47 C 527.9 163.71 533.96 155.78 540.56 149.07 M 520.22 172.47 C 526.51 166.5 532.01 159.36 540.56 149.07 M 519.96 178.86 C 526.94 169.09 535.85 159.48 540.95 154.71 M 519.96 178.86 C 526.87 171.84 531.96 164.11 540.95 154.71 M 519.69 185.26 C 526.45 175.71 534.09 167.22 540.69 161.11 M 519.69 185.26 C 526.96 177.22 532.96 170.12 540.69 161.11 M 520.09 190.9 C 525.28 184.67 532 177.88 540.43 167.51 M 520.09 190.9 C 524.54 184.67 529.67 180.26 540.43 167.51 M 519.83 197.3 C 525.08 190.9 531.91 185.19 540.82 173.15 M 519.83 197.3 C 526.91 187.54 534.89 180.48 540.82 173.15 M 520.22 202.95 C 523.92 196.28 529.34 193.97 540.56 179.55 M 520.22 202.95 C 525.82 196.94 531.52 190.7 540.56 179.55 M 519.96 209.34 C 523.06 204.88 530.68 196.16 540.95 185.19 M 519.96 209.34 C 525.05 204.28 529.7 196.93 540.95 185.19 M 519.7 215.74 C 525.27 208.04 531.38 201.19 540.69 191.59 M 519.7 215.74 C 525.3 209.61 531.83 201.27 540.69 191.59 M 520.09 221.38 C 530.13 212.28 537.06 204.7 540.43 197.99 M 520.09 221.38 C 525.64 215.43 529.61 209.03 540.43 197.99 M 519.83 227.78 C 524.14 220.68 532 217.36 540.83 203.63 M 519.83 227.78 C 525.24 221.44 529.8 216.49 540.83 203.63 M 520.23 233.43 C 527.35 222.28 536.73 215.61 540.56 210.03 M 520.23 233.43 C 524.46 227.68 529 223.7 540.56 210.03 M 519.97 239.82 C 525.16 233.46 531.97 228.47 540.96 215.67 M 519.97 239.82 C 527.12 231.68 534.28 221.87 540.96 215.67 M 519.7 246.22 C 524.17 237.31 533.09 232.37 540.7 222.07 M 519.7 246.22 C 525.2 240.95 530.59 235.93 540.7 222.07 M 520.1 251.86 C 525.55 244.14 530.63 241.54 540.44 228.47 M 520.1 251.86 C 525.3 246.46 529.66 241.09 540.44 228.47 M 519.84 258.26 C 526.15 248.29 532.65 239.68 540.83 234.11 M 519.84 258.26 C 527.33 250.37 533.25 241.72 540.83 234.11 M 520.23 263.9 C 525.66 260.53 527.38 252.7 540.57 240.51 M 520.23 263.9 C 525.19 257.31 530.14 252.14 540.57 240.51 M 519.97 270.3 C 525.01 262.33 533.87 253.69 540.96 246.15 M 519.97 270.3 C 524.08 264.91 530.25 259.31 540.96 246.15 M 519.71 276.7 C 524.84 271 530.78 263.67 540.7 252.55 M 519.71 276.7 C 525.41 269.77 532.05 261.44 540.7 252.55 M 520.1 282.34 C 527.97 272.15 533.96 263.98 540.44 258.95 M 520.1 282.34 C 528.78 273.59 535.92 263.71 540.44 258.95 M 519.84 288.74 C 527.45 279.32 534.31 273.09 540.84 264.59 M 519.84 288.74 C 524.57 283.07 530.85 276.27 540.84 264.59 M 520.24 294.38 C 526.37 287.93 528.07 284.85 540.57 270.99 M 520.24 294.38 C 525.3 288.61 531.59 281.49 540.57 270.99 M 519.98 300.78 C 528.4 290.75 536.97 281.16 540.97 276.63 M 519.98 300.78 C 527.25 291.81 536.48 283.44 540.97 276.63 M 519.71 307.18 C 526.78 297.22 537.86 286.54 540.71 283.03 M 519.71 307.18 C 527.13 297.74 536.99 287.1 540.71 283.03 M 520.11 312.82 C 525.33 309.62 528.47 304 540.45 289.43 M 520.11 312.82 C 527.2 303.14 534.7 295.28 540.45 289.43 M 519.85 319.22 C 528.07 311.42 533.79 301.7 540.84 295.07 M 519.85 319.22 C 525.8 312.74 529.46 306.47 540.84 295.07 M 520.24 324.86 C 524.73 319.37 530.62 315.94 540.58 301.47 M 520.24 324.86 C 524.81 319.65 530.58 314.13 540.58 301.47 M 519.98 331.26 C 527.67 322.18 537.39 312.48 540.97 307.11 M 519.98 331.26 C 525.45 324.13 532.94 317.14 540.97 307.11 M 519.72 337.66 C 527.41 328.49 535.43 321.37 540.71 313.51 M 519.72 337.66 C 524.67 331.64 530.43 326.13 540.71 313.51 M 520.11 343.3 C 526.25 336.86 530.09 333.2 540.45 319.91 M 520.11 343.3 C 526.86 336.32 531.53 329.48 540.45 319.91 M 519.85 349.7 C 523.27 342.82 529.64 338 540.85 325.55 M 519.85 349.7 C 524.03 345.24 528.44 339.32 540.85 325.55 M 521.56 353.83 C 529.78 345 534.57 338.86 540.58 331.95 M 521.56 353.83 C 526.77 347.53 534.36 339.45 540.58 331.95 M 527.2 353.44 C 532.87 346.84 537.85 340.33 540.98 337.59 M 527.2 353.44 C 531.85 347.91 538.13 340.81 540.98 337.59 M 532.19 353.8 C 533.12 351.39 536.84 350.3 540.72 343.99 M 532.19 353.8 C 534.28 350.86 536.97 348.34 540.72 343.99 M 537.83 353.4 C 538.61 352.65 538.89 351.45 540.46 350.39 M 537.83 353.4 C 538.49 352.51 539.19 352.03 540.46 350.39" fill="none" stroke="#ffd111" stroke-width="0.5" stroke-linejoin="round" stroke-linecap="round" stroke-miterlimit="10" pointer-events="all"/>
    <path d="M 20 352 L 20 2" fill="none" stroke="none" pointer-events="stroke"/>
    <path d="M 20 352 M 20 352 C 21.55 279.77 19.68 206.99 20 2 M 20 352 C 20.86 228.35 19.96 103.62 20 2" fill="none" stroke="#ffffff" stroke-width="4" stroke-linejoin="round" stroke-linecap="round" stroke-miterlimit="10" pointer-events="stroke"/>
    <path d="M 40 352 L 40 2" fill="none" stroke="none" pointer-events="stroke"/>
    <path d="M 40 352 M 40 352 C 40.42 279.09 40.39 206.44 40 2 M 40 352 C 40.03 273.29 40.16 194.15 40 2" fill="none" stroke="#ffffff" stroke-width="4" stroke-linejoin="round" stroke-linecap="round" stroke-miterlimit="10" pointer-events="stroke"/>
    <path d="M 60 352 L 60 2" fill="none" stroke="none" pointer-events="stroke"/>
    <path d="M 60 352 M 60 352 C 59.29 278.42 61.09 208.49 60 2 M 60 352 C 59.2 248.23 59.05 143.39 60 2" fill="none" stroke="#ffffff" stroke-width="4" stroke-linejoin="round" stroke-linecap="round" stroke-miterlimit="10" pointer-events="stroke"/>
    <path d="M 79.31 352 L 79.31 2" fill="none" stroke="none" pointer-events="stroke"/>
    <path d="M 79.31 352 M 79.31 352 C 80.07 280.34 78.51 207.94 79.31 2 M 79.31 352 C 78.98 221.87 78.55 92.62 79.31 2" fill="none" stroke="#ffffff" stroke-width="4" stroke-linejoin="round" stroke-linecap="round" stroke-miterlimit="10" pointer-events="stroke"/>
    <path d="M 540 352 L 540 2" fill="none" stroke="none" pointer-events="stroke"/>
    <path d="M 540 352 M 540 352 C 539.63 279.67 539.9 207.4 540 2 M 540 352 C 538.84 266.81 539.44 183.16 540 2" fill="none" stroke="#ffffff" stroke-width="4" stroke-linejoin="round" stroke-linecap="round" stroke-miterlimit="10" pointer-events="stroke"/>
    <path d="M 560 352 L 560 2" fill="none" stroke="none" pointer-events="stroke"/>
    <path d="M 560 352 M 560 352 C 558.5 278.99 558.01 206.85 560 2 M 560 352 C 559.31 241.75 558.33 132.39 560 2" fill="none" stroke="#ffffff" stroke-width="4" stroke-linejoin="round" stroke-linecap="round" stroke-miterlimit="10" pointer-events="stroke"/>
    <path d="M 580 352 L 580 2" fill="none" stroke="none" pointer-events="stroke"/>
    <path d="M 580 352 M 580 352 C 577.37 280.92 578.72 206.3 580 2 M 580 352 C 578.48 216.7 578.53 81.63 580 2" fill="none" stroke="#ffffff" stroke-width="4" stroke-linejoin="round" stroke-linecap="round" stroke-miterlimit="10" pointer-events="stroke"/>
    <path d="M 520 352 L 520 2" fill="none" stroke="none" pointer-events="stroke"/>
    <path d="M 520 352 M 520 352 C 518.84 280.24 516.82 208.36 520 2 M 520 352 C 517.65 261.64 517.42 170.86 520 2" fill="none" stroke="#ffffff" stroke-width="4" stroke-linejoin="round" stroke-linecap="round" stroke-miterlimit="10" pointer-events="stroke"/>
  </g>
</svg>
