<?xml version="1.0" encoding="UTF-8"?>
<!DOCTYPE svg PUBLIC "-//W3C//DTD SVG 1.1//EN" "http://www.w3.org/Graphics/SVG/1.1/DTD/svg11.dtd">
<svg xmlns="http://www.w3.org/2000/svg" xmlns:xlink="http://www.w3.org/1999/xlink" version="1.1" width="202px" height="202px" viewBox="-0.5 -0.5 202 202">
  <defs/>
  <g>
    <ellipse cx="101" cy="21" rx="20" ry="20" fill="#ffffff" stroke="#000000" stroke-width="2" pointer-events="all"/>
    <ellipse cx="21" cy="101" rx="20" ry="20" fill="#ffffff" stroke="#000000" stroke-width="2" pointer-events="all"/>
    <ellipse cx="101" cy="181" rx="20" ry="20" fill="#ffffff" stroke="#000000" stroke-width="2" pointer-events="all"/>
    <ellipse cx="181" cy="101" rx="20" ry="20" fill="#ffffff" stroke="#000000" stroke-width="2" pointer-events="all"/>
    <ellipse cx="41" cy="41" rx="20" ry="20" fill="#ffffff" stroke="#000000" stroke-width="2" pointer-events="all"/>
    <ellipse cx="161" cy="41" rx="20" ry="20" fill="#ffffff" stroke="#000000" stroke-width="2" pointer-events="all"/>
    <ellipse cx="41" cy="161" rx="20" ry="20" fill="#ffffff" stroke="#000000" stroke-width="2" pointer-events="all"/>
    <ellipse cx="161" cy="161" rx="20" ry="20" fill="#ffffff" stroke="#000000" stroke-width="2" pointer-events="all"/>
    <path d="M 34.96 141.94 L 27.32 119.97" fill="none" stroke="#000000" stroke-width="2" stroke-miterlimit="10" pointer-events="stroke"/>
    <path d="M 81.94 174.96 L 59.97 167.32" fill="none" stroke="#000000" stroke-width="2" stroke-miterlimit="10" pointer-events="stroke"/>
    <path d="M 141.94 167.04 L 119.97 174.68" fill="none" stroke="#000000" stroke-width="2" stroke-miterlimit="10" pointer-events="stroke"/>
    <path d="M 174.96 120.06 L 167.32 142.03" fill="none" stroke="#000000" stroke-width="2" stroke-miterlimit="10" pointer-events="stroke"/>
    <path d="M 174.96 81.94 L 167.32 59.97" fill="none" stroke="#000000" stroke-width="2" stroke-miterlimit="10" pointer-events="stroke"/>
    <path d="M 120.06 27.04 L 142.03 34.68" fill="none" stroke="#000000" stroke-width="2" stroke-miterlimit="10" pointer-events="stroke"/>
    <path d="M 60.06 34.96 L 82.03 27.32" fill="none" stroke="#000000" stroke-width="2" stroke-miterlimit="10" pointer-events="stroke"/>
    <path d="M 27.04 81.94 L 34.68 59.97" fill="none" stroke="#000000" stroke-width="2" stroke-miterlimit="10" pointer-events="stroke"/>
    <path d="M 48.9 142.62 L 93.12 39.38" fill="none" stroke="#000000" stroke-width="2" stroke-miterlimit="10" pointer-events="stroke"/>
    <path d="M 162.62 108.9 L 59.38 153.12" fill="none" stroke="#000000" stroke-width="2" stroke-miterlimit="10" pointer-events="stroke"/>
    <path d="M 59.38 48.9 L 162.62 93.12" fill="none" stroke="#000000" stroke-width="2" stroke-miterlimit="10" pointer-events="stroke"/>
    <path d="M 93.1 162.62 L 48.88 59.38" fill="none" stroke="#000000" stroke-width="2" stroke-miterlimit="10" pointer-events="stroke"/>
    <path d="M 153.1 59.38 L 108.88 162.62" fill="none" stroke="#000000" stroke-width="2" stroke-miterlimit="10" pointer-events="stroke"/>
    <path d="M 39.38 93.1 L 142.62 48.88" fill="none" stroke="#000000" stroke-width="2" stroke-miterlimit="10" pointer-events="stroke"/>
    <path d="M 142.62 153.1 L 39.38 108.88" fill="none" stroke="#000000" stroke-width="2" stroke-miterlimit="10" pointer-events="stroke"/>
    <path d="M 108.9 39.38 L 153.12 142.62" fill="none" stroke="#000000" stroke-width="2" stroke-miterlimit="10" pointer-events="stroke"/>
  </g>
</svg>
