<?xml version="1.0" encoding="UTF-8" standalone="no"?>
<!DOCTYPE svg PUBLIC "-//W3C//DTD SVG 1.1//EN"
 "http://www.w3.org/Graphics/SVG/1.1/DTD/svg11.dtd">
<!-- Generated by graphviz version 2.49.3 (0)
 -->
<!-- Pages: 1 -->
<svg width="2260pt" height="260pt"
 viewBox="0.00 0.00 2260.34 260.00" xmlns="http://www.w3.org/2000/svg" xmlns:xlink="http://www.w3.org/1999/xlink">
<g id="graph0" class="graph" transform="scale(1 1) rotate(0) translate(4 256)">
<polygon fill="white" stroke="transparent" points="-4,4 -4,-256 2256.34,-256 2256.34,4 -4,4"/>
<!-- memory -->
<g id="node1" class="node">
<title>memory</title>
<ellipse fill="none" stroke="black" cx="1643.34" cy="-162" rx="48.99" ry="18"/>
<text text-anchor="middle" x="1643.34" y="-158.3" font-family="Times,serif" font-size="14.00">memory</text>
</g>
<!-- call_4_i -->
<g id="node10" class="node">
<title>call_4_i</title>
<ellipse fill="none" stroke="black" cx="1523.34" cy="-90" rx="27" ry="18"/>
<text text-anchor="middle" x="1523.34" y="-86.3" font-family="Times,serif" font-size="14.00">call</text>
</g>
<!-- memory&#45;&gt;call_4_i -->
<g id="edge5" class="edge">
<title>memory&#45;&gt;call_4_i</title>
<path fill="none" stroke="black" d="M1618.48,-146.5C1599.07,-135.17 1572.09,-119.44 1551.82,-107.61"/>
<polygon fill="black" stroke="black" points="1553.43,-104.5 1543.03,-102.48 1549.9,-110.54 1553.43,-104.5"/>
</g>
<!-- call_5_i -->
<g id="node14" class="node">
<title>call_5_i</title>
<ellipse fill="none" stroke="black" cx="1595.34" cy="-90" rx="27" ry="18"/>
<text text-anchor="middle" x="1595.34" y="-86.3" font-family="Times,serif" font-size="14.00">call</text>
</g>
<!-- memory&#45;&gt;call_5_i -->
<g id="edge10" class="edge">
<title>memory&#45;&gt;call_5_i</title>
<path fill="none" stroke="black" d="M1631.97,-144.41C1626.02,-135.74 1618.64,-124.97 1612.06,-115.38"/>
<polygon fill="black" stroke="black" points="1614.85,-113.26 1606.31,-106.99 1609.08,-117.21 1614.85,-113.26"/>
</g>
<!-- call_6_i -->
<g id="node17" class="node">
<title>call_6_i</title>
<ellipse fill="none" stroke="black" cx="1877.34" cy="-90" rx="27" ry="18"/>
<text text-anchor="middle" x="1877.34" y="-86.3" font-family="Times,serif" font-size="14.00">call</text>
</g>
<!-- memory&#45;&gt;call_6_i -->
<g id="edge15" class="edge">
<title>memory&#45;&gt;call_6_i</title>
<path fill="none" stroke="black" d="M1680.14,-150.15C1687.18,-148.09 1694.49,-145.97 1701.34,-144 1758.14,-127.69 1773.02,-125.87 1829.34,-108 1834.27,-106.44 1839.46,-104.7 1844.52,-102.95"/>
<polygon fill="black" stroke="black" points="1845.74,-106.23 1854.01,-99.61 1843.42,-99.63 1845.74,-106.23"/>
</g>
<!-- call_7_i -->
<g id="node20" class="node">
<title>call_7_i</title>
<ellipse fill="none" stroke="black" cx="1793.34" cy="-90" rx="27" ry="18"/>
<text text-anchor="middle" x="1793.34" y="-86.3" font-family="Times,serif" font-size="14.00">call</text>
</g>
<!-- memory&#45;&gt;call_7_i -->
<g id="edge20" class="edge">
<title>memory&#45;&gt;call_7_i</title>
<path fill="none" stroke="black" d="M1672.26,-147.5C1698.2,-135.4 1736.13,-117.7 1762.6,-105.35"/>
<polygon fill="black" stroke="black" points="1764.21,-108.46 1771.79,-101.06 1761.25,-102.11 1764.21,-108.46"/>
</g>
<!-- inst33 -->
<g id="node62" class="node">
<title>inst33</title>
<ellipse fill="none" stroke="black" cx="1667.34" cy="-90" rx="27" ry="18"/>
<text text-anchor="middle" x="1667.34" y="-86.3" font-family="Times,serif" font-size="14.00">ret</text>
</g>
<!-- memory&#45;&gt;inst33 -->
<g id="edge72" class="edge">
<title>memory&#45;&gt;inst33</title>
<path fill="none" stroke="black" d="M1649.15,-144.05C1651.89,-136.06 1655.23,-126.33 1658.29,-117.4"/>
<polygon fill="black" stroke="black" points="1661.65,-118.38 1661.59,-107.79 1655.03,-116.11 1661.65,-118.38"/>
</g>
<!-- state -->
<g id="node2" class="node">
<title>state</title>
<ellipse fill="none" stroke="black" cx="2159.34" cy="-234" rx="34.39" ry="18"/>
<text text-anchor="middle" x="2159.34" y="-230.3" font-family="Times,serif" font-size="14.00">state</text>
</g>
<!-- dst_coerce -->
<g id="node3" class="node">
<title>dst_coerce</title>
<ellipse fill="none" stroke="black" cx="962.34" cy="-234" rx="59.59" ry="18"/>
<text text-anchor="middle" x="962.34" y="-230.3" font-family="Times,serif" font-size="14.00">dst_coerce</text>
</g>
<!-- elems1_i -->
<g id="node31" class="node">
<title>elems1_i</title>
<ellipse fill="none" stroke="black" cx="1026.34" cy="-162" rx="42.49" ry="18"/>
<text text-anchor="middle" x="1026.34" y="-158.3" font-family="Times,serif" font-size="14.00">bitcast</text>
</g>
<!-- dst_coerce&#45;&gt;elems1_i -->
<g id="edge33" class="edge">
<title>dst_coerce&#45;&gt;elems1_i</title>
<path fill="none" stroke="black" d="M977.51,-216.41C985.68,-207.48 995.89,-196.31 1004.86,-186.5"/>
<polygon fill="black" stroke="black" points="1007.56,-188.73 1011.73,-178.99 1002.39,-184.01 1007.56,-188.73"/>
</g>
<!-- arrayidx2_i -->
<g id="node32" class="node">
<title>arrayidx2_i</title>
<ellipse fill="none" stroke="black" cx="917.34" cy="-90" rx="42.49" ry="18"/>
<text text-anchor="middle" x="917.34" y="-86.3" font-family="Times,serif" font-size="14.00">bitcast</text>
</g>
<!-- dst_coerce&#45;&gt;arrayidx2_i -->
<g id="edge34" class="edge">
<title>dst_coerce&#45;&gt;arrayidx2_i</title>
<path fill="none" stroke="black" d="M937.01,-217.7C924.36,-208.52 910.3,-195.59 903.34,-180 894.47,-160.11 899.39,-135.53 905.72,-117.25"/>
<polygon fill="black" stroke="black" points="909.03,-118.4 909.31,-107.81 902.49,-115.91 909.03,-118.4"/>
</g>
<!-- src1_coerce -->
<g id="node4" class="node">
<title>src1_coerce</title>
<ellipse fill="none" stroke="black" cx="433.34" cy="-234" rx="65.79" ry="18"/>
<text text-anchor="middle" x="433.34" y="-230.3" font-family="Times,serif" font-size="14.00">src1_coerce</text>
</g>
<!-- src1_vec_sroa_3_0_extract_shift -->
<g id="node6" class="node">
<title>src1_vec_sroa_3_0_extract_shift</title>
<ellipse fill="none" stroke="black" cx="793.34" cy="-162" rx="28.7" ry="18"/>
<text text-anchor="middle" x="793.34" y="-158.3" font-family="Times,serif" font-size="14.00">lshr</text>
</g>
<!-- src1_coerce&#45;&gt;src1_vec_sroa_3_0_extract_shift -->
<g id="edge1" class="edge">
<title>src1_coerce&#45;&gt;src1_vec_sroa_3_0_extract_shift</title>
<path fill="none" stroke="black" d="M482.13,-221.76C491.48,-219.74 501.2,-217.73 510.34,-216 611.14,-196.93 638.41,-203.21 738.34,-180 745.15,-178.42 752.33,-176.44 759.19,-174.39"/>
<polygon fill="black" stroke="black" points="760.39,-177.68 768.91,-171.38 758.32,-170.99 760.39,-177.68"/>
</g>
<!-- inst5 -->
<g id="node21" class="node">
<title>inst5</title>
<ellipse fill="none" stroke="black" cx="317.34" cy="-162" rx="28.7" ry="18"/>
<text text-anchor="middle" x="317.34" y="-158.3" font-family="Times,serif" font-size="14.00">lshr</text>
</g>
<!-- src1_coerce&#45;&gt;inst5 -->
<g id="edge23" class="edge">
<title>src1_coerce&#45;&gt;inst5</title>
<path fill="none" stroke="black" d="M407.31,-217.29C389.17,-206.34 364.96,-191.74 346.23,-180.43"/>
<polygon fill="black" stroke="black" points="347.89,-177.35 337.52,-175.18 344.28,-183.34 347.89,-177.35"/>
</g>
<!-- inst7 -->
<g id="node23" class="node">
<title>inst7</title>
<ellipse fill="none" stroke="black" cx="546.34" cy="-162" rx="28.7" ry="18"/>
<text text-anchor="middle" x="546.34" y="-158.3" font-family="Times,serif" font-size="14.00">lshr</text>
</g>
<!-- src1_coerce&#45;&gt;inst7 -->
<g id="edge25" class="edge">
<title>src1_coerce&#45;&gt;inst7</title>
<path fill="none" stroke="black" d="M458.7,-217.29C476.21,-206.44 499.53,-192 517.71,-180.74"/>
<polygon fill="black" stroke="black" points="520.03,-183.42 526.69,-175.18 516.34,-177.47 520.03,-183.42"/>
</g>
<!-- inst9 -->
<g id="node25" class="node">
<title>inst9</title>
<ellipse fill="none" stroke="black" cx="223.34" cy="-162" rx="28.7" ry="18"/>
<text text-anchor="middle" x="223.34" y="-158.3" font-family="Times,serif" font-size="14.00">lshr</text>
</g>
<!-- src1_coerce&#45;&gt;inst9 -->
<g id="edge27" class="edge">
<title>src1_coerce&#45;&gt;inst9</title>
<path fill="none" stroke="black" d="M393.35,-219.67C354.19,-206.62 295.14,-186.93 257.95,-174.53"/>
<polygon fill="black" stroke="black" points="258.66,-171.08 248.07,-171.24 256.45,-177.72 258.66,-171.08"/>
</g>
<!-- src2_coerce -->
<g id="node5" class="node">
<title>src2_coerce</title>
<ellipse fill="none" stroke="black" cx="1777.34" cy="-234" rx="65.79" ry="18"/>
<text text-anchor="middle" x="1777.34" y="-230.3" font-family="Times,serif" font-size="14.00">src2_coerce</text>
</g>
<!-- add_4_i -->
<g id="node8" class="node">
<title>add_4_i</title>
<ellipse fill="none" stroke="black" cx="1474.34" cy="-162" rx="27.9" ry="18"/>
<text text-anchor="middle" x="1474.34" y="-158.3" font-family="Times,serif" font-size="14.00">add</text>
</g>
<!-- src2_coerce&#45;&gt;add_4_i -->
<g id="edge3" class="edge">
<title>src2_coerce&#45;&gt;add_4_i</title>
<path fill="none" stroke="black" d="M1719.54,-225.47C1664.98,-217.44 1581.33,-202.7 1511.34,-180 1509.21,-179.31 1507.04,-178.53 1504.88,-177.69"/>
<polygon fill="black" stroke="black" points="1506.1,-174.41 1495.52,-173.76 1503.39,-180.86 1506.1,-174.41"/>
</g>
<!-- add_5_i -->
<g id="node12" class="node">
<title>add_5_i</title>
<ellipse fill="none" stroke="black" cx="1548.34" cy="-162" rx="27.9" ry="18"/>
<text text-anchor="middle" x="1548.34" y="-158.3" font-family="Times,serif" font-size="14.00">add</text>
</g>
<!-- src2_coerce&#45;&gt;add_5_i -->
<g id="edge8" class="edge">
<title>src2_coerce&#45;&gt;add_5_i</title>
<path fill="none" stroke="black" d="M1728.53,-221.84C1689.31,-212.32 1633.09,-197.43 1585.34,-180 1583.45,-179.31 1581.52,-178.56 1579.59,-177.78"/>
<polygon fill="black" stroke="black" points="1580.58,-174.4 1570.01,-173.66 1577.82,-180.83 1580.58,-174.4"/>
</g>
<!-- add_6_i -->
<g id="node15" class="node">
<title>add_6_i</title>
<ellipse fill="none" stroke="black" cx="2080.34" cy="-162" rx="27.9" ry="18"/>
<text text-anchor="middle" x="2080.34" y="-158.3" font-family="Times,serif" font-size="14.00">add</text>
</g>
<!-- src2_coerce&#45;&gt;add_6_i -->
<g id="edge13" class="edge">
<title>src2_coerce&#45;&gt;add_6_i</title>
<path fill="none" stroke="black" d="M1835.15,-225.47C1889.71,-217.44 1973.36,-202.7 2043.34,-180 2045.47,-179.31 2047.64,-178.53 2049.81,-177.69"/>
<polygon fill="black" stroke="black" points="2051.3,-180.86 2059.16,-173.76 2048.59,-174.41 2051.3,-180.86"/>
</g>
<!-- add_7_i -->
<g id="node18" class="node">
<title>add_7_i</title>
<ellipse fill="none" stroke="black" cx="2006.34" cy="-162" rx="27.9" ry="18"/>
<text text-anchor="middle" x="2006.34" y="-158.3" font-family="Times,serif" font-size="14.00">add</text>
</g>
<!-- src2_coerce&#45;&gt;add_7_i -->
<g id="edge18" class="edge">
<title>src2_coerce&#45;&gt;add_7_i</title>
<path fill="none" stroke="black" d="M1826.16,-221.84C1865.37,-212.32 1921.59,-197.43 1969.34,-180 1971.24,-179.31 1973.17,-178.56 1975.1,-177.78"/>
<polygon fill="black" stroke="black" points="1976.87,-180.83 1984.68,-173.66 1974.11,-174.4 1976.87,-180.83"/>
</g>
<!-- dst_vec_sroa_0_0_extract_trunc56_le -->
<g id="node27" class="node">
<title>dst_vec_sroa_0_0_extract_trunc56_le</title>
<ellipse fill="none" stroke="black" cx="821.34" cy="-90" rx="36" ry="18"/>
<text text-anchor="middle" x="821.34" y="-86.3" font-family="Times,serif" font-size="14.00">trunc</text>
</g>
<!-- src1_vec_sroa_3_0_extract_shift&#45;&gt;dst_vec_sroa_0_0_extract_trunc56_le -->
<g id="edge29" class="edge">
<title>src1_vec_sroa_3_0_extract_shift&#45;&gt;dst_vec_sroa_0_0_extract_trunc56_le</title>
<path fill="none" stroke="black" d="M799.98,-144.41C803.21,-136.34 807.17,-126.43 810.8,-117.35"/>
<polygon fill="black" stroke="black" points="814.1,-118.54 814.56,-107.96 807.6,-115.94 814.1,-118.54"/>
</g>
<!-- Imm0 -->
<g id="node7" class="node">
<title>Imm0</title>
<ellipse fill="none" stroke="black" cx="793.34" cy="-234" rx="27" ry="18"/>
<text text-anchor="middle" x="793.34" y="-230.3" font-family="Times,serif" font-size="14.00">20</text>
</g>
<!-- Imm0&#45;&gt;src1_vec_sroa_3_0_extract_shift -->
<g id="edge2" class="edge">
<title>Imm0&#45;&gt;src1_vec_sroa_3_0_extract_shift</title>
<path fill="none" stroke="black" d="M793.34,-215.7C793.34,-207.98 793.34,-198.71 793.34,-190.11"/>
<polygon fill="black" stroke="black" points="796.84,-190.1 793.34,-180.1 789.84,-190.1 796.84,-190.1"/>
</g>
<!-- add_4_i&#45;&gt;call_4_i -->
<g id="edge6" class="edge">
<title>add_4_i&#45;&gt;call_4_i</title>
<path fill="none" stroke="black" d="M1485.46,-145.12C1491.66,-136.26 1499.52,-125.04 1506.46,-115.12"/>
<polygon fill="black" stroke="black" points="1509.4,-117.02 1512.27,-106.82 1503.67,-113.01 1509.4,-117.02"/>
</g>
<!-- Imm1 -->
<g id="node9" class="node">
<title>Imm1</title>
<ellipse fill="none" stroke="black" cx="1474.34" cy="-234" rx="27" ry="18"/>
<text text-anchor="middle" x="1474.34" y="-230.3" font-family="Times,serif" font-size="14.00">4</text>
</g>
<!-- Imm1&#45;&gt;add_4_i -->
<g id="edge4" class="edge">
<title>Imm1&#45;&gt;add_4_i</title>
<path fill="none" stroke="black" d="M1474.34,-215.7C1474.34,-207.98 1474.34,-198.71 1474.34,-190.11"/>
<polygon fill="black" stroke="black" points="1477.84,-190.1 1474.34,-180.1 1470.84,-190.1 1477.84,-190.1"/>
</g>
<!-- inst14 -->
<g id="node37" class="node">
<title>inst14</title>
<ellipse fill="none" stroke="black" cx="1098.34" cy="-18" rx="34.39" ry="18"/>
<text text-anchor="middle" x="1098.34" y="-14.3" font-family="Times,serif" font-size="14.00">store</text>
</g>
<!-- call_4_i&#45;&gt;inst14 -->
<g id="edge40" class="edge">
<title>call_4_i&#45;&gt;inst14</title>
<path fill="none" stroke="black" d="M1502.83,-78C1497.87,-75.71 1492.51,-73.53 1487.34,-72 1479.08,-69.55 1240.87,-37.86 1141.36,-24.69"/>
<polygon fill="black" stroke="black" points="1141.71,-21.2 1131.34,-23.36 1140.79,-28.14 1141.71,-21.2"/>
</g>
<!-- __remill_read_memory_8 -->
<g id="node11" class="node">
<title>__remill_read_memory_8</title>
<ellipse fill="none" stroke="black" cx="1835.34" cy="-162" rx="124.58" ry="18"/>
<text text-anchor="middle" x="1835.34" y="-158.3" font-family="Times,serif" font-size="14.00">__remill_read_memory_8</text>
</g>
<!-- __remill_read_memory_8&#45;&gt;call_4_i -->
<g id="edge7" class="edge">
<title>__remill_read_memory_8&#45;&gt;call_4_i</title>
<path fill="none" stroke="black" d="M1745.03,-149.52C1690.41,-141.14 1619.88,-127.75 1559.34,-108 1557.42,-107.37 1555.47,-106.67 1553.52,-105.91"/>
<polygon fill="black" stroke="black" points="1554.49,-102.52 1543.92,-101.8 1551.74,-108.95 1554.49,-102.52"/>
</g>
<!-- __remill_read_memory_8&#45;&gt;call_5_i -->
<g id="edge12" class="edge">
<title>__remill_read_memory_8&#45;&gt;call_5_i</title>
<path fill="none" stroke="black" d="M1767.77,-146.79C1727.58,-137.52 1675.89,-124.15 1631.34,-108 1629.49,-107.33 1627.61,-106.6 1625.72,-105.82"/>
<polygon fill="black" stroke="black" points="1626.95,-102.54 1616.38,-101.74 1624.14,-108.96 1626.95,-102.54"/>
</g>
<!-- __remill_read_memory_8&#45;&gt;call_6_i -->
<g id="edge17" class="edge">
<title>__remill_read_memory_8&#45;&gt;call_6_i</title>
<path fill="none" stroke="black" d="M1845.51,-144.05C1850.54,-135.68 1856.7,-125.4 1862.26,-116.13"/>
<polygon fill="black" stroke="black" points="1865.42,-117.68 1867.56,-107.31 1859.41,-114.08 1865.42,-117.68"/>
</g>
<!-- __remill_read_memory_8&#45;&gt;call_7_i -->
<g id="edge22" class="edge">
<title>__remill_read_memory_8&#45;&gt;call_7_i</title>
<path fill="none" stroke="black" d="M1825.18,-144.05C1820.15,-135.68 1813.99,-125.4 1808.42,-116.13"/>
<polygon fill="black" stroke="black" points="1811.27,-114.08 1803.13,-107.31 1805.27,-117.68 1811.27,-114.08"/>
</g>
<!-- add_5_i&#45;&gt;call_5_i -->
<g id="edge11" class="edge">
<title>add_5_i&#45;&gt;call_5_i</title>
<path fill="none" stroke="black" d="M1559.01,-145.12C1564.9,-136.34 1572.34,-125.26 1578.95,-115.42"/>
<polygon fill="black" stroke="black" points="1582.05,-117.07 1584.72,-106.82 1576.24,-113.17 1582.05,-117.07"/>
</g>
<!-- Imm2 -->
<g id="node13" class="node">
<title>Imm2</title>
<ellipse fill="none" stroke="black" cx="1548.34" cy="-234" rx="27" ry="18"/>
<text text-anchor="middle" x="1548.34" y="-230.3" font-family="Times,serif" font-size="14.00">5</text>
</g>
<!-- Imm2&#45;&gt;add_5_i -->
<g id="edge9" class="edge">
<title>Imm2&#45;&gt;add_5_i</title>
<path fill="none" stroke="black" d="M1548.34,-215.7C1548.34,-207.98 1548.34,-198.71 1548.34,-190.11"/>
<polygon fill="black" stroke="black" points="1551.84,-190.1 1548.34,-180.1 1544.84,-190.1 1551.84,-190.1"/>
</g>
<!-- inst20 -->
<g id="node45" class="node">
<title>inst20</title>
<ellipse fill="none" stroke="black" cx="1271.34" cy="-18" rx="34.39" ry="18"/>
<text text-anchor="middle" x="1271.34" y="-14.3" font-family="Times,serif" font-size="14.00">store</text>
</g>
<!-- call_5_i&#45;&gt;inst20 -->
<g id="edge50" class="edge">
<title>call_5_i&#45;&gt;inst20</title>
<path fill="none" stroke="black" d="M1574.78,-78.17C1569.82,-75.88 1564.47,-73.65 1559.34,-72 1475.06,-44.86 1372.16,-30.11 1314.98,-23.46"/>
<polygon fill="black" stroke="black" points="1315.19,-19.96 1304.86,-22.32 1314.4,-26.92 1315.19,-19.96"/>
</g>
<!-- add_6_i&#45;&gt;call_6_i -->
<g id="edge16" class="edge">
<title>add_6_i&#45;&gt;call_6_i</title>
<path fill="none" stroke="black" d="M2058.62,-150.49C2053.65,-148.23 2048.35,-145.94 2043.34,-144 1998.61,-126.66 1945.59,-110.46 1911.72,-100.65"/>
<polygon fill="black" stroke="black" points="1912.44,-97.21 1901.86,-97.81 1910.5,-103.94 1912.44,-97.21"/>
</g>
<!-- Imm3 -->
<g id="node16" class="node">
<title>Imm3</title>
<ellipse fill="none" stroke="black" cx="2080.34" cy="-234" rx="27" ry="18"/>
<text text-anchor="middle" x="2080.34" y="-230.3" font-family="Times,serif" font-size="14.00">6</text>
</g>
<!-- Imm3&#45;&gt;add_6_i -->
<g id="edge14" class="edge">
<title>Imm3&#45;&gt;add_6_i</title>
<path fill="none" stroke="black" d="M2080.34,-215.7C2080.34,-207.98 2080.34,-198.71 2080.34,-190.11"/>
<polygon fill="black" stroke="black" points="2083.84,-190.1 2080.34,-180.1 2076.84,-190.1 2083.84,-190.1"/>
</g>
<!-- inst26 -->
<g id="node53" class="node">
<title>inst26</title>
<ellipse fill="none" stroke="black" cx="1987.34" cy="-18" rx="34.39" ry="18"/>
<text text-anchor="middle" x="1987.34" y="-14.3" font-family="Times,serif" font-size="14.00">store</text>
</g>
<!-- call_6_i&#45;&gt;inst26 -->
<g id="edge60" class="edge">
<title>call_6_i&#45;&gt;inst26</title>
<path fill="none" stroke="black" d="M1896.5,-76.81C1913.37,-66.07 1938.21,-50.27 1957.65,-37.9"/>
<polygon fill="black" stroke="black" points="1959.59,-40.81 1966.15,-32.49 1955.83,-34.9 1959.59,-40.81"/>
</g>
<!-- add_7_i&#45;&gt;call_7_i -->
<g id="edge21" class="edge">
<title>add_7_i&#45;&gt;call_7_i</title>
<path fill="none" stroke="black" d="M1984.67,-150.36C1979.69,-148.11 1974.39,-145.85 1969.34,-144 1913.88,-123.6 1897.67,-125.87 1841.34,-108 1836.41,-106.44 1831.23,-104.7 1826.17,-102.95"/>
<polygon fill="black" stroke="black" points="1827.27,-99.63 1816.68,-99.61 1824.95,-106.23 1827.27,-99.63"/>
</g>
<!-- Imm4 -->
<g id="node19" class="node">
<title>Imm4</title>
<ellipse fill="none" stroke="black" cx="2006.34" cy="-234" rx="27" ry="18"/>
<text text-anchor="middle" x="2006.34" y="-230.3" font-family="Times,serif" font-size="14.00">7</text>
</g>
<!-- Imm4&#45;&gt;add_7_i -->
<g id="edge19" class="edge">
<title>Imm4&#45;&gt;add_7_i</title>
<path fill="none" stroke="black" d="M2006.34,-215.7C2006.34,-207.98 2006.34,-198.71 2006.34,-190.11"/>
<polygon fill="black" stroke="black" points="2009.84,-190.1 2006.34,-180.1 2002.84,-190.1 2009.84,-190.1"/>
</g>
<!-- inst32 -->
<g id="node61" class="node">
<title>inst32</title>
<ellipse fill="none" stroke="black" cx="1576.34" cy="-18" rx="34.39" ry="18"/>
<text text-anchor="middle" x="1576.34" y="-14.3" font-family="Times,serif" font-size="14.00">store</text>
</g>
<!-- call_7_i&#45;&gt;inst32 -->
<g id="edge70" class="edge">
<title>call_7_i&#45;&gt;inst32</title>
<path fill="none" stroke="black" d="M1769.29,-81.24C1731.85,-69.16 1659.28,-45.75 1614.6,-31.34"/>
<polygon fill="black" stroke="black" points="1615.56,-27.97 1604.96,-28.23 1613.41,-34.63 1615.56,-27.97"/>
</g>
<!-- dst_vec_sroa_12_0_extract_trunc68_le -->
<g id="node30" class="node">
<title>dst_vec_sroa_12_0_extract_trunc68_le</title>
<ellipse fill="none" stroke="black" cx="297.34" cy="-90" rx="36" ry="18"/>
<text text-anchor="middle" x="297.34" y="-86.3" font-family="Times,serif" font-size="14.00">trunc</text>
</g>
<!-- inst5&#45;&gt;dst_vec_sroa_12_0_extract_trunc68_le -->
<g id="edge32" class="edge">
<title>inst5&#45;&gt;dst_vec_sroa_12_0_extract_trunc68_le</title>
<path fill="none" stroke="black" d="M312.5,-144.05C310.27,-136.26 307.58,-126.82 305.08,-118.08"/>
<polygon fill="black" stroke="black" points="308.39,-116.93 302.28,-108.28 301.66,-118.85 308.39,-116.93"/>
</g>
<!-- Imm6 -->
<g id="node22" class="node">
<title>Imm6</title>
<ellipse fill="none" stroke="black" cx="317.34" cy="-234" rx="27" ry="18"/>
<text text-anchor="middle" x="317.34" y="-230.3" font-family="Times,serif" font-size="14.00">38</text>
</g>
<!-- Imm6&#45;&gt;inst5 -->
<g id="edge24" class="edge">
<title>Imm6&#45;&gt;inst5</title>
<path fill="none" stroke="black" d="M317.34,-215.7C317.34,-207.98 317.34,-198.71 317.34,-190.11"/>
<polygon fill="black" stroke="black" points="320.84,-190.1 317.34,-180.1 313.84,-190.1 320.84,-190.1"/>
</g>
<!-- dst_vec_sroa_10_0_extract_trunc64_le -->
<g id="node29" class="node">
<title>dst_vec_sroa_10_0_extract_trunc64_le</title>
<ellipse fill="none" stroke="black" cx="559.34" cy="-90" rx="36" ry="18"/>
<text text-anchor="middle" x="559.34" y="-86.3" font-family="Times,serif" font-size="14.00">trunc</text>
</g>
<!-- inst7&#45;&gt;dst_vec_sroa_10_0_extract_trunc64_le -->
<g id="edge31" class="edge">
<title>inst7&#45;&gt;dst_vec_sroa_10_0_extract_trunc64_le</title>
<path fill="none" stroke="black" d="M549.49,-144.05C550.92,-136.35 552.65,-127.03 554.26,-118.36"/>
<polygon fill="black" stroke="black" points="557.75,-118.75 556.13,-108.28 550.87,-117.47 557.75,-118.75"/>
</g>
<!-- Imm8 -->
<g id="node24" class="node">
<title>Imm8</title>
<ellipse fill="none" stroke="black" cx="546.34" cy="-234" rx="27" ry="18"/>
<text text-anchor="middle" x="546.34" y="-230.3" font-family="Times,serif" font-size="14.00">30</text>
</g>
<!-- Imm8&#45;&gt;inst7 -->
<g id="edge26" class="edge">
<title>Imm8&#45;&gt;inst7</title>
<path fill="none" stroke="black" d="M546.34,-215.7C546.34,-207.98 546.34,-198.71 546.34,-190.11"/>
<polygon fill="black" stroke="black" points="549.84,-190.1 546.34,-180.1 542.84,-190.1 549.84,-190.1"/>
</g>
<!-- dst_vec_sroa_8_0_extract_trunc60_le -->
<g id="node28" class="node">
<title>dst_vec_sroa_8_0_extract_trunc60_le</title>
<ellipse fill="none" stroke="black" cx="208.34" cy="-90" rx="36" ry="18"/>
<text text-anchor="middle" x="208.34" y="-86.3" font-family="Times,serif" font-size="14.00">trunc</text>
</g>
<!-- inst9&#45;&gt;dst_vec_sroa_8_0_extract_trunc60_le -->
<g id="edge30" class="edge">
<title>inst9&#45;&gt;dst_vec_sroa_8_0_extract_trunc60_le</title>
<path fill="none" stroke="black" d="M219.71,-144.05C218.04,-136.26 216.02,-126.82 214.15,-118.08"/>
<polygon fill="black" stroke="black" points="217.56,-117.32 212.04,-108.28 210.72,-118.79 217.56,-117.32"/>
</g>
<!-- Imm10 -->
<g id="node26" class="node">
<title>Imm10</title>
<ellipse fill="none" stroke="black" cx="223.34" cy="-234" rx="27" ry="18"/>
<text text-anchor="middle" x="223.34" y="-230.3" font-family="Times,serif" font-size="14.00">28</text>
</g>
<!-- Imm10&#45;&gt;inst9 -->
<g id="edge28" class="edge">
<title>Imm10&#45;&gt;inst9</title>
<path fill="none" stroke="black" d="M223.34,-215.7C223.34,-207.98 223.34,-198.71 223.34,-190.11"/>
<polygon fill="black" stroke="black" points="226.84,-190.1 223.34,-180.1 219.84,-190.1 226.84,-190.1"/>
</g>
<!-- inst11 -->
<g id="node33" class="node">
<title>inst11</title>
<ellipse fill="none" stroke="black" cx="869.34" cy="-18" rx="34.39" ry="18"/>
<text text-anchor="middle" x="869.34" y="-14.3" font-family="Times,serif" font-size="14.00">store</text>
</g>
<!-- dst_vec_sroa_0_0_extract_trunc56_le&#45;&gt;inst11 -->
<g id="edge35" class="edge">
<title>dst_vec_sroa_0_0_extract_trunc56_le&#45;&gt;inst11</title>
<path fill="none" stroke="black" d="M832.48,-72.76C838.41,-64.11 845.84,-53.27 852.47,-43.6"/>
<polygon fill="black" stroke="black" points="855.5,-45.37 858.27,-35.15 849.73,-41.42 855.5,-45.37"/>
</g>
<!-- inst17 -->
<g id="node41" class="node">
<title>inst17</title>
<ellipse fill="none" stroke="black" cx="143.34" cy="-18" rx="34.39" ry="18"/>
<text text-anchor="middle" x="143.34" y="-14.3" font-family="Times,serif" font-size="14.00">store</text>
</g>
<!-- dst_vec_sroa_8_0_extract_trunc60_le&#45;&gt;inst17 -->
<g id="edge45" class="edge">
<title>dst_vec_sroa_8_0_extract_trunc60_le&#45;&gt;inst17</title>
<path fill="none" stroke="black" d="M193.92,-73.46C185.33,-64.22 174.28,-52.32 164.7,-42"/>
<polygon fill="black" stroke="black" points="167.1,-39.44 157.73,-34.49 161.97,-44.2 167.1,-39.44"/>
</g>
<!-- inst23 -->
<g id="node49" class="node">
<title>inst23</title>
<ellipse fill="none" stroke="black" cx="624.34" cy="-18" rx="34.39" ry="18"/>
<text text-anchor="middle" x="624.34" y="-14.3" font-family="Times,serif" font-size="14.00">store</text>
</g>
<!-- dst_vec_sroa_10_0_extract_trunc64_le&#45;&gt;inst23 -->
<g id="edge55" class="edge">
<title>dst_vec_sroa_10_0_extract_trunc64_le&#45;&gt;inst23</title>
<path fill="none" stroke="black" d="M573.77,-73.46C582.35,-64.22 593.4,-52.32 602.98,-42"/>
<polygon fill="black" stroke="black" points="605.72,-44.2 609.96,-34.49 600.59,-39.44 605.72,-44.2"/>
</g>
<!-- inst29 -->
<g id="node57" class="node">
<title>inst29</title>
<ellipse fill="none" stroke="black" cx="362.34" cy="-18" rx="34.39" ry="18"/>
<text text-anchor="middle" x="362.34" y="-14.3" font-family="Times,serif" font-size="14.00">store</text>
</g>
<!-- dst_vec_sroa_12_0_extract_trunc68_le&#45;&gt;inst29 -->
<g id="edge65" class="edge">
<title>dst_vec_sroa_12_0_extract_trunc68_le&#45;&gt;inst29</title>
<path fill="none" stroke="black" d="M311.77,-73.46C320.35,-64.22 331.4,-52.32 340.98,-42"/>
<polygon fill="black" stroke="black" points="343.72,-44.2 347.96,-34.49 338.59,-39.44 343.72,-44.2"/>
</g>
<!-- arrayidx2_1_i -->
<g id="node34" class="node">
<title>arrayidx2_1_i</title>
<ellipse fill="none" stroke="black" cx="1055.34" cy="-90" rx="77.19" ry="18"/>
<text text-anchor="middle" x="1055.34" y="-86.3" font-family="Times,serif" font-size="14.00">getelementptr</text>
</g>
<!-- elems1_i&#45;&gt;arrayidx2_1_i -->
<g id="edge37" class="edge">
<title>elems1_i&#45;&gt;arrayidx2_1_i</title>
<path fill="none" stroke="black" d="M1033.36,-144.05C1036.63,-136.18 1040.59,-126.62 1044.24,-117.79"/>
<polygon fill="black" stroke="black" points="1047.59,-118.85 1048.19,-108.28 1041.13,-116.17 1047.59,-118.85"/>
</g>
<!-- arrayidx2_2_i -->
<g id="node38" class="node">
<title>arrayidx2_2_i</title>
<ellipse fill="none" stroke="black" cx="77.34" cy="-90" rx="77.19" ry="18"/>
<text text-anchor="middle" x="77.34" y="-86.3" font-family="Times,serif" font-size="14.00">getelementptr</text>
</g>
<!-- elems1_i&#45;&gt;arrayidx2_2_i -->
<g id="edge42" class="edge">
<title>elems1_i&#45;&gt;arrayidx2_2_i</title>
<path fill="none" stroke="black" d="M995.96,-149.35C989.26,-147.21 982.13,-145.26 975.34,-144 620.13,-78.25 522,-151.15 163.34,-108 156.18,-107.14 148.71,-106.01 141.31,-104.75"/>
<polygon fill="black" stroke="black" points="141.74,-101.27 131.28,-102.95 140.5,-108.16 141.74,-101.27"/>
</g>
<!-- arrayidx2_3_i -->
<g id="node42" class="node">
<title>arrayidx2_3_i</title>
<ellipse fill="none" stroke="black" cx="1228.34" cy="-90" rx="77.19" ry="18"/>
<text text-anchor="middle" x="1228.34" y="-86.3" font-family="Times,serif" font-size="14.00">getelementptr</text>
</g>
<!-- elems1_i&#45;&gt;arrayidx2_3_i -->
<g id="edge47" class="edge">
<title>elems1_i&#45;&gt;arrayidx2_3_i</title>
<path fill="none" stroke="black" d="M1058.35,-149.91C1090.31,-138.83 1139.94,-121.64 1177.33,-108.68"/>
<polygon fill="black" stroke="black" points="1178.74,-111.89 1187.05,-105.31 1176.45,-105.28 1178.74,-111.89"/>
</g>
<!-- arrayidx2_4_i -->
<g id="node46" class="node">
<title>arrayidx2_4_i</title>
<ellipse fill="none" stroke="black" cx="690.34" cy="-90" rx="77.19" ry="18"/>
<text text-anchor="middle" x="690.34" y="-86.3" font-family="Times,serif" font-size="14.00">getelementptr</text>
</g>
<!-- elems1_i&#45;&gt;arrayidx2_4_i -->
<g id="edge52" class="edge">
<title>elems1_i&#45;&gt;arrayidx2_4_i</title>
<path fill="none" stroke="black" d="M994.99,-149.77C988.54,-147.68 981.76,-145.64 975.34,-144 888.27,-121.73 864.66,-124.72 776.34,-108 770.16,-106.83 763.73,-105.59 757.3,-104.34"/>
<polygon fill="black" stroke="black" points="757.7,-100.86 747.22,-102.38 756.36,-107.73 757.7,-100.86"/>
</g>
<!-- arrayidx2_5_i -->
<g id="node50" class="node">
<title>arrayidx2_5_i</title>
<ellipse fill="none" stroke="black" cx="2097.34" cy="-90" rx="77.19" ry="18"/>
<text text-anchor="middle" x="2097.34" y="-86.3" font-family="Times,serif" font-size="14.00">getelementptr</text>
</g>
<!-- elems1_i&#45;&gt;arrayidx2_5_i -->
<g id="edge57" class="edge">
<title>elems1_i&#45;&gt;arrayidx2_5_i</title>
<path fill="none" stroke="black" d="M1056.72,-149.34C1063.42,-147.2 1070.55,-145.25 1077.34,-144 1443.07,-76.54 1542.29,-133.11 1913.34,-108 1947.71,-105.67 1985.62,-102.31 2018.05,-99.18"/>
<polygon fill="black" stroke="black" points="2018.77,-102.63 2028.38,-98.18 2018.09,-95.66 2018.77,-102.63"/>
</g>
<!-- arrayidx2_6_i -->
<g id="node54" class="node">
<title>arrayidx2_6_i</title>
<ellipse fill="none" stroke="black" cx="428.34" cy="-90" rx="77.19" ry="18"/>
<text text-anchor="middle" x="428.34" y="-86.3" font-family="Times,serif" font-size="14.00">getelementptr</text>
</g>
<!-- elems1_i&#45;&gt;arrayidx2_6_i -->
<g id="edge62" class="edge">
<title>elems1_i&#45;&gt;arrayidx2_6_i</title>
<path fill="none" stroke="black" d="M995.66,-149.43C989.04,-147.32 982.02,-145.35 975.34,-144 773.92,-103.2 717.94,-135.97 514.34,-108 507.56,-107.07 500.5,-105.94 493.47,-104.71"/>
<polygon fill="black" stroke="black" points="493.7,-101.19 483.24,-102.85 492.45,-108.08 493.7,-101.19"/>
</g>
<!-- arrayidx2_7_i -->
<g id="node58" class="node">
<title>arrayidx2_7_i</title>
<ellipse fill="none" stroke="black" cx="1401.34" cy="-90" rx="77.19" ry="18"/>
<text text-anchor="middle" x="1401.34" y="-86.3" font-family="Times,serif" font-size="14.00">getelementptr</text>
</g>
<!-- elems1_i&#45;&gt;arrayidx2_7_i -->
<g id="edge67" class="edge">
<title>elems1_i&#45;&gt;arrayidx2_7_i</title>
<path fill="none" stroke="black" d="M1057.38,-149.72C1063.92,-147.61 1070.81,-145.57 1077.34,-144 1180.93,-119.06 1209.37,-126.22 1314.34,-108 1320.97,-106.85 1327.86,-105.6 1334.74,-104.31"/>
<polygon fill="black" stroke="black" points="1335.61,-107.71 1344.78,-102.41 1334.3,-100.83 1335.61,-107.71"/>
</g>
<!-- arrayidx2_i&#45;&gt;inst11 -->
<g id="edge36" class="edge">
<title>arrayidx2_i&#45;&gt;inst11</title>
<path fill="none" stroke="black" d="M905.97,-72.41C900.11,-63.87 892.85,-53.28 886.34,-43.79"/>
<polygon fill="black" stroke="black" points="889.18,-41.74 880.64,-35.47 883.41,-45.7 889.18,-41.74"/>
</g>
<!-- arrayidx2_1_i&#45;&gt;inst14 -->
<g id="edge41" class="edge">
<title>arrayidx2_1_i&#45;&gt;inst14</title>
<path fill="none" stroke="black" d="M1065.75,-72.05C1070.95,-63.59 1077.34,-53.19 1083.08,-43.84"/>
<polygon fill="black" stroke="black" points="1086.07,-45.66 1088.33,-35.31 1080.11,-42 1086.07,-45.66"/>
</g>
<!-- Imm12 -->
<g id="node35" class="node">
<title>Imm12</title>
<ellipse fill="none" stroke="black" cx="939.34" cy="-162" rx="27" ry="18"/>
<text text-anchor="middle" x="939.34" y="-158.3" font-family="Times,serif" font-size="14.00">0</text>
</g>
<!-- Imm12&#45;&gt;arrayidx2_1_i -->
<g id="edge38" class="edge">
<title>Imm12&#45;&gt;arrayidx2_1_i</title>
<path fill="none" stroke="black" d="M958.76,-149.28C975.5,-139.18 1000.09,-124.34 1020.27,-112.16"/>
<polygon fill="black" stroke="black" points="1022.15,-115.12 1028.9,-106.96 1018.53,-109.13 1022.15,-115.12"/>
</g>
<!-- Imm13 -->
<g id="node36" class="node">
<title>Imm13</title>
<ellipse fill="none" stroke="black" cx="1113.34" cy="-162" rx="27" ry="18"/>
<text text-anchor="middle" x="1113.34" y="-158.3" font-family="Times,serif" font-size="14.00">1</text>
</g>
<!-- Imm13&#45;&gt;arrayidx2_1_i -->
<g id="edge39" class="edge">
<title>Imm13&#45;&gt;arrayidx2_1_i</title>
<path fill="none" stroke="black" d="M1100.76,-145.81C1093.57,-137.14 1084.39,-126.05 1076.16,-116.12"/>
<polygon fill="black" stroke="black" points="1078.61,-113.59 1069.53,-108.13 1073.22,-118.06 1078.61,-113.59"/>
</g>
<!-- arrayidx2_2_i&#45;&gt;inst17 -->
<g id="edge46" class="edge">
<title>arrayidx2_2_i&#45;&gt;inst17</title>
<path fill="none" stroke="black" d="M93.32,-72.05C101.87,-62.99 112.52,-51.69 121.79,-41.86"/>
<polygon fill="black" stroke="black" points="124.55,-44.03 128.86,-34.36 119.46,-39.23 124.55,-44.03"/>
</g>
<!-- Imm15 -->
<g id="node39" class="node">
<title>Imm15</title>
<ellipse fill="none" stroke="black" cx="41.34" cy="-162" rx="27" ry="18"/>
<text text-anchor="middle" x="41.34" y="-158.3" font-family="Times,serif" font-size="14.00">0</text>
</g>
<!-- Imm15&#45;&gt;arrayidx2_2_i -->
<g id="edge43" class="edge">
<title>Imm15&#45;&gt;arrayidx2_2_i</title>
<path fill="none" stroke="black" d="M49.69,-144.76C53.89,-136.61 59.07,-126.53 63.81,-117.31"/>
<polygon fill="black" stroke="black" points="67.08,-118.62 68.54,-108.12 60.85,-115.42 67.08,-118.62"/>
</g>
<!-- Imm16 -->
<g id="node40" class="node">
<title>Imm16</title>
<ellipse fill="none" stroke="black" cx="113.34" cy="-162" rx="27" ry="18"/>
<text text-anchor="middle" x="113.34" y="-158.3" font-family="Times,serif" font-size="14.00">2</text>
</g>
<!-- Imm16&#45;&gt;arrayidx2_2_i -->
<g id="edge44" class="edge">
<title>Imm16&#45;&gt;arrayidx2_2_i</title>
<path fill="none" stroke="black" d="M104.99,-144.76C100.8,-136.61 95.62,-126.53 90.87,-117.31"/>
<polygon fill="black" stroke="black" points="93.84,-115.42 86.15,-108.12 87.61,-118.62 93.84,-115.42"/>
</g>
<!-- arrayidx2_3_i&#45;&gt;inst20 -->
<g id="edge51" class="edge">
<title>arrayidx2_3_i&#45;&gt;inst20</title>
<path fill="none" stroke="black" d="M1238.75,-72.05C1243.95,-63.59 1250.34,-53.19 1256.08,-43.84"/>
<polygon fill="black" stroke="black" points="1259.07,-45.66 1261.33,-35.31 1253.11,-42 1259.07,-45.66"/>
</g>
<!-- Imm18 -->
<g id="node43" class="node">
<title>Imm18</title>
<ellipse fill="none" stroke="black" cx="1185.34" cy="-162" rx="27" ry="18"/>
<text text-anchor="middle" x="1185.34" y="-158.3" font-family="Times,serif" font-size="14.00">0</text>
</g>
<!-- Imm18&#45;&gt;arrayidx2_3_i -->
<g id="edge48" class="edge">
<title>Imm18&#45;&gt;arrayidx2_3_i</title>
<path fill="none" stroke="black" d="M1195.1,-145.12C1200.21,-136.8 1206.59,-126.41 1212.39,-116.96"/>
<polygon fill="black" stroke="black" points="1215.47,-118.64 1217.72,-108.29 1209.5,-114.98 1215.47,-118.64"/>
</g>
<!-- Imm19 -->
<g id="node44" class="node">
<title>Imm19</title>
<ellipse fill="none" stroke="black" cx="1257.34" cy="-162" rx="27" ry="18"/>
<text text-anchor="middle" x="1257.34" y="-158.3" font-family="Times,serif" font-size="14.00">3</text>
</g>
<!-- Imm19&#45;&gt;arrayidx2_3_i -->
<g id="edge49" class="edge">
<title>Imm19&#45;&gt;arrayidx2_3_i</title>
<path fill="none" stroke="black" d="M1250.47,-144.41C1247.12,-136.34 1243.02,-126.43 1239.26,-117.35"/>
<polygon fill="black" stroke="black" points="1242.43,-115.86 1235.37,-107.96 1235.96,-118.53 1242.43,-115.86"/>
</g>
<!-- arrayidx2_4_i&#45;&gt;inst23 -->
<g id="edge56" class="edge">
<title>arrayidx2_4_i&#45;&gt;inst23</title>
<path fill="none" stroke="black" d="M674.37,-72.05C665.82,-62.99 655.17,-51.69 645.9,-41.86"/>
<polygon fill="black" stroke="black" points="648.23,-39.23 638.82,-34.36 643.14,-44.03 648.23,-39.23"/>
</g>
<!-- Imm21 -->
<g id="node47" class="node">
<title>Imm21</title>
<ellipse fill="none" stroke="black" cx="630.34" cy="-162" rx="27" ry="18"/>
<text text-anchor="middle" x="630.34" y="-158.3" font-family="Times,serif" font-size="14.00">0</text>
</g>
<!-- Imm21&#45;&gt;arrayidx2_4_i -->
<g id="edge53" class="edge">
<title>Imm21&#45;&gt;arrayidx2_4_i</title>
<path fill="none" stroke="black" d="M643.36,-145.81C650.87,-137.05 660.49,-125.83 669.07,-115.82"/>
<polygon fill="black" stroke="black" points="671.81,-118 675.66,-108.13 666.5,-113.44 671.81,-118"/>
</g>
<!-- Imm22 -->
<g id="node48" class="node">
<title>Imm22</title>
<ellipse fill="none" stroke="black" cx="702.34" cy="-162" rx="27" ry="18"/>
<text text-anchor="middle" x="702.34" y="-158.3" font-family="Times,serif" font-size="14.00">4</text>
</g>
<!-- Imm22&#45;&gt;arrayidx2_4_i -->
<g id="edge54" class="edge">
<title>Imm22&#45;&gt;arrayidx2_4_i</title>
<path fill="none" stroke="black" d="M699.44,-144.05C698.12,-136.35 696.52,-127.03 695.03,-118.36"/>
<polygon fill="black" stroke="black" points="698.44,-117.54 693.3,-108.28 691.54,-118.72 698.44,-117.54"/>
</g>
<!-- arrayidx2_5_i&#45;&gt;inst26 -->
<g id="edge61" class="edge">
<title>arrayidx2_5_i&#45;&gt;inst26</title>
<path fill="none" stroke="black" d="M2072.11,-72.94C2055.69,-62.49 2034.2,-48.82 2016.97,-37.85"/>
<polygon fill="black" stroke="black" points="2018.71,-34.81 2008.4,-32.4 2014.96,-40.72 2018.71,-34.81"/>
</g>
<!-- Imm24 -->
<g id="node51" class="node">
<title>Imm24</title>
<ellipse fill="none" stroke="black" cx="2225.34" cy="-162" rx="27" ry="18"/>
<text text-anchor="middle" x="2225.34" y="-158.3" font-family="Times,serif" font-size="14.00">0</text>
</g>
<!-- Imm24&#45;&gt;arrayidx2_5_i -->
<g id="edge58" class="edge">
<title>Imm24&#45;&gt;arrayidx2_5_i</title>
<path fill="none" stroke="black" d="M2205.06,-149.91C2186.27,-139.63 2157.84,-124.08 2134.9,-111.54"/>
<polygon fill="black" stroke="black" points="2136.55,-108.45 2126.1,-106.73 2133.19,-114.59 2136.55,-108.45"/>
</g>
<!-- Imm25 -->
<g id="node52" class="node">
<title>Imm25</title>
<ellipse fill="none" stroke="black" cx="2153.34" cy="-162" rx="27" ry="18"/>
<text text-anchor="middle" x="2153.34" y="-158.3" font-family="Times,serif" font-size="14.00">5</text>
</g>
<!-- Imm25&#45;&gt;arrayidx2_5_i -->
<g id="edge59" class="edge">
<title>Imm25&#45;&gt;arrayidx2_5_i</title>
<path fill="none" stroke="black" d="M2141.19,-145.81C2134.26,-137.14 2125.38,-126.05 2117.44,-116.12"/>
<polygon fill="black" stroke="black" points="2120.02,-113.75 2111.04,-108.13 2114.56,-118.12 2120.02,-113.75"/>
</g>
<!-- arrayidx2_6_i&#45;&gt;inst29 -->
<g id="edge66" class="edge">
<title>arrayidx2_6_i&#45;&gt;inst29</title>
<path fill="none" stroke="black" d="M412.37,-72.05C403.82,-62.99 393.17,-51.69 383.9,-41.86"/>
<polygon fill="black" stroke="black" points="386.23,-39.23 376.82,-34.36 381.14,-44.03 386.23,-39.23"/>
</g>
<!-- Imm27 -->
<g id="node55" class="node">
<title>Imm27</title>
<ellipse fill="none" stroke="black" cx="399.34" cy="-162" rx="27" ry="18"/>
<text text-anchor="middle" x="399.34" y="-158.3" font-family="Times,serif" font-size="14.00">0</text>
</g>
<!-- Imm27&#45;&gt;arrayidx2_6_i -->
<g id="edge63" class="edge">
<title>Imm27&#45;&gt;arrayidx2_6_i</title>
<path fill="none" stroke="black" d="M406.22,-144.41C409.56,-136.34 413.66,-126.43 417.42,-117.35"/>
<polygon fill="black" stroke="black" points="420.72,-118.53 421.32,-107.96 414.26,-115.86 420.72,-118.53"/>
</g>
<!-- Imm28 -->
<g id="node56" class="node">
<title>Imm28</title>
<ellipse fill="none" stroke="black" cx="471.34" cy="-162" rx="27" ry="18"/>
<text text-anchor="middle" x="471.34" y="-158.3" font-family="Times,serif" font-size="14.00">6</text>
</g>
<!-- Imm28&#45;&gt;arrayidx2_6_i -->
<g id="edge64" class="edge">
<title>Imm28&#45;&gt;arrayidx2_6_i</title>
<path fill="none" stroke="black" d="M461.59,-145.12C456.48,-136.8 450.1,-126.41 444.29,-116.96"/>
<polygon fill="black" stroke="black" points="447.18,-114.98 438.97,-108.29 441.22,-118.64 447.18,-114.98"/>
</g>
<!-- arrayidx2_7_i&#45;&gt;inst32 -->
<g id="edge71" class="edge">
<title>arrayidx2_7_i&#45;&gt;inst32</title>
<path fill="none" stroke="black" d="M1438.46,-74.15C1468.47,-62.15 1510.49,-45.34 1540.24,-33.44"/>
<polygon fill="black" stroke="black" points="1541.83,-36.57 1549.82,-29.61 1539.23,-30.07 1541.83,-36.57"/>
</g>
<!-- Imm30 -->
<g id="node59" class="node">
<title>Imm30</title>
<ellipse fill="none" stroke="black" cx="1329.34" cy="-162" rx="27" ry="18"/>
<text text-anchor="middle" x="1329.34" y="-158.3" font-family="Times,serif" font-size="14.00">0</text>
</g>
<!-- Imm30&#45;&gt;arrayidx2_7_i -->
<g id="edge68" class="edge">
<title>Imm30&#45;&gt;arrayidx2_7_i</title>
<path fill="none" stroke="black" d="M1343.91,-146.83C1353.4,-137.62 1366,-125.37 1376.98,-114.69"/>
<polygon fill="black" stroke="black" points="1379.53,-117.09 1384.26,-107.61 1374.65,-112.07 1379.53,-117.09"/>
</g>
<!-- Imm31 -->
<g id="node60" class="node">
<title>Imm31</title>
<ellipse fill="none" stroke="black" cx="1401.34" cy="-162" rx="27" ry="18"/>
<text text-anchor="middle" x="1401.34" y="-158.3" font-family="Times,serif" font-size="14.00">7</text>
</g>
<!-- Imm31&#45;&gt;arrayidx2_7_i -->
<g id="edge69" class="edge">
<title>Imm31&#45;&gt;arrayidx2_7_i</title>
<path fill="none" stroke="black" d="M1401.34,-143.7C1401.34,-135.98 1401.34,-126.71 1401.34,-118.11"/>
<polygon fill="black" stroke="black" points="1404.84,-118.1 1401.34,-108.1 1397.84,-118.1 1404.84,-118.1"/>
</g>
</g>
</svg>
