<?xml version="1.0" encoding="UTF-8" standalone="no"?>
<!DOCTYPE svg PUBLIC "-//W3C//DTD SVG 1.1//EN"
 "http://www.w3.org/Graphics/SVG/1.1/DTD/svg11.dtd">
<!-- Generated by graphviz version 2.49.3 (0)
 -->
<!-- Pages: 1 -->
<svg width="266pt" height="260pt"
 viewBox="0.00 0.00 266.24 260.00" xmlns="http://www.w3.org/2000/svg" xmlns:xlink="http://www.w3.org/1999/xlink">
<g id="graph0" class="graph" transform="scale(1 1) rotate(0) translate(4 256)">
<polygon fill="white" stroke="transparent" points="-4,4 -4,-256 262.24,-256 262.24,4 -4,4"/>
<!-- dst_coerce -->
<g id="node1" class="node">
<title>dst_coerce</title>
<ellipse fill="none" stroke="black" cx="31.75" cy="-90" rx="27" ry="18"/>
<text text-anchor="middle" x="31.75" y="-86.3" font-family="Times,serif" font-size="14.00">dst</text>
</g>
<!-- inst0 -->
<g id="node7" class="node">
<title>inst0</title>
<ellipse fill="none" stroke="black" cx="67.75" cy="-18" rx="34.39" ry="18"/>
<text text-anchor="middle" x="67.75" y="-14.3" font-family="Times,serif" font-size="14.00">store</text>
</g>
<!-- dst_coerce&#45;&gt;inst0 -->
<g id="edge6" class="edge">
<title>dst_coerce&#45;&gt;inst0</title>
<path fill="none" stroke="black" d="M40.1,-72.76C44.4,-64.4 49.74,-54.02 54.58,-44.61"/>
<polygon fill="black" stroke="black" points="57.73,-46.13 59.19,-35.63 51.51,-42.93 57.73,-46.13"/>
</g>
<!-- src1_coerce -->
<g id="node2" class="node">
<title>src1_coerce</title>
<ellipse fill="none" stroke="black" cx="35.75" cy="-234" rx="30.59" ry="18"/>
<text text-anchor="middle" x="35.75" y="-230.3" font-family="Times,serif" font-size="14.00">src1</text>
</g>
<!-- conv_i -->
<g id="node4" class="node">
<title>conv_i</title>
<ellipse fill="none" stroke="black" cx="35.75" cy="-162" rx="36" ry="18"/>
<text text-anchor="middle" x="35.75" y="-158.3" font-family="Times,serif" font-size="14.00">trunc</text>
</g>
<!-- src1_coerce&#45;&gt;conv_i -->
<g id="edge1" class="edge">
<title>src1_coerce&#45;&gt;conv_i</title>
<path fill="none" stroke="black" d="M35.75,-215.7C35.75,-207.98 35.75,-198.71 35.75,-190.11"/>
<polygon fill="black" stroke="black" points="39.25,-190.1 35.75,-180.1 32.25,-190.1 39.25,-190.1"/>
</g>
<!-- src2_coerce -->
<g id="node3" class="node">
<title>src2_coerce</title>
<ellipse fill="none" stroke="black" cx="173.75" cy="-234" rx="30.59" ry="18"/>
<text text-anchor="middle" x="173.75" y="-230.3" font-family="Times,serif" font-size="14.00">src2</text>
</g>
<!-- call_i -->
<g id="node5" class="node">
<title>call_i</title>
<ellipse fill="none" stroke="black" cx="173.75" cy="-162" rx="84.49" ry="18"/>
<text text-anchor="middle" x="173.75" y="-158.3" font-family="Times,serif" font-size="14.00">read_memory_8</text>
</g>
<!-- src2_coerce&#45;&gt;call_i -->
<g id="edge2" class="edge">
<title>src2_coerce&#45;&gt;call_i</title>
<path fill="none" stroke="black" d="M173.75,-215.7C173.75,-207.98 173.75,-198.71 173.75,-190.11"/>
<polygon fill="black" stroke="black" points="177.25,-190.1 173.75,-180.1 170.25,-190.1 177.25,-190.1"/>
</g>
<!-- add_i -->
<g id="node6" class="node">
<title>add_i</title>
<ellipse fill="none" stroke="black" cx="104.75" cy="-90" rx="27.9" ry="18"/>
<text text-anchor="middle" x="104.75" y="-86.3" font-family="Times,serif" font-size="14.00">add</text>
</g>
<!-- conv_i&#45;&gt;add_i -->
<g id="edge4" class="edge">
<title>conv_i&#45;&gt;add_i</title>
<path fill="none" stroke="black" d="M51.06,-145.46C60.52,-135.87 72.79,-123.42 83.22,-112.84"/>
<polygon fill="black" stroke="black" points="85.89,-115.11 90.42,-105.54 80.91,-110.2 85.89,-115.11"/>
</g>
<!-- call_i&#45;&gt;add_i -->
<g id="edge3" class="edge">
<title>call_i&#45;&gt;add_i</title>
<path fill="none" stroke="black" d="M157.04,-144.05C147.89,-134.77 136.44,-123.15 126.58,-113.15"/>
<polygon fill="black" stroke="black" points="128.93,-110.55 119.42,-105.89 123.95,-115.47 128.93,-110.55"/>
</g>
<!-- add_i&#45;&gt;inst0 -->
<g id="edge5" class="edge">
<title>add_i&#45;&gt;inst0</title>
<path fill="none" stroke="black" d="M96.17,-72.76C91.75,-64.4 86.26,-54.02 81.28,-44.61"/>
<polygon fill="black" stroke="black" points="84.31,-42.84 76.54,-35.63 78.12,-46.11 84.31,-42.84"/>
</g>
</g>
</svg>
